<svg width="500" height="376" viewBox="0 0 500 376" fill="none" xmlns="http://www.w3.org/2000/svg">
<g clip-path="url(#clip0_5902_55216)">
<path d="M482.967 335.517C482.967 335.517 482.967 335.115 482.967 334.333C482.967 333.551 482.967 332.399 482.967 330.911C482.967 327.891 482.967 323.481 482.967 317.81C482.967 306.47 482.967 290.132 482.869 270.069L483.054 270.253H369.941L370.169 270.025C370.169 293.185 370.169 315.323 370.169 335.473L369.952 335.256L451.313 335.365L474.679 335.419H480.903H480.958H474.766L451.346 335.658L369.875 335.767H369.658V335.549C369.658 315.399 369.658 293.261 369.658 270.101V269.873H369.897L483.011 269.928H483.184V270.101C483.184 290.208 483.108 306.589 483.087 317.952C483.087 323.6 483.087 328.011 483.087 330.987C483.087 332.475 483.087 333.605 483.087 334.387C483.087 335.169 482.967 335.517 482.967 335.517Z" fill="#5C7CFA"/>
<path d="M483.011 277.999C483.011 278.118 457.701 278.227 426.525 278.227C395.349 278.227 370.039 278.118 370.039 277.999C370.039 277.879 395.338 277.76 426.525 277.76C457.712 277.76 483.011 277.868 483.011 277.999Z" fill="#5C7CFA"/>
<path d="M414.586 288.785H379.641V323.731H414.586V288.785Z" fill="#EDF2FF"/>
<path d="M474.755 294.553C474.585 294.572 474.414 294.572 474.244 294.553H472.767L467.336 294.629L449.456 294.695L431.576 294.629L426.144 294.553H424.678C424.505 294.571 424.33 294.571 424.156 294.553C424.327 294.513 424.502 294.495 424.678 294.499H426.144L431.576 294.434L449.456 294.358L467.336 294.434L472.767 294.499H474.244C474.416 294.494 474.588 294.512 474.755 294.553Z" fill="#5C7CFA"/>
<path d="M475.885 302.353C475.712 302.378 475.536 302.378 475.363 302.353H473.853L468.313 302.429L450.032 302.494L431.75 302.429L426.21 302.353H424.711C424.534 302.378 424.355 302.378 424.178 302.353C424.355 302.334 424.534 302.334 424.711 302.353H426.21L431.75 302.277L450.032 302.212L468.313 302.277L473.853 302.353H475.363C475.537 302.335 475.711 302.335 475.885 302.353Z" fill="#5C7CFA"/>
<path d="M475.885 310.163C475.711 310.181 475.537 310.181 475.363 310.163H473.853L468.313 310.239L450.032 310.304L431.75 310.239L426.21 310.163H424.711C424.534 310.182 424.355 310.182 424.178 310.163C424.355 310.14 424.534 310.14 424.711 310.163H426.21L431.75 310.098L450.032 310.022L468.313 310.098L473.853 310.163H475.363C475.536 310.141 475.712 310.141 475.885 310.163Z" fill="#5C7CFA"/>
<path d="M475.885 317.963C475.714 318.003 475.539 318.021 475.363 318.017H473.853L468.313 318.082L450.032 318.158L431.75 318.082L426.21 318.017H424.711C424.531 318.022 424.353 318.004 424.178 317.963C424.355 317.944 424.534 317.944 424.711 317.963H426.21L431.75 317.887L450.032 317.821L468.313 317.887L473.853 317.963H475.363C475.537 317.945 475.711 317.945 475.885 317.963Z" fill="#5C7CFA"/>
<path d="M435.511 162.812C453.871 144.452 453.871 114.684 435.511 96.3244C417.151 77.9644 387.384 77.9644 369.024 96.3244C350.664 114.684 350.664 144.452 369.024 162.812C387.384 181.172 417.151 181.172 435.511 162.812Z" fill="#EDF2FF"/>
<path d="M423.646 131.026C423.096 131.108 422.54 131.144 421.984 131.135L417.411 131.222C413.533 131.222 408.134 131.309 402.04 131.319H401.736V127.974C401.736 121.163 401.736 114.938 401.823 110.593C401.823 108.421 401.899 106.661 401.921 105.303C401.903 104.656 401.943 104.009 402.04 103.37C402.13 104.01 402.17 104.657 402.16 105.303C402.16 106.661 402.214 108.443 402.257 110.593C402.312 115.047 402.344 121.217 402.344 127.974V131.026L402.04 130.722C408.134 130.722 413.533 130.722 417.411 130.82L421.984 130.907C422.54 130.896 423.097 130.936 423.646 131.026Z" fill="#5C7CFA"/>
<path d="M402.149 90.28C402.447 91.5755 402.549 92.9083 402.453 94.2341C402.549 95.5599 402.447 96.8926 402.149 98.1881C401.85 96.8926 401.748 95.5599 401.844 94.2341C401.748 92.9083 401.85 91.5755 402.149 90.28Z" fill="#5C7CFA"/>
<path d="M423.57 96.6782C422.883 97.7935 422.025 98.7941 421.028 99.6437C420.17 100.611 419.17 101.442 418.062 102.11C418.753 100.997 419.61 99.9965 420.604 99.1441C421.463 98.1769 422.462 97.3455 423.57 96.6782Z" fill="#5C7CFA"/>
<path d="M436.095 110.311C435.1 111.164 434.006 111.893 432.836 112.483C431.777 113.242 430.632 113.873 429.425 114.363C430.294 113.372 431.345 112.557 432.521 111.962C433.593 111.184 434.807 110.623 436.095 110.311Z" fill="#5C7CFA"/>
<path d="M443.438 130.613C439.857 131.019 436.243 131.019 432.662 130.613C436.243 130.208 439.857 130.208 443.438 130.613Z" fill="#5C7CFA"/>
<path d="M368.757 129.896C365.38 130.302 361.966 130.302 358.589 129.896C361.966 129.491 365.38 129.491 368.757 129.896Z" fill="#5C7CFA"/>
<path d="M374.047 145.006C372.906 146.315 371.615 147.485 370.201 148.493C368.913 149.658 367.495 150.671 365.976 151.513C368.404 149.035 371.113 146.848 374.047 144.996V145.006Z" fill="#5C7CFA"/>
<path d="M387.071 156.706C386.312 158.278 385.437 159.793 384.453 161.235C383.636 162.78 382.71 164.264 381.683 165.678C382.878 162.355 384.724 159.305 387.114 156.706H387.071Z" fill="#5C7CFA"/>
<path d="M402.149 171.783C401.846 169.989 401.744 168.168 401.844 166.352C401.744 164.536 401.846 162.714 402.149 160.92C402.451 162.714 402.553 164.536 402.453 166.352C402.553 168.168 402.451 169.989 402.149 171.783Z" fill="#5C7CFA"/>
<path d="M425.362 164.603C423.716 163.854 422.213 162.825 420.92 161.561C419.494 160.449 418.271 159.101 417.302 157.575C418.704 158.679 420.045 159.858 421.321 161.105C422.73 162.198 424.079 163.365 425.362 164.603Z" fill="#5C7CFA"/>
<path d="M436.257 152.871C434.937 151.982 433.736 150.927 432.684 149.732C431.493 148.683 430.441 147.485 429.555 146.169C430.874 147.057 432.071 148.112 433.118 149.308C434.311 150.359 435.365 151.556 436.257 152.871Z" fill="#5C7CFA"/>
<path d="M373.547 115.416C372.37 114.669 371.309 113.755 370.397 112.701C369.343 111.789 368.428 110.727 367.681 109.551C368.858 110.297 369.919 111.212 370.831 112.266C371.885 113.178 372.8 114.24 373.547 115.416Z" fill="#5C7CFA"/>
<path d="M386.995 101.251C385.836 100.529 384.792 99.6351 383.899 98.6009C382.885 97.7054 382.004 96.6703 381.281 95.5267C382.437 96.2507 383.48 97.14 384.377 98.1664C385.396 99.0616 386.278 100.101 386.995 101.251Z" fill="#5C7CFA"/>
<path d="M0 133.546H80.3841C80.3841 133.546 73.2473 120.576 52.5647 122.499C32.8163 124.302 31.806 116.144 21.7254 115.145C11.6448 114.145 3.34572 121.836 0 133.546Z" fill="#EDF2FF"/>
<path d="M159.486 14.9797H224.532C224.532 14.9797 218.775 4.50804 202.046 6.02882C186.046 7.48443 185.231 0.879895 177.062 0.0760538C168.893 -0.727787 162.202 5.49655 159.486 14.9797Z" fill="#EDF2FF"/>
<path d="M348.02 52.4669C348.056 49.5854 347.318 46.747 345.882 44.2484C344.446 41.7499 342.365 39.6829 339.857 38.2636C337.349 36.8442 334.506 36.1246 331.625 36.1799C328.743 36.2352 325.93 37.0634 323.478 38.578C321.027 40.0926 319.027 42.2379 317.688 44.7897C316.349 47.3415 315.72 50.2061 315.867 53.0842C316.013 55.9622 316.931 58.748 318.522 61.1503C320.114 63.5526 322.322 65.4833 324.915 66.7405C324.915 68.6524 324.915 70.8032 324.915 70.8032L339.036 70.9661C339.036 70.9661 339.156 68.6958 339.21 66.621C341.831 65.2916 344.038 63.2695 345.592 60.7742C347.145 58.2789 347.984 55.4058 348.02 52.4669Z" fill="#748FFC"/>
<path d="M333.866 70.8358C333.861 70.7707 333.861 70.7053 333.866 70.6402C333.866 70.499 333.866 70.3144 333.942 70.0645C334.007 69.554 334.104 68.8044 334.257 67.892C334.409 66.9795 334.615 65.7194 334.941 64.4051C335.294 62.8736 335.8 61.3815 336.451 59.9513C336.827 59.1156 337.277 58.3157 337.798 57.5615C338.073 57.1501 338.446 56.8141 338.884 56.5839C339.124 56.4711 339.388 56.418 339.652 56.4294C339.917 56.4407 340.176 56.5161 340.405 56.6491C340.648 56.79 340.827 57.0197 340.905 57.29C340.989 57.5644 340.962 57.8612 340.829 58.1155C340.572 58.6283 340.123 59.0188 339.579 59.2018C339.031 59.3807 338.454 59.4488 337.879 59.4022C337.305 59.3555 336.745 59.1951 336.234 58.9302C335.697 58.654 335.222 58.2719 334.838 57.807C334.453 57.3421 334.167 56.8041 333.996 56.2254C333.802 55.6246 333.776 54.9825 333.92 54.3679C334.004 54.0449 334.197 53.7607 334.466 53.5629C334.735 53.3651 335.064 53.2658 335.397 53.2816C335.569 53.3055 335.733 53.3703 335.875 53.4704C336.016 53.5706 336.132 53.7033 336.212 53.8574C336.365 54.167 336.407 54.5197 336.331 54.8567C336.124 55.4933 335.721 56.0483 335.18 56.4427C334.665 56.8774 334.064 57.1988 333.416 57.386C332.769 57.5732 332.089 57.6219 331.421 57.5289C330.755 57.4147 330.126 57.1406 329.589 56.73C329.052 56.3195 328.622 55.7848 328.336 55.1717C328.188 54.8713 328.104 54.5433 328.089 54.2086C328.074 53.874 328.129 53.5398 328.249 53.2273C328.311 53.0649 328.407 52.9178 328.531 52.7959C328.655 52.674 328.803 52.5804 328.966 52.5212C329.129 52.4691 329.301 52.4508 329.471 52.4676C329.641 52.4845 329.806 52.536 329.955 52.619C330.244 52.7846 330.475 53.0349 330.618 53.3359C330.76 53.6278 330.841 53.9457 330.857 54.2701C330.892 54.8942 330.8 55.519 330.585 56.1059C330.176 57.2015 329.38 58.1094 328.347 58.6587C327.32 59.1888 326.139 59.3388 325.012 59.0823C324.463 58.9819 323.96 58.7078 323.579 58.3002C323.392 58.088 323.283 57.8189 323.269 57.5368C323.256 57.2547 323.338 56.9762 323.502 56.7468C323.691 56.5419 323.952 56.4174 324.23 56.3992C324.494 56.3857 324.756 56.4419 324.991 56.5622C325.424 56.8109 325.766 57.1915 325.968 57.6484C326.359 58.5283 326.674 59.3756 326.989 60.1903C328.239 63.4491 329.162 66.1322 329.716 67.9897C330.013 68.9239 330.23 69.6481 330.368 70.1623C330.433 70.4013 330.487 70.5859 330.531 70.7163C330.531 70.8466 330.531 70.9118 330.531 70.9118L330.465 70.7272L330.292 70.1732C330.129 69.6735 329.89 68.9565 329.596 68.0006C328.988 66.1539 328.087 63.4817 326.816 60.2338C326.501 59.4299 326.175 58.5609 325.784 57.7136C325.612 57.2613 325.295 56.879 324.882 56.6273C324.679 56.5051 324.438 56.4618 324.205 56.5056C323.972 56.5495 323.763 56.6775 323.618 56.8652C323.473 57.053 323.402 57.2874 323.419 57.5239C323.436 57.7605 323.539 57.9826 323.709 58.1481C324.066 58.5292 324.54 58.7812 325.056 58.8651C326.169 59.1303 327.341 58.9727 328.345 58.4228C329.348 57.8728 330.112 56.9697 330.487 55.8887C330.691 55.3256 330.776 54.7265 330.737 54.1289C330.741 53.8329 330.669 53.5409 330.528 53.2804C330.388 53.02 330.183 52.7998 329.933 52.6407C329.811 52.5658 329.673 52.5192 329.53 52.5042C329.387 52.4891 329.243 52.5061 329.108 52.5538C328.971 52.6072 328.847 52.6877 328.742 52.7904C328.638 52.893 328.555 53.0158 328.499 53.1513C328.39 53.44 328.341 53.7481 328.356 54.0565C328.371 54.3649 328.449 54.6668 328.586 54.9436C328.86 55.5266 329.27 56.0347 329.783 56.4244C330.296 56.8141 330.895 57.0738 331.53 57.1813C332.166 57.2755 332.815 57.2353 333.434 57.0631C334.053 56.891 334.63 56.5908 335.126 56.182C335.635 55.8172 336.016 55.2998 336.212 54.7046C336.279 54.4158 336.244 54.1129 336.114 53.8465C336.054 53.7168 335.961 53.6048 335.845 53.5211C335.729 53.4374 335.594 53.3849 335.451 53.3685C335.162 53.3474 334.874 53.4366 334.648 53.6184C334.422 53.8033 334.258 54.0538 334.181 54.3353C334.043 54.914 334.069 55.5197 334.257 56.0842C334.413 56.6261 334.676 57.1313 335.031 57.5701C335.385 58.0089 335.824 58.3725 336.32 58.6396C336.817 58.9067 337.362 59.072 337.924 59.1256C338.485 59.1792 339.052 59.1202 339.59 58.952C340.083 58.7891 340.498 58.4482 340.752 57.996C340.864 57.7799 340.89 57.5291 340.823 57.2949C340.756 57.0608 340.603 56.8609 340.394 56.736C340.188 56.6162 339.956 56.5478 339.718 56.5365C339.479 56.5251 339.242 56.5712 339.025 56.6708C338.589 56.8794 338.215 57.1975 337.939 57.5941C337.419 58.3371 336.968 59.1261 336.592 59.9513C335.933 61.3732 335.42 62.8581 335.06 64.3833C334.724 65.7194 334.506 66.8926 334.343 67.8594C334.181 68.8262 334.072 69.554 333.985 70.0319L333.898 70.6185C333.893 70.6916 333.882 70.7643 333.866 70.8358Z" fill="#0C1641"/>
<path d="M337.831 73.5623L325.729 73.4211C325.61 73.4226 325.491 73.4 325.38 73.3545C325.269 73.309 325.169 73.2417 325.085 73.1565C325.001 73.0713 324.934 72.9701 324.89 72.8587C324.846 72.7474 324.825 72.6284 324.828 72.5086C324.828 72.3884 324.852 72.2694 324.899 72.1585C324.945 72.0477 325.014 71.9473 325.1 71.8633C325.186 71.7793 325.288 71.7134 325.4 71.6693C325.511 71.6253 325.631 71.6041 325.751 71.607L337.852 71.7483C337.972 71.7497 338.09 71.7747 338.199 71.822C338.309 71.8694 338.408 71.9379 338.491 72.0238C338.573 72.1097 338.638 72.2112 338.682 72.3224C338.725 72.4336 338.746 72.5523 338.743 72.6716C338.743 72.7904 338.719 72.908 338.673 73.0176C338.627 73.1271 338.56 73.2262 338.475 73.3092C338.39 73.3923 338.289 73.4574 338.178 73.5009C338.068 73.5443 337.949 73.5652 337.831 73.5623Z" fill="#0C1641"/>
<path d="M337.831 74.3553L325.729 74.2141C325.488 74.214 325.257 74.3083 325.084 74.4768C324.912 74.6453 324.812 74.8746 324.806 75.1157C324.806 75.3558 324.901 75.5863 325.07 75.7571C325.238 75.9279 325.468 76.0253 325.708 76.0282H327.033L328.76 79.4065C328.856 79.5952 329.002 79.7539 329.182 79.865C329.362 79.9762 329.57 80.0355 329.781 80.0365H334.126C334.349 80.0466 334.569 79.9925 334.762 79.8808C334.955 79.7691 335.111 79.6045 335.213 79.4065L336.972 76.1477H337.831C337.949 76.1506 338.068 76.1297 338.178 76.0862C338.289 76.0427 338.389 75.9776 338.475 75.8946C338.56 75.8116 338.627 75.7124 338.673 75.6029C338.719 75.4934 338.743 75.3758 338.743 75.2569C338.74 75.0168 338.643 74.7875 338.472 74.6187C338.301 74.4499 338.071 74.3553 337.831 74.3553Z" fill="#0C1641"/>
<g opacity="0.2">
<path opacity="0.2" d="M321.732 41.9084C322.695 41.0312 323.796 40.3191 324.991 39.801C325.78 39.4464 326.619 39.2156 327.478 39.1167C328.086 39.0515 328.423 39.1167 328.456 39.247C328.488 39.3774 327.293 39.9531 325.642 41.0394C323.481 42.3713 321.748 44.2976 320.652 46.588C319.556 48.8784 319.143 51.4361 319.461 53.9551C319.657 55.9213 320.102 57.1379 319.831 57.2139C319.559 57.29 319.451 57.0401 319.114 56.5296C318.652 55.7986 318.307 54.9995 318.093 54.1615C317.744 52.9114 317.608 51.6114 317.691 50.3161C317.781 48.7078 318.183 47.1323 318.875 45.6777" fill="white"/>
</g>
<g opacity="0.2">
<path opacity="0.2" d="M332.301 39.9857C331.291 39.9857 330.39 39.6707 330.292 39.1384C330.292 38.8668 330.444 38.5844 330.813 38.3671C331.279 38.1138 331.804 37.9901 332.334 38.0087C332.869 38.0049 333.395 38.1477 333.855 38.4214C334.213 38.6496 334.398 38.932 334.344 39.2036" fill="white"/>
</g>
<path d="M334.93 79.7758C334.93 79.7758 334.615 79.6563 334.105 79.5042C332.769 79.1018 331.34 79.1284 330.02 79.5803C329.51 79.7432 329.216 79.8953 329.195 79.8736C329.424 79.687 329.685 79.5435 329.966 79.4499C330.628 79.1768 331.336 79.033 332.051 79.0263C332.766 79.013 333.476 79.1309 334.148 79.3739C334.431 79.4595 334.696 79.5956 334.93 79.7758Z" fill="#4C6EF5"/>
<path d="M336.94 76.202C336.94 76.202 334.767 76.278 332.052 76.202C329.336 76.1259 327.163 76.1042 327.163 76.0499C327.163 75.9956 329.336 75.9738 332.052 76.0499C334.767 76.1259 336.94 76.1477 336.94 76.202Z" fill="#4C6EF5"/>
<path d="M336.169 77.6358C335.773 77.7006 335.374 77.7369 334.974 77.7445C334.235 77.7445 333.214 77.8096 332.084 77.8096C330.954 77.8096 329.912 77.8096 329.195 77.8096C328.794 77.8157 328.393 77.7793 328 77.701C328.401 77.6747 328.804 77.6747 329.206 77.701H334.974C335.369 77.6389 335.769 77.6171 336.169 77.6358Z" fill="#4C6EF5"/>
<path d="M215.495 131.211H108.127V227.27H215.495V131.211Z" fill="#EDF2FF"/>
<path d="M215.505 227.27C215.505 227.27 215.505 226.651 215.505 225.488C215.505 224.326 215.505 222.588 215.505 220.339C215.505 215.831 215.505 209.238 215.44 200.786C215.44 184.004 215.364 160.019 215.31 131.156L215.56 131.395H108.193L108.486 131.113C108.486 166.058 108.486 198.94 108.486 227.172L108.225 226.922L185.883 227.042L207.793 227.107H213.594H215.082H215.603H213.648H207.891L186.046 227.172L108.225 227.302H107.975V227.053C107.975 198.809 107.975 165.939 107.975 130.993V130.7H108.269H215.636H215.875V130.95C215.82 159.877 215.777 183.906 215.755 200.732C215.755 209.107 215.701 215.679 215.69 220.176C215.69 222.349 215.69 224.109 215.69 225.282C215.69 226.455 215.505 227.27 215.505 227.27Z" fill="#5C7CFA"/>
<path d="M149.297 148.276C149.297 148.439 143.649 148.559 136.675 148.559C129.701 148.559 124.052 148.439 124.052 148.276C124.052 148.113 129.712 147.994 136.675 147.994C143.638 147.994 149.297 148.113 149.297 148.276Z" fill="#5C7CFA"/>
<path d="M194.79 155.489C194.79 155.641 179.267 155.771 160.116 155.771C140.965 155.771 125.443 155.641 125.443 155.489C125.443 155.337 140.965 155.196 160.116 155.196C179.267 155.196 194.79 155.337 194.79 155.489Z" fill="#5C7CFA"/>
<path d="M128.756 167.709H124.237V172.228H128.756V167.709Z" fill="#5C7CFA"/>
<path d="M139.89 167.709H135.371V172.228H139.89V167.709Z" fill="#5C7CFA"/>
<path d="M151.231 167.503H146.712V172.022H151.231V167.503Z" fill="#5C7CFA"/>
<path d="M162.17 167.709H157.651V172.228H162.17V167.709Z" fill="#5C7CFA"/>
<path d="M173.304 167.709H168.785V172.228H173.304V167.709Z" fill="#5C7CFA"/>
<path d="M184.438 167.709H179.919V172.228H184.438V167.709Z" fill="#5C7CFA"/>
<path d="M195.572 167.709H191.053V172.228H195.572V167.709Z" fill="#91A7FF"/>
<path d="M128.756 177.323H124.237V181.842H128.756V177.323Z" fill="#91A7FF"/>
<path d="M139.89 177.323H135.371V181.842H139.89V177.323Z" fill="#5C7CFA"/>
<path d="M151.035 177.323H146.516V181.842H151.035V177.323Z" fill="#91A7FF"/>
<path d="M162.17 177.323H157.651V181.842H162.17V177.323Z" fill="#5C7CFA"/>
<path d="M173.304 177.323H168.785V181.842H173.304V177.323Z" fill="#5C7CFA"/>
<path d="M184.644 177.117H180.125V181.635H184.644V177.117Z" fill="#5C7CFA"/>
<path d="M195.572 177.323H191.053V181.842H195.572V177.323Z" fill="#5C7CFA"/>
<path d="M128.756 186.937H124.237V191.455H128.756V186.937Z" fill="#5C7CFA"/>
<path d="M140.097 186.73H135.578V191.249H140.097V186.73Z" fill="#5C7CFA"/>
<path d="M151.035 186.937H146.516V191.455H151.035V186.937Z" fill="#5C7CFA"/>
<path d="M162.17 186.937H157.651V191.455H162.17V186.937Z" fill="#91A7FF"/>
<path d="M173.304 186.937H168.785V191.455H173.304V186.937Z" fill="#5C7CFA"/>
<path d="M184.438 186.937H179.919V191.455H184.438V186.937Z" fill="#5C7CFA"/>
<path d="M195.572 186.937H191.053V191.455H195.572V186.937Z" fill="#5C7CFA"/>
<path d="M128.756 196.561H124.237V201.08H128.756V196.561Z" fill="#5C7CFA"/>
<path d="M139.89 196.561H135.371V201.08H139.89V196.561Z" fill="#5C7CFA"/>
<path d="M151.035 196.561H146.516V201.08H151.035V196.561Z" fill="#5C7CFA"/>
<path d="M162.365 196.354H157.846V200.873H162.365V196.354Z" fill="#5C7CFA"/>
<path d="M173.304 196.561H168.785V201.08H173.304V196.561Z" fill="#5C7CFA"/>
<path d="M184.438 196.561H179.919V201.08H184.438V196.561Z" fill="#91A7FF"/>
<path d="M195.572 196.561H191.053V201.08H195.572V196.561Z" fill="#5C7CFA"/>
<path d="M128.756 206.174H124.237V210.693H128.756V206.174Z" fill="#5C7CFA"/>
<path d="M139.89 206.174H135.371V210.693H139.89V206.174Z" fill="#91A7FF"/>
<path d="M151.035 206.174H146.516V210.693H151.035V206.174Z" fill="#5C7CFA"/>
<path d="M162.17 206.174H157.651V210.693H162.17V206.174Z" fill="#5C7CFA"/>
<path d="M173.304 206.174H168.785V210.693H173.304V206.174Z" fill="#5C7CFA"/>
<path d="M184.644 205.968H180.125V210.487H184.644V205.968Z" fill="#5C7CFA"/>
<path d="M195.572 206.174H191.053V210.693H195.572V206.174Z" fill="#5C7CFA"/>
<path d="M500 369.593C500 369.756 388.114 369.876 250.016 369.876C111.919 369.876 0 369.756 0 369.593C0 369.43 111.886 369.332 250.016 369.332C388.147 369.332 500 369.441 500 369.593Z" fill="#0C1641"/>
<path d="M169.534 106.389H57.2246V163.495H169.534V106.389Z" fill="white"/>
<path d="M169.545 163.495C169.545 163.495 169.545 163.136 169.545 162.474C169.545 161.811 169.545 160.801 169.545 159.508C169.545 156.901 169.545 153.077 169.545 148.146C169.545 138.293 169.545 124.031 169.469 106.389L169.599 106.542L57.2898 106.607L57.4744 106.389C57.4744 126.388 57.4744 145.691 57.4744 163.495L57.3006 163.278L137.837 163.375L161.192 163.44H167.449H169.067H169.621H167.449H161.224L137.902 163.495L57.2572 163.593H57.0942V163.386C57.0942 145.582 57.0942 126.279 57.0942 106.281V106.053H57.2789L169.589 106.118H169.708V106.281C169.708 123.965 169.708 138.25 169.643 148.135C169.643 153.045 169.643 156.825 169.643 159.465C169.643 160.747 169.643 161.724 169.643 162.398C169.643 163.071 169.545 163.495 169.545 163.495Z" fill="#364FC7"/>
<path d="M57.4094 114.059C57.4094 113.928 82.4914 113.83 113.418 113.83C144.344 113.83 169.426 113.928 169.426 114.059C169.426 114.189 144.355 114.276 113.418 114.276C82.4806 114.276 57.4094 114.211 57.4094 114.059Z" fill="#4263EB"/>
<g opacity="0.3">
<path opacity="0.3" d="M61.9174 110.648C61.9174 110.85 61.8576 111.047 61.7454 111.215C61.6332 111.383 61.4737 111.514 61.2871 111.591C61.1005 111.668 60.8952 111.689 60.6971 111.649C60.4991 111.61 60.3171 111.512 60.1743 111.37C60.0315 111.227 59.9343 111.045 59.8949 110.847C59.8555 110.649 59.8757 110.443 59.953 110.257C60.0303 110.07 60.1611 109.911 60.3291 109.799C60.497 109.686 60.6944 109.627 60.8963 109.627C61.1672 109.627 61.4269 109.734 61.6184 109.926C61.8099 110.117 61.9174 110.377 61.9174 110.648Z" fill="#4263EB"/>
</g>
<g opacity="0.3">
<path opacity="0.3" d="M65.4584 110.648C65.4584 110.85 65.3986 111.047 65.2864 111.215C65.1742 111.383 65.0147 111.514 64.8281 111.591C64.6415 111.668 64.4362 111.689 64.2381 111.649C64.0401 111.61 63.8581 111.512 63.7153 111.37C63.5725 111.227 63.4753 111.045 63.4359 110.847C63.3965 110.649 63.4167 110.443 63.494 110.257C63.5713 110.07 63.7021 109.911 63.8701 109.799C64.038 109.686 64.2354 109.627 64.4374 109.627C64.7082 109.627 64.9679 109.734 65.1594 109.926C65.3509 110.117 65.4584 110.377 65.4584 110.648Z" fill="#4263EB"/>
</g>
<g opacity="0.3">
<path opacity="0.3" d="M68.902 110.648C68.902 110.85 68.8422 111.047 68.73 111.215C68.6178 111.383 68.4583 111.514 68.2717 111.591C68.0851 111.668 67.8798 111.689 67.6817 111.649C67.4837 111.61 67.3017 111.512 67.1589 111.37C67.0161 111.227 66.9189 111.045 66.8795 110.847C66.8401 110.649 66.8603 110.443 66.9376 110.257C67.0149 110.07 67.1458 109.911 67.3137 109.799C67.4816 109.686 67.679 109.627 67.881 109.627C68.1518 109.627 68.4115 109.734 68.603 109.926C68.7945 110.117 68.902 110.377 68.902 110.648Z" fill="#4263EB"/>
</g>
<g opacity="0.3">
<path opacity="0.3" d="M98.0794 123.368H64.1226V157.325H98.0794V123.368Z" fill="#4263EB"/>
</g>
<path d="M159.791 132.525C159.791 132.645 147.461 132.742 132.275 132.742C117.089 132.742 104.76 132.645 104.76 132.525C104.76 132.406 117.078 132.297 132.275 132.297C147.472 132.297 159.791 132.351 159.791 132.525Z" fill="#4263EB"/>
<path d="M133.231 139.39C133.231 139.51 126.855 139.608 118.99 139.608C111.126 139.608 104.76 139.51 104.76 139.39C104.76 139.271 111.126 139.162 118.99 139.162C126.855 139.162 133.231 139.26 133.231 139.39Z" fill="#4263EB"/>
<path d="M150.796 146.31H150.329H148.982L144.05 146.375L127.756 146.44L111.462 146.375L106.531 146.31H105.194H104.727C104.879 146.268 105.037 146.25 105.194 146.256H106.531L111.462 146.18L127.756 146.114L144.05 146.18L148.982 146.256H150.329C150.486 146.251 150.644 146.269 150.796 146.31Z" fill="#4263EB"/>
<path d="M168.448 39.5838C168.448 39.7033 143.518 39.8119 112.755 39.8119C81.9916 39.8119 57.0508 39.7033 57.0508 39.5838C57.0508 39.4643 82.035 39.3665 112.755 39.3665C143.475 39.3665 168.448 39.4643 168.448 39.5838Z" fill="#364FC7"/>
<path d="M168.448 46.5033C168.448 46.6228 143.518 46.7206 112.755 46.7206C81.9916 46.7206 57.0508 46.6228 57.0508 46.5033C57.0508 46.3838 82.035 46.2752 112.755 46.2752C143.475 46.2752 168.448 46.3838 168.448 46.5033Z" fill="#364FC7"/>
<path d="M128.766 53.4229H128.039H125.942L118.262 53.488L92.9086 53.5532L67.555 53.488L59.8642 53.4229H57.7786H57.0508C57.2927 53.3971 57.5367 53.3971 57.7786 53.4229H59.8642L67.555 53.2273H92.9086L118.262 53.2925L125.942 53.3685H128.039C128.282 53.3607 128.526 53.3789 128.766 53.4229Z" fill="#364FC7"/>
<path d="M109.713 96.776H57.9199C57.6824 96.738 57.4404 96.738 57.2029 96.776H57.116L57.3224 96.8629V62.906L56.9857 63.0364H108.779C109.013 63.0689 109.251 63.0689 109.485 63.0364H109.583L109.377 62.9386V96.8954C109.377 97.0475 109.92 97.0258 109.92 96.8954V62.906C109.92 62.83 109.757 62.8191 109.713 62.8191H63.6011C61.4829 62.8191 59.332 62.7322 57.2029 62.8191H57.116C57.0509 62.8191 56.7793 62.8191 56.7793 62.9386V96.8954C56.7793 96.9715 56.9422 96.9932 56.9857 96.9932H103.087C105.26 96.9932 107.367 97.0801 109.485 96.9932H109.583C109.811 96.9932 110.083 96.776 109.713 96.776Z" fill="#364FC7"/>
<path d="M168.513 96.776H116.731C116.493 96.738 116.251 96.738 116.014 96.776H115.927L116.133 96.8629V62.906L115.796 63.0364H167.579C167.817 63.069 168.058 63.069 168.296 63.0364H168.372L168.166 62.9386V96.8954C168.166 97.0475 168.709 97.0258 168.709 96.8954V62.906C168.709 62.83 168.557 62.8191 168.502 62.8191H122.412C120.239 62.8191 118.143 62.7322 116.014 62.8191H115.927C115.862 62.8191 115.59 62.8191 115.59 62.9386V96.8954C115.59 96.9715 115.753 96.9932 115.796 96.9932H161.854C164.027 96.9932 166.134 97.0801 168.253 96.9932H168.372C168.622 96.9932 168.893 96.776 168.513 96.776Z" fill="#364FC7"/>
<path d="M101.534 343.686C100.6 339.992 103.044 336.31 105.771 333.648C108.497 330.987 111.745 328.608 113.179 325.078C115.493 319.353 112.462 311.923 116.438 307.154C118.751 304.363 122.868 303.439 124.921 300.441C125.867 298.786 126.497 296.97 126.779 295.086C129.001 285.574 133.736 276.834 140.488 269.776C140.908 278.263 139.032 286.706 135.056 294.217C133.47 297.215 131.515 300.126 130.972 303.483C130.092 308.914 133.145 314.563 131.732 319.896C130.157 326.012 123.27 330.064 122.901 336.364C122.597 341.687 127.246 346.39 126.833 351.702C126.551 353.965 125.728 356.126 124.433 358.003C120.272 364.824 114.2 369.506 105.032 369.3L93.7998 369.637L101.534 343.686Z" fill="#4263EB"/>
<path d="M101.534 343.686C100.6 339.992 103.044 336.31 105.771 333.648C108.497 330.987 111.745 328.608 113.179 325.078C115.493 319.353 112.462 311.923 116.438 307.154C118.751 304.363 122.868 303.439 124.921 300.441C125.867 298.786 126.497 296.97 126.779 295.086C129.001 285.574 133.736 276.834 140.488 269.776C140.908 278.263 139.032 286.706 135.056 294.217C133.47 297.215 131.515 300.126 130.972 303.483C130.092 308.914 133.145 314.563 131.732 319.896C130.157 326.012 123.27 330.064 122.901 336.364C122.597 341.687 127.246 346.39 126.833 351.702C126.551 353.965 125.728 356.126 124.433 358.003C120.272 364.824 114.2 369.506 105.032 369.3L93.7998 369.637L101.534 343.686Z" fill="#DBE4FF"/>
<path d="M91.4533 369.919C90.424 370.067 89.3769 370.038 88.3575 369.832C87.1152 369.643 85.8957 369.326 84.7185 368.887C83.0905 368.316 81.5702 367.475 80.2213 366.399C79.4063 365.737 78.7744 364.877 78.3855 363.901C78.0518 362.813 77.8798 361.682 77.875 360.544C77.8635 359.332 77.7837 358.12 77.636 356.916C77.4241 355.633 76.9627 354.404 76.2781 353.299C74.9746 350.964 72.7803 348.748 72.096 345.587C71.4116 342.425 71.9113 339.069 72.4545 335.745C72.9976 332.421 73.5407 328.706 72.2481 325.197C70.9554 321.688 68.6199 318.495 67.4142 314.53C66.2084 310.565 66.8058 306.22 66.5669 301.984C66.5159 299.834 66.0435 297.716 65.1764 295.748C64.2748 293.75 63.0039 291.87 62.0588 289.774C60.0927 285.537 59.7668 280.736 59.2454 276.033C58.9955 273.664 58.7348 271.275 58.485 268.852C58.3289 266.424 57.9249 264.018 57.2792 261.672C56.53 259.299 55.6451 256.97 54.6287 254.698C54.0997 253.527 53.6709 252.313 53.3469 251.07C53.1621 249.788 53.046 248.497 52.9993 247.203C52.8934 244.605 53.0097 242.003 53.3469 239.425C53.662 236.84 54.1508 234.276 54.4332 231.68C54.4332 231.528 54.4332 231.376 54.4332 231.235V230.713L54.9003 230.952C57.2696 232.178 59.325 233.932 60.9074 236.079C62.4514 238.183 63.6911 240.495 64.5898 242.945C66.4365 247.779 67.0774 252.841 68.0007 257.675C68.9241 262.508 70.0864 267.255 72.5414 271.275C73.758 273.284 75.2353 275.12 76.528 277.075C77.9413 278.984 78.91 281.185 79.3631 283.517C80.004 288.275 77.3644 292.424 77.875 296.639C78.1253 298.705 78.8141 300.694 79.8954 302.472C80.9057 304.276 82.068 305.948 83.2194 307.621C84.3731 309.268 85.3731 311.017 86.2067 312.846C86.989 314.63 87.4452 316.539 87.5536 318.484C87.8035 322.264 87.2495 325.86 87.5536 329.249C87.843 332.479 88.7658 335.62 90.2693 338.493C91.6054 341.263 93.1045 343.772 94.3646 346.206C94.9846 347.37 95.5429 348.567 96.0374 349.79C96.4862 350.936 96.8103 352.127 97.0042 353.342C97.3128 355.468 97.3128 357.626 97.0042 359.751C96.6886 362.719 95.561 365.541 93.7454 367.909C93.4649 368.26 93.1561 368.587 92.822 368.887C92.6028 369.124 92.3547 369.332 92.0834 369.506C91.6597 369.821 91.4425 369.962 91.4425 369.962C92.2355 369.31 92.9631 368.583 93.615 367.79C95.3603 365.418 96.4302 362.618 96.7109 359.686C96.9762 357.585 96.9396 355.456 96.6023 353.364C96.4003 352.178 96.0726 351.016 95.6246 349.899C95.1239 348.691 94.5619 347.509 93.9409 346.358C92.67 343.946 91.1601 341.448 89.7914 338.667C88.2466 335.746 87.2907 332.549 86.9779 329.26C86.6955 325.795 87.2386 322.188 86.9779 318.495C86.8624 316.62 86.4136 314.781 85.6527 313.064C84.829 311.279 83.8436 309.574 82.7089 307.969C81.6226 306.307 80.3734 304.623 79.3414 302.787C78.19 300.939 77.4491 298.864 77.1689 296.704C76.6583 292.229 79.2762 288.014 78.6245 283.669C78.2437 281.429 77.3597 279.305 76.0392 277.456C74.7682 275.533 73.28 273.697 72.0199 271.633C69.4998 267.494 68.2832 262.65 67.3816 257.805C66.48 252.96 65.8065 247.942 63.9924 243.205C63.1204 240.816 61.9134 238.563 60.4077 236.514C58.8944 234.451 56.9238 232.767 54.6505 231.593L55.1719 231.311V231.767C54.8677 234.385 54.3898 236.959 54.0856 239.523C53.7561 242.043 53.6398 244.587 53.738 247.127C53.814 248.376 53.8792 249.69 54.0639 250.874C54.384 252.075 54.798 253.248 55.3022 254.383C56.3301 256.675 57.2224 259.025 57.9744 261.422C58.6361 263.81 59.0475 266.26 59.2019 268.733C59.4482 271.152 59.698 273.545 59.9515 275.913C60.462 280.638 60.7879 285.364 62.678 289.448C63.6231 291.49 64.8506 293.38 65.7956 295.433C66.7013 297.491 67.1993 299.704 67.2621 301.951C67.4793 306.296 66.8927 310.522 68.0442 314.367C69.1956 318.212 71.618 321.395 72.8347 325.023C74.0513 328.651 73.5625 332.486 73.0085 335.886C72.4545 339.286 71.9222 342.556 72.5957 345.543C73.2692 348.53 75.3439 350.757 76.6909 353.147C77.3842 354.304 77.8489 355.584 78.0596 356.916C78.1992 358.135 78.2717 359.361 78.2769 360.588C78.2672 361.691 78.4209 362.789 78.7331 363.847C79.0893 364.746 79.6554 365.547 80.3842 366.182C81.6837 367.253 83.152 368.101 84.7293 368.691C85.8905 369.136 87.0906 369.47 88.314 369.691C89.0711 369.825 89.8373 369.902 90.6061 369.919C91.1818 369.908 91.4533 369.919 91.4533 369.919Z" fill="#0C1641"/>
<path d="M56.7252 237.426C56.7729 237.535 56.8093 237.648 56.8338 237.763L57.0728 238.784C57.2901 239.664 57.5399 240.957 57.9527 242.673C58.3655 244.389 59.3974 246.225 60.2556 248.55C61.2621 251.165 62.1358 253.83 62.8735 256.534C63.7208 259.532 64.4595 262.856 65.2307 266.43C65.8975 270.235 67.0855 273.931 68.7611 277.412C69.6736 279.248 70.6947 281.095 71.5094 283.115C72.3083 285.19 72.8411 287.358 73.0953 289.567C73.6345 294.139 74.4141 298.678 75.4308 303.168C77.6034 312.39 79.7759 321.156 81.6334 329.151C83.4909 337.146 85.3485 344.294 86.8367 350.344C88.3249 356.395 89.4546 361.207 90.2801 364.651L91.1818 368.539C91.2687 368.952 91.3447 369.289 91.399 369.561C91.4121 369.68 91.4121 369.8 91.399 369.919C91.3464 369.812 91.3063 369.699 91.2795 369.582C91.2035 369.311 91.1057 368.985 90.9862 368.583L89.8999 364.716C89.0201 361.294 87.7274 356.438 86.2392 350.464C84.751 344.489 82.8935 337.266 80.8839 329.314C78.8743 321.363 76.843 312.542 74.627 303.32C73.597 298.814 72.8137 294.256 72.2806 289.665C72.043 287.513 71.532 285.399 70.7598 283.376C69.9777 281.399 68.9675 279.563 68.055 277.705C66.3659 274.17 65.1812 270.414 64.5355 266.549C63.786 262.976 63.0799 259.662 62.2761 256.664C61.4722 253.666 60.6249 251.005 59.7668 248.691C58.9086 246.377 57.9853 244.465 57.5942 242.749C57.2032 241.033 57.0185 239.708 56.8447 238.806C56.7687 238.393 56.7143 238.056 56.6709 237.785C56.6744 237.664 56.6927 237.543 56.7252 237.426Z" fill="#0C1641"/>
<path d="M89.4655 369.941C82.1549 365.541 80.1344 352.289 83.2303 344.348C86.3262 336.408 91.7358 329.14 92.6048 320.667C93.2783 314.15 91.1818 307.426 92.7352 301.049C94.8425 292.457 103.283 285.842 103.239 276.978C103.239 272.013 100.415 267.321 100.665 262.367C100.98 256.284 105.673 251.505 108.595 246.138C113.07 237.959 113.418 228.258 114.982 219.058C116.546 209.857 120.109 200.037 128.3 195.562C129.451 203.383 131.482 208.738 130.776 219.318C130.516 223.12 126.062 230.366 125.421 238.697C125.03 243.673 124.748 248.658 124.422 253.634C124.096 258.609 123.748 263.41 121.988 267.94C120.641 271.405 118.48 274.555 117.47 278.14C115.569 284.875 117.98 292.207 116.383 299.029C115.08 304.819 111.039 309.783 110.181 315.66C108.986 323.905 114.276 332.519 111.506 340.372C110.126 344.272 106.889 347.39 105.955 351.42C105.227 354.548 105.955 357.872 105.325 361.012C104.239 366.074 94.5709 369.952 89.4112 369.604" fill="#BAC8FF"/>
<path d="M126.225 203.307C126.24 203.451 126.24 203.597 126.225 203.741C126.225 204.067 126.127 204.491 126.051 205.023C125.877 206.109 125.682 207.804 125.291 209.944C124.9 212.084 123.737 214.517 122.836 217.439C121.934 220.361 120.935 223.707 120.088 227.465C119.24 231.224 118.513 235.384 117.752 239.86C116.992 244.335 116.155 249.223 113.907 253.873C112.82 256.219 111.734 258.554 110.822 261.053C109.962 263.616 109.426 266.276 109.225 268.972C108.785 274.697 108.034 280.394 106.976 286.037C104.663 297.606 102.468 308.61 100.459 318.625L94.8535 345.174C93.235 352.691 91.9206 358.785 91.0081 363.065C90.541 365.129 90.1825 366.758 89.9218 367.909C89.8024 368.442 89.7046 368.854 89.6286 369.169C89.6006 369.315 89.5569 369.457 89.4982 369.593C89.486 369.448 89.486 369.303 89.4982 369.159C89.5634 368.833 89.6394 368.409 89.7263 367.888C89.9544 366.725 90.2695 365.085 90.6822 362.999C91.5404 358.72 92.7787 352.604 94.2995 345.065L99.7309 318.495L106.249 285.907C107.302 280.277 108.052 274.595 108.497 268.885C108.71 266.136 109.265 263.425 110.148 260.814C111.05 258.261 112.234 255.915 113.277 253.59C115.514 249.006 116.318 244.216 117.133 239.751C117.948 235.286 118.675 231.061 119.577 227.346C120.479 223.631 121.445 220.209 122.434 217.298C123.422 214.387 124.541 211.975 124.998 209.879C125.454 207.782 125.671 206.109 125.888 204.99C125.986 204.469 126.073 204.045 126.127 203.719C126.147 203.579 126.18 203.441 126.225 203.307Z" fill="#0C1641"/>
<path d="M426.372 212.453H418.801V236.916H426.372V212.453Z" fill="#4263EB"/>
<path d="M440.309 202.383H432.738V236.905H440.309V202.383Z" fill="#4263EB"/>
<path d="M455.148 197.691H447.576V236.916H455.148V197.691Z" fill="#4263EB"/>
<path d="M469.975 192.726H462.404V236.916H469.975V192.726Z" fill="#4263EB"/>
<path d="M368.985 175.422C371.263 174.768 373.257 173.369 374.647 171.45C376.037 169.53 376.744 167.199 376.654 164.831C376.524 162.658 375.731 160.638 375.828 158.509C375.97 155.25 378.153 152.415 379.804 149.558C381.455 146.701 382.563 142.91 380.641 140.216C379.391 138.478 377.186 137.685 375.676 136.164C374.166 134.643 373.504 132.612 372.711 130.668C371.918 128.723 370.886 126.724 369.072 125.682C367.258 124.639 364.444 125.106 363.706 127.072" fill="#0C1641"/>
<path d="M349.247 121.836C352.506 119.772 353.288 114.982 351.528 111.549C349.768 108.117 346.021 106.042 342.219 105.434C339.458 105.015 336.637 105.255 333.986 106.135C331.335 107.015 328.93 108.509 326.968 110.496C324.86 112.668 323.166 115.482 320.32 116.47C317.81 117.339 315.04 116.557 312.412 116.894C310.661 117.212 309.003 117.918 307.56 118.959C306.116 120 304.924 121.351 304.069 122.912C302.384 126.054 301.371 129.513 301.093 133.068C300.712 136.327 300.463 139.857 298.214 142.226C295.965 144.594 292.565 145.017 289.839 146.658C287.338 148.304 285.581 150.865 284.946 153.791C284.31 156.717 284.846 159.775 286.439 162.311C287.525 163.886 289.057 165.331 289.187 167.232C289.317 169.132 288.177 170.49 287.655 172.174C287.38 173.245 287.337 174.363 287.53 175.452C287.723 176.541 288.147 177.576 288.774 178.487C289.401 179.398 290.216 180.165 291.164 180.734C292.113 181.303 293.172 181.662 294.271 181.788C296.53 181.918 298.953 181.038 300.973 182.048C302.994 183.058 303.743 185.47 305.025 187.317C306.343 189.102 308.235 190.378 310.383 190.932C312.532 191.486 314.805 191.284 316.822 190.358C318.484 189.544 320.081 188.186 321.906 188.327C323.731 188.468 325.164 190.021 327.011 190.38C329.379 190.836 331.639 189.087 333.051 187.121C334.463 185.155 335.441 182.841 337.255 181.244C339.623 179.137 342.947 178.616 345.945 177.584C349.261 176.441 352.293 174.599 354.837 172.183C357.38 169.768 359.375 166.834 360.687 163.581C361.999 160.328 362.597 156.831 362.441 153.327C362.286 149.822 361.379 146.392 359.784 143.268" fill="#0C1641"/>
<path d="M356.395 126.105C357.69 126.249 358.885 126.871 359.745 127.849C360.605 128.828 361.068 130.093 361.044 131.395L357.937 201.645C357.807 209.944 345.673 214.604 336.799 214.397C327.826 214.191 327.533 209.792 327.424 201.894C327.239 188.707 327.25 183.765 327.25 183.841C327.25 183.917 315.92 181.929 313.596 167.134C312.444 159.78 312.846 147.722 313.487 137.804C314.063 128.94 320.005 118.067 328.804 119.012L356.395 126.105Z" fill="white"/>
<path d="M316.746 147.44C316.737 147.934 316.924 148.413 317.266 148.771C317.607 149.129 318.076 149.337 318.571 149.352C318.812 149.371 319.054 149.342 319.284 149.266C319.513 149.19 319.725 149.069 319.907 148.91C320.09 148.751 320.238 148.558 320.344 148.341C320.451 148.124 320.512 147.887 320.526 147.646C320.529 147.153 320.341 146.678 320 146.321C319.66 145.964 319.194 145.754 318.701 145.734C318.46 145.713 318.217 145.742 317.987 145.817C317.757 145.892 317.544 146.013 317.362 146.172C317.179 146.331 317.03 146.525 316.925 146.743C316.819 146.961 316.758 147.198 316.746 147.44Z" fill="#0C1641"/>
<path d="M316.105 144.137C316.333 144.387 317.778 143.323 319.82 143.334C321.862 143.344 323.351 144.42 323.568 144.126C323.785 143.833 323.437 143.562 322.786 143.04C321.905 142.43 320.859 142.104 319.788 142.106C318.723 142.106 317.686 142.441 316.822 143.062C316.192 143.583 315.975 144.029 316.105 144.137Z" fill="#0C1641"/>
<path d="M337.092 147.44C337.083 147.933 337.268 148.409 337.608 148.767C337.947 149.124 338.413 149.334 338.906 149.351C339.147 149.371 339.39 149.342 339.621 149.266C339.851 149.19 340.063 149.07 340.246 148.911C340.429 148.752 340.579 148.559 340.686 148.341C340.794 148.124 340.857 147.888 340.872 147.646C340.875 147.153 340.687 146.678 340.346 146.321C340.006 145.964 339.54 145.754 339.047 145.734C338.806 145.713 338.563 145.742 338.333 145.817C338.103 145.892 337.89 146.013 337.707 146.172C337.525 146.331 337.376 146.525 337.271 146.743C337.165 146.961 337.104 147.198 337.092 147.44Z" fill="#0C1641"/>
<path d="M336.147 144.561C336.386 144.811 337.831 143.757 339.862 143.768C341.893 143.779 343.403 144.854 343.62 144.55C343.838 144.246 343.501 143.985 342.838 143.518C341.962 142.899 340.913 142.572 339.84 142.584C338.776 142.576 337.738 142.907 336.875 143.529C336.256 144.007 336.038 144.474 336.147 144.561Z" fill="#0C1641"/>
<path d="M328.706 159.682C327.63 159.347 326.517 159.146 325.393 159.084C324.871 159.084 324.382 158.922 324.306 158.563C324.265 158.026 324.386 157.488 324.654 157.021C325.154 155.76 325.664 154.435 326.207 153.056C328.38 147.407 329.922 142.769 329.694 142.682C329.466 142.595 327.522 147.103 325.349 152.752L323.861 156.738C323.536 157.367 323.44 158.089 323.589 158.78C323.666 158.965 323.782 159.13 323.931 159.263C324.079 159.397 324.256 159.495 324.447 159.552C324.734 159.63 325.03 159.67 325.327 159.671C326.448 159.824 327.584 159.828 328.706 159.682Z" fill="#0C1641"/>
<path d="M327.25 183.841C334.213 183.961 341.073 182.144 347.064 178.594C347.064 178.594 342.045 189.022 327.25 187.61V183.841Z" fill="#FCE5EC"/>
<path d="M329.564 164.603C329.95 164.122 330.451 163.745 331.02 163.508C331.589 163.271 332.209 163.18 332.823 163.245C333.272 163.289 333.708 163.422 334.105 163.637C334.503 163.851 334.853 164.143 335.137 164.494C335.402 164.838 335.559 165.254 335.586 165.687C335.613 166.121 335.51 166.553 335.289 166.927C334.961 167.293 334.531 167.552 334.055 167.672C333.579 167.792 333.078 167.767 332.616 167.601C331.652 167.257 330.766 166.725 330.009 166.037C329.777 165.873 329.578 165.666 329.423 165.428C329.348 165.317 329.309 165.187 329.309 165.054C329.309 164.92 329.348 164.79 329.423 164.679" fill="#FCE5EC"/>
<path d="M334.713 161.116C334.387 161.116 334.376 163.288 332.475 164.874C330.574 166.46 328.217 166.189 328.195 166.504C328.195 166.645 328.728 166.938 329.716 166.96C331.015 166.986 332.281 166.551 333.29 165.732C334.255 164.942 334.877 163.81 335.028 162.571C335.115 161.648 334.865 161.094 334.713 161.116Z" fill="#0C1641"/>
<path d="M335.245 140.987C335.441 141.541 337.483 141.291 339.873 141.585C342.263 141.878 344.218 142.53 344.522 142.03C344.663 141.802 344.327 141.27 343.544 140.737C342.504 140.074 341.326 139.658 340.101 139.521C338.875 139.383 337.634 139.528 336.473 139.944C335.593 140.292 335.158 140.726 335.245 140.987Z" fill="#0C1641"/>
<path d="M316.854 138.239C317.213 138.695 318.614 138.239 320.309 138.239C322.003 138.239 323.426 138.554 323.763 138.065C323.904 137.837 323.676 137.37 323.057 136.979C322.217 136.454 321.241 136.19 320.252 136.219C319.262 136.248 318.303 136.569 317.495 137.142C316.887 137.533 316.692 138.011 316.854 138.239Z" fill="#0C1641"/>
<path d="M346.684 121.304C348.369 120.121 350.289 119.315 352.313 118.941C354.337 118.566 356.419 118.631 358.415 119.131C362.359 120.218 365.628 123.813 365.759 127.822C365.846 130.44 364.672 133.253 365.878 135.567C367.084 137.88 369.702 138.728 371.624 140.346C373.1 141.641 374.102 143.39 374.474 145.317C374.846 147.245 374.566 149.241 373.678 150.992C372.059 153.946 368.659 156.119 368.377 159.476C368.105 162.626 370.766 165.276 371.407 168.372C372.124 171.794 370.234 175.324 367.518 177.595C364.803 179.865 361.392 181.103 358.046 182.309C355.428 183.243 352.615 184.199 349.921 183.591C348.335 183.163 346.911 182.276 345.829 181.041C344.746 179.806 344.053 178.278 343.838 176.649C343.678 175.027 343.872 173.389 344.404 171.848C344.937 170.307 345.796 168.899 346.923 167.72C348.824 165.635 351.485 163.853 351.941 161.094C352.647 156.749 347.531 153.251 347.846 148.906C348.009 146.668 349.584 144.811 350.898 142.975C352.213 141.139 353.364 138.815 352.56 136.707C351.474 133.97 347.911 133.264 345.75 131.276C344.851 130.435 344.204 129.361 343.882 128.173C343.56 126.986 343.574 125.732 343.925 124.552C344.322 123.376 345.031 122.329 345.976 121.524C346.921 120.719 348.066 120.185 349.291 119.979" fill="#0C1641"/>
<path d="M348.28 117.969C348.284 119.455 347.96 120.924 347.333 122.271C346.705 123.618 345.788 124.81 344.647 125.763C343.507 126.716 342.171 127.406 340.733 127.784C339.296 128.163 337.793 128.22 336.331 127.952C334.072 127.539 331.595 126.399 329.64 127.604C327.685 128.81 327.467 131.949 325.675 133.557C323.068 135.817 318.919 133.698 315.605 134.643C313.053 135.404 311.456 137.902 309.761 139.901C308.067 141.9 305.514 143.909 302.961 143.16C303.035 140.858 303.374 138.573 303.971 136.349C304.583 134.103 305.953 132.138 307.849 130.787C308.967 130.208 310.054 129.574 311.108 128.886C313.226 127.17 313.715 124.193 315.03 121.804C315.891 120.264 317.106 118.952 318.576 117.977C320.046 117.003 321.728 116.393 323.481 116.198C326.392 115.894 329.39 116.774 332.225 116.057C334.322 115.525 336.147 114.167 338.276 113.765C342.404 112.972 346.249 115.938 349.247 118.903" fill="#0C1641"/>
<path d="M375.296 153.316C375.557 152.788 375.669 152.198 375.622 151.611C375.485 150.826 375.135 150.093 374.61 149.494C374.085 148.894 373.406 148.45 372.645 148.211C371.583 147.839 370.493 147.549 369.387 147.342C368.067 147.097 366.812 146.579 365.704 145.821C365.114 145.343 364.636 144.741 364.304 144.058C363.971 143.374 363.793 142.627 363.782 141.867C363.771 140.311 363.847 138.755 364.01 137.207C364.05 136.445 364.014 135.681 363.901 134.926C363.755 134.224 363.454 133.564 363.021 132.992C362.051 131.987 360.815 131.279 359.458 130.95C358.194 130.575 356.98 130.05 355.841 129.386C353.416 127.899 351.555 125.648 350.551 122.988C350.392 122.567 350.265 122.135 350.17 121.695C350.105 121.391 350.084 121.228 350.105 121.228C350.127 121.228 350.301 121.847 350.757 122.901C351.396 124.397 352.31 125.76 353.451 126.92C355.153 128.635 357.29 129.856 359.632 130.45C361.089 130.792 362.417 131.546 363.456 132.623C363.947 133.262 364.285 134.005 364.444 134.795C364.579 135.592 364.623 136.401 364.574 137.207C364.412 138.733 364.332 140.267 364.335 141.802C364.337 142.486 364.489 143.162 364.78 143.781C365.071 144.4 365.494 144.948 366.019 145.387C367.066 146.109 368.249 146.612 369.495 146.864C370.606 147.092 371.696 147.412 372.754 147.82C373.665 148.169 374.459 148.768 375.046 149.547C375.484 150.139 375.744 150.844 375.796 151.578C375.828 152.039 375.738 152.5 375.535 152.914C375.485 153.064 375.404 153.201 375.296 153.316Z" fill="#4C6EF5"/>
<path d="M288.177 162.55C288.093 162.523 288.013 162.487 287.938 162.441C287.712 162.299 287.522 162.105 287.384 161.876C287.179 161.405 287.099 160.888 287.15 160.377C287.201 159.865 287.383 159.376 287.677 158.954C288.057 158.314 288.605 157.791 289.263 157.444C290.033 157.055 290.828 156.717 291.642 156.434C292.559 156.138 293.405 155.657 294.13 155.022C294.878 154.254 295.374 153.276 295.553 152.219C295.803 151.133 295.879 149.895 296.074 148.635C296.236 147.288 296.741 146.005 297.541 144.909C299.268 142.638 302.092 141.433 304.2 139.303C305.252 138.186 306.039 136.846 306.502 135.382C307.01 133.84 307.373 132.255 307.589 130.646C308.045 127.387 308.501 123.759 310.695 120.783C311.761 119.293 313.353 118.264 315.149 117.904C316.861 117.663 318.601 117.707 320.298 118.034C321.883 118.336 323.501 118.431 325.11 118.317C326.626 118.144 328.025 117.421 329.043 116.285C331.063 114.113 332.225 111.18 334.702 109.67C335.81 108.995 337.045 108.554 338.331 108.374C339.616 108.195 340.925 108.281 342.176 108.627C344.251 109.212 346.017 110.584 347.096 112.451C347.912 113.835 348.353 115.407 348.378 117.013C348.405 118.019 348.243 119.021 347.9 119.968C347.786 120.296 347.641 120.613 347.466 120.913C347.466 120.913 347.596 120.576 347.792 119.935C348.086 118.991 348.207 118.001 348.15 117.013C348.08 115.477 347.624 113.982 346.825 112.668C345.764 110.897 344.059 109.604 342.067 109.062C340.871 108.749 339.624 108.683 338.403 108.87C337.181 109.057 336.01 109.492 334.963 110.148C333.82 110.886 332.837 111.846 332.073 112.972C331.262 114.241 330.366 115.453 329.39 116.6C328.29 117.816 326.783 118.589 325.154 118.773C323.498 118.9 321.832 118.808 320.2 118.501C318.56 118.191 316.879 118.15 315.225 118.382C313.561 118.713 312.088 119.669 311.108 121.054C310.12 122.454 309.405 124.027 309.001 125.692C308.609 127.329 308.308 128.987 308.099 130.657C307.889 132.298 307.526 133.917 307.013 135.491C306.516 137.025 305.681 138.428 304.569 139.597C302.342 141.769 299.539 142.986 297.921 145.115C297.148 146.143 296.661 147.357 296.509 148.635C296.302 149.862 296.215 151.079 295.944 152.23C295.757 153.403 295.211 154.489 294.38 155.337C293.607 155.986 292.713 156.477 291.751 156.782C290.946 157.047 290.159 157.363 289.394 157.727C288.764 158.035 288.236 158.518 287.873 159.117C287.58 159.505 287.391 159.96 287.323 160.441C287.254 160.921 287.309 161.412 287.482 161.865C287.665 162.138 287.902 162.371 288.177 162.55Z" fill="#4C6EF5"/>
<path d="M251.885 264.377L278.086 261.965C278.086 261.965 294.271 219.427 314.172 209.129L327.066 231.647L299.463 283.517H245.573L251.885 264.377Z" fill="#4263EB"/>
<path d="M251.885 264.377L278.086 261.965C278.086 261.965 294.271 219.427 314.172 209.129L327.066 231.647L299.463 283.517H245.573L251.885 264.377Z" fill="#364FC7"/>
<path d="M262.248 276.38C263.561 273.462 265.209 270.706 267.158 268.168C266.6 269.666 265.871 271.095 264.985 272.426C264.232 273.848 263.313 275.175 262.248 276.38Z" fill="#EDF2FF"/>
<path d="M280.834 275.913C278.559 273.681 276.557 271.187 274.87 268.483C276.089 269.53 277.183 270.714 278.129 272.013C279.186 273.199 280.094 274.508 280.834 275.913Z" fill="#EDF2FF"/>
<path d="M284.071 266.137C283.68 263.861 283.68 261.536 284.071 259.26C284.448 261.537 284.448 263.86 284.071 266.137Z" fill="#EDF2FF"/>
<path d="M274.827 281.344C273.913 281.079 273.06 280.636 272.317 280.041C271.014 279.194 270.025 278.401 270.145 278.27C271.058 278.531 271.911 278.97 272.654 279.563C273.484 280.015 274.221 280.619 274.827 281.344Z" fill="#EDF2FF"/>
<path d="M289.893 242.239C288.864 245.465 287.476 248.566 285.755 251.483C286.79 248.258 288.178 245.158 289.893 242.239Z" fill="#EDF2FF"/>
<path d="M300.528 224.999C300.626 225.13 299.681 225.999 298.431 226.944C297.727 227.596 296.9 228.102 295.998 228.432C295.9 228.313 296.845 227.444 298.095 226.488C298.803 225.84 299.629 225.334 300.528 224.999Z" fill="#EDF2FF"/>
<path d="M339.775 280.139L353.299 225.499C354.435 220.914 357.274 216.934 361.238 214.366C365.202 211.798 369.995 210.834 374.644 211.671C379.418 212.529 383.667 215.222 386.483 219.172C389.298 223.122 390.457 228.017 389.711 232.81L381.433 286.222C380.438 291.68 377.769 296.694 373.796 300.567C369.824 304.44 364.744 306.982 359.263 307.839L348.509 309.522L339.775 280.139Z" fill="#4263EB"/>
<path d="M382.368 208.141C380.962 206.979 379.314 206.147 377.545 205.707C375.629 205.268 373.638 205.268 371.722 205.707C369.391 206.298 367.225 207.413 365.389 208.966C361.424 212.29 359.263 216.57 357.785 219.633C357.057 221.176 356.514 222.436 356.112 223.305C355.934 223.765 355.716 224.208 355.461 224.63C355.557 224.143 355.71 223.669 355.917 223.218C356.243 222.327 356.742 221.045 357.427 219.47C358.216 217.624 359.146 215.841 360.208 214.137C361.507 212.027 363.131 210.136 365.02 208.532C366.915 206.906 369.167 205.749 371.592 205.153C373.583 204.703 375.654 204.733 377.632 205.24C378.959 205.577 380.204 206.179 381.292 207.011C381.586 207.235 381.862 207.482 382.118 207.749C382.368 208.021 382.422 208.119 382.368 208.141Z" fill="#0C1641"/>
<path d="M305.753 220.437C305.753 220.437 305.644 220.622 305.384 220.937L304.221 222.327C303.222 223.533 301.788 225.293 300.159 227.574C295.83 233.444 292.693 240.105 290.925 247.181C289.035 255.513 288.948 263.312 288.622 268.907C288.492 271.709 288.362 273.979 288.242 275.544L288.079 277.347C288.075 277.557 288.042 277.765 287.982 277.966C287.958 277.757 287.958 277.545 287.982 277.336C287.982 276.858 287.982 276.25 288.036 275.533C288.09 273.882 288.155 271.633 288.242 268.885C288.47 263.301 288.492 255.469 290.415 247.051C292.17 239.907 295.368 233.198 299.811 227.335C301.484 225.075 302.972 223.348 304.026 222.186C304.547 221.599 304.971 221.165 305.264 220.861C305.409 220.7 305.573 220.557 305.753 220.437Z" fill="#0C1641"/>
<path d="M392.47 220.318C390.982 210.541 385.583 208.195 379.989 205.11C378.164 204.121 369.354 201.851 362.369 200.156C361.707 195.92 360.512 188.349 360.251 186.741C359.882 184.503 324.665 190.119 324.22 190.956C323.926 191.521 323.133 200.298 322.601 206.163L314.172 209.107L303.168 223.12L297.443 231.256C294.07 235.94 291.659 241.245 290.35 246.866C289.116 253.095 288.584 259.442 288.764 265.789L287.069 301.636L360.74 322.471L366.443 286.124L385.453 260.249C387.071 249.842 394.317 232.332 392.47 220.318Z" fill="#4263EB"/>
<path d="M329.586 207.315C329.33 206.507 329.166 205.672 329.097 204.827C328.858 203.274 328.586 201.134 328.304 198.766C328.184 197.593 328.054 196.485 327.945 195.431C327.823 194.513 327.758 193.588 327.75 192.661C327.744 192.012 327.925 191.375 328.271 190.825C328.554 190.456 328.804 190.358 328.814 190.38C328.825 190.402 328.662 190.586 328.456 190.945C328.209 191.485 328.104 192.08 328.152 192.672C328.152 193.422 328.336 194.345 328.467 195.366C328.597 196.387 328.728 197.539 328.869 198.701C329.14 201.069 329.358 203.22 329.488 204.773C329.613 205.614 329.646 206.467 329.586 207.315Z" fill="#0C1641"/>
<path d="M338.982 205.088C338.604 204.376 338.337 203.61 338.189 202.818C337.706 200.939 337.375 199.025 337.201 197.093C337.021 195.161 336.996 193.218 337.125 191.282C337.132 190.472 337.253 189.668 337.483 188.892C337.657 188.892 337.342 192.563 337.765 197.039C338.189 201.514 339.145 205.045 338.982 205.088Z" fill="#0C1641"/>
<path d="M356.46 202.557C356.708 199.855 356.653 197.133 356.297 194.443C355.733 191.79 354.881 189.208 353.755 186.741C354.295 187.346 354.732 188.036 355.048 188.783C356.78 192.315 357.465 196.269 357.025 200.178C356.971 200.997 356.78 201.801 356.46 202.557Z" fill="#0C1641"/>
<path d="M306.427 234.504C308.129 231.306 310.329 228.398 312.944 225.89C312.015 227.415 310.973 228.867 309.827 230.235C308.81 231.747 307.673 233.175 306.427 234.504Z" fill="#EDF2FF"/>
<path d="M323.025 221.002C320.914 218.891 319.088 216.514 317.593 213.93C318.71 214.923 319.696 216.055 320.526 217.298C321.505 218.427 322.344 219.671 323.025 221.002Z" fill="#EDF2FF"/>
<path d="M340.372 212.529C339.303 213.777 338.145 214.946 336.907 216.027C335.795 217.242 334.594 218.371 333.312 219.405C335.196 216.676 337.594 214.341 340.372 212.529Z" fill="#EDF2FF"/>
<path d="M335.495 202.188C334.487 201.647 333.573 200.947 332.79 200.113C331.882 199.419 331.096 198.578 330.466 197.625C331.474 198.166 332.387 198.866 333.17 199.7C334.079 200.394 334.864 201.235 335.495 202.188Z" fill="#EDF2FF"/>
<path d="M350.692 194.084C348.306 194.974 345.803 195.508 343.262 195.67C344.423 195.133 345.656 194.767 346.923 194.584C348.148 194.234 349.418 194.066 350.692 194.084Z" fill="#EDF2FF"/>
<path d="M353.733 218.134C353.392 216.904 353.231 215.631 353.255 214.354C353.099 213.085 353.132 211.8 353.353 210.541C353.694 211.771 353.852 213.045 353.82 214.321C353.983 215.589 353.954 216.875 353.733 218.134Z" fill="#EDF2FF"/>
<path d="M348.194 229.714C347.393 228.325 346.755 226.849 346.293 225.314C345.656 223.846 345.196 222.307 344.924 220.73C345.722 222.101 346.36 223.559 346.825 225.075C347.465 226.561 347.924 228.119 348.194 229.714Z" fill="#EDF2FF"/>
<path d="M333.149 237.893C332.275 236.448 331.571 234.906 331.052 233.299C330.357 231.76 329.832 230.15 329.488 228.497C330.359 229.944 331.063 231.486 331.585 233.092C332.28 234.63 332.805 236.241 333.149 237.893Z" fill="#EDF2FF"/>
<path d="M318.973 247.116C317.982 244.127 317.347 241.031 317.083 237.893C318.088 240.879 318.722 243.976 318.973 247.116Z" fill="#EDF2FF"/>
<path d="M302.146 247.485C301.227 246.239 300.461 244.886 299.865 243.455C299.11 242.106 298.516 240.674 298.095 239.186C299.019 240.426 299.785 241.776 300.376 243.205C301.14 244.554 301.734 245.991 302.146 247.485Z" fill="#EDF2FF"/>
<path d="M301.777 258.272C300.407 259.27 298.927 260.108 297.367 260.77C295.889 261.597 294.327 262.264 292.707 262.758C294.079 261.764 295.558 260.926 297.117 260.26C298.592 259.427 300.155 258.761 301.777 258.272Z" fill="#EDF2FF"/>
<path d="M301.984 275.348C300.661 272.829 299.918 270.045 299.811 267.201C300.32 268.516 300.716 269.871 300.995 271.253C301.438 272.588 301.768 273.958 301.984 275.348Z" fill="#EDF2FF"/>
<path d="M298.507 287.341C297.208 286.541 296.015 285.581 294.955 284.484C293.774 283.529 292.712 282.435 291.794 281.225C293.093 282.025 294.287 282.984 295.346 284.082C296.528 285.036 297.589 286.13 298.507 287.341Z" fill="#EDF2FF"/>
<path d="M320.689 279.172C320.689 279.335 318.234 280.041 315.323 281.344C312.412 282.648 310.185 283.973 310.098 283.832C313.173 281.405 316.82 279.808 320.689 279.194V279.172Z" fill="#EDF2FF"/>
<path d="M314.204 273.208C313.495 272.053 312.958 270.802 312.607 269.493C312.061 268.248 311.695 266.931 311.521 265.583C312.221 266.746 312.758 268 313.118 269.308C313.652 270.554 314.017 271.866 314.204 273.208Z" fill="#EDF2FF"/>
<path d="M327.359 258.533C326.53 260.369 325.534 262.126 324.382 263.779C323.392 265.537 322.235 267.196 320.928 268.733C321.757 266.896 322.753 265.14 323.904 263.486C324.898 261.731 326.055 260.072 327.359 258.533Z" fill="#EDF2FF"/>
<path d="M341.491 259.934C338.787 256.863 336.663 253.326 335.223 249.495C336.356 251.179 337.404 252.92 338.363 254.709C340.09 257.588 341.622 259.836 341.491 259.934Z" fill="#EDF2FF"/>
<path d="M349.964 245.986C348.643 246.486 347.239 246.733 345.826 246.714C344.421 246.877 342.997 246.77 341.633 246.399C343.011 246.209 344.402 246.126 345.793 246.149C347.177 245.985 348.572 245.931 349.964 245.986Z" fill="#EDF2FF"/>
<path d="M370.06 230.094C366.608 232.156 362.972 233.89 359.198 235.276C360.88 234.164 362.662 233.212 364.52 232.43C366.29 231.48 368.145 230.698 370.06 230.094Z" fill="#EDF2FF"/>
<path d="M371.396 219.981C371.865 218.423 372.506 216.921 373.308 215.505C373.949 214.01 374.758 212.592 375.72 211.28C375.257 212.84 374.615 214.342 373.808 215.755C373.175 217.255 372.366 218.673 371.396 219.981Z" fill="#EDF2FF"/>
<path d="M384.182 227.911C383.505 226.308 382.953 224.655 382.53 222.968C381.925 221.339 381.435 219.669 381.064 217.971C381.96 219.479 382.637 221.107 383.074 222.805C383.676 224.448 384.048 226.166 384.182 227.911Z" fill="#EDF2FF"/>
<path d="M386.181 238.426C383.123 239.911 379.798 240.764 376.404 240.935C378 240.393 379.629 239.954 381.281 239.621C382.886 239.113 384.523 238.714 386.181 238.426Z" fill="#EDF2FF"/>
<path d="M364.292 251.276C364.129 251.276 364.596 248.593 364.727 245.302C364.857 242.01 364.629 239.338 364.803 239.317C365.625 243.28 365.45 247.386 364.292 251.266V251.276Z" fill="#EDF2FF"/>
<path d="M359.925 264.485C358.409 263.4 357.068 262.089 355.95 260.597C354.687 259.228 353.646 257.67 352.865 255.98C352.995 255.882 354.44 257.903 356.384 260.238C358.328 262.574 360.034 264.366 359.925 264.485Z" fill="#EDF2FF"/>
<path d="M381.879 261.705C378.939 263.335 375.828 264.635 372.602 265.583C374.024 264.688 375.544 263.959 377.132 263.41C378.647 262.669 380.239 262.097 381.879 261.705Z" fill="#EDF2FF"/>
<path d="M374.014 286.569C373.745 284.59 373.669 282.589 373.786 280.595C373.708 278.597 373.825 276.596 374.134 274.62C374.389 276.605 374.462 278.608 374.351 280.606C374.422 282.6 374.309 284.596 374.014 286.569Z" fill="#EDF2FF"/>
<path d="M357.155 285.146C357.435 280.994 358.454 276.926 360.164 273.132C359.773 275.159 359.276 277.164 358.676 279.139C357.84 282.431 357.318 285.168 357.155 285.146Z" fill="#EDF2FF"/>
<path d="M357.937 291.675C357.937 291.838 355.233 292.088 351.93 292.642C348.628 293.196 345.978 293.804 345.934 293.652C347.821 292.856 349.81 292.329 351.843 292.088C353.844 291.656 355.897 291.517 357.937 291.675Z" fill="#EDF2FF"/>
<path d="M339.297 287.482C340.233 286.113 341.327 284.859 342.556 283.745C343.635 282.496 344.852 281.374 346.184 280.399C345.244 281.765 344.15 283.019 342.925 284.136C341.843 285.382 340.626 286.504 339.297 287.482Z" fill="#EDF2FF"/>
<path d="M327.218 299.235C326.647 297.845 326.158 296.424 325.751 294.977C325.167 293.598 324.659 292.187 324.23 290.751C325.957 293.267 326.987 296.193 327.218 299.235Z" fill="#EDF2FF"/>
<path d="M346.705 305.948C343.01 304.705 339.439 303.12 336.038 301.212C337.913 301.737 339.732 302.442 341.469 303.32C343.299 304.017 345.053 304.898 346.705 305.948Z" fill="#EDF2FF"/>
<path d="M312.738 303.971C313.237 301.275 314.107 298.662 315.323 296.205C315.158 297.569 314.815 298.905 314.302 300.18C313.958 301.51 313.432 302.786 312.738 303.971Z" fill="#EDF2FF"/>
<path d="M335.115 307.762C335.115 307.925 331.997 307.426 328.163 307.23C324.328 307.035 321.189 307.23 321.178 307.024C325.824 306.297 330.571 306.549 335.115 307.762Z" fill="#EDF2FF"/>
<path d="M339.775 275.728C339.775 275.728 339.775 275.587 339.775 275.305C339.768 274.885 339.827 274.468 339.949 274.066C340.12 273.397 340.544 272.821 341.133 272.459C341.93 271.986 342.875 271.827 343.783 272.013L343.555 272.144C344.75 267.983 346.651 261.889 348.552 255.078C350.334 248.691 351.528 242.803 352.376 238.545L353.364 233.494C353.456 232.867 353.602 232.249 353.799 231.647C353.771 232.278 353.698 232.906 353.581 233.527C353.408 234.732 353.136 236.47 352.767 238.621C352.028 242.901 350.877 248.821 349.095 255.219C347.183 262.063 345.217 268.124 343.924 272.252L343.87 272.415H343.696C342.879 272.234 342.024 272.349 341.285 272.741C340.762 273.068 340.376 273.574 340.199 274.164C340.029 274.677 339.887 275.2 339.775 275.728Z" fill="#0C1641"/>
<path d="M364.129 290.838C364.031 290.838 363.369 289.415 361.957 287.221C358.356 281.471 353.256 276.81 347.205 273.74C344.891 272.578 343.371 272.057 343.403 271.959C343.777 272.002 344.142 272.097 344.489 272.241C345.472 272.561 346.433 272.942 347.368 273.382C353.617 276.285 358.832 281.026 362.315 286.971C362.842 287.861 363.314 288.782 363.727 289.73C363.905 290.082 364.04 290.454 364.129 290.838Z" fill="#0C1641"/>
<g opacity="0.2">
<path opacity="0.2" d="M344.011 271.199C347.914 271.307 351.778 272.006 355.472 273.273C359.371 274.74 362.967 277.532 364.401 281.442C364.632 281.885 364.737 282.383 364.702 282.882C364.667 283.38 364.496 283.86 364.205 284.266C363.924 284.504 363.582 284.659 363.219 284.717C362.855 284.774 362.482 284.731 362.141 284.592C361.467 284.308 360.858 283.89 360.349 283.365C357.948 281.192 355.472 279.194 352.995 277.064C350.518 274.935 346.934 272.719 343.707 272.198" fill="#0C1641"/>
</g>
<path d="M336.179 264.268C335.848 264.535 335.482 264.758 335.093 264.931C334.017 265.448 332.897 265.869 331.747 266.191C327.927 267.276 323.886 267.321 320.042 266.323C316.198 265.324 312.69 263.317 309.881 260.51C309.029 259.672 308.255 258.759 307.567 257.783C307.295 257.455 307.072 257.089 306.904 256.697C307.929 257.939 309.017 259.128 310.163 260.26C312.982 262.932 316.433 264.845 320.192 265.822C323.952 266.798 327.897 266.806 331.66 265.843C333.193 265.396 334.701 264.87 336.179 264.268Z" fill="#0C1641"/>
<g opacity="0.2">
<path opacity="0.2" d="M307.415 257.501C309.24 261.476 311.391 265.474 314.856 268.146C316.78 269.812 319.185 270.821 321.721 271.025C325.349 271.079 328.456 268.613 331.226 266.267C322.264 267.668 312.162 263.606 307.415 257.501Z" fill="#0C1641"/>
</g>
<path d="M347.607 204.219C347.433 204.219 347.607 200.493 347.194 195.942C346.781 191.39 345.858 187.773 346.032 187.729C346.382 188.468 346.634 189.25 346.781 190.054C347.698 193.893 348.064 197.844 347.868 201.786C347.896 202.605 347.808 203.424 347.607 204.219Z" fill="#0C1641"/>
<path d="M218.753 349.627C218.753 349.627 206.946 352.18 196.409 350.605C186.524 349.117 164.396 350.659 164.407 363.64C164.407 378.164 193.921 374.568 205.436 372.265C216.95 369.962 228.41 367.92 228.41 367.92L218.753 349.627Z" fill="#4263EB"/>
<path d="M192.27 368.246C191.143 364.922 190.371 361.489 189.967 358.003C190.621 359.634 191.098 361.331 191.39 363.065C191.87 364.755 192.165 366.492 192.27 368.246Z" fill="#0C1641"/>
<path d="M196.289 368.431C195.437 365.013 194.956 361.513 194.855 357.992C195.694 361.412 196.175 364.911 196.289 368.431Z" fill="#0C1641"/>
<path d="M200.178 366.91C199.71 365.441 199.429 363.919 199.342 362.38C199.067 360.865 198.975 359.322 199.07 357.785C199.537 359.254 199.818 360.776 199.907 362.315C200.181 363.83 200.273 365.373 200.178 366.91Z" fill="#0C1641"/>
<path d="M206.283 365.389C204.92 362.935 204.244 360.157 204.328 357.351C204.751 358.666 205.082 360.009 205.316 361.37C205.727 362.687 206.05 364.03 206.283 365.389Z" fill="#0C1641"/>
<path d="M207.586 360.077C208.093 359.969 208.613 359.936 209.129 359.98C210.547 360.018 211.949 360.29 213.278 360.783C213.736 360.946 214.165 361.181 214.549 361.479C214.782 361.643 214.974 361.857 215.113 362.105C215.252 362.353 215.334 362.629 215.353 362.912C215.329 363.226 215.237 363.53 215.084 363.804C214.93 364.078 214.72 364.316 214.466 364.501C214.212 364.686 213.92 364.813 213.612 364.875C213.304 364.936 212.987 364.93 212.681 364.857C211.426 364.525 210.332 363.754 209.596 362.684C208.761 361.615 208.168 360.377 207.858 359.056C207.523 357.782 207.464 356.451 207.687 355.152C207.91 353.853 208.409 352.618 209.151 351.528C209.375 351.258 209.686 351.074 210.031 351.007C210.206 350.979 210.385 350.992 210.555 351.044C210.725 351.097 210.88 351.188 211.008 351.311C211.434 351.736 211.695 352.298 211.747 352.897C211.88 353.883 211.829 354.885 211.595 355.852C211.272 357.232 210.603 358.507 209.65 359.556C209.385 359.836 209.094 360.09 208.781 360.316C208.575 360.468 208.455 360.544 208.445 360.523C208.434 360.501 208.846 360.153 209.531 359.436C210.403 358.375 211.006 357.119 211.291 355.776C211.485 354.854 211.514 353.905 211.378 352.973C211.322 352.494 211.108 352.046 210.769 351.702C210.687 351.639 210.593 351.593 210.493 351.568C210.392 351.543 210.288 351.539 210.186 351.557C210.084 351.574 209.986 351.612 209.9 351.669C209.813 351.726 209.739 351.8 209.683 351.887C209.015 352.919 208.569 354.078 208.372 355.292C208.176 356.506 208.234 357.747 208.542 358.937C208.839 360.179 209.394 361.345 210.172 362.358C210.826 363.325 211.793 364.038 212.909 364.379C213.143 364.438 213.386 364.447 213.623 364.405C213.86 364.364 214.085 364.273 214.285 364.139C214.485 364.005 214.654 363.83 214.782 363.626C214.91 363.423 214.994 363.194 215.027 362.956C215.011 362.741 214.948 362.533 214.843 362.346C214.738 362.158 214.593 361.995 214.419 361.87C214.091 361.6 213.725 361.381 213.333 361.218C212.046 360.706 210.693 360.38 209.314 360.251C208.14 360.11 207.586 360.121 207.586 360.077Z" fill="#0C1641"/>
<path d="M227.237 365.997C227.237 365.997 227.139 365.997 226.944 366.095L226.053 366.312L222.631 367.095C219.655 367.757 215.343 368.67 209.976 369.713C204.61 370.755 198.19 371.885 191.01 372.895C187.244 373.505 183.423 373.694 179.615 373.46C177.584 373.33 175.577 372.947 173.641 372.32C172.65 371.988 171.693 371.563 170.784 371.049C169.825 370.534 168.97 369.845 168.264 369.017V369.072C167.866 368.707 167.519 368.29 167.232 367.833C166.683 366.879 166.346 365.817 166.243 364.721C166.139 363.625 166.273 362.519 166.634 361.479C167.348 359.474 168.675 357.745 170.425 356.536C172.066 355.368 173.88 354.466 175.802 353.864C176.747 353.603 177.66 353.277 178.594 353.06C179.528 352.843 180.452 352.625 181.375 352.506C188.772 351.333 195.496 351.93 201.091 351.93C203.893 351.93 206.424 351.93 208.695 351.767C210.59 351.642 212.476 351.402 214.343 351.05L216.375 350.627L217.841 350.203L218.753 349.964L219.068 349.888L218.775 350.018L217.884 350.312L216.418 350.79L214.387 351.268C212.515 351.657 210.622 351.929 208.716 352.082C206.544 352.256 203.937 352.354 201.112 352.332C195.507 352.332 188.783 351.832 181.483 353.017C180.571 353.147 179.669 353.397 178.746 353.581C177.823 353.766 176.921 354.114 175.998 354.374C174.131 354.966 172.368 355.846 170.773 356.981C169.12 358.124 167.87 359.759 167.199 361.652C166.863 362.615 166.737 363.639 166.831 364.655C166.925 365.671 167.235 366.655 167.742 367.54C168.001 367.941 168.311 368.306 168.665 368.626C169.327 369.38 170.118 370.009 171.001 370.484C171.878 370.983 172.802 371.394 173.76 371.711C175.651 372.318 177.611 372.683 179.593 372.798C183.36 373.044 187.141 372.869 190.869 372.276C198.049 371.32 204.458 370.191 209.835 369.213C215.212 368.235 219.536 367.366 222.523 366.78L225.966 366.095L226.868 365.932L227.237 365.997Z" fill="#0C1641"/>
<path d="M184.069 372.993C183.893 371.999 183.798 370.993 183.786 369.984C183.656 368.116 183.428 365.552 183.048 362.728C182.667 359.904 182.211 357.372 181.853 355.548C181.607 354.566 181.432 353.567 181.331 352.56C181.744 353.486 182.05 354.455 182.244 355.45C182.83 357.824 183.287 360.228 183.612 362.652C183.941 365.076 184.133 367.517 184.188 369.962C184.265 370.974 184.224 371.991 184.069 372.993Z" fill="#0C1641"/>
<path opacity="0.4" d="M215.125 350.257L222.599 368.996L228.41 367.92L217.287 349.627L215.125 350.257Z" fill="#0C1641"/>
<path d="M312.629 298.899C311.423 299.3 234.102 277.629 202.839 268.841C198.78 267.701 194.524 267.437 190.355 268.068C186.186 268.699 182.199 270.211 178.659 272.502L178.29 272.741C173.158 276.064 169.176 280.888 166.886 286.557C164.596 292.225 164.11 298.462 165.493 304.417C166.384 308.249 168.027 311.866 170.329 315.056C172.63 318.247 175.543 320.948 178.898 323.003C199.537 335.636 243.151 362.206 244.487 361.696C246.236 361.012 300.734 359.599 300.734 359.599L235.178 312.455L266.365 332.606L312.629 298.931V298.899Z" fill="#0C1641"/>
<path d="M248.072 275.37L264.507 266.864L280.628 276.999L340.97 278.965L349.66 308.295L262.324 288.058C262.324 288.058 246.432 289.459 245.237 285.885C244.042 282.311 248.072 275.37 248.072 275.37Z" fill="white"/>
<path d="M297.508 322.449L289.394 349.128L290.393 357.253C297.546 364.461 307.081 368.814 317.213 369.498C327.344 370.182 337.378 367.149 345.435 360.968C350.425 357.13 354.463 352.194 357.236 346.542C360.009 340.89 361.443 334.675 361.424 328.38L361.305 300.506L297.508 322.449Z" fill="#0C1641"/>
<path d="M249.136 322.623C249.039 322.753 239.61 315.877 228.074 307.274C216.537 298.67 207.261 291.588 207.348 291.458C207.434 291.327 216.874 298.203 228.41 306.817C239.947 315.432 249.234 322.492 249.136 322.623Z" fill="#4C6EF5"/>
<path d="M263.399 272.198C260.785 273.328 258.1 274.286 255.361 275.066C252.68 276.031 249.936 276.811 247.148 277.401C249.761 276.268 252.447 275.31 255.187 274.533C257.869 273.571 260.612 272.791 263.399 272.198Z" fill="#0C1641"/>
<path d="M264.627 277.206C263.711 277.452 262.778 277.626 261.835 277.727C260.097 278.01 257.718 278.433 255.111 279.031C252.504 279.628 250.179 280.291 248.507 280.79C247.616 281.125 246.696 281.376 245.758 281.54C246.586 281.078 247.465 280.714 248.376 280.454C250.541 279.681 252.75 279.039 254.992 278.531C257.228 278.006 259.496 277.621 261.781 277.379C262.719 277.207 263.675 277.149 264.627 277.206Z" fill="#0C1641"/>
<path d="M263.258 281.801C260.283 282.677 257.258 283.374 254.199 283.886C251.181 284.587 248.123 285.095 245.041 285.407C248.014 284.536 251.035 283.844 254.09 283.332C257.112 282.636 260.174 282.125 263.258 281.801Z" fill="#0C1641"/>
<path d="M241.934 235.96L257.142 285.842C257.225 286.121 257.391 286.368 257.618 286.55C257.845 286.733 258.123 286.842 258.413 286.863L299.691 289.969C300.054 289.997 300.392 290.159 300.64 290.425C300.887 290.691 301.026 291.04 301.028 291.403V293.989C301.028 294.18 300.99 294.37 300.916 294.546C300.842 294.723 300.733 294.883 300.597 295.018C300.46 295.152 300.298 295.258 300.121 295.33C299.943 295.401 299.753 295.436 299.561 295.433L186.589 293.261C186.302 293.257 186.023 293.167 185.789 293.002C185.554 292.838 185.375 292.606 185.274 292.337L165.407 240.305C165.326 240.092 165.297 239.862 165.321 239.636C165.346 239.409 165.424 239.191 165.549 239.001C165.674 238.81 165.843 238.652 166.041 238.538C166.239 238.425 166.461 238.361 166.688 238.35L240.468 234.895C240.797 234.879 241.122 234.975 241.389 235.169C241.656 235.363 241.848 235.642 241.934 235.96Z" fill="#BAC8FF"/>
<path d="M210.107 257.446C209.565 257.659 209.085 258.001 208.706 258.442C208.327 258.883 208.062 259.41 207.934 259.977C207.879 260.579 207.984 261.185 208.24 261.733C208.496 262.281 208.892 262.751 209.39 263.095C209.987 263.523 210.696 263.766 211.431 263.793C212.165 263.82 212.891 263.63 213.517 263.247C214.146 262.779 214.596 262.111 214.794 261.352C214.991 260.594 214.924 259.791 214.604 259.076C214.104 257.696 211.584 256.729 210.117 257.446" fill="#91A7FF"/>
<path d="M228.41 367.92L216.461 348.291L304.232 279.498C309.694 275.022 316.373 272.287 323.405 271.644C328.529 271.176 333.694 271.836 338.537 273.576C343.379 275.317 347.782 278.096 351.436 281.719C355.09 285.342 357.907 289.721 359.689 294.549C361.471 299.376 362.174 304.535 361.75 309.663L360.349 326.446L302.092 345.174L228.41 367.92Z" fill="#0C1641"/>
<path d="M340.97 321.297C340.902 321.378 340.826 321.451 340.742 321.515L340.014 322.112L337.222 324.339L335.191 325.947C334.452 326.533 333.583 327.033 332.682 327.706L329.76 329.705C329.249 330.064 328.673 330.433 328.163 330.791L326.425 331.878C324.035 333.301 321.46 334.93 318.549 336.407C317.104 337.157 315.627 337.983 314.063 338.754L309.218 341.057C302.527 344.098 295.042 347.162 287.026 349.888C270.992 355.417 256.165 359.393 245.552 362.608C242.89 363.39 240.49 364.129 238.393 364.781C236.297 365.433 234.472 365.998 232.962 366.497L229.562 367.583L228.671 367.855C228.575 367.897 228.472 367.923 228.367 367.931L228.66 367.801L229.529 367.475L232.886 366.269C234.352 365.737 236.145 365.183 238.252 364.466C240.359 363.749 242.738 363.021 245.389 362.206C255.991 358.893 270.786 354.852 286.797 349.334C294.803 346.618 302.277 343.577 308.947 340.557L313.802 338.287C315.356 337.526 316.833 336.712 318.278 335.962C321.2 334.517 323.774 332.91 326.175 331.508L327.924 330.476C328.478 330.129 329.01 329.759 329.521 329.39L332.453 327.424C333.366 326.805 334.246 326.273 334.995 325.697L337.048 324.143L339.905 321.971L340.655 321.417L340.97 321.297Z" fill="#4C6EF5"/>
<path d="M343.099 330.487C342.824 330.678 342.524 330.832 342.208 330.943C341.632 331.215 340.774 331.563 339.699 331.965C334.075 334.021 328.193 335.286 322.221 335.723C321.069 335.799 320.146 335.832 319.505 335.821C319.174 335.871 318.837 335.871 318.506 335.821C319.72 335.602 320.946 335.453 322.177 335.375C324.448 335.126 327.609 334.68 330.965 333.952C333.87 333.327 336.742 332.555 339.568 331.639C340.722 331.187 341.901 330.803 343.099 330.487Z" fill="#4C6EF5"/>
<path d="M300.734 282.8C300.832 282.919 282.04 297.682 258.783 315.768C235.526 333.855 216.57 348.411 216.472 348.291C216.375 348.172 235.156 333.409 258.435 315.312C281.714 297.215 300.637 282.67 300.734 282.8Z" fill="#4C6EF5"/>
<path d="M295.661 355.797C291.447 353.549 286.721 354.874 282.691 356.232C280.019 357.134 277.26 358.567 274.501 357.807C272.535 357.253 271.068 355.634 269.569 354.266C266.52 351.467 262.941 349.306 259.044 347.91C255.147 346.515 251.01 345.913 246.877 346.14C244.515 346.244 242.283 347.251 240.642 348.954C236.514 353.429 239.632 359.263 243.325 363.075C249.935 369.76 258.647 373.962 267.994 374.97C275.696 375.774 286.287 374.709 294.065 371.375C298.877 369.311 301.354 363.629 298.823 359.045C298.109 357.677 297.01 356.547 295.661 355.797Z" fill="#4263EB"/>
<g opacity="0.4">
<path opacity="0.4" d="M295.651 359.382C291.436 357.134 286.711 358.459 282.691 359.817C280.008 360.718 277.26 362.152 274.49 361.392C272.524 360.838 271.057 359.219 269.558 357.85C266.505 355.061 262.924 352.91 259.027 351.524C255.13 350.138 250.996 349.545 246.866 349.779C244.507 349.882 242.277 350.889 240.642 352.593C239.801 353.472 239.203 354.553 238.904 355.732C239.706 358.514 241.232 361.032 243.325 363.032C249.937 369.719 258.655 373.921 268.005 374.927C275.696 375.73 286.287 374.666 294.076 371.331C295.458 370.742 296.683 369.834 297.649 368.683C298.615 367.532 299.296 366.169 299.637 364.705C299.473 363.946 299.203 363.215 298.833 362.532C298.1 361.196 296.994 360.102 295.651 359.382Z" fill="#0C1641"/>
</g>
<path d="M299.648 364.705C299.436 363.815 299.068 362.969 298.562 362.206C297.955 361.344 297.188 360.607 296.302 360.034C295.148 359.241 293.823 358.731 292.435 358.546C289.307 358.176 285.69 359.502 281.659 360.588C279.672 361.109 277.499 361.913 275.142 361.62C273.954 361.47 272.811 361.074 271.785 360.458C270.757 359.819 269.787 359.092 268.885 358.285C265.603 355.176 261.669 352.839 257.37 351.441C255.508 350.82 253.591 350.376 251.646 350.116C249.956 349.878 248.241 349.878 246.551 350.116C245.161 350.322 243.823 350.791 242.608 351.496C241.701 352.044 240.887 352.734 240.196 353.538C239.633 354.255 239.115 355.006 238.643 355.787C238.973 354.922 239.438 354.115 240.023 353.397C240.708 352.547 241.526 351.813 242.445 351.224C243.683 350.468 245.055 349.959 246.486 349.725C248.215 349.479 249.971 349.479 251.7 349.725C253.687 349.961 255.645 350.398 257.544 351.029C259.641 351.717 261.664 352.612 263.584 353.701C264.608 354.27 265.591 354.909 266.528 355.613C267.462 356.341 268.353 357.155 269.254 357.937C270.132 358.72 271.073 359.429 272.068 360.056C273.029 360.636 274.103 361.006 275.218 361.142C277.39 361.435 279.563 360.686 281.551 360.153C285.548 359.067 289.242 357.796 292.5 358.231C293.764 358.413 294.976 358.859 296.055 359.54C297.135 360.221 298.06 361.122 298.768 362.185C299.135 362.768 299.396 363.412 299.539 364.086C299.599 364.287 299.636 364.495 299.648 364.705Z" fill="#0C1641"/>
<path d="M299.648 364.705C299.436 363.815 299.068 362.969 298.562 362.206C297.955 361.344 297.188 360.607 296.302 360.034C295.148 359.241 293.823 358.731 292.435 358.546C289.307 358.176 285.69 359.502 281.659 360.588C279.672 361.109 277.499 361.913 275.142 361.62C273.954 361.47 272.811 361.074 271.785 360.458C270.757 359.819 269.787 359.092 268.885 358.285C265.603 355.176 261.669 352.839 257.37 351.441C255.508 350.82 253.591 350.376 251.646 350.116C249.956 349.878 248.241 349.878 246.551 350.116C245.161 350.322 243.823 350.791 242.608 351.496C241.701 352.044 240.887 352.734 240.196 353.538C239.633 354.255 239.115 355.006 238.643 355.787C238.973 354.922 239.438 354.115 240.023 353.397C240.708 352.547 241.526 351.813 242.445 351.224C243.683 350.468 245.055 349.959 246.486 349.725C248.215 349.479 249.971 349.479 251.7 349.725C253.687 349.961 255.645 350.398 257.544 351.029C259.641 351.717 261.664 352.612 263.584 353.701C264.608 354.27 265.591 354.909 266.528 355.613C267.462 356.341 268.353 357.155 269.254 357.937C270.132 358.72 271.073 359.429 272.068 360.056C273.029 360.636 274.103 361.006 275.218 361.142C277.39 361.435 279.563 360.686 281.551 360.153C285.548 359.067 289.242 357.796 292.5 358.231C293.764 358.413 294.976 358.859 296.055 359.54C297.135 360.221 298.06 361.122 298.768 362.185C299.135 362.768 299.396 363.412 299.539 364.086C299.599 364.287 299.636 364.495 299.648 364.705Z" fill="#0C1641"/>
<path d="M247.431 363.695C248.089 363.106 248.819 362.602 249.603 362.196C251.413 361.11 253.277 360.116 255.187 359.219C257.09 358.318 259.041 357.52 261.031 356.829C261.844 356.492 262.693 356.251 263.562 356.112C262.804 356.554 262.003 356.918 261.172 357.199C259.695 357.818 257.642 358.687 255.426 359.73C253.21 360.773 251.222 361.794 249.799 362.543C249.046 362.998 248.253 363.383 247.431 363.695Z" fill="#0C1641"/>
<path d="M248.876 367.898C251.527 366.306 254.274 364.877 257.099 363.619C259.838 362.183 262.664 360.921 265.561 359.838C262.908 361.428 260.162 362.857 257.338 364.118C254.599 365.553 251.772 366.816 248.876 367.898Z" fill="#0C1641"/>
<path d="M266.31 369.734C266.234 369.865 261.748 367.181 256.295 363.749C250.842 360.316 246.518 357.427 246.573 357.296C246.627 357.166 251.146 359.838 256.599 363.271C259.944 365.259 263.185 367.416 266.31 369.734Z" fill="#0C1641"/>
<path d="M268.841 365.357C268.067 364.946 267.339 364.455 266.669 363.89C265.344 362.945 263.53 361.631 261.487 360.208C259.445 358.785 257.577 357.557 256.219 356.656C255.446 356.213 254.719 355.697 254.046 355.113C254.878 355.417 255.67 355.822 256.404 356.319C257.816 357.133 259.728 358.328 261.781 359.751C263.834 361.174 265.615 362.543 266.875 363.575C267.595 364.094 268.254 364.692 268.841 365.357Z" fill="#0C1641"/>
<path d="M267.972 107.226C266.126 108.312 263.377 107.845 261.346 107.682C259.586 107.552 257.827 107.487 256.067 107.367C252.575 107.215 249.126 106.541 245.834 105.368C242.808 104.151 240.078 102.299 237.828 99.937C236.659 98.7016 235.846 97.1729 235.475 95.513C235.104 93.8531 235.189 92.1237 235.721 90.5082C236.927 86.7171 241.359 84.6532 245.085 84.6857C246.028 84.7036 246.968 84.8201 247.887 85.0333C248.767 85.2289 249.669 85.2615 250.559 85.4353C252.38 85.7888 254.12 86.4697 255.697 87.4449C258.658 89.3565 261.344 91.6625 263.682 94.2992C266.017 96.852 268.255 99.9804 268.798 103.489C269.09 105.342 268.751 107.24 267.835 108.877C266.919 110.514 265.479 111.796 263.747 112.516C260.271 113.993 255.969 112.418 253.221 110.159C250.482 107.953 248.323 105.111 246.931 101.881C245.692 98.6429 245.77 95.0477 247.148 91.866C247.857 90.2753 248.937 88.8782 250.299 87.7925C252.091 86.2717 253.916 84.1861 256.458 84.2512C258.301 84.2529 260.121 84.657 261.791 85.4353C263.349 86.2233 264.807 87.1933 266.137 88.3247C268.846 90.6063 270.928 93.5413 272.187 96.852C272.729 98.4487 272.836 100.161 272.496 101.813C272.156 103.464 271.382 104.995 270.253 106.248C267.277 109.181 262.65 106.357 260.053 104.239C257.41 102.229 255.259 99.6432 253.764 96.6782C252.355 93.3478 251.595 89.7787 251.526 86.1631C251.486 84.0913 251.653 82.0206 252.026 79.9822C252.19 78.3296 252.761 76.7434 253.688 75.3655C254.877 73.9575 256.285 72.7507 257.859 71.7917C259.666 70.5941 261.605 69.6099 263.638 68.8588C265.906 67.9489 268.418 67.8453 270.753 68.5655C272.635 68.9153 274.461 69.5144 276.185 70.347C277.592 71.1133 278.901 72.047 280.084 73.1278C281.649 74.4545 283.103 75.9078 284.429 77.4729C286.532 80.3908 288.197 83.6003 289.372 86.9995C290.458 89.965 291.707 93.5823 290.969 96.7759C290.5 98.5451 289.557 100.153 288.242 101.425C287.047 102.718 285.95 104.119 284.69 105.336C282.137 107.581 279.191 109.334 276 110.506C272.409 111.981 268.684 113.105 264.876 113.863C261.105 114.672 257.289 115.259 253.449 115.623C251.436 115.977 249.382 116.028 247.355 115.775C245.302 115.351 242.912 115.167 241 114.287C238.09 112.904 235.667 110.674 234.048 107.889C232.31 104.923 230.398 102.37 229.529 98.9594C228.074 93.289 227.867 86.1522 230.615 80.8403C232.277 77.6467 234.884 75.7131 238.578 75.8544C241.946 76.1395 245.147 77.4428 247.757 79.5911C250.618 81.7984 253.332 84.1897 255.882 86.7497C258.631 89.2506 260.88 92.2513 262.508 95.5919C264.003 98.6696 264.979 101.973 265.398 105.368C265.832 108.964 265.322 112.483 260.966 112.972C257.403 113.418 253.786 111.582 251.189 109.301C248.542 107.06 246.396 104.288 244.889 101.164C244.129 99.4699 243.509 97.6993 242.825 95.9721C242.195 94.0499 241.801 92.0583 241.652 90.0411C241.3 88.2029 241.266 86.3178 241.554 84.4685C241.896 82.7249 242.492 81.0412 243.325 79.4716C245.059 76.0024 247.753 73.1039 251.086 71.1205C254.419 69.1372 258.252 68.1524 262.128 68.283C268.983 68.5655 274.751 74.4857 278.422 79.8192C282.55 85.8915 283.984 93.1804 280.997 100.1C280.385 101.537 279.632 102.908 278.748 104.195C277.511 105.915 275.652 107.084 273.567 107.454C269.823 108.396 265.88 108.154 262.28 106.759C259.238 105.334 256.492 103.348 254.188 100.904C251.765 98.5683 249.571 96.3089 248.485 93.0392C247.268 89.3287 246.638 85.4512 246.616 81.5464C246.728 77.4979 247.237 73.4702 248.137 69.5214C248.919 66.1199 249.431 62.6621 249.669 59.1801C249.776 55.6797 248.896 52.2198 247.127 49.1972C246.285 47.7355 245.353 46.3278 244.335 44.9825C243.393 43.5553 242.3 42.2334 241.076 41.0393C238.556 38.8016 235.243 37.5524 232.093 36.5313C228.4 35.3863 224.642 34.4613 220.839 33.7613C216.95 32.9901 213.083 32.208 209.129 31.7409C202.199 30.9153 195.17 30.3613 188.207 29.9485C180.43 29.4923 172.63 29.6444 164.842 29.6444H57.5723C57.2573 29.6444 55.8017 30.2635 56.5512 30.2635H162.539C171.348 30.2635 180.18 30.0897 188.968 30.6872C197.335 31.098 205.674 31.9464 213.952 33.2291C218.297 33.9894 222.642 34.8259 226.911 35.9665C230.974 37.0527 235.286 38.3237 238.697 40.8547C240.332 42.2085 241.753 43.8016 242.912 45.58C244.139 47.1683 245.23 48.8581 246.171 50.6311C247.934 54.2105 248.563 58.2427 247.974 62.1891C246.986 70.9444 243.944 79.3304 245.802 88.2596C246.594 92.0398 247.279 95.5702 249.875 98.5792C252.317 101.434 255.139 103.941 258.261 106.031C261.264 107.907 264.773 108.814 268.309 108.627C271.481 108.519 275.142 108.051 277.879 106.313C280.617 104.575 282.344 100.882 283.245 97.8839C284.411 94.2119 284.49 90.281 283.473 86.565C282.283 82.8537 280.338 79.4289 277.76 76.5061C275.446 73.6159 272.608 71.1874 269.395 69.3476C263.193 66.0888 254.774 67.7942 249.093 71.5201C246.092 73.5186 243.636 76.2326 241.945 79.4173C241.012 81.0724 240.348 82.8655 239.979 84.7292C239.669 86.6232 239.692 88.5566 240.044 90.443L240.49 93.7018C240.681 94.8663 241.021 96.0015 241.5 97.0801C242.155 99.1027 242.999 101.059 244.02 102.924C245.858 106.058 248.294 108.801 251.189 110.995C253.96 113.019 257.398 113.909 260.803 113.483C263.529 113.059 266.473 111.734 267.006 108.768C267.581 105.575 266.647 101.74 265.583 98.7638C264.325 94.9764 262.295 91.4918 259.619 88.5311C256.848 85.5734 253.875 82.8113 250.722 80.2646C247.974 78.0921 244.932 76.0173 241.38 75.4524C238.559 74.9392 235.647 75.3786 233.103 76.7016C230.42 78.2007 228.758 81.0467 227.911 83.9579C227.045 87.073 226.755 90.3196 227.052 93.5389C227.192 97.2177 228.114 100.825 229.757 104.119C230.637 105.759 231.756 107.291 232.745 108.855C233.629 110.276 234.728 111.551 236.003 112.636C237.261 113.755 238.711 114.638 240.283 115.243C242.492 115.826 244.734 116.28 246.996 116.6C248.93 116.981 251.244 116.394 253.199 116.209C255.154 116.025 257.294 115.775 259.336 115.427C263.338 114.774 267.295 113.878 271.188 112.744C274.675 111.758 278.05 110.411 281.257 108.725C284.592 106.889 286.884 104.249 289.426 101.501C290.859 100.196 291.917 98.5304 292.489 96.6782C292.837 95.1296 292.837 93.5232 292.489 91.9746C291.691 88.0688 290.295 84.3095 288.351 80.8295C287.527 79.0951 286.447 77.4948 285.146 76.0825C283.68 74.692 282.322 73.1495 280.801 71.8677C277.718 69.471 274.035 67.9678 270.156 67.5226C266.223 66.9578 262.813 68.6741 259.293 70.1949C257.565 71.0775 255.94 72.1486 254.448 73.3885C253.007 74.4154 251.879 75.8217 251.189 77.4512C250.567 79.2295 250.201 81.0877 250.103 82.9694C249.9 85.2172 249.958 87.4809 250.277 89.7152C250.627 93.4498 251.913 97.0361 254.014 100.143C257.403 104.684 264.17 110.398 270.167 107.226C272.926 105.77 274.37 102.294 274.338 99.2635C274.338 95.6354 271.774 91.9963 269.384 89.4871C268.035 88.069 266.505 86.8346 264.833 85.8155C264.088 85.3586 263.319 84.9416 262.53 84.5662C261.655 84.215 260.725 84.0202 259.782 83.9905C258.296 83.6866 256.767 83.6645 255.274 83.9254C253.744 84.3172 252.327 85.0611 251.135 86.0979C249.558 87.2386 248.121 88.5622 246.855 90.0411C245.786 91.5298 245.069 93.2422 244.759 95.0488C244.418 96.8743 244.45 98.7498 244.853 100.563C245.257 102.375 246.023 104.088 247.105 105.596C249.039 108.453 251.646 111.332 254.872 112.712C257.816 113.983 261.135 114.081 264.149 112.983C267.071 111.897 269.971 109.214 270.395 105.998C270.916 102.11 268.939 98.3945 266.571 95.505C264.078 92.4261 261.15 89.7257 257.881 87.4883C254.731 85.3158 250.918 84.5663 247.17 84.2295C243.823 83.9684 240.481 84.8075 237.654 86.6193C236.302 87.46 235.216 88.666 234.52 90.098C233.824 91.53 233.548 93.1296 233.722 94.712C233.939 98.4379 236.297 100.904 239.154 103.076C242.069 105.212 245.43 106.66 248.984 107.313C252.415 107.897 255.88 108.26 259.358 108.399C262.563 108.638 266.213 109.073 269.135 107.411C269.776 107.041 268.211 107.226 267.929 107.411L267.972 107.226Z" fill="#364FC7"/>
</g>
<defs>
<clipPath id="clip0_5902_55216">
<rect width="500" height="375.187" fill="white"/>
</clipPath>
</defs>
</svg>
