<svg width="600" height="356" viewBox="0 0 600 356" fill="none" xmlns="http://www.w3.org/2000/svg">
<g clip-path="url(#clip0_5902_51325)">
<path d="M517.159 354.936H75.0513C75.0513 354.936 61.0318 334.629 51.3298 294.04C41.6277 253.45 87.9874 268.192 99.8482 233.119C111.709 198.045 59.9483 205.391 64.2658 157.382C68.5833 109.372 139.781 108.461 174.255 114.921C208.729 121.381 204.445 99.2271 244.345 62.2986C284.244 25.3701 344.632 29.072 374.854 57.6856C405.077 86.2992 395.375 115.84 433.083 115.84C470.791 115.84 505.315 122.308 527.978 184.157C550.64 246.005 509.23 274.274 509.977 302.141C510.594 319.936 513 337.623 517.159 354.936Z" fill="#EDF2FF"/>
<path d="M517.159 354.936H75.0513C75.0513 354.936 61.0318 334.629 51.3298 294.04C41.6277 253.45 87.9874 268.192 99.8482 233.119C111.709 198.045 59.9483 205.391 64.2658 157.382C68.5833 109.372 139.781 108.461 174.255 114.921C208.729 121.381 204.445 99.2271 244.345 62.2986C284.244 25.3701 344.632 29.072 374.854 57.6856C405.077 86.2992 395.375 115.84 433.083 115.84C470.791 115.84 505.315 122.308 527.978 184.157C550.64 246.005 509.23 274.274 509.977 302.141C510.594 319.936 513 337.623 517.159 354.936Z" fill="#EDF2FF"/>
<path d="M211.775 141.721C210.264 136.353 203.296 136.878 203.296 136.878L203.484 140.604C207.515 139.915 210.051 144.635 210.051 144.635L211.775 141.721Z" fill="#5C7CFA"/>
<path d="M314.131 79.8066C322.216 82.2691 327.264 72.9282 327.264 72.9282L322.339 70.121C319.934 75.8667 311.857 75.1772 311.857 75.1772L314.131 79.8066Z" fill="#5C7CFA"/>
<path d="M381.24 129.876C379.681 125.419 373.804 126.224 373.804 126.224L374.165 129.367C377.538 128.547 379.911 132.429 379.911 132.429L381.24 129.876Z" fill="#5C7CFA"/>
<path d="M288.505 25.4111C286.945 20.954 281.068 21.7666 281.068 21.7666L281.429 24.9104C284.803 24.0895 287.175 27.972 287.175 27.972L288.505 25.4111Z" fill="#5C7CFA"/>
<path d="M218.456 82.466C216.897 78.009 211.02 78.8216 211.02 78.8216L211.381 81.9653C214.754 81.1445 217.126 85.0269 217.126 85.0269L218.456 82.466Z" fill="#91A7FF"/>
<path d="M170.167 179.495C178.252 181.957 183.3 172.616 183.3 172.616L178.376 169.809C175.971 175.555 167.894 174.865 167.894 174.865L170.167 179.495Z" fill="#91A7FF"/>
<path d="M400.488 80.3155C401.038 76.5725 396.573 74.9637 396.573 74.9637L395.662 77.3441C398.354 78.0336 398.6 81.6534 398.6 81.6534L400.488 80.3155Z" fill="#5C7CFA"/>
<path d="M373.615 39.2008C370.463 41.2939 372.252 45.6853 372.252 45.6853L374.624 44.7906C373.336 42.3281 375.864 39.7261 375.864 39.7261L373.615 39.2008Z" fill="#91A7FF"/>
<path d="M137.515 34.4237H136.694L136.366 29.3592L133.083 33.5782L133.723 34.399H133.075L132.746 33.9722L132.418 34.399H131.753L132.426 33.5782L129.25 29.3838L128.921 34.4319H128.101L129.57 11.449H129.504H129.422C129.385 11.4316 129.353 11.4037 129.331 11.3687C129.31 11.3338 129.298 11.2932 129.299 11.252V11.0797V7.36136L126.508 4.02885C126.089 4.07487 125.666 3.97643 125.31 3.74977C124.874 3.47765 124.565 3.04372 124.449 2.54344C124.334 2.04316 124.422 1.51751 124.694 1.08212C124.966 0.646731 125.4 0.337273 125.9 0.221824C126.401 0.106374 126.926 0.194389 127.362 0.466507C127.75 0.701774 128.042 1.06878 128.183 1.50073L130.891 2.09172C131.416 1.74226 132.026 1.54193 132.656 1.51215C133.286 1.48236 133.912 1.62423 134.467 1.92261C135.023 2.22099 135.487 2.66466 135.81 3.20622C136.132 3.74778 136.302 4.36689 136.301 4.99741V11.0468V11.2274C136.299 11.2786 136.279 11.3274 136.244 11.3651C136.21 11.4028 136.163 11.4267 136.112 11.4326L137.515 34.4237ZM132.59 11.4408L130.374 15.9553H135.077L132.902 11.4572L132.59 11.4408ZM135.463 15.5449L135.192 11.4408H133.502L135.463 15.5449ZM130.391 11.4408L130.144 15.2412L132.008 11.4408H130.366H130.391ZM129.406 26.7819L132.492 21.9226L129.98 17.8186L129.406 26.7819ZM132.804 21.4301L135.365 17.4246H130.284L132.804 21.4301ZM133.099 21.9226L136.186 26.9789L135.595 17.9499L133.099 21.9226ZM129.677 27.3154H135.816L132.796 22.3905L129.677 27.3154ZM132.746 33.1268L136.186 28.7518H129.406L132.746 33.1268Z" fill="#EDF2FF"/>
<path d="M139.978 49.2886V168.307H138.451V167.289H130.571V168.299H129.044V49.2804H130.571V54.2628L134.347 50.2161L130.842 46.3419H130.259V45.1927H138.976V46.3501H138.549L134.921 50.2572L138.451 54.1561V49.2886H139.978ZM130.571 148.755V156.676L134.347 152.629L130.842 148.755H130.571ZM134.675 152.317L138.008 148.755H131.441L134.675 152.317ZM138.221 147.59L134.667 143.666L130.998 147.598L138.221 147.59ZM134.38 143.354L130.875 139.48H130.604V147.401L134.38 143.354ZM134.675 143.042L138.008 139.472H131.441L134.675 143.042ZM138.221 138.314L134.667 134.383L130.998 138.314H138.221ZM134.38 134.071L130.875 130.196H130.604V138.084L134.38 134.071ZM134.675 133.759L138.008 130.196H131.441L134.675 133.759ZM138.221 129.031L134.667 125.107L130.965 129.055L138.221 129.031ZM134.38 124.795L130.875 120.921H130.604V128.842L134.38 124.795ZM134.675 124.484L138.008 120.913H131.441L134.675 124.484ZM138.221 119.756L134.667 115.832L130.998 119.756H138.221ZM134.38 115.512L130.875 111.638H130.604V119.559L134.38 115.512ZM134.675 115.208L138.008 111.638H131.441L134.675 115.208ZM138.221 110.48L134.667 106.549L130.998 110.48H138.221ZM134.38 106.237L130.875 102.363H130.604V110.283L134.38 106.237ZM134.675 105.925L138.008 102.363H131.441L134.675 105.925ZM138.221 101.197L134.667 97.2735L130.965 101.148L138.221 101.197ZM134.38 96.9616L130.875 93.0873H130.604V101.008L134.38 96.9616ZM134.675 96.6497L138.008 93.0791H131.441L134.675 96.6497ZM138.221 91.9218L134.667 87.9901L130.998 91.9218H138.221ZM134.38 87.6782L130.875 83.8039H130.604V91.7248L134.38 87.6782ZM134.675 87.3663L138.008 83.8039H131.441L134.675 87.3663ZM138.221 82.6384L134.667 78.7149L130.998 82.6466L138.221 82.6384ZM134.38 78.403L130.875 74.5287H130.604V82.4496L134.38 78.403ZM134.675 78.091L138.008 74.5205H131.441L134.675 78.091ZM138.221 73.3631L134.667 69.4396L130.998 73.3631H138.221ZM134.347 69.1359L130.842 65.2617H130.571V73.1826L134.347 69.1359ZM134.642 68.8322L137.975 65.2617H131.408L134.642 68.8322ZM138.188 156.881L134.634 152.958L130.965 156.889L138.188 156.881ZM138.451 156.545V148.87L134.921 152.646L138.451 156.545ZM138.451 147.261V139.595L134.921 143.371L138.451 147.261ZM138.451 137.986V130.32L134.921 134.095L138.451 137.986ZM138.451 128.703V121.036L134.921 124.812L138.451 128.703ZM138.451 119.427V111.761L134.921 115.537L138.451 119.427ZM138.451 110.152V102.486L134.921 106.253L138.451 110.152ZM138.451 100.869V93.2023L134.921 96.978L138.451 100.869ZM138.451 91.5935V83.9106L134.921 87.6864L138.451 91.5935ZM138.451 82.31V74.6026L134.921 78.3783L138.451 82.31ZM138.451 73.0348V65.3274L134.921 69.1031L138.451 73.0348ZM134.634 60.0167L130.817 64.1208H138.336L134.634 60.0167ZM138.451 63.5954V55.888L134.921 59.6637L138.451 63.5954ZM134.347 59.7048L130.842 55.8305H130.571V63.7514L134.347 59.7048ZM130.571 165.968L134.347 161.921L130.842 158.047H130.571V165.968ZM134.675 161.617L138.008 158.047H131.441L134.675 161.617ZM134.954 161.929L138.484 165.82V158.112L134.954 161.929ZM138.008 55.8223H131.441L134.675 59.3847L138.008 55.8223ZM130.965 166.124H138.188L134.634 162.2L130.965 166.124ZM134.642 49.9124L137.975 46.3419H131.408L134.642 49.9124ZM134.642 50.5363L130.826 54.6403H138.344L134.642 50.5363Z" fill="#EDF2FF"/>
<path d="M255.031 44.5772V44.7331C255.029 44.9755 254.932 45.2072 254.759 45.3779C254.587 45.5485 254.355 45.6442 254.112 45.6442H91.1392V44.1175H91.8615V36.2377H91.172V34.7109H241.25C241.945 34.7092 242.623 34.9339 243.179 35.3512L254.67 43.8466C254.784 43.9316 254.875 44.0419 254.938 44.1688C255.001 44.2957 255.033 44.4356 255.031 44.5772ZM239.945 36.2377H232.278L236.054 39.7672L239.945 36.2377ZM236.325 40.0545L240.29 43.6907V36.4675L236.325 40.0545ZM232.139 43.2803L235.701 40.0463L232.139 36.7137V43.2803ZM230.629 36.2377H222.962L226.738 39.7672L230.629 36.2377ZM227.05 40.0545L231.014 43.6907V36.4675L227.05 40.0545ZM222.864 43.2803L226.475 40.0463L222.905 36.7137L222.864 43.2803ZM221.353 36.2377H213.687L217.463 39.7672L221.353 36.2377ZM217.775 40.0545L221.731 43.6907V36.4675L217.775 40.0545ZM213.58 43.2803L217.151 40.0463L213.58 36.7137V43.2803ZM212.078 36.2377H204.412L208.179 39.7672L212.078 36.2377ZM208.491 40.0545L212.456 43.6907V36.4675L208.491 40.0545ZM204.313 43.2803L207.876 40.0463L204.313 36.7137V43.2803ZM202.803 36.2377H195.137L198.912 39.7672L202.803 36.2377ZM199.224 40.0545L203.181 43.6907V36.4675L199.224 40.0545ZM195.038 43.2803L198.6 40.0463L195.03 36.7137L195.038 43.2803ZM193.528 36.2377H185.861L189.637 39.7672L193.528 36.2377ZM189.941 40.0545L193.897 43.6907V36.4675L189.941 40.0545ZM185.755 43.2803L189.317 40.0463L185.755 36.7137V43.2803ZM184.244 36.2377H176.578L180.354 39.7672L184.244 36.2377ZM180.666 40.0545L184.614 43.6907V36.4675L180.666 40.0545ZM176.479 43.2803L180.042 40.0463L176.471 36.7137L176.479 43.2803ZM174.969 36.2377H167.303L171.078 39.7672L174.969 36.2377ZM171.39 40.0545L175.338 43.6907V36.4675L171.39 40.0545ZM167.196 43.2803L170.767 40.0463L167.196 36.7137V43.2803ZM166.039 36.5003L162.107 40.0545L166.063 43.6907L166.039 36.5003ZM167.196 44.1175H175.117L171.07 40.3417L167.196 43.8466V44.1175ZM176.479 44.1175H184.4L180.354 40.3417L176.479 43.8466V44.1175ZM185.755 44.1175H193.675L189.629 40.3417L185.755 43.8466V44.1175ZM195.038 44.1175H202.959L198.912 40.3417L195.038 43.8466V44.1175ZM204.313 44.1175H212.234L208.188 40.3417L204.313 43.8466V44.1175ZM213.588 44.1175H221.55L217.504 40.3417L213.63 43.8466L213.588 44.1175ZM222.872 44.1175H230.793L226.746 40.3417L222.872 43.8466V44.1175ZM232.147 44.1175H240.068L236.021 40.3417L232.147 43.8466V44.1175ZM165.341 36.2377H158.027L161.795 39.7672L165.694 36.2377H165.341ZM92.9942 43.2803L96.5565 40.0463L92.9942 36.7137V43.2803ZM96.8767 39.7672L100.767 36.2377H93.1009L96.8767 39.7672ZM156.435 36.2377H148.769L152.544 39.7672L156.435 36.2377ZM152.856 40.0545L156.788 43.6907V36.4675L152.856 40.0545ZM148.67 43.2803L152.232 40.0463L148.662 36.7137L148.67 43.2803ZM147.16 36.2377H139.469L143.245 39.7672L147.16 36.2377ZM143.573 40.0545L147.505 43.6907V36.4675L143.573 40.0545ZM139.387 43.2803L142.949 40.0463L139.387 36.7137V43.2803ZM137.876 36.2377H130.21L133.986 39.7672L137.876 36.2377ZM134.298 40.0545L138.229 43.6907V36.4675L134.298 40.0545ZM130.111 43.2803L133.674 40.0463L130.103 36.7137L130.111 43.2803ZM128.601 36.2377H120.935L124.711 39.7672L128.601 36.2377ZM125.022 40.0545L128.946 43.6907V36.4675L125.022 40.0545ZM120.828 43.2803L124.399 40.0463L120.828 36.7137V43.2803ZM119.326 36.2377H111.66L115.427 39.7672L119.326 36.2377ZM115.739 40.0545L119.671 43.6907V36.4675L115.739 40.0545ZM111.561 43.2803L115.123 40.0463L111.561 36.7137V43.2803ZM110.051 36.2377H102.376L106.152 39.7672L110.051 36.2377ZM106.472 40.0545L110.396 43.6907V36.4675L106.472 40.0545ZM102.286 43.2803L105.815 40.0463L102.269 36.7137L102.286 43.2803ZM97.1886 40.0545L101.112 43.6907V36.4675L97.1886 40.0545ZM102.286 44.1585H110.207L106.16 40.3828L102.286 43.8877V44.1585ZM111.561 44.1585H119.482L115.435 40.3828L111.561 43.8466V44.1585ZM120.836 44.1585H128.757L124.694 40.3417L120.82 43.8466L120.836 44.1585ZM130.12 44.1585H138.041L133.994 40.3828L130.111 43.8466L130.12 44.1585ZM139.395 44.1585H147.316L143.269 40.3828L139.395 43.8877V44.1585ZM148.678 44.1585H156.599L152.553 40.3828L148.678 43.8877V44.1585ZM157.954 43.3377L161.516 40.1037L157.954 36.7712V43.3377ZM93.0024 44.1585H100.89L96.8438 40.3828L92.9696 43.8877L93.0024 44.1585ZM165.374 44.1585H165.874L161.828 40.3828L157.954 43.8877V44.1585H165.374ZM253.669 44.1585L243.236 36.9025C242.712 36.536 242.094 36.3254 241.455 36.2951V44.1585H253.669Z" fill="#EDF2FF"/>
<path d="M124.604 34.5714C124.686 39.6523 124.522 54.9851 124.522 54.9851H142.933L142.44 51.9563C142.387 51.6467 142.387 51.3302 142.44 51.0206L143.786 44.3474L140.503 34.0707C140.403 33.751 140.203 33.4716 139.933 33.2737C139.663 33.0758 139.336 32.9696 139.001 32.9708H126.18C125.97 32.9697 125.763 33.0105 125.57 33.0909C125.376 33.1712 125.201 33.2895 125.054 33.4386C124.907 33.5878 124.792 33.7649 124.714 33.9595C124.637 34.154 124.599 34.3621 124.604 34.5714Z" fill="#DBE4FF"/>
<path d="M133.05 34.4237V45.6443H141.858L142.769 44.4295L139.354 34.4237H133.05Z" fill="#EDF2FF"/>
<path d="M241.25 34.7109C241.121 34.6497 240.986 34.6002 240.848 34.5632L239.658 34.1938L235.045 32.7984L218.07 27.7997L162 11.5065L127.058 1.44326L126.91 1.40222L126.804 1.50072L93.1011 33.1432C93.3404 32.9876 93.5681 32.8147 93.7824 32.6261C94.2174 32.2567 94.8576 31.7067 95.6702 30.9844C97.3119 29.5316 99.6758 27.3728 102.672 24.6231C108.656 19.1236 117.126 11.2602 127.157 1.8865L126.902 1.94396L161.828 12.0728L217.964 28.1937L235.004 33.02L239.608 34.3005L240.815 34.6206C240.957 34.6658 241.102 34.6961 241.25 34.7109Z" fill="#DBE4FF"/>
<path d="M85.3771 32.5276C85.1037 32.5275 84.8338 32.5895 84.5878 32.709C84.3418 32.8284 84.1261 33.0022 83.9571 33.2171C83.1363 34.276 81.8148 36.2131 81.6917 36.4101C81.5685 36.6071 81.6342 43.1326 81.6917 46.3666C81.696 46.8426 81.8881 47.2978 82.2263 47.6329C82.5645 47.968 83.0214 48.156 83.4974 48.1559H99.7906C100.272 48.1559 100.733 47.9648 101.073 47.6246C101.414 47.2844 101.605 46.823 101.605 46.3419V34.3334C101.605 33.8523 101.414 33.3909 101.073 33.0507C100.733 32.7105 100.272 32.5194 99.7906 32.5194L85.3771 32.5276Z" fill="#DBE4FF"/>
<path d="M135.25 5.38322C135.25 5.87025 135.106 6.34634 134.835 6.75129C134.565 7.15623 134.18 7.47185 133.73 7.65823C133.28 7.84461 132.785 7.89337 132.307 7.79836C131.83 7.70334 131.391 7.46882 131.046 7.12444C130.702 6.78006 130.468 6.34129 130.373 5.86362C130.277 5.38596 130.326 4.89084 130.513 4.44089C130.699 3.99093 131.015 3.60635 131.42 3.33577C131.825 3.0652 132.301 2.92078 132.788 2.92078C133.441 2.92078 134.067 3.18021 134.529 3.64201C134.991 4.10381 135.25 4.73014 135.25 5.38322Z" fill="#DBE4FF"/>
<path d="M126.369 3.54451C127.117 3.54451 127.723 2.93815 127.723 2.19016C127.723 1.44218 127.117 0.835815 126.369 0.835815C125.621 0.835815 125.014 1.44218 125.014 2.19016C125.014 2.93815 125.621 3.54451 126.369 3.54451Z" fill="white"/>
<path d="M97.747 354.952H236.21L236.21 92.1763H97.747L97.747 354.952Z" fill="#BAC8FF"/>
<path d="M162.665 92.1844H97.7471V354.96H162.665V92.1844Z" fill="#DBE4FF"/>
<path d="M194.726 147.155H207.178V116.907H194.726V147.155Z" fill="#EDF2FF"/>
<path d="M194.726 265.533H207.178V235.286H194.726V265.533Z" fill="#EDF2FF"/>
<path d="M162.674 159.024C162.674 159.286 179.139 159.5 199.438 159.5C219.737 159.5 236.21 159.286 236.21 159.024C236.21 158.761 219.753 158.556 199.438 158.556C179.123 158.556 162.674 158.761 162.674 159.024Z" fill="#EDF2FF"/>
<path d="M194.726 206.787H207.178V176.54H194.726V206.787Z" fill="#EDF2FF"/>
<path d="M203.739 40.785C199.077 41.5484 198.814 47.4747 198.814 47.4747L201.974 47.6635C201.769 44.2078 205.988 42.5416 205.988 42.5416L203.739 40.785Z" fill="#91A7FF"/>
<path d="M162.674 218.664C162.674 218.927 179.139 219.132 199.438 219.132C219.737 219.132 236.21 218.927 236.21 218.664C236.21 218.401 219.753 218.188 199.438 218.188C179.123 218.188 162.674 218.401 162.674 218.664Z" fill="#EDF2FF"/>
<path d="M136.44 147.155H148.892V116.907H136.44V147.155Z" fill="#EDF2FF"/>
<path d="M109.427 147.155H121.879V116.907H109.427V147.155Z" fill="#EDF2FF"/>
<path d="M136.44 204.546H148.892V174.299H136.44V204.546Z" fill="#EDF2FF"/>
<path d="M109.427 204.546H121.879V174.299H109.427V204.546Z" fill="#EDF2FF"/>
<path d="M136.44 261.946H148.892V231.699H136.44V261.946Z" fill="#EDF2FF"/>
<path d="M109.427 261.946H121.879V231.699H109.427V261.946Z" fill="#EDF2FF"/>
<path d="M87.3389 92.4143L246.618 92.4143V85.8314L87.3389 85.8314V92.4143Z" fill="#5C7CFA"/>
<path d="M96.7866 93.0299C96.7866 93.2925 127.731 93.506 165.899 93.506C204.067 93.506 235.02 93.2925 235.02 93.0299C235.02 92.7672 204.075 92.562 165.899 92.562C127.723 92.562 96.7866 92.7672 96.7866 93.0299Z" fill="#91A7FF"/>
<path d="M541.57 354.96C541.57 355.075 432.919 355.174 298.913 355.174C164.906 355.174 56.2302 355.075 56.2302 354.96C56.2302 354.846 164.865 354.78 298.913 354.78C432.96 354.78 541.57 354.837 541.57 354.96Z" fill="#0C1641"/>
<path d="M379.492 101.878H179.336V258.572H379.492V101.878Z" fill="white"/>
<path d="M379.492 258.564C379.492 257.095 379.426 196.403 379.32 101.878L379.492 102.051L179.353 102.092L179.566 101.878C179.566 158.383 179.566 211.81 179.566 258.564L179.377 258.375L379.533 258.564L179.336 258.744H179.139V258.547C179.139 211.761 179.139 158.408 179.139 101.862V101.648H179.369H379.508H379.689V101.829C379.566 196.403 379.492 257.103 379.492 258.564Z" fill="#0C1641"/>
<path d="M309.165 229.195H249.664C246.398 229.195 243.266 227.898 240.957 225.589C238.649 223.28 237.351 220.148 237.351 216.883C237.351 213.618 238.649 210.486 240.957 208.177C243.266 205.868 246.398 204.571 249.664 204.571H309.165C312.43 204.571 315.562 205.868 317.871 208.177C320.18 210.486 321.477 213.618 321.477 216.883C321.477 220.148 320.18 223.28 317.871 225.589C315.562 227.898 312.43 229.195 309.165 229.195Z" fill="#4263EB"/>
<path d="M269.232 214.035H271.333C271.691 213.962 272.06 213.97 272.414 214.058C272.768 214.145 273.099 214.31 273.381 214.541C273.664 214.772 273.892 215.063 274.048 215.393C274.204 215.723 274.285 216.083 274.285 216.448C274.285 216.813 274.204 217.173 274.048 217.503C273.892 217.833 273.664 218.124 273.381 218.355C273.099 218.586 272.768 218.751 272.414 218.838C272.06 218.926 271.691 218.934 271.333 218.861H269.232V214.035ZM271.292 218.139C271.727 218.139 272.145 217.966 272.453 217.658C272.761 217.35 272.934 216.933 272.934 216.497C272.934 216.062 272.761 215.644 272.453 215.336C272.145 215.029 271.727 214.856 271.292 214.856H270.126V218.139H271.292Z" fill="white"/>
<path d="M274.567 216.448C274.54 215.928 274.668 215.412 274.937 214.966C275.205 214.52 275.601 214.165 276.073 213.947C276.546 213.728 277.073 213.656 277.586 213.74C278.1 213.825 278.576 214.061 278.954 214.418C279.332 214.776 279.594 215.239 279.706 215.747C279.819 216.255 279.776 216.785 279.584 217.269C279.392 217.753 279.059 218.168 278.629 218.46C278.198 218.753 277.69 218.909 277.169 218.91C276.835 218.929 276.499 218.88 276.184 218.764C275.869 218.649 275.581 218.471 275.337 218.24C275.094 218.01 274.9 217.732 274.767 217.424C274.635 217.115 274.567 216.783 274.567 216.448ZM278.86 216.448C278.86 216.111 278.76 215.783 278.573 215.503C278.386 215.223 278.121 215.006 277.81 214.877C277.499 214.749 277.157 214.716 276.827 214.782C276.497 214.848 276.194 215.011 275.957 215.249C275.72 215.488 275.558 215.791 275.494 216.121C275.429 216.452 275.464 216.793 275.594 217.104C275.724 217.414 275.943 217.679 276.223 217.865C276.504 218.05 276.833 218.149 277.169 218.147C277.394 218.154 277.618 218.114 277.827 218.031C278.035 217.948 278.225 217.823 278.383 217.664C278.542 217.505 278.666 217.315 278.748 217.105C278.83 216.896 278.868 216.672 278.86 216.448Z" fill="white"/>
<path d="M284.992 214.035V218.861H284.253L281.593 215.578V218.861H280.707V214.035H281.446L284.105 217.318V214.035H284.992Z" fill="white"/>
<path d="M289.901 218.106V218.861H286.281V214.035H289.802V214.79H287.217V216.046H289.548V216.776H287.217V218.106H289.901Z" fill="white"/>
<path d="M281.068 189.615C277.92 189.615 274.843 188.682 272.226 186.933C269.608 185.184 267.568 182.699 266.364 179.79C265.159 176.882 264.844 173.682 265.458 170.595C266.072 167.507 267.588 164.672 269.814 162.446C272.04 160.22 274.876 158.704 277.963 158.09C281.05 157.476 284.25 157.791 287.159 158.996C290.067 160.2 292.552 162.24 294.301 164.858C296.05 167.475 296.984 170.552 296.984 173.7C296.979 177.92 295.301 181.965 292.317 184.949C289.333 187.933 285.288 189.611 281.068 189.615ZM281.068 159.434C278.244 159.434 275.484 160.271 273.137 161.84C270.789 163.409 268.96 165.639 267.88 168.248C266.8 170.856 266.517 173.727 267.069 176.496C267.62 179.265 268.981 181.808 270.978 183.804C272.975 185.8 275.519 187.159 278.288 187.709C281.058 188.259 283.928 187.975 286.536 186.893C289.144 185.811 291.373 183.981 292.94 181.632C294.508 179.284 295.344 176.523 295.342 173.7C295.329 169.922 293.82 166.303 291.144 163.635C288.469 160.968 284.846 159.469 281.068 159.467V159.434Z" fill="#4263EB"/>
<path d="M279.919 179.06C279.719 179.06 279.527 178.987 279.377 178.855C277.944 177.658 276.574 176.386 275.273 175.047C275.17 174.867 275.139 174.655 275.185 174.454C275.232 174.252 275.353 174.076 275.524 173.959C275.695 173.843 275.904 173.796 276.109 173.827C276.313 173.858 276.498 173.965 276.627 174.127C276.849 174.398 278.359 175.769 279.869 177.123L287.955 169.514C288.108 169.361 288.316 169.276 288.533 169.276C288.75 169.276 288.958 169.361 289.112 169.514C289.189 169.591 289.25 169.681 289.292 169.781C289.333 169.881 289.355 169.989 289.355 170.097C289.355 170.205 289.333 170.313 289.292 170.413C289.25 170.513 289.189 170.604 289.112 170.68L280.51 178.839C280.431 178.913 280.338 178.971 280.236 179.009C280.135 179.047 280.027 179.064 279.919 179.06Z" fill="#4263EB"/>
<path d="M379.492 117.186C379.492 117.301 334.799 117.4 279.673 117.4C224.547 117.4 179.837 117.301 179.837 117.186C179.837 117.072 224.522 116.973 279.673 116.973C334.823 116.973 379.492 117.063 379.492 117.186Z" fill="#0C1641"/>
<path d="M186.42 110.48C187.064 110.48 187.586 109.959 187.586 109.315C187.586 108.671 187.064 108.149 186.42 108.149C185.776 108.149 185.254 108.671 185.254 109.315C185.254 109.959 185.776 110.48 186.42 110.48Z" fill="#0C1641"/>
<path d="M190.754 110.48C191.397 110.48 191.919 109.959 191.919 109.315C191.919 108.671 191.397 108.149 190.754 108.149C190.11 108.149 189.588 108.671 189.588 109.315C189.588 109.959 190.11 110.48 190.754 110.48Z" fill="#0C1641"/>
<path d="M196.179 109.356C196.155 109.647 196.022 109.918 195.807 110.116C195.591 110.314 195.31 110.424 195.018 110.424C194.725 110.424 194.444 110.314 194.229 110.116C194.014 109.918 193.881 109.647 193.856 109.356C193.843 109.195 193.863 109.033 193.915 108.881C193.967 108.728 194.05 108.588 194.16 108.469C194.269 108.351 194.401 108.256 194.549 108.191C194.697 108.126 194.856 108.093 195.018 108.093C195.179 108.093 195.338 108.126 195.486 108.191C195.634 108.256 195.766 108.351 195.876 108.469C195.985 108.588 196.068 108.728 196.12 108.881C196.173 109.033 196.193 109.195 196.179 109.356Z" fill="#0C1641"/>
<path d="M511.077 207.148C511.077 207.148 521.034 201.082 523.283 202.863C526.525 205.432 527.6 209.775 527.6 209.775C527.6 209.775 532.862 189.706 537.885 190.469C540.766 190.904 539.354 193.145 538.057 195.968C536.859 198.579 534.774 208.182 534.774 208.182C534.774 208.182 544.296 196.888 547.086 197.093C549.253 197.249 549.549 199.153 546.446 202.207C543.343 205.26 538.164 214.88 538.164 214.88C538.164 214.88 544.829 208.658 547.587 208.625C549.787 208.625 551.207 210.128 548.359 212.598C545.51 215.069 541.209 216.916 538.919 221.381C536.087 226.889 530.054 240.604 530.054 240.604L508.943 233.135C508.943 233.135 505.504 219.124 505.364 215.725C505.364 215.725 505.652 208.527 505.619 207.246C505.586 205.966 508.968 205.605 510.002 208.067C511.036 210.53 510.56 213.107 510.979 214.741C511.397 216.374 512.144 217.892 513.343 218.623C514.541 219.354 517.578 219.403 518.358 218.5C519.358 216.938 520.012 215.181 520.278 213.345C520.383 211.954 520.364 210.555 520.221 209.167C520.221 209.167 511.504 212.779 511.077 207.148Z" fill="white" stroke="#0C1641" stroke-width="0.5"/>
<path d="M273.828 272.501L259.152 267.002C259.152 267.002 244.213 258.26 241.447 261.363C241.056 261.169 240.628 261.06 240.192 261.044C239.756 261.028 239.321 261.106 238.917 261.271C238.513 261.437 238.149 261.686 237.85 262.004C237.55 262.321 237.321 262.699 237.179 263.111C236.424 264.933 238.927 267.585 238.927 267.585C238.927 267.585 238.147 268.405 239.387 271.057C240.626 273.708 254.802 282.195 254.802 282.195C254.802 282.195 273.237 292.25 280.69 297.06L293.552 279.56L291.763 278.895C291.763 278.895 290.704 270.178 287.134 267.856C283.251 265.319 278.564 258.482 277.538 255.798C276.512 253.114 271.555 254.353 272.384 259.902C273.213 265.451 277.538 266.912 277.128 270.622C276.718 274.332 273.828 272.501 273.828 272.501Z" fill="white" stroke="#0C1641" stroke-width="0.5"/>
<path d="M251.33 274.537C249.138 273.556 247.009 272.443 244.952 271.204C242.819 270.093 240.755 268.854 238.771 267.494C240.962 268.485 243.094 269.601 245.157 270.835C247.288 271.943 249.349 273.179 251.33 274.537Z" fill="#0C1641"/>
<path d="M258.487 270.408C257.583 270.129 256.703 269.78 255.852 269.366C254.211 268.668 252.044 267.667 249.663 266.444C247.626 265.416 245.643 264.284 243.721 263.054C242.99 262.569 242.407 262.167 242.022 261.864C241.636 261.56 241.422 261.387 241.439 261.363C241.455 261.338 242.383 261.905 243.901 262.791C245.42 263.678 247.505 264.851 249.877 266.074C252.249 267.297 254.424 268.332 255.992 269.095C256.856 269.469 257.69 269.908 258.487 270.408Z" fill="#0C1641"/>
<path d="M261.582 278.493C261.127 278.296 260.691 278.059 260.277 277.787L256.846 275.727H256.805V275.678C256.072 274.044 255.25 272.452 254.342 270.909C253.833 270.009 253.206 269.181 252.479 268.447C252.091 268.092 251.596 267.877 251.072 267.837C250.549 267.797 250.027 267.933 249.59 268.225C249.408 268.33 249.252 268.473 249.13 268.644V268.742L249.187 268.931C249.187 269.046 249.269 269.169 249.31 269.292C249.491 269.784 249.688 270.269 249.877 270.737L251.001 273.478C251.724 275.218 252.397 276.819 252.98 278.214V278.173L255.926 281.629C256.246 282.006 256.501 282.327 256.747 282.589C256.993 282.852 257.018 282.934 257.002 282.942C256.985 282.95 256.878 282.852 256.681 282.647L255.861 281.744C255.081 280.923 254.047 279.757 252.799 278.387C252.183 277.016 251.494 275.423 250.747 273.675L249.598 270.934C249.409 270.458 249.212 269.981 249.031 269.481C248.982 269.358 248.933 269.234 248.892 269.095L248.834 268.906C248.809 268.809 248.792 268.71 248.785 268.611C248.842 268.439 248.948 268.288 249.089 268.176C249.375 267.919 249.71 267.722 250.074 267.598C250.438 267.474 250.823 267.425 251.207 267.453C251.817 267.506 252.394 267.757 252.848 268.167C253.61 268.933 254.262 269.8 254.785 270.745C255.708 272.308 256.53 273.928 257.248 275.596L257.19 275.522L260.572 277.705C260.925 277.946 261.263 278.209 261.582 278.493Z" fill="#0C1641"/>
<path d="M276.291 278.633C275.675 278.553 275.07 278.407 274.485 278.198C273.079 277.759 271.622 277.5 270.151 277.426C268.688 277.379 267.24 277.734 265.965 278.452C265.005 279.027 264.578 279.618 264.52 279.56C264.808 278.993 265.253 278.52 265.801 278.198C267.096 277.36 268.618 276.942 270.159 276.999C271.669 277.073 273.158 277.377 274.575 277.902C275.175 278.074 275.751 278.32 276.291 278.633Z" fill="#0C1641"/>
<path d="M275.191 274.759C275.281 274.832 274.92 275.464 274.567 276.285C274.214 277.106 273.984 277.796 273.861 277.771C273.778 277.204 273.888 276.626 274.173 276.129C274.551 275.243 275.1 274.685 275.191 274.759Z" fill="#0C1641"/>
<path d="M359.751 205.006C360.769 198.094 368.821 188.179 375.946 188.163C373.947 185.175 372.866 181.668 372.839 178.073C372.811 174.479 373.837 170.955 375.79 167.938C378.54 163.834 382.98 160.797 384.819 156.233C386.945 151.07 385.311 145.242 385.517 139.677C385.812 131.534 390.048 124.081 394.176 117.031C397.952 110.554 402.557 103.454 409.993 101.862C414.697 100.852 419.572 102.338 423.988 104.218C445.124 113.247 461.557 132.191 467.196 154.09C468.55 159.336 469.453 165.007 473.106 169.062C476.972 173.355 483.776 175.678 484.917 181.292C485.738 185.314 483.161 189.361 483.547 193.457C483.875 196.88 490.294 206.869 491.755 209.988C494.299 215.364 493.396 221.168 490.786 226.519C488.176 231.871 481.585 237.091 475.724 238.552L410.223 216.719C404.059 220.232 397.911 233.8 390.852 234.637C383.793 235.474 375.142 238.552 368.337 231.099C361.253 223.293 358.742 211.958 359.751 205.006Z" fill="#0C1641"/>
<path d="M468.37 139.858C467.631 145.332 469.133 154.402 472.138 159.081C474.14 162.225 477.498 164.269 480.814 166.066C484.13 167.864 487.585 169.587 490.097 172.37C492.609 175.153 493.955 179.306 492.272 182.638C498.174 184.838 500.825 192.349 498.658 198.168C496.491 203.988 490.557 207.887 484.36 209.052L457.338 200.926L451.404 166.452L466.999 139.858" fill="#0C1641"/>
<path d="M471.686 175.021C471.868 175.081 472.044 175.158 472.211 175.251C472.718 175.477 473.211 175.732 473.689 176.014C475.478 177.066 477.09 178.393 478.466 179.946C480.538 182.285 482.07 185.051 482.956 188.048C484.109 191.788 484.135 195.785 483.03 199.539L482.931 199.293C484.542 200.196 486.019 201.317 487.323 202.625C490.578 205.864 492.653 210.101 493.216 214.658C493.608 218.373 492.936 222.122 491.279 225.469C490.181 227.713 488.678 229.736 486.847 231.436C486.351 231.898 485.824 232.326 485.271 232.716C485.085 232.861 484.891 232.992 484.688 233.11C484.85 232.94 485.029 232.786 485.221 232.651C485.729 232.236 486.214 231.795 486.674 231.329C488.441 229.605 489.888 227.582 490.951 225.354C492.547 222.038 493.176 218.34 492.765 214.683C492.194 210.231 490.158 206.096 486.978 202.929C485.704 201.643 484.26 200.538 482.685 199.646L482.537 199.564L482.586 199.399C483.674 195.729 483.668 191.821 482.57 188.154C481.718 185.197 480.237 182.458 478.228 180.127C476.902 178.571 475.35 177.223 473.623 176.129C473.032 175.719 472.515 175.506 472.195 175.309C472.017 175.228 471.847 175.132 471.686 175.021Z" fill="#4C6EF5"/>
<path d="M391.763 210.702C391.763 210.702 379.689 214.379 375.462 220.552C372.466 224.91 341.808 291.282 341.808 291.282L295.284 277.328L278.646 299.301L330.415 328.03C335.136 330.644 340.448 332.004 345.844 331.979C351.241 331.955 356.54 330.547 361.237 327.89C366.532 324.893 370.848 320.429 373.664 315.036L386.797 289.812L391.763 210.702Z" fill="#4263EB"/>
<path d="M379.41 355.272L386.674 323.958L381.166 301.222C377.629 289.517 374.6 270.441 378.441 255.084L391.312 210.916L405.454 204.407L437.827 198.825C439.075 199.235 471.686 208.445 471.686 208.445C473.829 208.896 475.941 209.489 478.006 210.218L481.749 234.407L470.504 274.266L465.579 313.969L476.332 355.272H379.41Z" fill="#4263EB"/>
<path d="M398.116 207.78L407.506 203.577L449.819 204.168L459.825 209.98C459.825 209.98 424.875 248.558 416.1 249.839C394.029 253.048 398.116 207.78 398.116 207.78Z" fill="white"/>
<path d="M477.087 209.898C477.087 209.898 483.432 211.326 488.857 222.916C494.283 234.506 503.09 266.764 503.09 266.764L506.85 232.577L537.441 235.942L531.515 317.638C531.515 317.638 520.697 333.34 502.581 331.887C484.466 330.435 461.483 273.199 461.483 273.199L477.087 209.898Z" fill="#4263EB"/>
<path d="M498.305 308.502C498.296 308.437 498.296 308.371 498.305 308.305C498.305 308.149 498.305 307.961 498.305 307.723C498.305 307.181 498.379 306.442 498.436 305.498C498.551 303.569 498.781 300.778 499.101 297.339C499.742 290.453 500.907 280.964 502.335 270.515C503.764 260.066 504.987 250.586 505.692 243.707C506.054 240.276 506.333 237.485 506.513 235.565C506.604 234.629 506.677 233.923 506.727 233.348C506.727 233.119 506.776 232.93 506.792 232.774C506.781 232.709 506.781 232.642 506.792 232.577C506.801 232.642 506.801 232.709 506.792 232.774V233.357C506.792 233.898 506.71 234.637 506.653 235.573C506.538 237.51 506.308 240.293 505.988 243.781C505.348 250.668 504.182 260.156 502.754 270.613C501.326 281.071 500.111 290.535 499.397 297.405C499.036 300.844 498.765 303.627 498.576 305.556C498.486 306.491 498.42 307.197 498.363 307.772C498.363 308.002 498.313 308.19 498.297 308.346C498.305 308.398 498.308 308.45 498.305 308.502Z" fill="#0C1641"/>
<path d="M342.342 308.888C342.2 308.703 342.087 308.499 342.005 308.281C341.737 307.706 341.501 307.117 341.299 306.516C339.911 302.543 339.497 298.296 340.093 294.13C340.216 293.309 340.339 292.702 340.454 292.267C340.494 292.036 340.566 291.812 340.667 291.602C340.741 291.602 340.552 292.587 340.396 294.171C339.974 298.294 340.378 302.461 341.587 306.426C342.038 307.944 342.407 308.863 342.342 308.888Z" fill="#0C1641"/>
<path d="M347.488 309.635C347.488 309.635 347.275 309.438 346.955 309.028C346.494 308.447 346.067 307.842 345.674 307.214C343.038 303.076 341.404 298.379 340.905 293.498C340.826 292.764 340.785 292.027 340.782 291.29C340.757 291.016 340.77 290.739 340.823 290.469C340.897 290.469 340.946 291.618 341.201 293.457C341.538 295.85 342.104 298.206 342.892 300.491C343.694 302.771 344.711 304.97 345.929 307.058C346.873 308.666 347.546 309.635 347.488 309.635Z" fill="#0C1641"/>
<path d="M383.711 236.656C383.672 236.881 383.62 237.103 383.555 237.321C383.424 237.781 383.251 238.413 383.03 239.193C382.562 240.834 381.897 243.206 381.076 246.079C378.865 253.628 377.24 261.337 376.217 269.136C375.672 273.425 375.612 277.761 376.036 282.064C376.434 285.568 377.157 289.028 378.195 292.398C379.057 295.287 379.878 297.594 380.436 299.186L381.084 301.025C381.172 301.233 381.238 301.451 381.281 301.673C381.174 301.474 381.081 301.269 381.002 301.057L380.28 299.243C379.672 297.667 378.811 295.377 377.9 292.488C376.822 289.103 376.066 285.624 375.642 282.097C375.194 277.763 375.243 273.392 375.79 269.07C376.811 261.253 378.483 253.536 380.789 245.997C381.61 243.091 382.365 240.76 382.874 239.143C383.12 238.372 383.325 237.756 383.473 237.296C383.53 237.075 383.61 236.861 383.711 236.656Z" fill="#0C1641"/>
<path d="M469.256 290.485C469.208 290.423 469.17 290.354 469.141 290.28L468.854 289.673L467.795 287.325C467.336 286.299 466.761 285.06 466.154 283.591C465.546 282.121 464.89 280.422 464.143 278.567C463.396 276.712 462.731 274.611 461.935 272.386C461.582 271.262 461.221 270.096 460.851 268.898C460.662 268.299 460.482 267.683 460.293 267.068C460.104 266.452 459.957 265.812 459.792 265.171C458.243 259.62 457.272 253.923 456.895 248.172C456.473 242.402 457.073 236.603 458.668 231.042C459.932 226.465 462.251 222.248 465.44 218.73C467.584 216.369 470.183 214.465 473.081 213.132C473.878 212.77 474.701 212.471 475.544 212.237L476.192 212.056C476.263 212.03 476.338 212.013 476.414 212.007L476.2 212.098L475.568 212.319C474.756 212.589 473.961 212.91 473.188 213.279C470.351 214.664 467.809 216.584 465.702 218.935C462.586 222.433 460.322 226.605 459.086 231.124C457.525 236.644 456.942 242.394 457.363 248.115C457.742 253.838 458.696 259.508 460.211 265.04L460.703 266.928L461.253 268.758C461.615 269.957 461.968 271.122 462.312 272.247C463.092 274.463 463.765 276.548 464.471 278.428C465.177 280.307 465.842 281.974 466.416 283.467C466.991 284.961 467.565 286.193 467.992 287.227L468.986 289.607L469.232 290.231C469.256 290.313 469.264 290.4 469.256 290.485Z" fill="#0C1641"/>
<g opacity="0.3">
<path opacity="0.3" d="M457.593 253.483C453.595 272.362 453.546 291.864 460.424 309.93C460.827 310.981 462.411 314.708 463.527 314.757C464.947 314.831 465.62 313.066 465.866 311.662C466.375 308.781 466.687 304.045 467.188 301.164C467.82 297.561 468.682 289.213 468.682 289.213C468.682 289.213 465.399 281.637 463.921 277.582C461.221 270.047 458.939 262.857 457.675 254.074" fill="#0C1641"/>
</g>
<path d="M454.326 326.774C454.244 326.951 454.139 327.116 454.014 327.266L453.029 328.637L452.307 329.622C452.036 329.975 451.707 330.328 451.371 330.73C450.673 331.502 449.943 332.437 448.974 333.332L447.505 334.768C446.988 335.269 446.397 335.721 445.814 336.221C444.557 337.28 443.248 338.275 441.89 339.201C438.755 341.285 435.413 343.04 431.918 344.438C428.389 345.772 424.734 346.743 421.009 347.335C419.285 347.532 417.652 347.778 416.084 347.795C415.312 347.795 414.565 347.885 413.851 347.869L411.791 347.803C410.613 347.769 409.437 347.671 408.27 347.508C407.753 347.442 407.268 347.401 406.833 347.335L405.635 347.097L403.993 346.752C403.801 346.72 403.611 346.671 403.427 346.605C403.623 346.605 403.818 346.624 404.01 346.662L405.651 346.933L406.85 347.13C407.293 347.187 407.777 347.22 408.286 347.269C409.452 347.408 410.625 347.485 411.799 347.499L413.843 347.54C414.549 347.54 415.288 347.475 416.051 347.442C417.586 347.442 419.203 347.155 420.91 346.941C428.319 345.792 435.387 343.038 441.62 338.873C443.023 337.871 444.386 336.96 445.535 335.95C446.118 335.458 446.717 335.015 447.234 334.522C447.751 334.03 448.244 333.562 448.711 333.11C449.578 332.308 450.4 331.459 451.174 330.566C451.519 330.18 451.855 329.835 452.134 329.491L452.881 328.538L453.924 327.217C454.047 327.06 454.182 326.912 454.326 326.774Z" fill="#0C1641"/>
<path d="M447.652 314.256C447.658 314.558 447.622 314.859 447.546 315.151C447.4 315.96 447.208 316.76 446.971 317.548C446.198 320.16 445.053 322.648 443.573 324.935C442.092 327.215 440.295 329.273 438.238 331.05C437.617 331.589 436.964 332.09 436.284 332.552C436.048 332.739 435.789 332.893 435.513 333.012C435.472 332.954 436.514 332.191 438.041 330.82C440.013 329.006 441.75 326.951 443.212 324.705C444.663 322.45 445.83 320.024 446.684 317.482C447.332 315.496 447.579 314.24 447.652 314.256Z" fill="#0C1641"/>
<path d="M432.755 96.6333C438.51 96.6749 444.156 98.2096 449.14 101.087C454.125 103.965 458.277 108.087 461.19 113.051C464.104 118.014 465.679 123.649 465.762 129.404C465.845 135.159 464.433 140.837 461.664 145.882C459.784 149.297 457.075 152.539 453.357 153.729C453.927 143.883 452.364 134.03 448.776 124.843C445.187 115.657 439.658 107.353 432.566 100.499" fill="#4263EB"/>
<path d="M446.159 99.5964C444.46 96.0587 446.274 91.6345 449.311 89.1475C452.348 86.6604 456.296 85.6508 460.113 84.7397C463.929 83.8286 467.877 82.8764 470.98 80.4714C470.537 86.6193 469.01 92.9478 465.029 97.6511C461.048 102.354 454.153 104.989 448.473 102.576" fill="#4263EB"/>
<path d="M450.098 103.61C447.488 104.71 444.353 104.021 442.038 102.42C439.765 100.708 437.922 98.491 436.653 95.9439C434.896 92.926 433.724 89.6038 433.198 86.1515C432.697 82.6894 433.315 79.1579 434.963 76.0719C439.452 80.8573 444.402 84.8793 446.971 90.9205C448.481 94.4664 448.293 100.163 446.676 103.66" fill="#4263EB"/>
<path d="M462.87 123.548C462.977 123.921 463.051 124.303 463.092 124.689C463.149 125.058 463.215 125.51 463.256 126.043C463.297 126.577 463.379 127.176 463.396 127.849C463.469 129.417 463.438 130.988 463.305 132.552C463.14 134.47 462.838 136.374 462.402 138.249C461.946 140.121 461.359 141.958 460.646 143.748C460.052 145.203 459.369 146.62 458.602 147.992C458.29 148.583 457.945 149.083 457.666 149.543C457.387 150.003 457.133 150.364 456.911 150.676C456.702 151.001 456.463 151.306 456.197 151.587C456.357 151.233 456.549 150.895 456.772 150.577C456.969 150.265 457.207 149.88 457.461 149.412C457.716 148.944 458.044 148.443 458.331 147.844C459.06 146.468 459.709 145.051 460.276 143.6C461.677 140.05 462.567 136.319 462.92 132.519C463.06 130.969 463.117 129.413 463.092 127.857C463.092 127.192 463.043 126.593 463.018 126.068C462.993 125.542 462.961 125.083 462.928 124.713C462.869 124.328 462.849 123.937 462.87 123.548Z" fill="#0C1641"/>
<path d="M460.26 101.534C459.986 101.806 459.683 102.048 459.357 102.256C458.436 102.798 457.432 103.186 456.386 103.405C452.893 104.017 449.305 103.812 445.904 102.806H445.789V102.683C445.74 102.437 445.683 102.174 445.617 101.862C445.188 99.8555 445.097 97.7917 445.346 95.7551C445.534 94.0792 446.126 92.4739 447.07 91.0765C447.731 90.149 448.568 89.3598 449.532 88.7536C449.883 88.5349 450.254 88.3507 450.64 88.2036C450.321 88.4591 449.98 88.687 449.622 88.8849C448.701 89.5414 447.906 90.3589 447.275 91.2981C446.398 92.6747 445.855 94.2377 445.691 95.8618C445.467 97.8539 445.567 99.8689 445.986 101.829C446.044 102.092 446.101 102.346 446.159 102.584L446.011 102.437C449.352 103.417 452.867 103.661 456.312 103.151C457.337 102.959 458.329 102.622 459.259 102.149C459.575 101.917 459.91 101.711 460.26 101.534Z" fill="#0C1641"/>
<path d="M463.626 90.8958C463.626 90.9779 462.427 91.1503 460.539 91.7167C459.442 92.0444 458.368 92.4419 457.322 92.9068C456.043 93.4902 454.809 94.165 453.628 94.926C452.457 95.7015 451.346 96.563 450.304 97.5034C449.459 98.2729 448.664 99.0954 447.923 99.9658C446.659 101.468 446.019 102.519 445.953 102.469C446.055 102.199 446.19 101.943 446.356 101.706C446.756 101.035 447.2 100.39 447.685 99.7771C448.406 98.861 449.193 97.9996 450.041 97.1997C451.083 96.2258 452.203 95.3391 453.39 94.5485C454.59 93.7755 455.85 93.1002 457.158 92.5293C458.222 92.0719 459.319 91.6959 460.441 91.4047C461.196 91.2013 461.963 91.0505 462.739 90.9533C463.031 90.901 463.329 90.8817 463.626 90.8958Z" fill="#0C1641"/>
<path d="M449.926 103.545C449.939 103.626 449.939 103.709 449.926 103.791C449.876 104.025 449.801 104.253 449.704 104.472C449.34 105.284 448.775 105.99 448.063 106.524C447.014 107.345 445.708 107.767 444.377 107.714C443.566 107.638 442.782 107.384 442.08 106.971C441.378 106.558 440.775 105.995 440.315 105.323C439.854 104.651 439.547 103.886 439.415 103.083C439.283 102.279 439.33 101.456 439.551 100.672C439.988 99.4073 440.861 98.3396 442.013 97.6594C442.758 97.2033 443.604 96.9383 444.476 96.8878C444.713 96.8626 444.953 96.8626 445.19 96.8878C445.346 96.8878 445.428 96.8878 445.428 96.9453C445.428 97.0027 445.083 96.9453 444.484 97.0109C443.448 97.1424 442.469 97.5621 441.659 98.2224C440.849 98.8826 440.241 99.7568 439.904 100.746C439.708 101.475 439.671 102.238 439.798 102.982C439.924 103.727 440.21 104.435 440.635 105.059C441.061 105.683 441.616 106.207 442.264 106.596C442.911 106.985 443.635 107.229 444.386 107.312C445.63 107.377 446.859 107.012 447.866 106.278C448.548 105.78 449.109 105.135 449.507 104.39C449.803 103.865 449.877 103.536 449.926 103.545Z" fill="#0C1641"/>
<path d="M439.97 103.75C439.97 103.75 439.691 103.307 440.077 102.666C440.305 102.307 440.65 102.038 441.053 101.903C441.525 101.754 442.022 101.703 442.514 101.755C443.75 101.775 444.956 102.133 446.003 102.789C445.954 102.904 444.443 102.313 442.49 102.174C442.102 102.097 441.701 102.117 441.322 102.233C440.944 102.349 440.601 102.557 440.323 102.839C440.139 103.113 440.019 103.424 439.97 103.75Z" fill="#0C1641"/>
<path d="M434.963 76.0719C434.324 77.1522 433.898 78.3447 433.707 79.585C433.527 80.9451 433.461 82.318 433.51 83.6891C433.505 85.3409 433.654 86.9896 433.953 88.614C434.588 91.5784 435.765 94.4001 437.425 96.937C438.09 97.8892 438.673 98.6279 439.067 99.1286C439.301 99.3748 439.521 99.6352 439.723 99.9084C438.721 99.1208 437.853 98.1755 437.154 97.1094C435.377 94.5858 434.126 91.73 433.477 88.7125C433.168 87.0454 433.027 85.3514 433.058 83.6562C433.029 82.282 433.128 80.9081 433.354 79.5522C433.511 78.6265 433.828 77.735 434.29 76.9173C434.456 76.5938 434.685 76.3064 434.963 76.0719Z" fill="#0C1641"/>
<path d="M439.182 85.8068C439.631 86.2161 440.018 86.6889 440.331 87.2104C441.172 88.4086 441.903 89.6806 442.514 91.0107C443.121 92.3314 443.605 93.7053 443.959 95.1148C444.135 95.6982 444.229 96.3032 444.238 96.9124C444.107 96.9124 443.548 94.2283 442.128 91.1667C440.708 88.105 439.067 85.8888 439.182 85.8068Z" fill="#0C1641"/>
<path d="M437.795 90.9205C437.877 90.8466 439.264 92.2502 441.078 93.8672C442.223 94.8001 443.284 95.833 444.246 96.9535C443 96.1554 441.842 95.2283 440.791 94.1874C439.633 93.2559 438.623 92.1545 437.795 90.9205Z" fill="#0C1641"/>
<path d="M459.275 110.177C459.24 110.221 459.199 110.26 459.152 110.292L458.791 110.604C458.344 110.975 457.878 111.323 457.395 111.646C454.179 113.798 450.435 115.028 446.569 115.2C445.986 115.23 445.403 115.23 444.821 115.2H444.353C444.298 115.21 444.243 115.21 444.188 115.2H444.812C445.223 115.2 445.814 115.2 446.544 115.151C450.378 114.917 454.087 113.699 457.313 111.613C457.929 111.219 458.413 110.874 458.733 110.62L459.119 110.341C459.158 110.275 459.211 110.219 459.275 110.177Z" fill="#EDF2FF"/>
<path d="M464.11 120.109C464.075 120.153 464.033 120.192 463.987 120.224L463.626 120.535C463.306 120.798 462.805 121.151 462.214 121.57C459.004 123.727 455.31 125.058 451.461 125.444C450.883 125.509 450.302 125.542 449.721 125.542H449.081C449.081 125.542 449.13 125.542 449.245 125.542H449.713C450.123 125.542 450.722 125.477 451.445 125.386C455.25 124.933 458.9 123.614 462.115 121.529C462.731 121.135 463.223 120.79 463.552 120.544L463.938 120.265L464.11 120.109Z" fill="#EDF2FF"/>
<path d="M462.764 134.604C462.658 134.701 462.542 134.786 462.419 134.859C462.189 135.015 461.845 135.228 461.409 135.466C460.266 136.081 459.054 136.557 457.798 136.886C456.54 137.215 455.248 137.391 453.948 137.411C453.557 137.431 453.166 137.431 452.774 137.411L452.348 137.362C452.489 137.345 452.633 137.345 452.774 137.362C453.054 137.362 453.456 137.362 453.948 137.362C455.234 137.302 456.51 137.109 457.757 136.788C458.998 136.456 460.203 136 461.352 135.425C461.795 135.195 462.173 135.006 462.386 134.867C462.499 134.762 462.626 134.674 462.764 134.604Z" fill="#EDF2FF"/>
<path d="M465.555 132.388C465.201 132.538 464.828 132.637 464.447 132.684C464.076 132.787 463.691 132.832 463.306 132.815C463.658 132.662 464.032 132.563 464.414 132.519C464.785 132.415 465.17 132.371 465.555 132.388Z" fill="#EDF2FF"/>
<path d="M457.404 149.42C456.789 149.555 456.157 149.588 455.532 149.518C454.903 149.499 454.281 149.375 453.694 149.149C453.694 149.1 454.514 149.272 455.549 149.346C456.583 149.42 457.404 149.371 457.404 149.42Z" fill="#EDF2FF"/>
<path d="M441.833 106.5C441.497 106.777 441.127 107.012 440.733 107.197C440.369 107.436 439.974 107.624 439.559 107.755C439.89 107.472 440.257 107.235 440.651 107.049C441.02 106.816 441.417 106.631 441.833 106.5Z" fill="#EDF2FF"/>
<path d="M437.753 97.8645C436.91 98.2279 436.099 98.6646 435.332 99.1696C434.602 99.7261 433.923 100.347 433.304 101.025C433.431 100.782 433.591 100.558 433.781 100.36C434.205 99.8557 434.694 99.4088 435.233 99.0301C435.77 98.6481 436.352 98.3338 436.965 98.0943C437.216 97.9827 437.481 97.9054 437.753 97.8645Z" fill="#EDF2FF"/>
<path d="M445.149 107.427C445.239 106.609 445.239 105.783 445.149 104.965C445.009 104.144 444.784 103.341 444.476 102.568C444.632 102.759 444.754 102.975 444.837 103.208C445.325 104.313 445.485 105.536 445.297 106.729C445.282 106.968 445.232 107.203 445.149 107.427Z" fill="#EDF2FF"/>
<path d="M470.545 80.6274C470.268 80.9691 469.966 81.2901 469.642 81.5878C468.771 82.4086 467.819 83.14 466.802 83.7712C465.292 84.7072 463.714 85.5302 462.082 86.2336C460.26 87.0544 458.208 87.8752 456.131 88.8356C454.166 89.7364 452.335 90.9048 450.689 92.3077C449.367 93.4761 448.283 94.8892 447.496 96.4692C446.966 97.5357 446.635 98.6901 446.52 99.8756C446.446 100.696 446.52 101.181 446.479 101.181C446.438 101.181 446.479 101.066 446.479 100.844C446.459 100.519 446.459 100.193 446.479 99.8674C446.572 98.6708 446.887 97.502 447.406 96.4199C448.188 94.816 449.275 93.38 450.607 92.1927C452.258 90.7698 454.101 89.5871 456.082 88.6796C458.167 87.6783 460.186 86.8903 462.05 86.0859C463.677 85.3978 465.254 84.5969 466.769 83.6891C467.785 83.0672 468.741 82.3528 469.626 81.555C469.929 81.2677 470.167 81.0461 470.323 80.8819L470.545 80.6274Z" fill="#EDF2FF"/>
<path d="M468.321 90.3951C468.321 90.3951 468.321 90.4608 468.214 90.5839C468.107 90.707 468.001 90.9123 467.869 91.101C467.582 91.5443 467.114 92.1763 466.515 92.9233C463.358 96.8359 459.333 99.9607 454.761 102.051C453.882 102.445 453.16 102.74 452.651 102.913L452.068 103.118C452.002 103.144 451.934 103.164 451.863 103.175C451.924 103.135 451.99 103.105 452.06 103.085L452.627 102.847C453.127 102.658 453.841 102.346 454.703 101.944C459.23 99.8058 463.232 96.6981 466.425 92.8412C467.032 92.1106 467.508 91.495 467.82 91.06L468.189 90.5593L468.321 90.3951Z" fill="#EDF2FF"/>
<path d="M434.06 78.8627C434.918 79.2255 435.742 79.6651 436.522 80.176C440.38 82.6539 443.305 86.3441 444.837 90.666C445.154 91.5517 445.393 92.4636 445.551 93.3911C445.523 93.3303 445.501 93.2671 445.485 93.2023L445.346 92.6688C445.172 92.0045 444.964 91.3497 444.722 90.707C443.145 86.4417 440.25 82.7901 436.456 80.2827C435.734 79.8066 435.127 79.4619 434.7 79.232L434.207 78.9694C434.155 78.9388 434.105 78.903 434.06 78.8627Z" fill="#EDF2FF"/>
<path d="M392.896 109.725C393.216 114.076 390.343 117.933 387.454 121.217C384.564 124.5 381.339 127.882 380.707 132.199C379.598 139.849 387.092 146.974 385.549 154.525C384.729 158.589 381.396 161.847 380.805 165.951C380.23 169.916 382.356 173.798 384.991 176.819C387.626 179.839 390.679 179.396 393.011 182.655C395.714 186.334 399.156 189.409 403.115 191.684C411.512 196.28 421.591 189.632 425.638 188.401" fill="#0C1641"/>
<path d="M456.386 127.562C460.252 125.871 460.556 111.966 450.854 110.407C446.955 109.758 443.713 107.862 440.438 105.654C437.54 103.709 436.678 98.751 434.224 96.2639C431.196 93.1949 427.406 90.9868 423.243 89.8663C419.08 88.7458 414.693 88.7532 410.534 89.8879C406.375 91.0226 402.592 93.2436 399.575 96.3229C396.557 99.4023 394.414 103.229 393.364 107.411C391.952 113.033 392.912 119.674 397.345 123.408C402.483 127.742 410.108 126.782 416.691 125.436C423.274 124.09 430.736 122.752 436.235 126.626C439.518 128.957 441.455 132.749 443.483 136.262C445.51 139.775 448.096 143.362 451.888 144.651C451.888 144.651 454.802 151.505 452.422 156.282C450.041 161.059 455.221 152.917 455.221 152.917C455.221 152.917 464.676 136.106 456.386 127.529" fill="#0C1641"/>
<path d="M407.203 224.894C407.154 215.865 407.203 190.42 407.203 190.461C407.203 190.502 392.822 188.039 389.884 169.259C388.423 159.918 388.923 144.635 389.744 132.109C390.475 120.847 397.952 107.049 409.189 108.256L444.205 117.195C445.852 117.364 447.374 118.149 448.467 119.392C449.56 120.636 450.143 122.246 450.099 123.901L447.965 210.907L407.203 224.894Z" fill="white"/>
<path d="M395.703 142.837C395.685 143.47 395.919 144.084 396.352 144.546C396.786 145.007 397.385 145.278 398.018 145.299C398.321 145.321 398.626 145.281 398.915 145.184C399.203 145.087 399.469 144.934 399.698 144.733C399.927 144.532 400.114 144.288 400.248 144.015C400.383 143.742 400.461 143.445 400.48 143.141C400.496 142.508 400.261 141.895 399.828 141.434C399.395 140.974 398.797 140.702 398.165 140.678C397.862 140.657 397.557 140.696 397.268 140.794C396.98 140.891 396.713 141.044 396.484 141.245C396.256 141.446 396.069 141.69 395.934 141.963C395.8 142.236 395.722 142.533 395.703 142.837Z" fill="#0C1641"/>
<path d="M393.044 140.079C393.339 140.391 395.17 139.045 397.763 139.061C400.357 139.078 402.245 140.375 402.532 140.055C402.664 139.915 402.36 139.349 401.539 138.741C400.42 137.96 399.086 137.547 397.722 137.559C396.376 137.546 395.061 137.966 393.971 138.758C393.167 139.365 392.896 139.94 393.044 140.079Z" fill="#0C1641"/>
<path d="M418.546 144.208C418.85 144.52 420.672 143.174 423.266 143.19C425.86 143.206 427.748 144.503 428.035 144.183C428.174 144.044 427.871 143.477 427.042 142.87C425.923 142.089 424.589 141.676 423.225 141.688C421.879 141.676 420.564 142.096 419.474 142.886C418.637 143.494 418.366 144.068 418.546 144.208Z" fill="#0C1641"/>
<path d="M409.066 159.812C409.066 159.664 407.465 159.377 404.855 159.04C404.199 158.966 403.575 158.835 403.46 158.383C403.405 157.7 403.56 157.015 403.903 156.422C404.535 154.829 405.183 153.138 405.873 151.39C408.606 144.224 410.584 138.331 410.297 138.257C410.01 138.183 407.556 143.871 404.822 151.037L402.951 156.069C402.53 156.864 402.405 157.783 402.598 158.662C402.692 158.896 402.839 159.105 403.027 159.273C403.215 159.441 403.439 159.564 403.681 159.631C404.048 159.731 404.426 159.786 404.806 159.795C407.424 159.943 409.058 159.959 409.066 159.812Z" fill="#0C1641"/>
<path d="M407.203 190.461C416.042 190.613 424.75 188.311 432.361 183.812C432.147 183.812 425.441 196.855 407.449 194.893L407.203 190.461Z" fill="#FCE5EC"/>
<path d="M409.813 167.289C409.501 165.648 411.381 165.171 412.76 164.318C414.139 163.464 414.927 162.323 416.223 163.308C416.951 163.89 417.502 164.663 417.816 165.541C418.116 166.173 418.19 166.89 418.024 167.57C417.858 168.25 417.463 168.853 416.905 169.276C416.133 170.034 415.153 170.546 414.089 170.745C413.56 170.842 413.016 170.829 412.492 170.706C411.968 170.583 411.475 170.353 411.044 170.031C410.62 169.7 410.29 169.263 410.087 168.765C409.884 168.267 409.815 167.724 409.887 167.191" fill="#FCE5EC"/>
<path d="M416.683 161.617C416.264 161.617 416.248 164.4 413.843 166.395C411.438 168.389 408.434 168.036 408.409 168.463C408.409 168.635 409.082 169.013 410.346 169.046C411.995 169.076 413.6 168.521 414.877 167.478C416.103 166.479 416.891 165.042 417.077 163.472C417.192 162.299 416.905 161.601 416.683 161.617Z" fill="#0C1641"/>
<path d="M418.119 138.421C418.374 139.119 420.968 138.799 424.005 139.168C427.042 139.537 429.496 140.375 429.906 139.743C430.087 139.439 429.66 138.782 428.667 138.101C427.347 137.26 425.853 136.732 424.298 136.557C422.743 136.382 421.169 136.565 419.695 137.091C418.546 137.535 418.013 138.085 418.119 138.421Z" fill="#0C1641"/>
<path d="M393.405 131.116C393.856 131.707 395.646 131.116 397.788 131.116C399.93 131.116 401.752 131.518 402.171 130.902C402.36 130.607 402.073 130.016 401.276 129.458C400.211 128.79 398.972 128.453 397.716 128.489C396.459 128.526 395.242 128.934 394.217 129.663C393.454 130.221 393.208 130.829 393.405 131.116Z" fill="#0C1641"/>
<path d="M452.15 179.995C446.988 181.03 446.528 178.403 442.67 174.816C440.75 173.003 439.28 170.765 438.38 168.282C437.479 165.799 437.172 163.14 437.482 160.517C438.065 155.904 440.552 151.218 438.952 146.851C436.842 141.105 428.757 139.308 426.639 133.554C425.392 130.205 426.516 126.289 425.096 123.014C423.767 119.928 420.524 118.155 417.364 117.014C414.204 115.873 410.798 115.085 408.171 113.025C405.544 110.965 403.87 107.074 405.577 104.185C419.605 105.863 433.383 109.208 446.618 114.15C449.688 115.29 452.906 116.669 454.711 119.386C456.632 122.267 456.542 125.994 456.353 129.45C455.565 146.309 454.78 163.166 453.997 180.02" fill="#0C1641"/>
<path d="M464.11 173.692C464.11 173.692 464.192 173.618 464.315 173.462C464.505 173.222 464.677 172.97 464.832 172.707C465.438 171.695 465.857 170.583 466.072 169.423C466.424 167.579 466.32 165.677 465.768 163.883C465.059 161.466 463.511 159.382 461.401 158.006C459.177 156.438 456.279 155.338 454.432 152.843C453.968 152.218 453.637 151.504 453.462 150.745C453.287 149.987 453.271 149.2 453.415 148.435C453.793 146.76 454.343 145.129 455.056 143.568C455.79 141.782 456.146 139.865 456.104 137.936C456.062 136.006 455.621 134.106 454.81 132.355C453.96 130.483 452.65 128.856 451.001 127.627C449.277 126.434 447.318 125.62 445.256 125.239C443.22 124.771 441.193 124.508 439.313 123.934C437.451 123.459 435.738 122.525 434.331 121.217C433.083 119.861 432.324 118.128 432.172 116.292C432 114.455 431.707 112.632 431.294 110.833C430.447 107.468 428.689 104.4 426.213 101.969C424.02 99.8664 421.235 98.4858 418.234 98.0123C415.76 97.6015 413.22 97.9866 410.978 99.1122C409.303 99.9576 407.862 101.204 406.784 102.74C406.103 103.705 405.605 104.788 405.315 105.933C405.204 106.326 405.14 106.731 405.126 107.14C405.485 105.626 406.134 104.196 407.038 102.929C408.303 101.244 410.012 99.9453 411.974 99.1783C413.936 98.4113 416.072 98.2064 418.144 98.5869C421.009 99.0788 423.657 100.43 425.737 102.461C428.087 104.814 429.748 107.767 430.538 110.998C430.926 112.773 431.201 114.572 431.359 116.382C431.524 118.387 432.353 120.279 433.715 121.759C435.216 123.165 437.044 124.175 439.034 124.697C441.004 125.296 443.039 125.559 445.034 126.019C446.988 126.375 448.845 127.139 450.484 128.259C452.021 129.412 453.245 130.93 454.047 132.675C454.818 134.328 455.239 136.123 455.284 137.946C455.329 139.77 454.997 141.583 454.309 143.272C453.592 144.889 453.042 146.575 452.668 148.304C452.517 149.162 452.545 150.043 452.75 150.89C452.955 151.737 453.332 152.533 453.858 153.229C455.902 155.921 458.889 156.972 461.048 158.474C463.091 159.754 464.611 161.722 465.333 164.022C465.891 165.746 466.037 167.576 465.76 169.366C465.483 170.898 464.923 172.364 464.11 173.692Z" fill="#4C6EF5"/>
<path d="M439.691 155.034C435.431 164.922 434.658 175.964 437.499 186.349C438.32 189.418 439.518 192.603 438.796 195.706C437.975 199.063 435.201 201.493 433.149 204.267C431.378 206.664 430.134 209.409 429.499 212.32C428.864 215.232 428.852 218.245 429.463 221.162C430.075 224.079 431.296 226.834 433.048 229.245C434.799 231.656 437.04 233.67 439.625 235.154C440.167 232.068 443.039 229.959 445.871 228.588C448.703 227.217 451.839 226.248 453.997 223.975C456.156 221.701 456.772 217.54 454.26 215.668C461.483 213.78 465.579 205.194 464.061 197.881C462.542 190.568 456.591 184.797 449.828 181.629" fill="#0C1641"/>
<path d="M447.39 227.931C446.101 228.637 444.845 229.277 444.689 230.738C444.501 232.462 446.15 235.474 446.741 237.1C447.327 238.7 447.437 240.435 447.059 242.096C446.68 243.757 445.829 245.274 444.609 246.462C443.388 247.651 441.849 248.461 440.179 248.795C438.508 249.129 436.776 248.973 435.193 248.345C437.499 248.525 439.461 246.268 439.674 243.953C439.888 241.639 438.755 239.414 437.376 237.551C435.997 235.688 434.331 234.03 433.165 232.027C430.785 227.923 427.247 216.85 429.972 210.636" fill="#0C1641"/>
<path d="M453.964 215.988C454.097 215.846 454.246 215.719 454.408 215.611C454.711 215.381 455.146 215.028 455.696 214.568C457.251 213.264 458.665 211.8 459.915 210.201C461.777 207.845 463.137 205.132 463.913 202.231C464.842 198.667 464.658 194.903 463.387 191.446C462.686 189.686 461.68 188.063 460.416 186.652C459.209 185.265 457.888 184.05 456.657 182.876C455.461 181.779 454.334 180.608 453.283 179.372C452.379 178.27 451.636 177.046 451.075 175.735C450.186 173.856 449.933 171.739 450.353 169.702C450.491 169.161 450.698 168.64 450.968 168.151C451.057 167.976 451.165 167.811 451.289 167.659C450.96 168.325 450.702 169.024 450.517 169.743C450.166 171.74 450.453 173.796 451.338 175.62C451.907 176.891 452.65 178.076 453.546 179.142C454.597 180.358 455.721 181.509 456.911 182.589C458.151 183.755 459.48 184.97 460.712 186.373C462.016 187.818 463.051 189.487 463.765 191.298C465.075 194.833 465.256 198.688 464.282 202.33C463.478 205.279 462.066 208.027 460.137 210.398C458.856 211.996 457.396 213.442 455.787 214.708C455.212 215.151 454.761 215.479 454.441 215.684C454.29 215.798 454.131 215.9 453.964 215.988Z" fill="#4C6EF5"/>
<path d="M182.874 337.485L200.768 294.31C201.588 292.34 200.554 290.748 198.477 290.748H194.874C193.405 290.748 192.412 289.927 192.313 288.671L192.19 287.087C192.1 285.823 191.09 285.011 189.621 285.011H172.548C171.056 285.083 169.645 285.709 168.592 286.767L167.196 288.113C166.141 289.169 164.73 289.793 163.24 289.862H141.423C140.311 289.923 139.238 290.288 138.32 290.918C137.403 291.548 136.676 292.417 136.219 293.432L118.481 337.485H182.874Z" fill="#364FC7"/>
<g opacity="0.3">
<path opacity="0.3" d="M182.874 337.485L200.768 294.31C201.588 292.34 200.554 290.748 198.477 290.748H194.874C193.405 290.748 192.412 289.927 192.313 288.671L192.19 287.087C192.1 285.823 191.09 285.011 189.621 285.011H172.548C171.056 285.083 169.645 285.709 168.592 286.767L167.196 288.113C166.141 289.169 164.73 289.793 163.24 289.862H141.423C140.311 289.923 139.238 290.288 138.32 290.918C137.403 291.548 136.676 292.417 136.219 293.432L118.481 337.485H182.874Z" fill="#0C1641"/>
</g>
<path d="M185.829 322.826L192.576 296.732C193.019 295.016 191.894 293.293 190.327 293.293H137.433C136.894 293.316 136.379 293.519 135.969 293.87C135.56 294.222 135.281 294.7 135.176 295.23L125.326 334.506C124.899 336.229 125.589 337.264 127.157 337.247H180.378C180.91 337.216 181.416 337.01 181.819 336.661C182.221 336.312 182.497 335.84 182.603 335.318L185.829 322.826Z" fill="#748FFC"/>
<path d="M182.168 336.303L185.049 295.213C185.071 294.868 185.023 294.523 184.906 294.197C184.79 293.872 184.608 293.574 184.372 293.322C184.136 293.069 183.85 292.868 183.533 292.73C183.216 292.593 182.875 292.521 182.529 292.521H127.723V336.303H182.168Z" fill="#BAC8FF"/>
<path d="M182.783 337.247L176.266 294.885C176.113 294.211 175.734 293.609 175.192 293.179C174.65 292.749 173.978 292.517 173.286 292.521H117.84C117.341 292.514 116.849 292.632 116.407 292.863C115.965 293.095 115.588 293.433 115.31 293.847C115.032 294.261 114.862 294.738 114.815 295.235C114.768 295.731 114.846 296.232 115.041 296.691L127.009 335.458L182.783 337.247Z" fill="#EDF2FF"/>
<path d="M182.874 337.469L169.42 297.791C169.165 296.998 168.667 296.306 167.997 295.811C167.327 295.316 166.518 295.044 165.686 295.033H108.524C108.086 295.046 107.656 295.162 107.271 295.371C106.886 295.581 106.556 295.879 106.307 296.24C106.058 296.602 105.898 297.017 105.84 297.451C105.782 297.886 105.827 298.329 105.971 298.743L118.481 337.485L182.874 337.469Z" fill="#364FC7"/>
<path d="M345.001 151.062C343.483 145.702 336.514 146.219 336.514 146.219L336.703 149.945C340.733 149.256 343.269 153.975 343.269 153.975L345.001 151.062Z" fill="#4263EB"/>
<path d="M276.422 88.6714C272.655 89.0654 272.203 93.7933 272.203 93.7933L274.723 94.0888C274.723 91.3144 278.171 90.1817 278.171 90.1817L276.422 88.6714Z" fill="#4263EB"/>
<path d="M311.455 38.618C313.753 44.4622 321.51 43.1079 321.51 43.1079L320.869 38.9463C316.421 40.1694 313.088 35.1542 313.088 35.1542L311.455 38.618Z" fill="#4263EB"/>
<path d="M223.931 137.411C220.163 137.814 219.712 142.533 219.712 142.533L222.232 142.837C222.232 140.063 225.679 138.922 225.679 138.922L223.931 137.411Z" fill="#4263EB"/>
<path d="M239.428 57.308C239.978 53.5569 235.512 51.9563 235.512 51.9563L234.601 54.3613C237.285 55.0426 237.532 58.6624 237.532 58.6624L239.428 57.308Z" fill="#4263EB"/>
<path d="M175.101 114.773C174.428 120.642 182.201 122.062 182.201 122.062L183.604 118.221C178.942 117.802 178.269 112.303 178.269 112.303L175.101 114.773Z" fill="#4263EB"/>
<path d="M359.932 86.4387C363.708 86.6604 364.914 82.072 364.914 82.072L362.452 81.3661C362 84.1076 358.422 84.6494 358.422 84.6494L359.932 86.4387Z" fill="#4263EB"/>
</g>
<defs>
<clipPath id="clip0_5902_51325">
<rect width="500" height="355.085" fill="white" transform="translate(50 0.187378)"/>
</clipPath>
</defs>
</svg>
