<svg width="505" height="313" viewBox="0 0 505 313" fill="none" xmlns="http://www.w3.org/2000/svg">
<style>
#calendar {
  animation-name: calendar;
  animation-duration: 1s;
  animation-timing-function: ease-in-out;
  animation-iteration-count: 1;
  animation-fill-mode: forwards;
  opacity: 0;
}

@keyframes calendar {
  from {
    transform: translateX(4%) translateY(-3%);
    opacity: 0;
  }
  to {
    transform: translateX(0) translateY(0);
    opacity: 1;
  }
}

#letter {
  animation-name: letter;
  animation-duration: 1s;
  animation-timing-function: ease-in-out;
  animation-iteration-count: 1;
  animation-fill-mode: forwards;
  opacity: 0;
  animation-delay: 0.3s;
}

@keyframes letter {
  from {
    transform: translateX(0) translateY(0);
    opacity: 0;
  }
  to {
    transform: translateX(-4%) translateY(-4%);
    opacity: 1;
  }
}

#pie-chart {
  animation-name: pie-chart;
  animation-duration: 1s;
  animation-timing-function: ease-in-out;
  animation-iteration-count: 1;
  animation-fill-mode: forwards;
  opacity: 0;
  animation-delay: 0.1s;
}

@keyframes pie-chart {
  from {
    transform: translateX(6%) translateY(0);
    opacity: 0;
  }
  to {
    transform: translateX(0%) translateY(-2%);
    opacity: 1;
  }
}

#table {
  animation-name: table;
  animation-delay: 0.2s;
  animation-duration: 1s;
  animation-timing-function: ease-in-out;
  animation-iteration-count: 1;
  animation-fill-mode: forwards;
  opacity: 0;
}

@keyframes table {
  from {
    transform: translateX(-4%) translateY(0);
    opacity: 0;
  }
  to {
    transform: translateX(0) translateY(2%);
    opacity: 1;
  }
}

#arm1 {
  animation-name: arm1;
  animation-duration: 1.2s;
  animation-timing-function: ease-in-out;
  animation-iteration-count: 1;
  animation-fill-mode: forwards;
  transform-origin: 71.09%	57.19%;
  animation-delay: 0.2s;
  transform: rotate(-2deg);
}

@keyframes arm1 {
  from {
    transform: rotate(-2deg);
  }
  to {
    transform: rotate(6deg);
  }
}

#arm2 {
  animation-name: arm2;
  animation-duration: 1.2s;
  animation-timing-function: ease-in-out;
  animation-iteration-count: 1;
  animation-fill-mode: forwards;
  transform-origin: 17.82% 47.28%;
}

@keyframes arm2 {
  from {
    transform: rotate(0);
  }
  to {
    transform: rotate(2deg);
  }
}


#shoulder {
  animation-name: shoulder;
  animation-duration: 1.2s;
  animation-timing-function: ease-in-out;
  animation-iteration-count: 1;
  animation-fill-mode: forwards;
  transform-origin: 30.30%	47.28%;
}

@keyframes shoulder {
  from {
    transform: rotate(0);
  }
  to {
    transform: rotate(2deg);
  }
}

#hand-with-notebook {
  animation-name: hand-with-notebook;
  animation-duration: 1.2s;
  animation-timing-function: ease-in-out;
  animation-iteration-count: 1;
  animation-fill-mode: forwards;
}

@keyframes hand-with-notebook {
  from {
    transform: translateX(0) translateY(0);
  }
  to {
    transform: translateX(-0.6%) translateY(0.6%);
  }
}

#report1, #report2, #report3, #report4 {
  animation-name: report;
  animation-duration: 0.5s;
  animation-timing-function: ease-in-out;
  animation-iteration-count: 1;
  animation-fill-mode: forwards;
  opacity: 0;
}

@keyframes report {
 from {
   opacity: 0;
   transform: translateY(-1%);
 }
 to {
   opacity: 1;
   transform: translateY(0);
 }
}


#report1 {
  animation-delay: 0.2s;
}

#report2 {
  animation-delay: 0.4s;
}

#report3 {
  animation-delay: 0.6s;
}

#report4 {
  animation-delay: 0.8s;
}
</style>
<g id="Illustrations" clip-path="url(#clip0_6037_90668)">
<g id="Layer 2">
<path id="Vector" d="M289.706 313.315C165.856 313.315 66.4559 301.865 34.4559 261.815C2.45593 221.765 54.4559 110.205 75.6359 89.0249C144.546 20.1149 236.636 131.025 343.636 129.805C450.636 128.585 481.136 116.045 486.726 177.415C492.316 238.785 437.596 313.315 289.706 313.315Z" fill="#DBE4FF"/>
<g id="table">
<path id="Vector_2" d="M51.5918 113.885L235.092 113.885V0.314888L51.5918 0.314888V113.885Z" fill="white" stroke="#0C1641" stroke-width="0.5"/>
<path id="Vector_3" d="M95.8918 82.425C108.622 77.605 123.252 90.945 135.732 85.505C142.962 82.315 146.282 74.135 149.832 67.055C153.382 59.975 159.522 52.515 167.392 53.315C175.262 54.115 181.762 63.315 189.392 61.125C194.232 59.735 196.642 54.365 197.862 49.485C199.082 44.605 199.962 39.215 203.642 35.785C207.322 32.355 215.012 33.315 215.592 38.315V98.485H72.0918C72.0918 98.485 91.4918 84.095 95.8918 82.425Z" fill="#91A7FF"/>
<path id="Vector_4" d="M68.2617 98.4849C68.2617 98.6149 103.042 98.7149 145.942 98.7149C188.842 98.7149 223.622 98.6149 223.622 98.4849C223.622 98.3549 188.852 98.2549 145.942 98.2549C103.032 98.2549 68.2617 98.3149 68.2617 98.4849Z" fill="#3B5BDB"/>
<path id="Vector_5" d="M68.2617 72.185C68.2617 72.315 103.042 72.425 145.942 72.425C188.842 72.425 223.622 72.315 223.622 72.185C223.622 72.055 188.852 71.955 145.942 71.955C103.032 71.955 68.2617 72.055 68.2617 72.185Z" fill="#3B5BDB"/>
<path id="Vector_6" d="M68.2617 45.8949C68.2617 46.0149 103.042 46.1249 145.942 46.1249C188.842 46.1249 223.622 46.0149 223.622 45.8949C223.622 45.7749 188.852 45.6549 145.942 45.6549C103.032 45.6549 68.2617 45.7649 68.2617 45.8949Z" fill="#3B5BDB"/>
<path id="Vector_7" d="M68.2617 20.8949C68.2617 21.0249 103.042 21.1349 145.942 21.1349C188.842 21.1349 223.622 21.0249 223.622 20.8949C223.622 20.7649 188.852 20.6649 145.942 20.6649C103.032 20.6649 68.2617 20.7649 68.2617 20.8949Z" fill="#3B5BDB"/>
<path id="Vector_8" d="M83.3007 43.865C83.0387 41.7718 82.9051 39.6645 82.9007 37.555C82.7407 33.685 82.5607 28.295 82.4807 21.885L83.3007 22.705L61.3007 22.835C61.0907 23.045 63.0907 21.045 62.3007 21.895V27.815C62.3007 29.755 62.3007 31.645 62.3007 33.495C62.3007 37.155 62.2407 40.625 62.2107 43.865L61.3907 43.045C67.8007 43.125 73.1907 43.315 77.0607 43.465C79.17 43.4761 81.2769 43.6097 83.3708 43.865C83.4908 43.985 81.3707 44.115 77.5807 44.265C73.7907 44.415 68.1607 44.605 61.3907 44.685H60.5807V43.855C60.5807 40.615 60.5207 37.145 60.4807 33.485C60.4807 31.635 60.4807 29.745 60.4807 27.805C60.4807 26.805 60.4807 25.855 60.4807 24.865V21.865C59.6307 22.705 61.6307 20.705 61.4807 20.865L83.4807 20.995H84.3107V21.805C84.2307 28.585 84.0407 34.185 83.8907 38.005C83.7407 41.825 83.4207 43.985 83.3007 43.865Z" fill="#0C1641"/>
<path id="Vector_9" d="M64.0713 31.7949C64.8039 31.9566 65.5106 32.2191 66.1712 32.5749C67.4312 33.3449 68.6312 34.1149 69.8012 34.9149C70.3812 35.3149 70.9813 35.7449 71.5013 36.1249V36.2149C71.5013 36.2149 71.5012 36.2149 71.5912 36.1449L72.3713 34.3949C72.9313 33.1849 73.5113 31.9849 74.1213 30.7949C75.3513 28.4149 76.6813 26.0649 78.1213 23.6849C80.442 19.8374 82.9552 16.1094 85.6513 12.5149C84.8588 13.5168 84.137 14.5727 83.4912 15.6749C82.2912 17.9449 81.3212 20.0549 80.3112 22.4149C79.3912 24.5449 78.5312 27.2549 77.3112 29.5449C74.2312 35.3349 73.6013 38.2349 74.1513 36.7349C74.1513 36.8349 74.0713 36.9449 74.0413 37.0449L73.8913 37.5449C73.7913 37.8849 73.7013 38.2349 73.6213 38.6149C73.4413 39.3449 73.2712 40.1749 73.0312 41.0849C72.8213 40.9549 72.5812 40.8049 72.3412 40.6349L69.8112 38.7649L69.4613 38.4949L69.1413 38.3149L68.5813 37.8449C67.8313 37.2249 67.1213 36.5849 66.3713 36.0249C65.9535 35.8373 65.5605 35.5988 65.2012 35.3149C63.3245 33.5595 61.2777 31.9951 59.0913 30.6449L59.6312 30.7849L58.5312 29.9049C60.4097 30.4377 62.2589 31.0685 64.0713 31.7949V31.7949Z" fill="#5C7CFA"/>
<path id="Vector_10" d="M83.3005 81.8249C83.039 79.7317 82.9054 77.6244 82.9005 75.5149C82.7405 71.6449 82.5605 66.2549 82.4805 59.8449L83.3005 60.6649L61.3005 60.7949C61.0905 60.9949 63.0905 58.9949 62.3005 59.8449V65.7549C62.3005 67.6849 62.3005 69.5849 62.3005 71.4349C62.3005 75.0949 62.2705 78.5516 62.2105 81.8049L61.3905 80.9849C67.8005 81.0649 73.1905 81.2449 77.0605 81.4049C79.17 81.4098 81.2772 81.5434 83.3705 81.8049C83.4905 81.9249 81.3705 82.0449 77.5805 82.2049C73.7905 82.3649 68.1605 82.5449 61.3905 82.6249H60.5805V81.7949C60.5805 78.5483 60.5471 75.0916 60.4805 71.4249C60.4805 69.5749 60.4805 67.6749 60.4805 65.7449C60.4805 64.7449 60.4805 63.7949 60.4805 62.8049V59.8049L61.4805 58.8049L83.4805 58.9349H84.3105V59.7549C84.2305 66.5249 84.0405 72.1249 83.8905 75.9449C83.7405 79.7649 83.4205 81.9449 83.3005 81.8249Z" fill="#0C1641"/>
<path id="Vector_11" d="M64.0713 69.7549C64.8039 69.9167 65.5106 70.1792 66.1712 70.5349C67.4312 71.2949 68.6312 72.0749 69.8012 72.8749C70.3812 73.2649 70.9813 73.6949 71.5013 74.0749C71.4955 74.108 71.4955 74.1418 71.5013 74.1749L71.5912 74.1049L72.4212 72.3149C72.9812 71.0949 73.5612 69.8949 74.1712 68.7049C75.4012 66.3349 76.7312 63.9749 78.1712 61.6049C80.4603 57.7547 82.9435 54.0232 85.6113 50.4249C84.8211 51.4285 84.0994 52.4842 83.4512 53.5849C82.2512 55.8649 81.2812 57.9649 80.2712 60.3349C79.3512 62.4649 78.4912 65.1649 77.2712 67.4549C74.1912 73.2549 73.5613 76.1449 74.1113 74.6549C74.0686 74.756 74.0319 74.8595 74.0013 74.9649C74.0013 75.1249 73.9012 75.2849 73.8512 75.4649C73.7512 75.8049 73.6613 76.1549 73.5813 76.5249C73.4013 77.2649 73.2312 78.0949 72.9912 79.0049C72.7812 78.8749 72.5412 78.7249 72.3012 78.5549C71.4112 77.9049 70.5912 77.2949 69.7712 76.6749L69.4212 76.4149L69.1312 76.1749L68.5713 75.7149C67.8213 75.0849 67.1113 74.4549 66.3613 73.8849C65.9536 73.741 65.5643 73.5497 65.2012 73.3149C63.3245 71.5595 61.2777 69.9951 59.0913 68.6449L59.6312 68.7749L58.5312 67.9049C60.4103 68.4201 62.2597 69.0377 64.0713 69.7549Z" fill="#5C7CFA"/>
</g>
<g id="calendar">
<path id="Vector_12" d="M450.801 78.7549H367.021V153.705H450.801V78.7549Z" fill="white"/>
<path id="Vector_13" d="M367.022 153.715C367.022 153.715 367.022 153.235 367.022 152.315C367.022 151.395 367.022 150.055 367.022 148.315C367.022 144.795 367.022 139.655 367.072 133.095C367.072 120.005 367.072 101.285 367.162 78.765L366.972 78.955H450.752L450.532 78.725C450.532 105.995 450.532 131.655 450.532 153.725L450.722 153.525L390.132 153.625H373.042H368.512H367.352H366.942H368.472H372.962L389.962 153.675L450.682 153.775H450.882V153.585C450.882 131.585 450.882 105.895 450.882 78.585V78.365H450.652H366.872H366.682V78.555C366.682 101.125 366.762 119.885 366.782 133.005C366.782 139.545 366.782 144.675 366.782 148.185C366.782 149.915 366.782 151.245 366.782 152.185C366.782 153.125 367.022 153.715 367.022 153.715Z" fill="#0C1641"/>
<path id="Vector_14" d="M418.682 92.075C418.682 92.195 423.092 92.295 428.532 92.295C433.972 92.295 438.382 92.195 438.382 92.075C438.382 91.955 433.972 91.855 428.532 91.855C423.092 91.855 418.682 91.955 418.682 92.075Z" fill="#0C1641"/>
<path id="Vector_15" d="M383.182 97.705C383.182 97.825 395.302 97.925 410.242 97.925C425.182 97.925 437.292 97.825 437.292 97.705C437.292 97.585 425.182 97.475 410.242 97.475C395.302 97.475 383.182 97.575 383.182 97.705Z" fill="#0C1641"/>
<path id="Vector_16" d="M434.71 110.765H438.24V107.235H434.71V110.765Z" fill="#BAC8FF"/>
<path id="Vector_17" d="M426.021 110.765H429.551V107.235H426.021V110.765Z" fill="#BAC8FF"/>
<path id="Vector_18" d="M417.161 110.605H420.691V107.075H417.161V110.605Z" fill="#BAC8FF"/>
<path id="Vector_19" d="M408.642 110.765H412.172V107.235H408.642V110.765Z" fill="#BAC8FF"/>
<path id="Vector_20" d="M399.95 110.765H403.48V107.235H399.95V110.765Z" fill="#BAC8FF"/>
<path id="Vector_21" d="M391.261 110.765H394.791V107.235H391.261V110.765Z" fill="#BAC8FF"/>
<path id="Vector_22" d="M382.581 110.765H386.111V107.235H382.581V110.765Z" fill="#91A7FF"/>
<path id="Vector_23" d="M434.71 118.275H438.24V114.745H434.71V118.275Z" fill="#91A7FF"/>
<path id="Vector_24" d="M426.021 118.275H429.551V114.745H426.021V118.275Z" fill="#BAC8FF"/>
<path id="Vector_25" d="M417.322 118.275H420.852V114.745H417.322V118.275Z" fill="#91A7FF"/>
<path id="Vector_26" d="M408.642 118.275H412.172V114.745H408.642V118.275Z" fill="#BAC8FF"/>
<path id="Vector_27" d="M399.95 118.275H403.48V114.745H399.95V118.275Z" fill="#BAC8FF"/>
<path id="Vector_28" d="M391.101 118.115H394.631V114.585H391.101V118.115Z" fill="#BAC8FF"/>
<path id="Vector_29" d="M382.581 118.275H386.111V114.745H382.581V118.275Z" fill="#BAC8FF"/>
<path id="Vector_30" d="M434.71 125.775H438.24V122.245H434.71V125.775Z" fill="#BAC8FF"/>
<path id="Vector_31" d="M425.861 125.615H429.391V122.085H425.861V125.615Z" fill="#BAC8FF"/>
<path id="Vector_32" d="M417.322 125.775H420.852V122.245H417.322V125.775Z" fill="#BAC8FF"/>
<path id="Vector_33" d="M408.642 125.775H412.172V122.245H408.642V125.775Z" fill="#91A7FF"/>
<path id="Vector_34" d="M399.95 125.775H403.48V122.245H399.95V125.775Z" fill="#BAC8FF"/>
<path id="Vector_35" d="M391.261 125.775H394.791V122.245H391.261V125.775Z" fill="#BAC8FF"/>
<path id="Vector_36" d="M382.581 125.775H386.111V122.245H382.581V125.775Z" fill="#BAC8FF"/>
<path id="Vector_37" d="M434.71 133.275H438.24V129.745H434.71V133.275Z" fill="#BAC8FF"/>
<path id="Vector_38" d="M426.021 133.275H429.551V129.745H426.021V133.275Z" fill="#BAC8FF"/>
<path id="Vector_39" d="M417.322 133.275H420.852V129.745H417.322V133.275Z" fill="#BAC8FF"/>
<path id="Vector_40" d="M408.482 133.115H412.012V129.585H408.482V133.115Z" fill="#BAC8FF"/>
<path id="Vector_41" d="M399.95 133.275H403.48V129.745H399.95V133.275Z" fill="#BAC8FF"/>
<path id="Vector_42" d="M391.261 133.275H394.791V129.745H391.261V133.275Z" fill="#91A7FF"/>
<path id="Vector_43" d="M382.581 133.275H386.111V129.745H382.581V133.275Z" fill="#BAC8FF"/>
<path id="Vector_44" d="M434.71 140.775H438.24V137.245H434.71V140.775Z" fill="#BAC8FF"/>
<path id="Vector_45" d="M426.021 140.775H429.551V137.245H426.021V140.775Z" fill="#91A7FF"/>
<path id="Vector_46" d="M417.322 140.775H420.852V137.245H417.322V140.775Z" fill="#BAC8FF"/>
<path id="Vector_47" d="M408.642 140.775H412.172V137.245H408.642V140.775Z" fill="#BAC8FF"/>
<path id="Vector_48" d="M399.95 140.775H403.48V137.245H399.95V140.775Z" fill="#BAC8FF"/>
<path id="Vector_49" d="M391.101 140.615H394.631V137.085H391.101V140.615Z" fill="#BAC8FF"/>
<path id="Vector_50" d="M382.581 140.775H386.111V137.245H382.581V140.775Z" fill="#BAC8FF"/>
</g>
<g id="Group 16">
<mask id="mask0_6037_90668" style="mask-type:alpha" maskUnits="userSpaceOnUse" x="24" y="66" width="464" height="248">
<path id="Vector_51" d="M289.706 313.315C165.856 313.315 66.4559 301.865 34.4559 261.815C2.45593 221.765 54.4559 110.205 75.6359 89.0249C144.546 20.1149 236.636 131.025 343.636 129.805C450.636 128.585 481.136 116.045 486.726 177.415C492.316 238.785 437.596 313.315 289.706 313.315Z" fill="#5451E5"/>
</mask>
<g mask="url(#mask0_6037_90668)">
<g id="tablet">
<mask id="mask1_6037_90668" style="mask-type:alpha" maskUnits="userSpaceOnUse" x="48" y="230" width="439" height="269">
<rect id="Rectangle 79" x="486.961" y="498.315" width="438" height="268" transform="rotate(-180 486.961 498.315)" fill="#C4C4C4"/>
</mask>
<g mask="url(#mask1_6037_90668)">
<path id="Vector_52" d="M389.34 57.365H141.86C135.852 57.365 130.98 62.2361 130.98 68.245V428.635C130.98 434.644 135.852 439.515 141.86 439.515H389.34C395.349 439.515 400.22 434.644 400.22 428.635V68.245C400.22 62.2361 395.349 57.365 389.34 57.365Z" fill="#BAC8FF"/>
<path id="Vector_53" d="M389.342 439.505L390.182 439.455C391.002 439.379 391.813 439.222 392.602 438.985C393.894 438.559 395.1 437.906 396.162 437.055C397.616 435.859 398.738 434.309 399.422 432.555C399.839 431.505 400.079 430.393 400.132 429.265C400.192 428.075 400.132 426.815 400.132 425.495C400.132 422.828 400.132 419.945 400.132 416.845C400.132 410.595 400.132 403.375 400.132 395.255C400.132 362.755 400.082 315.745 400.052 257.655C400.052 228.655 400.052 196.795 400.052 162.655C400.052 145.588 400.052 127.945 400.052 109.725C400.052 100.625 400.052 91.3983 400.052 82.045C400.052 77.3783 400.052 72.6716 400.052 67.9249C399.979 65.5764 399.127 63.3188 397.63 61.5082C396.133 59.6975 394.075 58.4368 391.782 57.9249C390.621 57.6889 389.435 57.5982 388.252 57.6549H141.892C139.159 57.652 136.531 58.7013 134.552 60.5849C132.572 62.4563 131.396 65.0234 131.272 67.7449C131.212 73.2249 131.272 78.7449 131.272 84.2049V180.575C131.272 222.375 131.272 262.695 131.272 301.105C131.272 339.515 131.272 376.005 131.272 410.165C131.272 414.432 131.272 418.665 131.272 422.865C131.272 424.955 131.272 427.065 131.272 429.125C131.354 431.165 132.024 433.137 133.202 434.805C134.376 436.453 135.987 437.741 137.852 438.525C138.783 438.895 139.757 439.144 140.752 439.265C141.752 439.355 142.752 439.335 143.752 439.335H155.752H201.342L338.932 439.415L376.342 439.465H386.072C388.262 439.465 389.382 439.465 389.382 439.465H386.072H376.342L338.932 439.515L201.342 439.605H143.742C142.742 439.605 141.742 439.605 140.682 439.535C139.653 439.408 138.645 439.149 137.682 438.765C135.728 437.959 134.046 436.611 132.834 434.88C131.622 433.149 130.93 431.106 130.842 428.995C130.842 426.905 130.842 424.825 130.842 422.725C130.842 418.525 130.842 414.292 130.842 410.025C130.842 375.865 130.842 339.365 130.842 300.965C130.842 262.565 130.842 222.235 130.842 180.435V84.1749C130.842 78.6949 130.842 73.175 130.842 67.685C130.985 64.8276 132.222 62.1349 134.296 60.1637C136.369 58.1926 139.121 57.0939 141.982 57.0949H388.172C389.389 57.0471 390.608 57.1445 391.802 57.3849C394.201 57.9254 396.352 59.2485 397.916 61.1458C399.48 63.0432 400.369 65.407 400.442 67.865C400.442 72.6183 400.442 77.3316 400.442 82.005V109.685C400.442 127.878 400.442 145.522 400.442 162.615C400.442 196.775 400.442 228.615 400.442 257.615C400.442 315.705 400.382 362.715 400.362 395.215C400.362 403.335 400.362 410.555 400.362 416.805C400.362 419.935 400.362 422.805 400.362 425.455C400.362 426.775 400.362 428.035 400.362 429.235C400.297 430.374 400.051 431.494 399.632 432.555C398.937 434.322 397.797 435.879 396.322 437.075C394.618 438.47 392.519 439.296 390.322 439.435L389.342 439.505Z" fill="#0C1641"/>
<path id="Vector_54" d="M326.12 423.715H142.99V72.6749H388.21V360.945" fill="white"/>
</g>
</g>
</g>
</g>
<g id="tablet_2">
<mask id="mask2_6037_90668" style="mask-type:alpha" maskUnits="userSpaceOnUse" x="32" y="6" width="455" height="233">
<rect id="Rectangle 79_2" width="454" height="232" transform="matrix(-1 0 0 1 486.961 6.31494)" fill="#C4C4C4"/>
</mask>
<g mask="url(#mask2_6037_90668)">
<path id="Vector_55" d="M389.34 57.365H141.86C135.852 57.365 130.98 62.2361 130.98 68.245V428.635C130.98 434.644 135.852 439.515 141.86 439.515H389.34C395.349 439.515 400.22 434.644 400.22 428.635V68.245C400.22 62.2361 395.349 57.365 389.34 57.365Z" fill="#BAC8FF"/>
<path id="Vector_56" d="M389.342 439.505L390.182 439.455C391.002 439.379 391.813 439.222 392.602 438.985C393.894 438.559 395.1 437.906 396.162 437.055C397.616 435.859 398.738 434.309 399.422 432.555C399.839 431.505 400.079 430.393 400.132 429.265C400.192 428.075 400.132 426.815 400.132 425.495C400.132 422.828 400.132 419.945 400.132 416.845C400.132 410.595 400.132 403.375 400.132 395.255C400.132 362.755 400.082 315.745 400.052 257.655C400.052 228.655 400.052 196.795 400.052 162.655C400.052 145.588 400.052 127.945 400.052 109.725C400.052 100.625 400.052 91.3983 400.052 82.045C400.052 77.3783 400.052 72.6716 400.052 67.9249C399.979 65.5764 399.127 63.3188 397.63 61.5082C396.133 59.6975 394.075 58.4368 391.782 57.9249C390.621 57.6889 389.435 57.5982 388.252 57.6549H141.892C139.159 57.652 136.531 58.7013 134.552 60.5849C132.572 62.4563 131.396 65.0234 131.272 67.7449C131.212 73.2249 131.272 78.7449 131.272 84.2049V180.575C131.272 222.375 131.272 262.695 131.272 301.105C131.272 339.515 131.272 376.005 131.272 410.165C131.272 414.432 131.272 418.665 131.272 422.865C131.272 424.955 131.272 427.065 131.272 429.125C131.354 431.165 132.024 433.137 133.202 434.805C134.376 436.453 135.987 437.741 137.852 438.525C138.783 438.895 139.757 439.144 140.752 439.265C141.752 439.355 142.752 439.335 143.752 439.335H155.752H201.342L338.932 439.415L376.342 439.465H386.072C388.262 439.465 389.382 439.465 389.382 439.465H386.072H376.342L338.932 439.515L201.342 439.605H143.742C142.742 439.605 141.742 439.605 140.682 439.535C139.653 439.408 138.645 439.149 137.682 438.765C135.728 437.959 134.046 436.611 132.834 434.88C131.622 433.149 130.93 431.106 130.842 428.995C130.842 426.905 130.842 424.825 130.842 422.725C130.842 418.525 130.842 414.292 130.842 410.025C130.842 375.865 130.842 339.365 130.842 300.965C130.842 262.565 130.842 222.235 130.842 180.435V84.1749C130.842 78.6949 130.842 73.175 130.842 67.685C130.985 64.8276 132.222 62.1349 134.296 60.1637C136.369 58.1926 139.121 57.0939 141.982 57.0949H388.172C389.389 57.0471 390.608 57.1445 391.802 57.3849C394.201 57.9254 396.352 59.2485 397.916 61.1458C399.48 63.0432 400.369 65.407 400.442 67.865C400.442 72.6183 400.442 77.3316 400.442 82.005V109.685C400.442 127.878 400.442 145.522 400.442 162.615C400.442 196.775 400.442 228.615 400.442 257.615C400.442 315.705 400.382 362.715 400.362 395.215C400.362 403.335 400.362 410.555 400.362 416.805C400.362 419.935 400.362 422.805 400.362 425.455C400.362 426.775 400.362 428.035 400.362 429.235C400.297 430.374 400.051 431.494 399.632 432.555C398.937 434.322 397.797 435.879 396.322 437.075C394.618 438.47 392.519 439.296 390.322 439.435L389.342 439.505Z" fill="#0C1641"/>
<path id="Vector_57" d="M326.12 423.715H142.99V72.6749H388.21V360.945" fill="white"/>
<path id="Vector_58" d="M388.211 360.945C388.211 360.945 388.211 360.485 388.211 359.595C388.211 358.705 388.211 357.355 388.211 355.595C388.211 352.065 388.211 346.855 388.211 340.055C388.211 326.445 388.211 306.525 388.141 281.235C388.141 230.645 388.091 158.575 388.051 72.6649L388.281 72.8949L142.961 72.9349L143.221 72.6749V72.9849C143.221 207.925 143.221 331.165 143.151 423.715L142.961 423.515L276.831 423.605H313.341H322.851H326.091H322.851H313.341L276.831 423.665L142.961 423.905H142.761V423.715C142.761 331.165 142.761 207.925 142.701 72.9849V72.4149H142.961H388.181H388.411V72.6449C388.411 158.555 388.341 230.645 388.321 281.215C388.321 306.505 388.271 326.425 388.251 340.035C388.251 346.835 388.251 352.035 388.251 355.575C388.251 357.325 388.251 358.665 388.251 359.575C388.251 360.485 388.211 360.945 388.211 360.945Z" fill="#0C1641"/>
</g>
</g>
<g id="Group 14">
<mask id="mask3_6037_90668" style="mask-type:alpha" maskUnits="userSpaceOnUse" x="24" y="66" width="464" height="248">
<path id="Vector_59" d="M289.706 313.315C165.856 313.315 66.4559 301.865 34.4559 261.815C2.45593 221.765 54.4559 110.205 75.6359 89.0249C144.546 20.1149 236.636 131.025 343.636 129.805C450.636 128.585 481.136 116.045 486.726 177.415C492.316 238.785 437.596 313.315 289.706 313.315Z" fill="#5451E5"/>
</mask>
<g mask="url(#mask3_6037_90668)">
<g id="Group 13">
<path id="Vector_60" d="M93.1018 261.765C92.8718 261.765 85.5918 427.895 85.5918 427.895H107.802L118.602 337.895L124.192 269.115L135.722 333.505L149.662 425.155L172.012 420.355L156.892 256.655L125.202 239.095L93.1018 261.765Z" fill="#0C1641"/>
<path id="Vector_61" d="M398.96 240.765C398.96 240.765 404.14 246.305 406.68 251.625C409.22 256.945 410.86 269.625 410.86 269.625C410.86 269.625 418.01 285.555 416.92 293.705C415.83 301.855 408.55 357.615 408.55 357.615C408.55 357.615 408.91 411.805 403.75 421.475L402.6 426.685L381.76 422.985L381.89 419.865L376.96 313.595L364.42 241.245L398.96 240.765Z" fill="#0C1641"/>
<path id="Vector_62" d="M352.961 256.565C352.961 256.565 340.501 325.155 339.411 337.065C338.321 348.975 380.721 411.745 380.721 411.745L400.111 391.555L372.261 339.815L381.261 287.675L368.681 241.605L355.461 242.075L352.961 256.565Z" fill="#0C1641"/>
<path id="Vector_63" d="M406.961 404.595C406.938 405.104 406.888 405.611 406.811 406.115C406.691 407.115 406.441 408.575 406.101 410.455C405.401 414.235 404.281 419.705 402.771 426.545V426.685H402.621L381.781 423.025H381.621V422.865C381.041 408.555 380.351 391.465 379.621 373.135C378.851 353.405 378.141 335.135 377.551 320.135C375.991 308.135 374.701 298.135 373.791 291.135C373.361 287.675 373.021 284.955 372.791 283.075C372.681 282.165 372.601 281.455 372.541 280.955C372.481 280.455 372.471 280.235 372.471 280.235C372.471 280.235 372.521 280.475 372.601 280.955L372.901 283.065C373.161 284.935 373.541 287.645 374.021 291.065C374.971 298.065 376.321 308.005 377.951 320.065C378.561 335.065 379.301 353.355 380.101 373.065C380.821 391.395 381.481 408.495 382.041 422.795L381.881 422.605L402.711 426.355L402.531 426.465C404.081 419.645 405.251 414.185 405.991 410.415C406.361 408.535 406.641 407.085 406.791 406.095C406.881 405.605 406.921 405.225 406.961 404.975C407.001 404.725 406.961 404.595 406.961 404.595Z" fill="#EDF2FF"/>
</g>
</g>
</g>
<g id="Group" opacity="0.3">
<path id="Vector_64" opacity="0.3" d="M333.541 58.1449L338.671 73.3749V80.8349H332.881L333.541 58.1449Z" fill="#0C1641"/>
</g>
<path id="Vector_65" d="M93.3801 260.695C93.3701 260.629 93.3701 260.561 93.3801 260.495V259.935C93.3801 259.425 93.3801 258.705 93.3801 257.785C93.3801 255.905 93.3801 253.195 93.3101 249.785L93.4401 249.915L52.2001 249.995C52.3001 249.905 51.9901 250.205 52.4101 249.785V260.695L52.2001 260.485L81.5901 260.585H90.2601H92.6101H93.2201H93.4401H92.6601H90.3601L81.7301 260.645L52.2001 260.735H52.0001V260.535C52.0001 258.775 52.0001 256.985 52.0001 255.165V249.645L52.2101 249.435L93.4501 249.515H93.5801V249.645C93.5801 253.085 93.5201 255.825 93.5101 257.725C93.5101 258.625 93.5101 259.335 93.5101 259.845V260.375C93.482 260.487 93.4382 260.595 93.3801 260.695V260.695Z" fill="#0C1641"/>
<path id="Vector_66" d="M98.969 249.785C98.969 249.785 98.969 249.705 98.969 249.575V248.995V246.815C98.969 244.895 98.919 242.195 98.889 238.875L99.039 239.025L74.259 239.085L74.469 238.875V244.475C74.469 246.295 74.469 248.065 74.469 249.765L74.269 249.565L91.999 249.655L97.159 249.715H98.549H99.049C98.8994 249.731 98.7485 249.731 98.599 249.715H97.249H92.129L74.269 249.815H74.069V244.495C74.069 243.585 74.069 242.655 74.069 241.715V238.895L74.279 238.685L99.059 238.745H99.209V238.895C99.209 242.255 99.149 244.985 99.129 246.895C99.129 247.795 99.129 248.515 99.129 249.045C99.0903 249.295 99.0369 249.542 98.969 249.785V249.785Z" fill="#0C1641"/>
<g id="report2">
<path id="Vector_67" d="M371.962 163.865C371.962 164.005 324.442 164.125 265.832 164.125C207.222 164.125 159.682 164.005 159.682 163.865C159.682 163.725 207.192 163.605 265.832 163.605C324.472 163.605 371.962 163.725 371.962 163.865Z" fill="#0C1641"/>
<path id="Vector_68" d="M371.961 170.245C371.961 170.385 324.961 170.505 266.961 170.505C208.961 170.505 161.961 170.385 161.961 170.245C161.961 170.105 208.961 169.985 266.961 169.985C324.961 169.985 371.961 170.105 371.961 170.245Z" fill="#0C1641"/>
<path id="Vector_69" d="M371.962 180.535H159.682V192.855H371.962V180.535Z" fill="#BAC8FF"/>
<path id="Vector_70" d="M282.34 203.745C282.34 203.885 255.09 204.005 221.5 204.005C187.91 204.005 160.65 203.885 160.65 203.745C160.65 203.605 187.89 203.475 221.5 203.475C255.11 203.475 282.34 203.595 282.34 203.745Z" fill="#0C1641"/>
<path id="Vector_71" d="M370.78 213.435C370.78 213.575 323.68 213.695 265.6 213.695C207.52 213.695 160.42 213.575 160.42 213.435C160.42 213.295 207.51 213.175 265.6 213.175C323.69 213.175 370.78 213.315 370.78 213.435Z" fill="#0C1641"/>
<path id="Vector_72" d="M370.78 222.615C370.78 222.755 323.68 222.875 265.6 222.875C207.52 222.875 160.42 222.755 160.42 222.615C160.42 222.475 207.51 222.355 265.6 222.355C323.69 222.355 370.78 222.475 370.78 222.615Z" fill="#0C1641"/>
</g>
<g id="report3">
<path id="Vector_73" d="M244.342 232.775H159.682V245.095H244.342V232.775Z" fill="#BAC8FF"/>
<path id="Vector_74" d="M243.612 252.615C243.612 252.755 224.672 252.875 201.312 252.875C177.952 252.875 159.012 252.755 159.012 252.615C159.012 252.475 177.962 252.315 201.312 252.315C224.662 252.315 243.612 252.465 243.612 252.615Z" fill="#0C1641"/>
<path id="Vector_75" d="M243.61 262.075C243.61 262.215 224.98 262.335 202.01 262.335C179.04 262.335 160.42 262.215 160.42 262.075C160.42 261.935 179.04 261.815 202.01 261.815C224.98 261.815 243.61 261.925 243.61 262.075Z" fill="#0C1641"/>
<path id="Vector_76" d="M243.261 271.685C243.261 271.835 224.481 271.945 201.261 271.945C178.041 271.945 159.311 271.835 159.311 271.685C159.311 271.535 178.091 271.425 201.261 271.425C224.431 271.425 243.261 271.545 243.261 271.685Z" fill="#0C1641"/>
<path id="Vector_77" d="M243.261 281.025C243.261 281.165 224.481 281.285 201.261 281.285C178.041 281.285 159.311 281.165 159.311 281.025C159.311 280.885 178.091 280.765 201.261 280.765C224.431 280.765 243.261 280.875 243.261 281.025Z" fill="#0C1641"/>
<path id="Vector_78" d="M243.261 290.575C243.261 290.715 224.481 290.835 201.261 290.835C178.041 290.835 159.311 290.715 159.311 290.575C159.311 290.435 178.091 290.315 201.261 290.315C224.431 290.315 243.261 290.425 243.261 290.575Z" fill="#0C1641"/>
</g>
<g id="Union">
<mask id="path-81-outside-1_6037_90668" maskUnits="userSpaceOnUse" x="102.826" y="88.0133" width="40" height="57" fill="black">
<rect fill="white" x="102.826" y="88.0133" width="40" height="57"/>
<path fill-rule="evenodd" clip-rule="evenodd" d="M132.96 142.315L111.96 143.995L109.829 114.02C108.899 114.318 104.003 114.967 103.831 109.565C103.67 104.517 107.827 104.96 109.206 105.259L108.57 96.3149L109.86 95.3149C114.148 92.0143 119.241 89.9197 124.61 89.2481C129.98 88.5764 135.431 89.3522 140.4 91.4949C140.4 91.4949 141.91 111.545 141.8 120.285C141.69 129.025 132.96 130.375 132.96 130.375C132.96 130.375 133.09 139.865 132.96 142.315Z"/>
</mask>
<path fill-rule="evenodd" clip-rule="evenodd" d="M132.96 142.315L111.96 143.995L109.829 114.02C108.899 114.318 104.003 114.967 103.831 109.565C103.67 104.517 107.827 104.96 109.206 105.259L108.57 96.3149L109.86 95.3149C114.148 92.0143 119.241 89.9197 124.61 89.2481C129.98 88.5764 135.431 89.3522 140.4 91.4949C140.4 91.4949 141.91 111.545 141.8 120.285C141.69 129.025 132.96 130.375 132.96 130.375C132.96 130.375 133.09 139.865 132.96 142.315Z" fill="white"/>
<path d="M111.96 143.995L111.462 144.03L111.497 144.534L112 144.493L111.96 143.995ZM132.96 142.315L133 142.813L133.436 142.778L133.46 142.341L132.96 142.315ZM109.829 114.02L110.328 113.984L110.283 113.349L109.676 113.544L109.829 114.02ZM103.831 109.565L103.331 109.581L103.831 109.565ZM109.206 105.259L109.1 105.748L109.752 105.89L109.705 105.224L109.206 105.259ZM108.57 96.3149L108.264 95.9197L108.053 96.0836L108.072 96.3504L108.57 96.3149ZM109.86 95.3149L109.555 94.9187L109.554 94.9197L109.86 95.3149ZM124.61 89.2481L124.672 89.7442L124.61 89.2481ZM140.4 91.4949L140.899 91.4574L140.876 91.1556L140.598 91.0358L140.4 91.4949ZM141.8 120.285L141.3 120.279L141.3 120.279L141.8 120.285ZM132.96 130.375L132.884 129.881L132.454 129.947L132.46 130.382L132.96 130.375ZM112 144.493L133 142.813L132.92 141.817L111.92 143.496L112 144.493ZM109.33 114.055L111.462 144.03L112.459 143.959L110.328 113.984L109.33 114.055ZM103.331 109.581C103.376 111.008 103.736 112.082 104.303 112.873C104.872 113.666 105.621 114.137 106.381 114.402C107.873 114.923 109.445 114.668 109.982 114.496L109.676 113.544C109.284 113.67 107.943 113.889 106.711 113.458C106.109 113.248 105.544 112.887 105.116 112.291C104.688 111.694 104.371 110.823 104.33 109.549L103.331 109.581ZM109.312 104.771C108.598 104.616 107.089 104.402 105.753 104.944C105.07 105.221 104.429 105.697 103.977 106.468C103.529 107.234 103.289 108.252 103.331 109.581L104.33 109.549C104.292 108.354 104.512 107.535 104.84 106.973C105.166 106.417 105.621 106.076 106.129 105.87C107.176 105.446 108.435 105.604 109.1 105.748L109.312 104.771ZM108.072 96.3504L108.708 105.295L109.705 105.224L109.069 96.2795L108.072 96.3504ZM109.554 94.9197L108.264 95.9197L108.877 96.7101L110.167 95.7101L109.554 94.9197ZM124.548 88.7519C119.09 89.4346 113.914 91.5637 109.555 94.9187L110.165 95.7111C114.383 92.4648 119.391 90.4048 124.672 89.7442L124.548 88.7519ZM140.598 91.0358C135.547 88.8577 130.006 88.0692 124.548 88.7519L124.672 89.7442C129.953 89.0836 135.315 89.8466 140.202 91.954L140.598 91.0358ZM142.3 120.291C142.356 115.9 142.004 108.686 141.641 102.583C141.459 99.5281 141.273 96.7471 141.133 94.7297C141.063 93.721 141.005 92.9031 140.964 92.3373C140.943 92.0544 140.927 91.8345 140.916 91.6853C140.91 91.6107 140.906 91.5538 140.903 91.5155C140.902 91.4963 140.901 91.4818 140.9 91.4721C140.9 91.4672 140.899 91.4636 140.899 91.4611C140.899 91.4599 140.899 91.4589 140.899 91.4583C140.899 91.458 140.899 91.4578 140.899 91.4576C140.899 91.4575 140.899 91.4574 140.4 91.4949C139.902 91.5325 139.902 91.5325 139.902 91.5327C139.902 91.5328 139.902 91.533 139.902 91.5333C139.902 91.5339 139.902 91.5348 139.902 91.536C139.902 91.5385 139.902 91.5421 139.903 91.5469C139.904 91.5565 139.905 91.5709 139.906 91.5899C139.909 91.628 139.913 91.6848 139.919 91.7591C139.93 91.9079 139.946 92.1273 139.966 92.4097C140.007 92.9746 140.066 93.7914 140.136 94.7989C140.275 96.814 140.461 99.5917 140.642 102.642C141.006 108.749 141.355 115.929 141.3 120.279L142.3 120.291ZM132.96 130.375C133.037 130.869 133.037 130.869 133.037 130.869C133.037 130.869 133.038 130.869 133.038 130.869C133.039 130.869 133.039 130.869 133.04 130.868C133.042 130.868 133.044 130.868 133.047 130.867C133.052 130.867 133.06 130.865 133.07 130.864C133.089 130.86 133.116 130.856 133.151 130.849C133.22 130.836 133.32 130.816 133.446 130.788C133.697 130.731 134.053 130.64 134.479 130.504C135.329 130.231 136.467 129.772 137.612 129.026C139.916 127.526 142.243 124.863 142.3 120.291L141.3 120.279C141.248 124.447 139.155 126.829 137.066 128.188C136.015 128.873 134.964 129.298 134.173 129.551C133.779 129.678 133.452 129.761 133.225 129.812C133.112 129.838 133.024 129.855 132.966 129.866C132.937 129.872 132.915 129.876 132.901 129.878C132.894 129.879 132.889 129.88 132.886 129.88C132.885 129.881 132.884 129.881 132.884 129.881C132.883 129.881 132.883 129.881 132.883 129.881C132.883 129.881 132.884 129.881 132.884 129.881C132.884 129.881 132.884 129.881 132.96 130.375ZM133.46 142.341C133.526 141.098 133.525 138.095 133.509 135.423C133.501 134.083 133.489 132.819 133.479 131.891C133.473 131.426 133.469 131.046 133.466 130.781C133.464 130.649 133.463 130.546 133.462 130.476C133.461 130.44 133.461 130.414 133.461 130.395C133.461 130.386 133.46 130.38 133.46 130.375C133.46 130.373 133.46 130.371 133.46 130.37C133.46 130.369 133.46 130.369 133.46 130.369C133.46 130.368 133.46 130.368 133.46 130.368C133.46 130.368 133.46 130.368 132.96 130.375C132.46 130.382 132.46 130.382 132.46 130.382C132.46 130.382 132.46 130.382 132.46 130.382C132.46 130.382 132.46 130.383 132.46 130.383C132.46 130.385 132.46 130.386 132.46 130.389C132.461 130.393 132.461 130.4 132.461 130.409C132.461 130.427 132.461 130.454 132.462 130.489C132.463 130.559 132.464 130.662 132.466 130.794C132.469 131.058 132.474 131.438 132.479 131.901C132.489 132.829 132.501 134.091 132.509 135.429C132.525 138.114 132.525 141.082 132.461 142.288L133.46 142.341Z" fill="#0C1641" mask="url(#path-81-outside-1_6037_90668)"/>
</g>
<g id="report4">
<path id="Vector_79" d="M369.68 232.775H263.83V245.095H369.68V232.775Z" fill="#BAC8FF"/>
<path id="Vector_80" d="M368.052 254.825C368.052 254.975 348.432 255.085 324.242 255.085C300.052 255.085 280.432 254.975 280.432 254.825C280.432 254.675 300.042 254.565 324.242 254.565C348.442 254.565 368.052 254.685 368.052 254.825Z" fill="#0C1641"/>
<path id="Vector_81" d="M273.701 257.845C273.63 257.271 273.594 256.693 273.591 256.115C273.591 255.055 273.501 253.575 273.481 251.815L273.701 252.035H267.701L267.961 251.775V253.385C267.961 253.915 267.961 254.435 267.961 254.935C267.961 255.942 267.961 256.892 267.961 257.785L267.741 257.565C269.501 257.565 270.981 257.635 272.041 257.675C272.62 257.677 273.198 257.714 273.771 257.785C273.245 257.866 272.714 257.902 272.181 257.895C271.181 257.895 269.601 257.985 267.741 258.015H267.521V257.785C267.521 256.895 267.521 255.945 267.521 254.935C267.521 254.435 267.521 253.935 267.521 253.385V251.775L267.781 251.515H273.781H273.961V251.745C273.961 253.605 273.881 255.135 273.841 256.185C273.85 256.741 273.803 257.298 273.701 257.845V257.845Z" fill="#0C1641"/>
<path id="Vector_82" d="M273.701 269.435C273.63 268.861 273.594 268.283 273.591 267.705C273.591 266.635 273.501 265.165 273.481 263.405L273.701 263.625H267.701C267.641 263.625 268.191 263.125 267.961 263.365V264.965C267.961 265.505 267.961 266.025 267.961 266.525C267.961 267.532 267.961 268.482 267.961 269.375L267.741 269.145C269.501 269.145 270.981 269.225 272.041 269.265C272.62 269.267 273.198 269.304 273.771 269.375C273.245 269.456 272.714 269.492 272.181 269.485C271.181 269.485 269.601 269.575 267.741 269.595H267.521V269.365C267.521 268.475 267.521 267.525 267.521 266.515C267.521 266.015 267.521 265.515 267.521 264.955V263.355L267.781 263.095H273.781H273.961V263.325C273.961 265.185 273.881 266.715 273.841 267.765C273.85 268.325 273.803 268.884 273.701 269.435V269.435Z" fill="#0C1641"/>
<path id="Vector_83" d="M368.052 290.648C368.052 290.798 348.432 290.908 324.242 290.908C300.052 290.908 280.432 290.798 280.432 290.648C280.432 290.498 300.042 290.388 324.242 290.388C348.442 290.388 368.052 290.508 368.052 290.648Z" fill="#0C1641"/>
<path id="Vector_84" d="M273.701 281.025C273.631 280.451 273.594 279.873 273.591 279.295C273.591 278.225 273.501 276.745 273.481 274.995L273.701 275.215H267.701C267.641 275.265 268.191 274.715 267.961 274.955V276.555C267.961 277.085 267.961 277.605 267.961 278.115C267.961 279.122 267.961 280.072 267.961 280.965L267.741 280.735C269.501 280.735 270.981 280.815 272.041 280.855C272.62 280.851 273.198 280.888 273.771 280.965C273.245 281.046 272.714 281.082 272.181 281.075C271.181 281.075 269.601 281.165 267.741 281.185H267.521V280.955C267.521 280.065 267.521 279.115 267.521 278.105C267.521 277.595 267.521 277.105 267.521 276.545V274.945C267.291 275.175 267.841 274.625 267.781 274.675H273.781H273.961V274.905C273.961 276.755 273.881 278.295 273.841 279.345C273.851 279.908 273.804 280.471 273.701 281.025Z" fill="#0C1641"/>
<path id="Vector_85" d="M273.701 293.668C273.631 293.094 273.594 292.517 273.591 291.938C273.591 290.868 273.501 289.388 273.481 287.638L273.701 287.858H267.701C267.641 287.908 268.191 287.358 267.961 287.598V289.198C267.961 289.728 267.961 290.248 267.961 290.758C267.961 291.765 267.961 292.715 267.961 293.608L267.741 293.378C269.501 293.378 270.981 293.458 272.041 293.498C272.62 293.494 273.198 293.531 273.771 293.608C273.245 293.689 272.714 293.726 272.181 293.718C271.181 293.718 269.601 293.808 267.741 293.828H267.521V293.598C267.521 292.708 267.521 291.758 267.521 290.748C267.521 290.238 267.521 289.748 267.521 289.188V287.588C267.291 287.818 267.841 287.268 267.781 287.318H273.781H273.961V287.548C273.961 289.398 273.881 290.938 273.841 291.988C273.851 292.551 273.804 293.114 273.701 293.668Z" fill="#0C1641"/>
<path id="Vector_86" d="M368.052 266.415C368.052 266.565 348.432 266.675 324.242 266.675C300.052 266.675 280.432 266.565 280.432 266.415C280.432 266.265 300.042 266.155 324.242 266.155C348.442 266.155 368.052 266.315 368.052 266.415Z" fill="#0C1641"/>
<path id="Vector_87" d="M368.052 278.005C368.052 278.155 348.432 278.265 324.242 278.265C300.052 278.265 280.432 278.155 280.432 278.005C280.432 277.855 300.042 277.745 324.242 277.745C348.442 277.745 368.052 277.865 368.052 278.005Z" fill="#0C1641"/>
</g>
<path id="Vector_88" d="M373.961 84.895C373.961 85.035 325.751 85.155 266.301 85.155C206.851 85.155 158.621 85.035 158.621 84.895C158.621 84.755 206.821 84.635 266.301 84.635C325.781 84.635 373.961 84.755 373.961 84.895Z" fill="#BAC8FF"/>
<path id="Vector_89" d="M266.961 88.8149C266.961 88.9549 242.691 89.0749 212.761 89.0749C182.831 89.0749 158.551 88.9549 158.551 88.8149C158.551 88.6749 182.821 88.5549 212.761 88.5549C242.701 88.5549 266.961 88.6649 266.961 88.8149Z" fill="#BAC8FF"/>
<g id="report1">
<path id="Vector_90" d="M265.6 102.215H158.49V144.405H265.6V102.215Z" fill="#4263EB"/>
<path id="Vector_91" d="M368.682 107.775C368.682 107.925 349.422 108.045 325.682 108.045C301.942 108.045 282.682 107.925 282.682 107.775C282.682 107.625 301.932 107.515 325.682 107.515C349.432 107.515 368.682 107.635 368.682 107.775Z" fill="#0C1641"/>
<path id="Vector_92" d="M368.682 118.135C368.682 118.275 349.422 118.395 325.682 118.395C301.942 118.395 282.682 118.275 282.682 118.135C282.682 117.995 301.932 117.875 325.682 117.875C349.432 117.875 368.682 117.995 368.682 118.135Z" fill="#0C1641"/>
<path id="Vector_93" d="M368.682 128.495C368.682 128.635 349.422 128.755 325.682 128.755C301.942 128.755 282.682 128.635 282.682 128.495C282.682 128.355 301.932 128.235 325.682 128.235C349.432 128.235 368.682 128.315 368.682 128.495Z" fill="#0C1641"/>
<path id="Vector_94" d="M334.45 138.845C334.45 138.995 322.86 139.105 308.56 139.105C294.26 139.105 282.66 138.995 282.66 138.845C282.66 138.695 294.25 138.585 308.56 138.585C322.87 138.585 334.45 138.705 334.45 138.845Z" fill="#0C1641"/>
<g id="Group 30">
<path id="Vector_95" d="M180.011 130.425L177.551 123.985V130.425H174.781V116.425H177.781C178.825 116.354 179.867 116.587 180.781 117.095C181.317 117.481 181.749 117.993 182.039 118.586C182.328 119.179 182.467 119.835 182.441 120.495C182.475 121.217 182.305 121.935 181.952 122.566C181.598 123.197 181.075 123.716 180.441 124.065L182.871 130.425H180.011ZM177.551 122.425C177.704 122.44 177.858 122.44 178.011 122.425C178.268 122.437 178.524 122.392 178.76 122.293C178.997 122.193 179.209 122.042 179.379 121.85C179.55 121.659 179.676 121.431 179.747 121.184C179.818 120.938 179.833 120.678 179.791 120.425C179.791 119.295 179.291 118.515 178.071 118.515H177.551V122.425Z" fill="white"/>
<path id="Vector_96" d="M188.961 130.425V116.425H194.521V119.025H191.731V122.025H194.191V124.665H191.731V127.815H194.571V130.395L188.961 130.425Z" fill="white"/>
<path id="Vector_97" d="M203.961 116.425C204.776 116.353 205.594 116.512 206.321 116.885C206.935 117.281 207.435 117.831 207.77 118.48C208.105 119.129 208.264 119.855 208.231 120.585C208.231 123.525 206.151 124.885 203.381 124.675V130.425H200.611V116.425H203.961ZM203.541 122.345C204.801 122.345 205.481 121.905 205.481 120.555C205.481 119.445 205.101 118.675 203.861 118.675H203.381V122.315L203.541 122.345Z" fill="white"/>
<path id="Vector_98" d="M222.152 128.685C221.754 129.289 221.212 129.786 220.575 130.129C219.938 130.472 219.226 130.652 218.502 130.652C217.778 130.652 217.066 130.472 216.429 130.129C215.792 129.786 215.25 129.289 214.852 128.685C213.898 127.108 213.458 125.273 213.592 123.435C213.46 121.591 213.9 119.75 214.852 118.165C215.263 117.575 215.809 117.091 216.443 116.752C217.077 116.413 217.783 116.229 218.502 116.215C219.22 116.235 219.923 116.421 220.557 116.759C221.19 117.098 221.736 117.579 222.152 118.165C223.103 119.75 223.543 121.591 223.412 123.435C223.539 125.273 223.099 127.105 222.152 128.685ZM218.502 118.755C216.672 118.755 216.502 122.095 216.502 123.375C216.502 124.655 216.642 127.995 218.502 127.995C220.362 127.995 220.502 124.655 220.502 123.375C220.502 122.095 220.322 118.755 218.502 118.755Z" fill="white"/>
<path id="Vector_99" d="M234.71 130.425L232.25 123.985V130.425H229.48V116.425H232.48C233.524 116.356 234.565 116.589 235.48 117.095C236.012 117.485 236.44 117.998 236.73 118.59C237.019 119.183 237.16 119.836 237.14 120.495C237.175 121.218 237.006 121.936 236.652 122.567C236.299 123.198 235.775 123.717 235.14 124.065L237.58 130.425H234.71ZM232.25 122.425C232.403 122.44 232.557 122.44 232.71 122.425C232.967 122.437 233.223 122.392 233.461 122.292C233.698 122.193 233.91 122.042 234.081 121.851C234.253 121.659 234.379 121.432 234.452 121.185C234.524 120.939 234.541 120.679 234.5 120.425C234.5 119.295 234 118.515 232.78 118.515H232.25V122.425Z" fill="white"/>
<path id="Vector_100" d="M247.02 118.985V130.425H244.24V118.985H242.08V116.425H249.18V118.985H247.02Z" fill="white"/>
</g>
</g>
<path id="Vector_101" d="M215.791 47.845H327.211C328.89 47.845 330.5 48.5119 331.687 49.699C332.874 50.8861 333.541 52.4962 333.541 54.175V83.825H209.461V54.165C209.464 52.4879 210.132 50.8804 211.318 49.6954C212.505 48.5105 214.114 47.845 215.791 47.845V47.845Z" fill="#0C1641"/>
<path id="Vector_102" d="M287.291 34.3049H255.711L259.401 61.3749H283.191L287.291 34.3049Z" fill="#0C1641"/>
<path id="Vector_103" d="M325.572 47.845C325.572 47.985 301.362 48.105 271.502 48.105C241.642 48.105 217.432 47.985 217.432 47.845C217.432 47.705 241.642 47.585 271.502 47.585C301.362 47.585 325.572 47.695 325.572 47.845Z" fill="#EDF2FF"/>
<path id="Vector_104" d="M212.24 78.0249C212.09 78.0249 211.98 72.9349 211.98 66.6549C211.98 60.3749 212.09 55.2849 212.24 55.2849C212.39 55.2849 212.5 60.3749 212.5 66.6549C212.5 72.9349 212.38 78.0249 212.24 78.0249Z" fill="#EDF2FF"/>
<path id="Vector_105" d="M329.522 75.3149C329.382 75.3149 329.262 70.6849 329.262 64.9849C329.262 59.2849 329.382 54.6649 329.522 54.6649C329.662 54.6649 329.782 59.2849 329.782 64.9849C329.782 70.6849 329.662 75.3149 329.522 75.3149Z" fill="#EDF2FF"/>
<path id="Vector_106" d="M323.541 80.115C323.541 80.265 298.691 80.375 268.041 80.375C237.391 80.375 212.541 80.265 212.541 80.115C212.541 79.965 237.381 79.855 268.041 79.855C298.701 79.855 323.541 79.975 323.541 80.115Z" fill="#EDF2FF"/>
<path id="Vector_107" d="M111.96 143.995L132.96 142.315C133.09 139.865 132.96 130.375 132.96 130.375C132.96 130.375 141.69 129.025 141.8 120.285C141.91 111.545 140.4 91.4949 140.4 91.4949C135.431 89.3522 129.98 88.5764 124.61 89.2481C119.241 89.9197 114.148 92.0143 109.86 95.3149L108.57 96.3149L111.96 143.995Z" fill="white"/>
<path id="Vector_108" d="M132.96 130.255C128.926 130.331 124.961 129.203 121.57 127.015C121.57 127.015 124.27 133.305 132.98 132.515L132.96 130.255Z" fill="#FCE5EC"/>
<path id="Vector_109" d="M109.641 105.375C109.491 105.305 103.641 103.595 103.831 109.565C104.021 115.535 109.981 114.115 109.981 113.945C109.981 113.775 109.641 105.375 109.641 105.375Z" fill="white"/>
<path id="Vector_110" d="M108.091 111.745C108.091 111.745 107.981 111.815 107.811 111.905C107.688 111.957 107.555 111.984 107.421 111.984C107.287 111.984 107.154 111.957 107.031 111.905C106.64 111.671 106.317 111.338 106.096 110.939C105.875 110.541 105.763 110.091 105.771 109.635C105.738 109.123 105.82 108.611 106.011 108.135C106.061 107.946 106.156 107.773 106.289 107.63C106.421 107.487 106.587 107.379 106.771 107.315C106.888 107.276 107.016 107.28 107.13 107.328C107.244 107.376 107.337 107.464 107.391 107.575C107.481 107.745 107.391 107.865 107.481 107.865C107.571 107.865 107.601 107.765 107.551 107.525C107.51 107.378 107.422 107.248 107.301 107.155C107.218 107.095 107.124 107.053 107.024 107.031C106.925 107.009 106.821 107.006 106.721 107.025C106.472 107.083 106.242 107.206 106.056 107.382C105.87 107.558 105.734 107.779 105.661 108.025C105.426 108.549 105.32 109.122 105.351 109.695C105.34 110.227 105.485 110.751 105.77 111.201C106.054 111.651 106.465 112.007 106.951 112.225C107.121 112.276 107.3 112.286 107.474 112.253C107.648 112.219 107.812 112.145 107.951 112.035C108.081 111.885 108.111 111.755 108.091 111.745Z" fill="#FCE5EC"/>
<path id="Vector_111" d="M138.611 105.795C138.611 106.12 138.485 106.432 138.259 106.665C138.034 106.898 137.726 107.035 137.401 107.045C137.243 107.059 137.084 107.04 136.933 106.991C136.782 106.941 136.642 106.862 136.523 106.757C136.403 106.653 136.306 106.525 136.237 106.382C136.168 106.239 136.129 106.084 136.121 105.925C136.116 105.599 136.239 105.285 136.463 105.049C136.688 104.813 136.996 104.675 137.321 104.665C137.481 104.653 137.641 104.672 137.792 104.723C137.944 104.773 138.084 104.853 138.204 104.959C138.324 105.064 138.422 105.192 138.492 105.336C138.562 105.479 138.602 105.635 138.611 105.795V105.795Z" fill="#0C1641"/>
<path id="Vector_112" d="M138.712 103.785C138.562 103.945 137.612 103.245 136.272 103.245C134.932 103.245 133.942 103.925 133.802 103.755C133.662 103.585 133.882 103.395 134.312 103.075C134.901 102.673 135.599 102.46 136.312 102.465C137.011 102.469 137.692 102.689 138.262 103.095C138.652 103.415 138.792 103.705 138.712 103.785Z" fill="#0C1641"/>
<path id="Vector_113" d="M125.551 105.795C125.553 106.119 125.429 106.431 125.205 106.664C124.981 106.898 124.674 107.035 124.351 107.045C124.192 107.059 124.032 107.04 123.88 106.991C123.729 106.942 123.589 106.862 123.469 106.758C123.348 106.653 123.25 106.526 123.18 106.383C123.11 106.24 123.069 106.084 123.061 105.925C123.06 105.601 123.185 105.289 123.408 105.055C123.632 104.82 123.937 104.68 124.261 104.665C124.42 104.651 124.581 104.67 124.733 104.72C124.885 104.77 125.026 104.85 125.146 104.956C125.266 105.061 125.364 105.19 125.434 105.334C125.503 105.478 125.543 105.635 125.551 105.795V105.795Z" fill="#0C1641"/>
<path id="Vector_114" d="M125.521 104.035C125.361 104.195 124.421 103.495 123.081 103.495C121.741 103.495 120.751 104.175 120.601 104.005C120.451 103.835 120.691 103.645 121.121 103.325C121.709 102.92 122.408 102.707 123.121 102.715C123.818 102.718 124.496 102.938 125.061 103.345C125.451 103.665 125.591 103.955 125.521 104.035Z" fill="#0C1641"/>
<path id="Vector_115" d="M130.391 113.985C131.098 113.762 131.83 113.63 132.571 113.595C132.911 113.595 133.241 113.485 133.291 113.255C133.321 112.907 133.245 112.558 133.071 112.255C132.741 111.425 132.411 110.565 132.071 109.645C131.13 107.437 130.371 105.156 129.801 102.825C130.916 104.953 131.859 107.167 132.621 109.445C132.951 110.365 133.281 111.235 133.621 112.075C133.837 112.49 133.901 112.968 133.801 113.425C133.748 113.545 133.669 113.652 133.571 113.738C133.473 113.824 133.356 113.888 133.231 113.925C133.041 113.973 132.846 114 132.651 114.005C131.9 114.098 131.14 114.091 130.391 113.985Z" fill="#0C1641"/>
<path id="Vector_116" d="M126.44 114.915C126.66 114.915 126.66 116.355 127.91 117.395C129.16 118.435 130.71 118.265 130.72 118.475C130.73 118.685 130.37 118.755 129.72 118.775C128.865 118.785 128.033 118.495 127.37 117.955C126.734 117.436 126.326 116.69 126.23 115.875C126.18 115.315 126.34 114.905 126.44 114.915Z" fill="#0C1641"/>
<path id="Vector_117" d="M125.861 98.775C125.731 99.135 124.391 98.965 122.861 99.155C121.331 99.345 120.011 99.775 119.801 99.445C119.711 99.285 119.931 98.945 120.441 98.595C121.122 98.15 121.901 97.8756 122.711 97.795C123.515 97.701 124.33 97.7969 125.091 98.075C125.631 98.315 125.961 98.595 125.861 98.775Z" fill="#0C1641"/>
<path id="Vector_118" d="M138.22 99.8949C137.98 100.205 137.06 99.8949 135.95 99.8949C134.84 99.8949 133.89 100.105 133.68 99.7849C133.58 99.6249 133.73 99.3249 134.14 99.0349C134.69 98.6802 135.337 98.5054 135.99 98.5349C136.642 98.5499 137.273 98.7627 137.8 99.1449C138.19 99.4349 138.32 99.7449 138.22 99.8949Z" fill="#0C1641"/>
<path id="Vector_119" d="M144.621 85.9749C144.683 85.4334 144.606 84.8851 144.398 84.3813C144.19 83.8776 143.857 83.435 143.431 83.0949C142.988 82.7652 142.441 82.6061 141.89 82.6465C141.339 82.6869 140.822 82.9241 140.431 83.3149C140.514 82.9498 140.518 82.5715 140.445 82.2046C140.371 81.8377 140.22 81.4905 140.003 81.1856C139.786 80.8807 139.507 80.6251 139.185 80.4355C138.862 80.2458 138.503 80.1263 138.131 80.0849C136.711 79.9949 135.491 81.0849 134.131 81.4449C132.756 81.7347 131.324 81.5698 130.051 80.9749C128.761 80.4549 127.551 79.7349 126.241 79.2549C123.477 78.2498 120.427 78.3748 117.754 79.6027C115.081 80.8307 113 83.0627 111.961 85.8149C110.985 85.5818 109.961 85.6479 109.023 86.0046C108.085 86.3613 107.276 86.9921 106.701 87.8149C105.587 89.503 105.145 91.5471 105.461 93.5449C105.644 94.8854 105.98 96.2006 106.461 97.4649C106.461 97.5749 106.461 97.6849 106.461 97.8049C106.551 102.605 107.091 108.245 109.141 108.275C112.711 108.335 111.861 101.605 111.861 101.605C116.241 99.9049 114.611 93.3449 115.711 92.3449C116.811 91.3449 119.091 89.0349 128.271 93.7249C131.688 95.2498 135.497 95.6626 139.161 94.9049H139.391H139.441H139.521C140.353 94.6995 141.146 94.3619 141.871 93.9049C142.731 93.4135 143.41 92.6602 143.811 91.7549C144.001 91.2986 144.055 90.7971 143.966 90.3109C143.878 89.8247 143.65 89.3746 143.311 89.0149C144.048 88.1591 144.505 87.0982 144.621 85.9749Z" fill="#0C1641"/>
<path id="Vector_120" d="M92.6615 184.415C92.6615 185.905 97.0915 215.545 97.0915 215.545L88.2715 263.715L122.431 265.525L126.231 244.745L130.961 265.525L161.701 258.055L153.821 225.185L156.821 182.925L153.531 147.815L140.901 143.505L134.381 135.875L123.831 142.445L110.831 134.655L106.661 140.315L89.8915 148.175C88.2215 151.205 92.6615 184.415 92.6615 184.415Z" fill="#0C1641"/>
<path id="Vector_121" d="M123.755 142.544L123.838 142.594L123.918 142.538L133.161 136.032L135.459 144.793L128.291 191.197L110.503 143.971L110.92 134.912L123.755 142.544Z" fill="white" stroke="#0C1641" stroke-width="0.3"/>
<path id="Vector_122" d="M127.96 193.595C127.8 193.44 127.656 193.269 127.53 193.085L126.37 191.545L122.2 185.815L108.58 166.815L106.34 163.655L106.23 163.505L106.33 163.355L109.9 158.195L109.96 158.535C107.05 156.375 104.38 154.375 102.04 152.625L101.91 152.535V152.385C103.32 148.715 104.48 145.695 105.32 143.525L106.32 141.105C106.42 140.814 106.548 140.532 106.7 140.265C106.641 140.566 106.554 140.86 106.44 141.145L105.58 143.605C104.78 145.795 103.68 148.835 102.34 152.535L102.27 152.295L110.27 158.135L110.46 158.285L110.33 158.475L106.78 163.645V163.355L109.03 166.515L122.52 185.595L126.52 191.415L127.59 193.015C127.731 193.197 127.854 193.391 127.96 193.595Z" fill="white"/>
<path id="Vector_123" d="M126.351 243.435C126.336 243.262 126.336 243.088 126.351 242.915C126.351 242.515 126.351 242.025 126.351 241.425C126.351 240.055 126.441 238.205 126.511 235.955C126.661 231.275 126.881 224.955 127.111 217.955C127.341 210.955 127.521 204.605 127.671 199.955C127.731 197.705 127.771 195.855 127.811 194.485C127.811 193.895 127.811 193.405 127.871 193.005C127.85 192.832 127.85 192.658 127.871 192.485C127.899 192.657 127.899 192.833 127.871 193.005C127.871 193.405 127.871 193.895 127.871 194.495C127.871 195.785 127.871 197.655 127.871 199.955C127.871 204.575 127.711 210.955 127.471 217.955C127.231 224.955 126.961 231.375 126.711 235.955C126.581 238.205 126.481 240.045 126.401 241.415C126.401 242.005 126.311 242.495 126.281 242.895C126.333 243.07 126.357 243.252 126.351 243.435V243.435Z" fill="white"/>
<path id="Vector_124" d="M128.66 192.205C128.69 192.014 128.747 191.829 128.83 191.655C128.99 191.255 129.18 190.745 129.43 190.135L131.7 184.565L139.38 166.265C140 164.795 140.62 163.355 141.21 161.945V162.215L137.03 157.215L136.89 157.045L137.04 156.895L143.1 150.625V150.815L141.16 145.185L140.66 143.645C140.588 143.469 140.54 143.284 140.52 143.095C140.617 143.26 140.697 143.434 140.76 143.615L141.35 145.115C141.87 146.495 142.58 148.385 143.44 150.695V150.795L143.36 150.875C141.65 152.705 139.63 154.875 137.36 157.225V156.905L141.57 161.905L141.67 162.025L141.61 162.165L139.78 166.485C136.78 173.585 133.98 179.995 131.96 184.725L129.53 190.225C129.26 190.835 129.03 191.325 128.85 191.715C128.8 191.883 128.737 192.047 128.66 192.205Z" fill="white"/>
<g id="Group_2" opacity="0.3">
<path id="Vector_125" opacity="0.3" d="M102.111 152.465L107.401 158.385L103.741 164.945L126.351 191.785L106.501 163.505L110.051 158.345L102.111 152.465Z" fill="#0C1641"/>
</g>
<g id="Group_3" opacity="0.3">
<path id="Vector_126" opacity="0.3" d="M129.191 190.935L141.781 166.235L141.451 162.045L129.191 190.935Z" fill="#0C1641"/>
</g>
<path id="Vector_127" d="M135.52 144.995C135.37 145.217 135.192 145.419 134.99 145.595C134.62 145.965 134.08 146.505 133.37 147.185C131.437 149.072 129.339 150.782 127.1 152.295L126.77 152.515V152.115C126.801 150.309 126.531 148.512 125.97 146.795C125.629 145.866 125.193 144.975 124.67 144.135C124.41 143.705 124.12 143.285 123.81 142.865L123.69 142.715L123.63 142.635L123.95 142.705C123.862 142.772 123.784 142.853 123.72 142.945C123.577 143.146 123.446 143.356 123.33 143.575C122.726 145.037 122.306 146.569 122.08 148.135C121.8 149.655 121.57 151.135 121.36 152.515L121.3 152.925L120.98 152.665L113.35 146.585L111.21 144.825C110.943 144.63 110.698 144.405 110.48 144.155C110.771 144.312 111.045 144.496 111.3 144.705C111.88 145.135 112.63 145.705 113.53 146.365L121.27 152.285L120.89 152.445C121.08 151.045 121.31 149.575 121.58 148.045C121.798 146.428 122.232 144.847 122.87 143.345C122.99 143.09 123.138 142.848 123.31 142.625C123.403 142.499 123.511 142.385 123.63 142.285H123.69L124.02 142.355L124.08 142.435L124.2 142.595C124.52 143.025 124.82 143.455 125.09 143.905C125.632 144.775 126.077 145.7 126.42 146.665C126.988 148.431 127.252 150.281 127.2 152.135L126.86 151.955C129.097 150.477 131.217 148.829 133.2 147.025L134.89 145.535C135.079 145.331 135.29 145.15 135.52 144.995Z" fill="#0C1641"/>
<path id="Vector_128" d="M127.882 191.315C127.742 191.315 126.702 180.465 125.572 167.045C124.442 153.625 123.642 142.745 123.792 142.735C123.942 142.725 124.962 153.585 126.092 167.005C127.222 180.425 128.022 191.315 127.882 191.315Z" fill="#0C1641"/>
<g id="Group_4" opacity="0.3">
<path id="Vector_129" opacity="0.3" d="M96.2918 180.655C96.2918 180.655 95.4018 204.185 95.4118 204.235L93.3418 190.315L96.2918 180.655Z" fill="#0C1641"/>
</g>
<g id="shoulder">
<path id="Vector_130" d="M153.49 147.815C153.49 147.815 162.09 154.765 165.01 162.995C167.93 171.225 172.74 182.075 172.74 182.075H156.74L153.49 147.815Z" fill="#0C1641"/>
<path id="Vector_131" d="M153.49 147.815C153.49 147.815 162.09 154.765 165.01 162.995C167.93 171.225 179.12 197.258 179.12 197.258L159.163 198.38L153.49 147.815Z" fill="#0C1641"/>
<path id="Vector_132" d="M155.56 177.125C155.41 177.125 154.93 171.695 154.47 164.965C154.01 158.235 153.76 152.775 153.9 152.765C154.04 152.755 154.53 158.205 154.99 164.935C155.45 171.665 155.7 177.115 155.56 177.125Z" fill="white"/>
</g>
<g id="hand-with-notebook">
<g id="Vector_133">
<path d="M192.29 213.235C192.373 213.306 192.446 213.387 192.51 213.475C192.89 213.975 193.51 215.255 192.87 217.475C192.033 219.939 191.072 222.358 189.99 224.725C189.99 224.725 190.68 227.725 189.99 228.415C189.3 229.105 177.89 228.415 177.89 228.415C177.89 228.415 175.89 227.325 177.43 226.415H185.43" fill="white"/>
<path d="M192.29 213.235C192.373 213.306 192.446 213.387 192.51 213.475C192.89 213.975 193.51 215.255 192.87 217.475C192.033 219.939 191.072 222.358 189.99 224.725C189.99 224.725 190.68 227.725 189.99 228.415C189.3 229.105 177.89 228.415 177.89 228.415C177.89 228.415 175.89 227.325 177.43 226.415H185.43" stroke="#0C1641" stroke-width="0.5"/>
</g>
<path id="Vector_134" d="M113.641 216.425L122.641 226.425H185.471L206.301 186.315C206.53 185.87 206.642 185.374 206.624 184.873C206.607 184.373 206.461 183.886 206.201 183.458C205.941 183.03 205.576 182.677 205.139 182.431C204.703 182.185 204.211 182.056 203.711 182.055H142.211C141.634 182.055 141.071 182.226 140.592 182.546C140.113 182.867 139.74 183.322 139.521 183.855L126.871 214.415L114.711 214.105C114.439 214.098 114.171 214.17 113.94 214.314C113.709 214.457 113.525 214.665 113.411 214.912C113.297 215.159 113.258 215.434 113.299 215.703C113.34 215.972 113.459 216.223 113.641 216.425Z" fill="#4C6EF5"/>
<path id="Vector_135" d="M113.691 214.515C113.938 214.695 114.166 214.9 114.371 215.125L116.201 216.965L122.671 223.615L122.311 223.675C124.141 219.675 126.311 214.785 128.621 209.545C131.751 202.405 134.481 195.885 136.441 191.165C137.441 188.855 138.191 186.965 138.771 185.575L139.421 184.065C139.488 183.885 139.575 183.714 139.681 183.555C139.65 183.744 139.596 183.929 139.521 184.105L138.961 185.655C138.461 186.995 137.721 188.925 136.791 191.305C134.911 196.065 132.231 202.605 129.101 209.755C126.811 214.995 124.591 219.845 122.711 223.855L122.571 224.145L122.351 223.915L116.021 217.135C115.301 216.345 114.721 215.705 114.271 215.225C114.062 215.002 113.869 214.764 113.691 214.515V214.515Z" fill="#748FFC"/>
<path id="Vector_136" d="M167.411 207.195C166.769 207.406 166.081 207.427 165.428 207.257C164.775 207.086 164.185 206.731 163.729 206.234C163.272 205.736 162.969 205.118 162.855 204.453C162.741 203.787 162.821 203.103 163.086 202.483C163.351 201.862 163.79 201.331 164.349 200.953C164.908 200.575 165.564 200.366 166.239 200.351C166.914 200.337 167.579 200.517 168.154 200.871C168.728 201.224 169.189 201.736 169.481 202.345C169.846 203.263 169.834 204.288 169.446 205.197C169.058 206.106 168.326 206.824 167.411 207.195Z" fill="white"/>
<path id="Vector_137" d="M105.881 219.205L111.571 218.675C111.571 218.675 121.801 215.265 123.511 215.565C123.635 216.111 123.574 216.683 123.339 217.191C123.104 217.699 122.708 218.115 122.211 218.375C120.401 219.475 117.691 220.785 117.691 220.785L121.781 225.445C122.036 225.754 122.355 226.004 122.716 226.177C123.077 226.349 123.471 226.441 123.871 226.445H137.261C137.12 226.917 136.875 227.351 136.545 227.716C136.214 228.081 135.807 228.367 135.351 228.555C133.941 228.955 124.191 231.865 124.191 231.865L103.021 229.635L105.881 219.205Z" fill="white" stroke="#0C1641" stroke-width="0.5"/>
</g>
<g id="arm2">
<path id="Vector_138" d="M89.8902 148.135C89.8902 148.135 80.0402 151.315 75.4502 170.715C72.0802 184.985 62.5202 213.395 64.9602 217.935C67.9602 223.555 102.79 232.525 102.79 232.525L105.79 219.225L88.2902 207.415L97.6302 175.835C97.6302 175.835 98.7002 149.605 89.8902 148.135Z" fill="#0C1641"/>
<path id="Vector_139" d="M68.8301 220.995C68.8301 220.945 69.6501 221.425 71.2301 222.055C72.8101 222.685 75.1301 223.595 78.0801 224.615C83.9801 226.615 92.3701 229.345 102.18 232.295L101.87 232.465C103.04 228.105 104.31 223.375 105.63 218.465L105.74 218.745L105.17 218.395L88.1701 207.605L88.0201 207.515V207.345C90.5001 198.805 92.6201 191.555 94.1201 186.395C94.8701 183.865 95.4701 181.855 95.9001 180.395C96.1101 179.735 96.2701 179.215 96.3901 178.815C96.4359 178.631 96.503 178.453 96.5901 178.285C96.5637 178.471 96.5236 178.655 96.4701 178.835C96.3601 179.235 96.2201 179.765 96.0501 180.435C95.6501 181.875 95.1001 183.895 94.4001 186.435C92.9401 191.605 90.8901 198.875 88.4801 207.435L88.3801 207.165L105.38 217.915L105.95 218.265L106.11 218.375V218.555C104.78 223.455 103.51 228.185 102.33 232.555L102.26 232.805L102.02 232.725C92.2101 229.725 83.8401 226.995 77.9501 224.865C75.0101 223.805 72.7001 222.865 71.1401 222.175C70.3389 221.846 69.5663 221.451 68.8301 220.995Z" fill="#DBE4FF"/>
<path id="Vector_140" d="M89.5606 153.015C89.8125 153.124 90.0455 153.272 90.2506 153.455C90.8555 153.903 91.427 154.394 91.9606 154.925C93.6845 156.688 95.0767 158.748 96.0706 161.005C97.0624 163.259 97.6351 165.675 97.7606 168.135C97.8165 168.877 97.8165 169.623 97.7606 170.365C97.7513 170.64 97.7042 170.913 97.6206 171.175C97.5206 171.175 97.6206 170.005 97.4406 168.175C96.9938 163.34 94.9941 158.779 91.7406 155.175C90.4106 153.815 89.5106 153.095 89.5606 153.015Z" fill="white"/>
</g>
<path id="Vector_141" d="M369.62 125.065C369 121.435 371.77 117.765 375.29 116.665C378.81 115.565 382.74 116.665 385.77 118.745C388.02 120.315 389.89 122.425 392.27 123.745C394.44 124.985 396.94 125.555 399.08 126.835C400.75 127.859 402.138 129.283 403.119 130.979C404.101 132.674 404.644 134.587 404.7 136.545C404.76 139.255 403.89 142.155 405.1 144.545C406.43 147.195 409.76 148.275 411.27 150.815C412.63 153.115 412.19 156.035 411.53 158.625C410.87 161.215 410.06 163.955 410.82 166.525C411.51 168.855 413.39 170.645 414.44 172.845C415.413 175.07 415.536 177.574 414.786 179.883C414.036 182.192 412.465 184.146 410.37 185.375L387.96 176.365L369.62 125.065Z" fill="#0C1641"/>
<path id="Vector_142" d="M369.361 123.635C365.911 123.305 362.771 126.045 361.441 129.235C360.111 132.425 360.141 136.005 360.091 139.475C360.041 142.945 359.841 146.545 358.091 149.555C357.181 151.125 355.901 152.455 354.861 153.945C353.715 155.378 353.135 157.182 353.231 159.015C353.661 162.295 357.231 164.315 358.161 167.495C358.901 170.065 357.711 172.865 358.311 175.495C358.865 177.506 360.181 179.221 361.981 180.275C363.771 181.31 365.701 182.082 367.711 182.565L378.941 173.865L376.211 122.945L369.361 123.635Z" fill="#0C1641"/>
<path id="Vector_143" d="M394.021 140.945L392.681 177.075C392.628 178.531 392.28 179.961 391.657 181.278C391.035 182.596 390.151 183.773 389.06 184.738C387.968 185.703 386.692 186.436 385.308 186.893C383.925 187.35 382.463 187.521 381.011 187.395V187.395C378.294 187.158 375.778 185.864 374.004 183.793C372.229 181.721 371.338 179.036 371.521 176.315C371.621 173.595 371.571 170.385 371.521 170.095C371.521 170.095 362.471 168.095 362.141 158.935C361.981 154.525 362.091 147.115 362.561 138.875C362.811 134.612 364.657 130.599 367.731 127.634C370.805 124.67 374.882 122.971 379.151 122.875H380.031C389.591 123.175 394.621 131.435 394.021 140.945Z" fill="white"/>
<path id="Vector_144" d="M371.521 170.165C375.74 170.143 379.857 168.869 383.352 166.505C383.352 166.505 380.691 173.145 371.551 172.505L371.521 170.165Z" fill="#FCE5EC"/>
<path id="Vector_145" d="M364.781 146.995C364.786 147.335 364.924 147.659 365.165 147.898C365.407 148.137 365.732 148.272 366.071 148.275C366.237 148.286 366.404 148.263 366.561 148.208C366.718 148.153 366.863 148.067 366.986 147.955C367.109 147.843 367.208 147.707 367.278 147.556C367.348 147.405 367.386 147.241 367.391 147.075C367.386 146.734 367.249 146.409 367.008 146.168C366.767 145.928 366.442 145.79 366.101 145.785C365.935 145.776 365.768 145.8 365.611 145.856C365.453 145.912 365.309 145.999 365.186 146.112C365.063 146.224 364.964 146.361 364.894 146.512C364.825 146.664 364.786 146.828 364.781 146.995V146.995Z" fill="#0C1641"/>
<path id="Vector_146" d="M364.601 143.915C364.761 144.085 365.741 143.325 367.141 143.295C368.541 143.265 369.591 143.945 369.741 143.775C369.891 143.605 369.641 143.395 369.181 143.075C368.566 142.668 367.839 142.462 367.101 142.485C366.378 142.504 365.679 142.749 365.101 143.185C364.661 143.535 364.521 143.845 364.601 143.915Z" fill="#0C1641"/>
<path id="Vector_147" d="M378.092 146.995C378.097 147.335 378.235 147.659 378.476 147.898C378.717 148.137 379.042 148.272 379.382 148.275C379.548 148.286 379.715 148.263 379.872 148.208C380.029 148.153 380.173 148.067 380.296 147.955C380.42 147.843 380.519 147.707 380.589 147.556C380.658 147.405 380.697 147.241 380.702 147.075C380.697 146.734 380.559 146.409 380.318 146.168C380.077 145.928 379.752 145.79 379.412 145.785C379.245 145.776 379.078 145.8 378.921 145.856C378.764 145.912 378.62 145.999 378.497 146.112C378.374 146.224 378.274 146.361 378.205 146.512C378.135 146.664 378.097 146.828 378.092 146.995V146.995Z" fill="#0C1641"/>
<path id="Vector_148" d="M378.02 144.115C378.18 144.275 379.15 143.525 380.56 143.495C381.97 143.465 383.01 144.145 383.15 143.965C383.29 143.785 383.06 143.585 382.6 143.275C381.987 142.864 381.258 142.657 380.52 142.685C379.796 142.698 379.095 142.943 378.52 143.385C378.08 143.725 377.96 144.035 378.02 144.115Z" fill="#0C1641"/>
<path id="Vector_149" d="M373.61 153.795C372.868 153.58 372.102 153.459 371.33 153.435C370.97 153.435 370.63 153.345 370.56 153.105C370.521 152.735 370.595 152.362 370.77 152.035L371.77 149.275C373.15 145.355 374.14 142.145 373.98 142.085C373.82 142.025 372.58 145.165 371.2 149.085C370.86 150.085 370.55 150.975 370.25 151.855C370.033 152.292 369.977 152.791 370.09 153.265C370.148 153.388 370.231 153.498 370.334 153.586C370.438 153.674 370.559 153.738 370.69 153.775C370.891 153.819 371.095 153.843 371.3 153.845C372.07 153.924 372.845 153.908 373.61 153.795V153.795Z" fill="#0C1641"/>
<path id="Vector_150" d="M378.452 138.605C378.612 138.975 380.002 138.725 381.652 138.845C383.302 138.965 384.652 139.345 384.862 138.985C384.952 138.815 384.702 138.475 384.152 138.125C383.397 137.634 382.498 137.412 381.602 137.495C380.806 137.414 380.002 137.531 379.262 137.835C378.672 138.115 378.382 138.425 378.452 138.605Z" fill="#0C1641"/>
<path id="Vector_151" d="M364.05 138.555C364.34 138.865 365.47 138.555 366.83 138.495C368.19 138.435 369.34 138.685 369.6 138.345C369.72 138.185 369.53 137.865 369.02 137.565C368.325 137.2 367.545 137.027 366.76 137.065C365.976 137.083 365.212 137.315 364.55 137.735C364.07 138.065 363.96 138.395 364.05 138.555Z" fill="#0C1641"/>
<path id="Vector_152" d="M373.18 158.315C373.239 158.031 373.333 157.755 373.46 157.495C373.625 157.208 373.858 156.967 374.139 156.792C374.42 156.618 374.74 156.515 375.07 156.495C375.727 156.466 376.37 156.696 376.86 157.135C377.08 157.318 377.257 157.547 377.378 157.807C377.499 158.066 377.561 158.349 377.56 158.635C377.561 158.787 377.527 158.938 377.46 159.075C377.294 159.467 377.037 159.814 376.71 160.087C376.383 160.36 375.996 160.551 375.58 160.645C375.162 160.726 374.73 160.685 374.334 160.527C373.939 160.37 373.597 160.101 373.35 159.755C373.206 159.551 373.116 159.313 373.09 159.065C373.079 158.812 373.109 158.558 373.18 158.315V158.315Z" fill="#FCE5EC"/>
<path id="Vector_153" d="M392.6 153.125C392.614 153.122 392.628 153.122 392.641 153.125C392.654 153.128 392.667 153.134 392.677 153.143C392.688 153.152 392.696 153.163 392.702 153.175C392.708 153.188 392.711 153.201 392.71 153.215C392.71 153.23 392.705 153.244 392.697 153.257C392.689 153.269 392.677 153.279 392.664 153.285C392.65 153.291 392.635 153.294 392.621 153.292C392.606 153.29 392.592 153.284 392.58 153.275C392.568 153.268 392.557 153.258 392.55 153.246C392.543 153.233 392.539 153.219 392.539 153.205C392.539 153.191 392.543 153.177 392.55 153.164C392.557 153.152 392.568 153.142 392.58 153.135H392.65" fill="#0C1641"/>
<path id="Vector_154" d="M392.471 152.735C392.485 152.732 392.499 152.732 392.512 152.735C392.525 152.738 392.538 152.744 392.548 152.753C392.559 152.762 392.568 152.773 392.573 152.785C392.579 152.798 392.582 152.811 392.581 152.825C392.578 152.837 392.572 152.848 392.564 152.858C392.556 152.867 392.546 152.875 392.534 152.879C392.522 152.884 392.51 152.886 392.497 152.885C392.485 152.884 392.473 152.88 392.462 152.873C392.451 152.867 392.442 152.858 392.436 152.847C392.429 152.836 392.425 152.824 392.424 152.812C392.423 152.799 392.425 152.787 392.43 152.775C392.434 152.763 392.442 152.753 392.451 152.745C392.462 152.735 392.477 152.73 392.491 152.73C392.506 152.73 392.52 152.735 392.531 152.745" fill="#0C1641"/>
<path id="Vector_155" d="M371.961 158.905C371.961 159.015 372.321 159.215 372.961 159.315C373.867 159.462 374.795 159.325 375.621 158.925C376.457 158.518 377.126 157.832 377.511 156.985C377.801 156.355 377.811 155.925 377.701 155.885C377.591 155.845 376.841 157.345 375.231 158.135C374.523 158.461 373.759 158.651 372.981 158.695C372.401 158.755 371.961 158.775 371.961 158.905Z" fill="#0C1641"/>
<path id="Vector_156" d="M397.451 148.855C399.541 141.495 398.451 133.065 393.771 127.025C389.091 120.985 380.541 117.865 373.301 120.365C372.258 120.67 371.305 121.223 370.521 121.975C370.13 122.358 369.845 122.836 369.695 123.361C369.544 123.887 369.532 124.443 369.661 124.975C370.151 126.605 372.121 127.255 373.821 127.335C375.521 127.415 377.351 127.195 378.821 128.055C381.421 129.575 381.361 133.395 383.201 135.765C384.101 136.935 385.451 137.765 386.271 138.955C388.501 142.275 386.661 144.275 388.081 147.955C388.481 148.955 390.281 149.955 391.381 150.085C392.481 150.215 391.601 150.225 393.941 149.965L397.451 148.855Z" fill="#0C1641"/>
<path id="Vector_157" d="M390.811 150.115C390.961 150.035 396.931 147.945 397.061 154.115C397.191 160.285 390.931 159.115 390.921 158.995C390.911 158.875 390.811 150.115 390.811 150.115Z" fill="white"/>
<path id="Vector_158" d="M392.771 156.635C392.771 156.635 392.871 156.705 393.061 156.785C393.32 156.892 393.611 156.892 393.871 156.785C394.265 156.523 394.583 156.161 394.792 155.736C395.001 155.31 395.094 154.837 395.061 154.365C395.063 153.833 394.946 153.307 394.721 152.825C394.66 152.631 394.553 152.454 394.408 152.311C394.263 152.168 394.086 152.063 393.891 152.005C393.766 151.973 393.634 151.987 393.518 152.044C393.403 152.1 393.311 152.197 393.261 152.315C393.181 152.495 393.261 152.615 393.191 152.625C393.121 152.635 393.051 152.525 393.101 152.265C393.13 152.11 393.215 151.971 393.341 151.875C393.422 151.808 393.517 151.758 393.618 151.729C393.72 151.699 393.826 151.691 393.931 151.705C394.187 151.748 394.429 151.858 394.63 152.023C394.832 152.187 394.987 152.402 395.081 152.645C395.352 153.178 395.493 153.767 395.491 154.365C395.531 154.916 395.408 155.466 395.138 155.948C394.867 156.43 394.462 156.822 393.971 157.075C393.804 157.126 393.628 157.139 393.455 157.115C393.283 157.091 393.117 157.03 392.971 156.935C392.781 156.785 392.741 156.645 392.771 156.635Z" fill="#FCE5EC"/>
<path id="Vector_159" d="M404.501 137.995C403.172 138.558 401.753 138.876 400.311 138.935C398.754 138.964 397.204 138.72 395.731 138.215C393.927 137.579 392.218 136.701 390.651 135.605C388.961 134.455 387.441 133.225 386.051 132.125C384.661 131.025 383.371 130.035 382.241 129.295C381.359 128.69 380.433 128.152 379.471 127.685C379.127 127.495 378.761 127.347 378.381 127.245C378.698 127.468 379.033 127.665 379.381 127.835C380.041 128.205 380.961 128.775 382.061 129.545C383.161 130.315 384.401 131.315 385.781 132.435C387.161 133.555 388.681 134.805 390.391 135.975C391.995 137.087 393.745 137.972 395.591 138.605C397.116 139.103 398.718 139.32 400.321 139.245C401.399 139.194 402.461 138.961 403.461 138.555C403.731 138.446 403.991 138.315 404.241 138.165C404.421 138.065 404.511 138.005 404.501 137.995Z" fill="#4C6EF5"/>
<path id="Vector_160" d="M404.96 138.575C404.96 138.515 404.07 139.025 402.63 139.705C398.857 141.47 394.724 142.329 390.56 142.215C388.97 142.215 387.99 142.045 387.98 142.115C388.192 142.212 388.419 142.273 388.65 142.295C389.279 142.409 389.913 142.485 390.55 142.525C392.654 142.671 394.767 142.526 396.83 142.095C398.893 141.662 400.888 140.952 402.76 139.985C403.33 139.685 403.881 139.351 404.41 138.985C404.81 138.755 405.01 138.605 404.96 138.575Z" fill="#4C6EF5"/>
<path id="Vector_161" d="M360.262 134.835C361.338 134.726 362.345 134.258 363.122 133.505C363.999 132.865 364.631 131.944 364.912 130.895C364.271 131.695 363.58 132.454 362.842 133.165C362.01 133.764 361.149 134.322 360.262 134.835V134.835Z" fill="#4C6EF5"/>
<g id="pie-chart">
<path id="Vector_162" d="M434.449 203.118L458.569 199.438C459.504 205.825 457.883 212.324 454.059 217.524C450.234 222.724 444.514 226.207 438.139 227.218C434.701 227.75 431.19 227.541 427.839 226.605C424.489 225.669 421.378 224.027 418.714 221.791C416.049 219.554 413.894 216.774 412.392 213.637C410.889 210.499 410.075 207.077 410.003 203.599C409.931 200.122 410.604 196.669 411.975 193.472C413.346 190.275 415.385 187.408 417.954 185.064C420.524 182.719 423.565 180.951 426.874 179.877C430.182 178.803 433.682 178.449 437.139 178.838L434.449 203.118Z" fill="#EDF2FF"/>
<path id="Vector_163" d="M442.282 178.948L439.352 197.648L457.702 194.218C457.702 194.218 455.052 183.718 442.282 178.948Z" fill="#BAC8FF"/>
</g>
<path id="Vector_164" d="M360.511 140.855C360.441 140.945 360.771 141.315 361.341 141.515C361.911 141.715 362.401 141.625 362.401 141.515C362.401 141.405 361.981 141.275 361.481 141.105C360.981 140.935 360.581 140.755 360.511 140.855Z" fill="#4C6EF5"/>
<g id="arm1">
<path id="Vector_165" d="M325.85 216.125C325.901 214.222 325.386 212.346 324.37 210.735C322.75 208.535 319.3 207.525 319.01 205.995C318.72 204.465 316.07 201.385 314.8 202.095C313.53 202.805 312.96 204.465 314.8 206.385C316.009 207.644 317.109 209.002 318.09 210.445C318.09 210.445 301.61 207.595 300.41 207.795C299.21 207.995 297.99 208.215 297.99 209.235C297.99 210.255 301.18 210.525 301.18 210.525L306.55 214.255C307.782 215.936 309.239 217.441 310.88 218.725C312.707 219.853 314.752 220.583 316.88 220.865L322.58 224.515C322.58 224.515 328.21 220.385 325.85 216.125Z" fill="white" stroke="#0C1641" stroke-width="0.5"/>
<path id="Vector_166" d="M301.521 210.645C301.521 210.645 301.621 210.525 301.811 210.345C302.091 210.098 302.44 209.944 302.811 209.905C304.041 209.868 305.251 210.218 306.271 210.905C307.321 211.587 308.285 212.393 309.141 213.305C309.482 213.712 309.871 214.075 310.301 214.385C310.049 213.914 309.729 213.483 309.352 213.105C308.539 212.112 307.573 211.255 306.491 210.565C305.406 209.801 304.084 209.446 302.761 209.565C302.365 209.646 302.01 209.866 301.761 210.185C301.521 210.475 301.501 210.645 301.521 210.645Z" fill="#0C1641"/>
<path id="Vector_167" d="M307.291 210.845C308.075 211.217 308.911 211.467 309.771 211.585C310.601 211.832 311.465 211.947 312.331 211.925C311.548 211.551 310.711 211.301 309.851 211.185C309.021 210.938 308.157 210.823 307.291 210.845Z" fill="#0C1641"/>
<path id="Vector_168" d="M315.79 211.635C315.365 211.584 314.933 211.622 314.523 211.748C314.113 211.874 313.734 212.084 313.41 212.365C313.05 212.585 312.739 212.875 312.495 213.219C312.251 213.563 312.079 213.953 311.99 214.365C312.1 214.425 312.58 213.415 313.65 212.645C314.332 212.245 315.048 211.907 315.79 211.635Z" fill="#0C1641"/>
<path id="Vector_169" d="M357.635 179.705C351.906 181.357 349.54 183.695 347.57 189.125C346.57 191.975 340.41 222.345 340.41 222.345L328.09 213.975L319.75 226.515L339.46 241.865C343.309 242.853 347.374 242.558 351.04 241.025C352.39 240.455 353.46 239.795 353.72 239.095C396.706 221.232 367.677 176.809 357.635 179.705Z" fill="#4263EB"/>
<g id="Group_5" opacity="0.3">
<path id="Vector_170" opacity="0.3" d="M345.642 227.315C346.362 228.314 346.83 229.473 347.004 230.692C347.178 231.911 347.054 233.154 346.642 234.315C346.576 234.526 346.447 234.711 346.272 234.845C346.062 234.951 345.819 234.971 345.594 234.9C345.37 234.829 345.182 234.673 345.072 234.465C344.865 234.039 344.766 233.569 344.782 233.095C344.551 229.133 342.986 225.365 340.342 222.405V222.315C342.371 223.679 344.162 225.368 345.642 227.315V227.315Z" fill="#0C1641"/>
</g>
<path id="Vector_171" d="M340.221 222.195C341.07 223.181 341.862 224.216 342.591 225.295C343.681 227.145 344.101 228.885 344.241 228.845C344.139 227.502 343.702 226.206 342.971 225.075C342.34 223.878 341.388 222.88 340.221 222.195V222.195Z" fill="#0C1641"/>
</g>
<path id="Vector_172" d="M414.831 183.625L391.441 176.035C386.901 188.115 372.271 186.035 371.521 176.335L357.631 179.685C357.631 179.685 352.961 209.165 354.111 215.315C355.921 225.175 351.371 257.165 348.961 268.675C346.871 278.675 352.961 284.565 356.041 287.285C371.661 301.085 379.761 299.225 391.191 292.055C399.232 287.198 407.677 283.043 416.431 279.635C415.291 266.285 407.901 252.435 403.141 242.415L405.311 219.135L414.831 183.625Z" fill="#4263EB"/>
<path id="Vector_173" d="M349.371 265.145C349.451 264.922 349.518 264.695 349.571 264.465C349.681 264.015 349.851 263.345 350.041 262.465C350.441 260.745 350.971 258.235 351.511 255.125C352.051 252.015 352.571 248.275 352.961 244.125C353.351 239.975 353.581 235.365 353.651 230.545C353.721 225.725 353.791 221.145 354.101 216.985C354.337 213.284 354.855 209.607 355.651 205.985C356.187 203.556 356.92 201.175 357.841 198.865C358.151 198.035 358.471 197.435 358.641 197.005C358.743 196.788 358.83 196.564 358.901 196.335C358.774 196.537 358.661 196.748 358.561 196.965C358.361 197.385 358.011 197.965 357.681 198.805C356.694 201.102 355.911 203.481 355.341 205.915C354.504 209.532 353.955 213.211 353.701 216.915C353.361 221.085 353.271 225.685 353.201 230.505C353.131 235.325 352.921 239.895 352.551 244.045C352.181 248.195 351.701 251.925 351.201 255.045C350.701 258.165 350.201 260.665 349.871 262.395C349.711 263.235 349.581 263.895 349.481 264.395C349.416 264.64 349.38 264.892 349.371 265.145Z" fill="#0C1641"/>
<g id="Group_6" opacity="0.3">
<path id="Vector_174" opacity="0.3" d="M380.96 246.805C385.88 246.565 390.96 246.355 395.56 248.065C402.56 250.675 407.27 257.205 413.43 261.465L412.85 261.665C410.014 263.239 406.787 263.969 403.55 263.769C400.313 263.569 397.2 262.446 394.58 260.535C392.04 258.615 389.98 255.925 387 254.775C385.657 254.419 384.343 253.961 383.07 253.405C381.989 252.737 381.183 251.705 380.796 250.495C380.409 249.284 380.467 247.976 380.96 246.805Z" fill="#0C1641"/>
</g>
<path id="Vector_175" d="M414.832 183.695C417.488 185.235 419.567 187.602 420.752 190.435C422.342 194.285 426.682 246.165 425.942 249.435C425.202 252.705 421.732 257.745 415.942 260.325C411.102 262.505 398.582 257.225 393.512 255.325C393.352 255.265 394.642 253.325 395.162 252.015L399.512 238.325L406.392 239.075L403.832 213.335L414.832 183.695Z" fill="#4263EB"/>
<path id="Vector_176" d="M407.181 201.145C407.029 201.615 406.912 202.097 406.831 202.585C406.651 203.525 406.431 204.895 406.211 206.585C405.771 209.975 405.361 214.675 404.981 219.875C404.601 225.075 404.281 229.705 404.041 233.175C403.901 234.815 403.791 236.175 403.701 237.175C403.625 237.664 403.592 238.16 403.601 238.655C403.728 238.176 403.818 237.688 403.871 237.195C404.011 236.255 404.181 234.885 404.351 233.195C404.691 229.795 405.041 225.085 405.421 219.895C405.801 214.705 406.161 210.005 406.521 206.615C406.701 204.915 406.871 203.555 407.001 202.615C407.103 202.131 407.163 201.639 407.181 201.145Z" fill="#0C1641"/>
<path id="Vector_177" d="M398.451 237.905C399.184 238.123 399.933 238.28 400.691 238.375C402.101 238.625 404.111 238.955 406.451 239.315H406.511H406.571C407.799 238.757 409.124 238.442 410.471 238.385C412.035 238.313 413.595 238.587 415.041 239.185C416.215 239.687 417.294 240.387 418.231 241.255C419.066 242.098 419.81 243.027 420.451 244.025C420.366 243.709 420.231 243.408 420.051 243.135C419.61 242.367 419.069 241.661 418.441 241.035C416.893 239.505 414.914 238.484 412.77 238.108C410.625 237.733 408.417 238.021 406.441 238.935H406.551C404.211 238.605 402.191 238.325 400.771 238.145C400.006 238 399.23 237.919 398.451 237.905V237.905Z" fill="#0C1641"/>
<path id="Vector_178" d="M395.07 252.145C394.861 252.39 394.686 252.663 394.55 252.955L393.26 255.315L393.17 255.455L393.34 255.525C395.68 256.425 399.13 257.725 402.97 259.145L406.3 260.365L406.42 259.955L406.32 260.365H406.4L406.5 259.955L406.38 260.365C408.73 261.16 411.236 261.383 413.69 261.015C414.396 260.909 415.094 260.755 415.78 260.555C416.033 260.492 416.277 260.402 416.51 260.285C416.51 260.225 415.45 260.545 413.66 260.745C411.251 261.016 408.812 260.746 406.52 259.955L406.4 260.365L406.5 259.955H406.42L406.32 260.365L406.44 259.955L403.13 258.735C399.28 257.315 395.81 256.065 393.44 255.245L393.52 255.445L394.69 253.065C394.846 252.771 394.974 252.463 395.07 252.145V252.145Z" fill="#0C1641"/>
<path id="Vector_179" d="M385.691 249.715C386.255 248.338 386.593 246.879 386.691 245.395C386.963 243.934 387 242.438 386.801 240.965C386.506 242.407 386.302 243.867 386.191 245.335C385.928 246.782 385.761 248.246 385.691 249.715Z" fill="#EDF2FF"/>
<path id="Vector_180" d="M393.871 159.005L414.671 180.315C413.326 182.554 412.584 185.103 412.516 187.714C412.447 190.324 413.055 192.909 414.281 195.215L396.961 195.815C396.961 194.255 396.891 192.695 396.851 191.135C396.565 192.112 396.034 193 395.31 193.715C394.586 194.431 393.691 194.95 392.711 195.225C390.071 195.985 387.261 195.285 384.621 194.545C389.029 183.083 392.132 171.161 393.871 159.005V159.005Z" fill="#0C1641"/>
<path id="Vector_181" d="M389.22 203.735C389.22 204.355 389.34 242.385 389.34 242.385L357.11 243.455L355.5 204.995L389.22 203.735Z" fill="#BAC8FF"/>
<path id="Vector_182" d="M385.961 200.885C385.961 201.665 390.431 247.175 390.431 247.175L355.431 246.345L349.551 200.885H385.961Z" fill="#EDF2FF"/>
<path id="Vector_183" d="M354.131 210.075C354.131 210.195 360.131 210.295 367.521 210.295C374.911 210.295 380.911 210.195 380.911 210.075C380.911 209.955 374.911 209.855 367.521 209.855C360.131 209.855 354.131 209.955 354.131 210.075Z" fill="#0C1641"/>
<path id="Vector_184" d="M354.471 213.065C354.471 213.185 360.471 213.285 367.851 213.285C375.231 213.285 381.241 213.185 381.241 213.065C381.241 212.945 375.241 212.845 367.851 212.845C360.461 212.845 354.471 212.945 354.471 213.065Z" fill="#0C1641"/>
<path id="Vector_185" d="M355.07 216.865C355.07 216.985 361.07 217.085 368.45 217.085C375.83 217.085 381.84 216.985 381.84 216.865C381.84 216.745 375.84 216.635 368.45 216.635C361.06 216.635 355.07 216.735 355.07 216.865Z" fill="#0C1641"/>
<path id="Vector_186" d="M355.701 220.255C355.701 220.375 361.701 220.475 369.091 220.475C376.481 220.475 382.481 220.375 382.481 220.255C382.481 220.135 376.481 220.035 369.091 220.035C361.701 220.035 355.701 220.135 355.701 220.255Z" fill="#0C1641"/>
<path id="Vector_187" d="M355.701 223.645C355.701 223.765 361.701 223.865 369.091 223.865C376.481 223.865 382.481 223.765 382.481 223.645C382.481 223.525 376.481 223.425 369.091 223.425C361.701 223.425 355.701 223.525 355.701 223.645Z" fill="#0C1641"/>
<path id="Vector_188" d="M356.021 227.215C356.021 227.335 362.021 227.435 369.411 227.435C376.801 227.435 382.801 227.335 382.801 227.215C382.801 227.095 376.801 226.985 369.411 226.985C362.021 226.985 356.021 227.085 356.021 227.215Z" fill="#0C1641"/>
<path id="Vector_189" d="M356.342 230.775C356.342 230.895 362.342 230.995 369.732 230.995C377.122 230.995 383.122 230.895 383.122 230.775C383.122 230.655 377.122 230.555 369.732 230.555C362.342 230.555 356.342 230.655 356.342 230.775Z" fill="#0C1641"/>
<path id="Vector_190" d="M356.66 234.315C356.66 234.435 362.66 234.535 370.05 234.535C377.44 234.535 383.44 234.435 383.44 234.315C383.44 234.195 377.44 234.095 370.05 234.095C362.66 234.095 356.66 234.215 356.66 234.315Z" fill="#0C1641"/>
<path id="Vector_191" d="M356.961 237.895C356.961 238.015 362.961 238.115 370.351 238.115C377.741 238.115 383.741 238.015 383.741 237.895C383.741 237.775 377.741 237.675 370.351 237.675C362.961 237.675 356.961 237.775 356.961 237.895Z" fill="#0C1641"/>
<path id="Vector_192" d="M357.301 241.465C357.301 241.585 363.301 241.685 370.691 241.685C378.081 241.685 384.081 241.585 384.081 241.465C384.081 241.345 378.081 241.235 370.691 241.235C363.301 241.235 357.301 241.315 357.301 241.465Z" fill="#0C1641"/>
<path id="Vector_193" d="M400.481 242.315C400.481 242.315 397.701 236.175 397.121 235.825C396.541 235.475 386.581 234.315 384.591 234.315C382.601 234.315 379.141 234.375 378.591 235.425C378.181 236.195 378.591 237.335 380.181 237.565C380.181 237.565 377.961 237.445 378.181 238.835C378.401 240.225 383.411 242.835 383.411 242.835C383.411 242.835 382.481 243.835 384.341 245.835L385.151 246.885C385.151 246.885 384.801 248.735 385.851 249.555C386.901 250.375 393.531 252.675 393.531 252.675L396.051 251.875L397.681 252.675C397.681 252.675 402.961 247.485 400.481 242.315Z" fill="white" stroke="#0C1641" stroke-width="0.5"/>
<path id="Vector_194" d="M379.4 237.315C380.11 237.657 380.854 237.922 381.62 238.105C383.02 238.525 384.96 239.055 387.13 239.535C389.3 240.015 391.28 240.355 392.72 240.535C393.494 240.687 394.282 240.761 395.07 240.755C394.321 240.511 393.551 240.334 392.77 240.225C391.35 239.945 389.38 239.545 387.22 239.075C385.06 238.605 383.11 238.075 381.7 237.775C380.948 237.559 380.178 237.405 379.4 237.315V237.315Z" fill="#0C1641"/>
<path id="Vector_195" d="M383.631 242.955C385.09 243.726 386.663 244.26 388.291 244.535C389.886 244.95 391.535 245.116 393.181 245.025C393.181 244.895 391.011 244.675 388.381 244.105C385.751 243.535 383.671 242.835 383.631 242.955Z" fill="#0C1641"/>
<path id="Vector_196" d="M385.271 246.775C386.14 247.563 387.187 248.129 388.321 248.425C389.415 248.85 390.595 249.008 391.761 248.885C391.761 248.755 390.241 248.585 388.461 248.005C386.681 247.425 385.341 246.665 385.271 246.775Z" fill="#0C1641"/>
<path id="Vector_197" d="M395.231 249.175C395.231 249.175 395.741 249.235 396.391 248.775C396.766 248.505 397.065 248.143 397.261 247.725C397.502 247.211 397.586 246.637 397.501 246.075C397.473 245.845 397.515 245.611 397.621 245.405C397.757 245.205 397.915 245.02 398.091 244.855C398.408 244.508 398.611 244.071 398.671 243.605C398.761 242.805 398.461 242.365 398.421 242.395C398.435 242.779 398.415 243.164 398.361 243.545C398.268 243.925 398.071 244.272 397.791 244.545C397.589 244.724 397.408 244.926 397.251 245.145C397.098 245.426 397.032 245.746 397.061 246.065C397.136 246.512 397.095 246.971 396.943 247.398C396.791 247.825 396.532 248.206 396.191 248.505C395.671 249.005 395.211 249.095 395.231 249.175Z" fill="#0C1641"/>
<path id="Vector_198" d="M393.551 251.955C393.551 252.085 394.291 252.065 394.811 251.405C395.331 250.745 395.211 250.025 395.091 250.055C394.971 250.085 394.891 250.625 394.471 251.135C394.051 251.645 393.531 251.835 393.551 251.955Z" fill="#0C1641"/>
</g>
<g id="letter">
<path id="Vector_199" d="M501.67 232L451 236.504L454.036 270.66L504.706 266.155L501.67 232Z" fill="white" stroke="#0C1641" stroke-width="0.5"/>
<path id="Vector_200" d="M501.66 232.001C501.66 232.001 501.53 232.191 501.23 232.501L499.93 233.861C498.75 235.071 497.11 236.751 495.08 238.811L478.92 255.061L478.79 255.201L478.63 255.091L478.25 254.841L458.93 241.951L453.1 238.011L451.53 236.911C451.336 236.798 451.158 236.661 451 236.501C451.2 236.599 451.394 236.709 451.58 236.831L453.2 237.831L459.11 241.651L478.51 254.431L478.89 254.681H478.6L494.85 238.521C496.92 236.521 498.6 234.851 499.85 233.681C500.41 233.141 500.85 232.681 501.21 232.381C501.349 232.243 501.5 232.116 501.66 232.001V232.001Z" fill="#0C1641"/>
<path id="Vector_201" d="M454.031 270.662C453.931 270.582 457.321 265.562 461.611 259.452C465.901 253.342 469.471 248.452 469.611 248.452C469.751 248.452 466.321 253.542 462.031 259.662C457.741 265.782 454.131 270.732 454.031 270.662Z" fill="#0C1641"/>
<path id="Vector_202" d="M486.401 246.581C486.501 246.491 490.681 250.801 495.731 256.211C500.781 261.621 504.821 266.071 504.731 266.211C504.641 266.351 500.401 261.931 495.401 256.521C490.401 251.111 486.281 246.661 486.401 246.581Z" fill="#0C1641"/>
</g>
</g>
<defs>
<clipPath id="clip0_6037_90668">
<rect width="505" height="313" fill="white"/>
</clipPath>
</defs>
</svg>
