<svg width="236" height="200" viewBox="0 0 236 200" fill="none" xmlns="http://www.w3.org/2000/svg">
<g clip-path="url(#clip0_6013_71174)">
<path d="M47.9195 76.0501C98.6295 59.2601 157.12 28.1501 199.53 76.0501C241.94 123.95 215.82 130.52 178.16 143.67C140.5 156.82 61.6095 212.23 30.6195 164.33C-0.370468 116.43 14.7295 87.0001 47.9195 76.0501Z" fill="#EDF2FF"/>
<mask id="mask0_6013_71174" style="mask-type:alpha" maskUnits="userSpaceOnUse" x="13" y="50" width="209" height="134">
<path d="M47.9195 76.0501C98.6295 59.2601 157.12 28.1501 199.53 76.0501C241.94 123.95 215.82 130.52 178.16 143.67C140.5 156.82 61.6095 212.23 30.6195 164.33C-0.370468 116.43 14.7295 87.0001 47.9195 76.0501Z" fill="#B00020"/>
</mask>
<g mask="url(#mask0_6013_71174)">
<path d="M178.411 176.185C178.411 176.185 178.411 175.521 178.411 174.234C178.411 172.946 178.411 171.055 178.411 168.581C178.411 163.632 178.411 156.37 178.411 147.096C178.411 128.558 178.351 102.003 178.311 69.8753L178.491 70.0564H39.2432L39.4731 69.8351C39.4731 108.058 39.4731 144.269 39.4731 176.145L39.2732 175.944L139.811 176.045L168.357 176.105H175.923H177.922H175.993H168.457H139.961L39.1433 176.376H38.9434V176.175C38.9434 144.32 38.9434 108.108 38.9434 69.8653V69.6541H39.1832H178.431H178.621V69.8351C178.621 102.023 178.541 128.608 178.521 147.166C178.521 156.42 178.521 163.672 178.521 168.621V174.234C178.431 175.542 178.411 176.185 178.411 176.185Z" fill="#0C1641"/>
<path d="M178.439 140H39.4395V176H178.439V140Z" fill="white"/>
</g>
<path d="M178.439 70.0002H39.4395V142H178.439V70.0002Z" fill="white"/>
<path d="M89.8592 119.54H80.4492V144.99H89.8592V119.54Z" fill="#5C7CFA"/>
<path d="M129.79 119.54H120.38V144.99H129.79V119.54Z" fill="#5C7CFA"/>
<path d="M143.099 104.6H133.689V144.99H143.099V104.6Z" fill="#5C7CFA"/>
<path d="M77.6893 136.98H68.2793V145.54H77.6893V136.98Z" fill="#5C7CFA"/>
<path d="M103.17 131.03H93.7598V144.99H103.17V131.03Z" fill="#5C7CFA"/>
<path d="M116.479 127.83H107.069V144.99H116.479V127.83Z" fill="#5C7CFA"/>
<path d="M75.1499 111.9C76.2655 111.9 77.1699 110.996 77.1699 109.88C77.1699 108.764 76.2655 107.86 75.1499 107.86C74.0343 107.86 73.1299 108.764 73.1299 109.88C73.1299 110.996 74.0343 111.9 75.1499 111.9Z" fill="#5C7CFA"/>
<path d="M106.339 75.3C106.459 75.3 106.559 84.59 106.559 96.05C106.559 107.51 106.459 116.8 106.339 116.8C106.219 116.8 106.119 107.51 106.119 96.05C106.119 84.59 106.219 75.3 106.339 75.3Z" fill="#0C1641"/>
<path d="M168.86 90.4601C168.376 90.5276 167.888 90.5577 167.4 90.5502L163.4 90.6202C160.02 90.6202 155.4 90.6802 150.2 90.6802H142.93C142.401 90.6339 141.869 90.6339 141.34 90.6802C140.861 90.7686 140.407 90.9596 140.01 91.2401C139.282 91.7515 138.784 92.5265 138.62 93.4002C138.562 93.7873 138.538 94.1788 138.55 94.5701C138.55 94.9501 138.55 95.3102 138.55 95.6502C138.55 96.3002 138.55 96.8802 138.55 97.3702C138.563 97.8615 138.536 98.3532 138.47 98.8401C138.402 98.3532 138.372 97.8617 138.38 97.3702C138.38 96.8802 138.38 96.3002 138.38 95.6502C138.38 95.3102 138.38 94.9501 138.38 94.5701C138.336 94.1647 138.336 93.7556 138.38 93.3501C138.538 92.3865 139.07 91.5242 139.86 90.9501C140.297 90.6244 140.803 90.4022 141.34 90.3002C141.889 90.2239 142.445 90.1971 143 90.2202H150.27C155.43 90.2202 160.09 90.2202 163.47 90.2902L167.47 90.3602C167.935 90.3573 168.4 90.3907 168.86 90.4601Z" fill="#0C1641"/>
<path d="M150.26 102.66L150.03 102.59L149.37 102.36C149.08 102.26 148.73 102.12 148.31 101.99L146.82 101.56C142.869 100.559 138.747 100.444 134.746 101.221C130.746 101.999 126.967 103.652 123.68 106.06C121.433 107.855 119.367 109.864 117.51 112.06C115.51 114.23 113.27 116.57 110.3 117.92C108.836 118.595 107.241 118.937 105.63 118.92C104.077 118.845 102.549 118.507 101.11 117.92C98.4496 116.771 95.9243 115.333 93.5798 113.63C91.4355 112.169 89.1468 110.933 86.7498 109.94C84.6575 109.095 82.4015 108.732 80.1498 108.88C76.8718 109.062 73.6735 109.959 70.7798 111.51C69.9973 111.939 69.2425 112.417 68.5198 112.94L67.9598 113.36C67.8398 113.45 67.7698 113.5 67.7598 113.49C68.64 112.652 69.6289 111.935 70.6998 111.36C73.5923 109.73 76.8162 108.777 80.1298 108.57C82.4265 108.386 84.7349 108.728 86.8798 109.57C89.3087 110.552 91.628 111.785 93.7998 113.25C96.1263 114.928 98.6275 116.35 101.26 117.49C102.657 118.042 104.138 118.353 105.64 118.41C107.183 118.434 108.713 118.117 110.12 117.48C112.98 116.18 115.12 113.88 117.2 111.72C119.077 109.519 121.167 107.51 123.44 105.72C127.435 102.815 132.134 101.03 137.05 100.55C140.347 100.227 143.675 100.512 146.87 101.39L148.35 101.85C148.77 102 149.12 102.16 149.41 102.27L150.05 102.54C150.19 102.61 150.27 102.65 150.26 102.66Z" fill="#5C7CFA"/>
<path d="M106.339 120.21C107.455 120.21 108.359 119.306 108.359 118.19C108.359 117.075 107.455 116.17 106.339 116.17C105.224 116.17 104.319 117.075 104.319 118.19C104.319 119.306 105.224 120.21 106.339 120.21Z" fill="#5C7CFA"/>
<path d="M138.639 102.59C139.755 102.59 140.659 101.686 140.659 100.57C140.659 99.4544 139.755 98.55 138.639 98.55C137.524 98.55 136.619 99.4544 136.619 100.57C136.619 101.686 137.524 102.59 138.639 102.59Z" fill="#5C7CFA"/>
<path d="M77.6895 148.89C76.1162 149.108 74.5262 149.182 72.9395 149.11C71.3527 149.182 69.7627 149.109 68.1895 148.89C69.7621 148.666 71.3527 148.592 72.9395 148.67C74.5262 148.592 76.1167 148.666 77.6895 148.89Z" fill="#0C1641"/>
<path d="M90.0393 148.89C88.4627 149.108 86.8694 149.182 85.2793 149.11C83.6926 149.182 82.1026 149.108 80.5293 148.89C82.102 148.666 83.6926 148.592 85.2793 148.67C86.8693 148.592 88.4632 148.666 90.0393 148.89Z" fill="#0C1641"/>
<path d="M103.8 148.89C102.227 149.109 100.637 149.182 99.0498 149.11C97.4631 149.182 95.8731 149.108 94.2998 148.89C95.8726 148.666 97.4631 148.592 99.0498 148.67C100.637 148.592 102.227 148.666 103.8 148.89Z" fill="#0C1641"/>
<path d="M116.92 148.89C115.347 149.109 113.757 149.182 112.17 149.11C110.583 149.182 108.993 149.108 107.42 148.89C108.993 148.666 110.583 148.592 112.17 148.67C113.757 148.592 115.347 148.666 116.92 148.89Z" fill="#0C1641"/>
<path d="M129.72 148.89C128.146 149.109 126.556 149.182 124.97 149.11C123.383 149.182 121.793 149.108 120.22 148.89C121.792 148.666 123.383 148.592 124.97 148.67C126.556 148.592 128.147 148.666 129.72 148.89Z" fill="#0C1641"/>
<path d="M142.52 148.89C140.946 149.108 139.356 149.182 137.77 149.11C136.183 149.182 134.593 149.108 133.02 148.89C134.592 148.666 136.183 148.592 137.77 148.67C139.356 148.592 140.947 148.666 142.52 148.89Z" fill="#0C1641"/>
<path d="M69.0991 156.91H67.7891V156.13H71.3691V156.91H70.0591V160.24H69.0591L69.0991 156.91Z" fill="#0C1641"/>
<path d="M74.5098 160.24L73.7098 159.1H72.8398V160.24H71.8398V156.13H73.6198C74.7198 156.13 75.3998 156.7 75.3998 157.62C75.4115 157.897 75.337 158.171 75.1865 158.404C75.0361 158.636 74.8171 158.817 74.5598 158.92L75.4798 160.24H74.5098ZM73.6098 156.91H72.8398V158.34H73.6098C74.1998 158.34 74.4898 158.07 74.4898 157.62C74.4898 157.17 74.1998 156.91 73.6098 156.91Z" fill="#0C1641"/>
<path d="M79.439 159.48V160.24H76.209V156.13H79.319V156.89H77.149V157.79H79.059V158.53H77.149V159.48H79.439Z" fill="#0C1641"/>
<path d="M83.9292 156.13V160.24H83.1392L81.1392 157.75V160.24H80.1992V156.13H80.9892L82.9892 158.63V156.13H83.9292Z" fill="#0C1641"/>
<path d="M84.8994 156.13H86.7694C87.0601 156.095 87.355 156.122 87.6345 156.209C87.9141 156.296 88.172 156.442 88.3911 156.636C88.6103 156.83 88.7857 157.069 88.9059 157.336C89.026 157.603 89.0882 157.892 89.0882 158.185C89.0882 158.478 89.026 158.767 88.9059 159.034C88.7857 159.301 88.6103 159.54 88.3911 159.734C88.172 159.928 87.9141 160.074 87.6345 160.161C87.355 160.248 87.0601 160.275 86.7694 160.24H84.8994V156.13ZM86.7294 159.46C86.9063 159.476 87.0846 159.454 87.2528 159.397C87.4211 159.34 87.5756 159.249 87.7067 159.129C87.8377 159.009 87.9423 158.863 88.0139 158.701C88.0855 158.538 88.1224 158.363 88.1224 158.185C88.1224 158.007 88.0855 157.832 88.0139 157.669C87.9423 157.507 87.8377 157.361 87.7067 157.241C87.5756 157.121 87.4211 157.03 87.2528 156.973C87.0846 156.916 86.9063 156.894 86.7294 156.91H85.8594V159.46H86.7294Z" fill="#0C1641"/>
<path d="M73.629 109.43C73.473 109.451 73.3149 109.451 73.159 109.43H71.819L66.879 109.5H59.549H55.229C54.4542 109.531 53.6783 109.497 52.909 109.4C51.7145 109.199 50.595 108.683 49.6654 107.907C48.7359 107.13 48.0296 106.12 47.619 104.98C47.3557 104.262 47.217 103.505 47.209 102.74V100.77C47.209 98.0302 47.209 95.5502 47.209 93.4502C47.209 91.3502 47.209 89.7402 47.279 88.5102C47.279 87.9702 47.279 87.5102 47.279 87.1602C47.2581 87.0076 47.2581 86.8528 47.279 86.7002C47.2958 86.8531 47.2958 87.0073 47.279 87.1602C47.279 87.5202 47.279 87.9702 47.279 88.5102C47.279 89.7402 47.279 91.4102 47.349 93.4502C47.419 95.4902 47.349 98.0302 47.349 100.77C47.232 102.186 47.3675 103.612 47.749 104.98C48.2658 106.402 49.2681 107.595 50.579 108.35C51.2405 108.725 51.9606 108.986 52.709 109.12C53.4551 109.214 54.2075 109.247 54.959 109.22H59.279H66.609L71.549 109.29H72.889C73.142 109.293 73.3925 109.34 73.629 109.43Z" fill="#0C1641"/>
<path d="M69.0991 156.91H67.7891V156.13H71.3691V156.91H70.0591V160.24H69.0591L69.0991 156.91Z" fill="#0C1641"/>
<path d="M74.5098 160.24L73.7098 159.1H72.8398V160.24H71.8398V156.13H73.6198C74.7198 156.13 75.3998 156.7 75.3998 157.62C75.4115 157.897 75.337 158.171 75.1865 158.404C75.0361 158.636 74.8171 158.817 74.5598 158.92L75.4798 160.24H74.5098ZM73.6098 156.91H72.8398V158.34H73.6098C74.1998 158.34 74.4898 158.07 74.4898 157.62C74.4898 157.17 74.1998 156.91 73.6098 156.91Z" fill="#0C1641"/>
<path d="M79.439 159.48V160.24H76.209V156.13H79.319V156.89H77.149V157.79H79.059V158.53H77.149V159.48H79.439Z" fill="#0C1641"/>
<path d="M83.9292 156.13V160.24H83.1392L81.1392 157.75V160.24H80.1992V156.13H80.9892L82.9892 158.63V156.13H83.9292Z" fill="#0C1641"/>
<path d="M84.8994 156.13H86.7694C87.0601 156.095 87.355 156.122 87.6345 156.209C87.9141 156.296 88.172 156.442 88.3911 156.636C88.6103 156.83 88.7857 157.069 88.9059 157.336C89.026 157.603 89.0882 157.892 89.0882 158.185C89.0882 158.478 89.026 158.767 88.9059 159.034C88.7857 159.301 88.6103 159.54 88.3911 159.734C88.172 159.928 87.9141 160.074 87.6345 160.161C87.355 160.248 87.0601 160.275 86.7694 160.24H84.8994V156.13ZM86.7294 159.46C86.9063 159.476 87.0846 159.454 87.2528 159.397C87.4211 159.34 87.5756 159.249 87.7067 159.129C87.8377 159.009 87.9423 158.863 88.0139 158.701C88.0855 158.538 88.1224 158.363 88.1224 158.185C88.1224 158.007 88.0855 157.832 88.0139 157.669C87.9423 157.507 87.8377 157.361 87.7067 157.241C87.5756 157.121 87.4211 157.03 87.2528 156.973C87.0846 156.916 86.9063 156.894 86.7294 156.91H85.8594V159.46H86.7294Z" fill="#0C1641"/>
<path d="M73.629 109.43C73.473 109.451 73.3149 109.451 73.159 109.43H71.819L66.879 109.5H59.549H55.229C54.4542 109.531 53.6783 109.497 52.909 109.4C51.7145 109.199 50.595 108.683 49.6654 107.907C48.7359 107.13 48.0296 106.12 47.619 104.98C47.3557 104.262 47.217 103.505 47.209 102.74V100.77C47.209 98.0302 47.209 95.5502 47.209 93.4502C47.209 91.3502 47.209 89.7402 47.279 88.5102C47.279 87.9702 47.279 87.5102 47.279 87.1602C47.2581 87.0076 47.2581 86.8528 47.279 86.7002C47.2958 86.8531 47.2958 87.0073 47.279 87.1602C47.279 87.5202 47.279 87.9702 47.279 88.5102C47.279 89.7402 47.279 91.4102 47.349 93.4502C47.419 95.4902 47.349 98.0302 47.349 100.77C47.232 102.186 47.3675 103.612 47.749 104.98C48.2658 106.402 49.2681 107.595 50.579 108.35C51.2405 108.725 51.9606 108.986 52.709 109.12C53.4551 109.214 54.2075 109.247 54.959 109.22H59.279H66.609L71.549 109.29H72.889C73.142 109.293 73.3925 109.34 73.629 109.43Z" fill="#0C1641"/>
<path d="M168.329 73.26V135.9H175.909H186.339H234.989V73.26H168.329Z" fill="white"/>
<path d="M168.33 73.2602H169.54H173.1H186.64L234.99 73.1602H235.18V73.3502C235.18 91.6702 235.18 113.14 235.18 135.99V136.22H234.96H168.3H168.11V136.03C168.11 117.19 168.18 101.51 168.21 90.5302C168.21 85.0702 168.21 80.7902 168.21 77.8502C168.21 76.4002 168.21 75.2801 168.21 74.5201C168.21 73.7601 168.21 73.3902 168.21 73.3902C168.21 73.3902 168.21 73.8002 168.21 74.5602C168.21 75.3202 168.21 76.4602 168.21 77.9202C168.21 80.8702 168.21 85.1802 168.21 90.6502C168.21 101.65 168.27 117.24 168.31 136.03L168.12 135.85H234.78L234.56 136.07C234.56 113.22 234.56 91.7502 234.56 73.4302L234.76 73.6202L186.53 73.5302H172.95H169.35H168.1L168.33 73.2602Z" fill="#0C1641"/>
<path d="M201.359 80.3601C197.291 80.3601 193.314 81.5665 189.931 83.8268C186.548 86.087 183.912 89.2996 182.355 93.0583C180.798 96.817 180.391 100.953 181.184 104.943C181.978 108.933 183.937 112.599 186.814 115.475C189.691 118.352 193.356 120.311 197.346 121.105C201.336 121.899 205.472 121.491 209.231 119.934C212.99 118.377 216.202 115.741 218.462 112.358C220.723 108.975 221.929 104.998 221.929 100.93C221.93 98.2284 221.399 95.553 220.366 93.0568C219.333 90.5605 217.818 88.2924 215.907 86.382C213.997 84.4716 211.729 82.9565 209.232 81.9232C206.736 80.89 204.061 80.3588 201.359 80.3601ZM201.669 113.25C199.169 113.25 196.724 112.509 194.646 111.119C192.567 109.73 190.947 107.755 189.99 105.445C189.034 103.135 188.784 100.593 189.273 98.1405C189.761 95.6883 190.966 93.4361 192.735 91.6687C194.504 89.9014 196.757 88.6984 199.209 88.2118C201.662 87.7252 204.204 87.9769 206.513 88.9351C208.823 89.8934 210.796 91.515 212.184 93.595C213.571 95.6749 214.311 98.1197 214.309 100.62C214.309 102.28 213.982 103.923 213.347 105.456C212.711 106.989 211.78 108.381 210.606 109.554C209.432 110.727 208.039 111.657 206.505 112.292C204.972 112.926 203.329 113.251 201.669 113.25Z" fill="#5C7CFA"/>
<path d="M189.04 100.62C189.039 98.1783 189.746 95.7888 191.076 93.7407C192.405 91.6926 194.3 90.0737 196.53 89.08L193.36 82C189.628 83.5789 186.446 86.2242 184.212 89.6041C181.978 92.984 180.791 96.9483 180.8 101C180.8 101.29 180.8 101.57 180.8 101.86H189.08C189.044 101.448 189.031 101.034 189.04 100.62Z" fill="#BAC8FF"/>
<path d="M218.38 126.68C218.38 126.79 210.76 126.88 201.38 126.88C192 126.88 184.38 126.79 184.38 126.68C184.38 126.57 192 126.49 201.38 126.49C210.76 126.49 218.38 126.58 218.38 126.68Z" fill="#0C1641"/>
<path d="M210.8 129.81C210.8 129.92 206.58 130 201.36 130C196.14 130 191.92 129.92 191.92 129.81C191.92 129.7 196.15 129.61 201.36 129.61C206.57 129.61 210.8 129.7 210.8 129.81Z" fill="#0C1641"/>
<path d="M199.879 98V98.84L198.199 102.74H196.739L198.339 99H197.089V99.73H195.949V98H199.879Z" fill="#0C1641"/>
<path d="M203.92 101.17C203.92 102.02 203.28 102.79 201.85 102.79C201.208 102.804 200.575 102.641 200.02 102.32L200.5 101.32C200.887 101.58 201.343 101.719 201.81 101.72C202.26 101.72 202.57 101.53 202.57 101.21C202.57 100.89 202.37 100.73 201.65 100.73H200.36L200.6 97.9602H203.6V98.9602H201.69L201.63 99.6502H201.95C203.37 99.6802 203.92 100.33 203.92 101.17Z" fill="#0C1641"/>
<path d="M204.15 99.2102C204.167 98.9731 204.254 98.7463 204.398 98.5577C204.543 98.369 204.74 98.2268 204.964 98.1484C205.189 98.07 205.431 98.059 205.662 98.1165C205.892 98.1741 206.101 98.2978 206.262 98.4724C206.424 98.6471 206.531 98.865 206.57 99.0995C206.609 99.3341 206.578 99.5749 206.483 99.7924C206.387 100.01 206.229 100.195 206.03 100.324C205.83 100.453 205.597 100.521 205.36 100.52C205.191 100.522 205.025 100.489 204.87 100.423C204.716 100.356 204.577 100.258 204.463 100.135C204.349 100.011 204.262 99.8649 204.208 99.7057C204.154 99.5464 204.134 99.3776 204.15 99.2102ZM208.15 97.9502H209.15L205.91 102.69H204.91L208.15 97.9502ZM205.75 99.2102C205.75 98.7302 205.58 98.5402 205.35 98.5402C205.12 98.5402 204.95 98.7302 204.95 99.2102C204.95 99.6902 205.13 99.8802 205.35 99.8802C205.57 99.8802 205.76 99.6902 205.76 99.2102H205.75ZM207.48 101.44C207.499 101.204 207.587 100.979 207.732 100.792C207.877 100.605 208.074 100.464 208.298 100.387C208.522 100.31 208.763 100.299 208.993 100.357C209.223 100.415 209.431 100.538 209.591 100.712C209.752 100.886 209.859 101.103 209.898 101.337C209.938 101.57 209.909 101.81 209.814 102.027C209.719 102.244 209.564 102.429 209.366 102.56C209.168 102.69 208.936 102.759 208.7 102.76C208.53 102.764 208.362 102.732 208.206 102.665C208.05 102.599 207.91 102.5 207.795 102.375C207.681 102.25 207.594 102.102 207.541 101.94C207.489 101.779 207.471 101.609 207.49 101.44H207.48ZM209.1 101.44C209.1 100.96 208.92 100.77 208.7 100.77C208.48 100.77 208.3 100.96 208.3 101.44C208.3 101.92 208.47 102.11 208.7 102.11C208.93 102.11 209.11 101.92 209.11 101.44H209.1Z" fill="#0C1641"/>
<path d="M84.3994 4.19019V75.0802H92.9794H104.789H159.829V4.19019H84.3994Z" fill="white"/>
<path d="M84.439 4.19009H85.809H89.809H105.139L159.839 4.09009H160.039V4.19009C160.039 24.9201 160.039 49.1901 160.039 75.0701V75.2901H159.819L84.439 75.2701H84.249V75.0801C84.249 53.7601 84.329 36.0201 84.349 23.6001C84.349 17.4201 84.349 12.6001 84.349 9.24009C84.349 7.60009 84.349 6.34009 84.349 5.47009C84.349 4.60009 84.439 4.19009 84.439 4.19009C84.439 4.19009 84.439 4.65009 84.439 5.51009V9.32009C84.439 12.6501 84.439 17.5201 84.439 23.7201C84.439 36.1101 84.439 53.8101 84.529 75.0801L84.439 74.8901H159.869L159.649 75.1101C159.649 49.2501 159.649 24.9601 159.649 4.23009L159.839 4.43009L105.249 4.29009L89.879 4.24009H85.809H84.809L84.439 4.19009Z" fill="#0C1641"/>
<path d="M121.78 12.23C117.178 12.232 112.68 13.5984 108.854 16.1565C105.029 18.7147 102.048 22.3497 100.288 26.6019C98.5283 30.8541 98.0689 35.5326 98.9679 40.0459C99.8669 44.5591 102.084 48.7045 105.339 51.9579C108.593 55.2113 112.74 57.4265 117.253 58.3236C121.767 59.2207 126.445 58.7592 130.697 56.9977C134.948 55.2362 138.582 52.2536 141.139 48.4271C143.695 44.6005 145.06 40.1019 145.06 35.5C145.06 32.4433 144.457 29.4165 143.287 26.5926C142.117 23.7687 140.402 21.203 138.24 19.0421C136.079 16.8811 133.512 15.1673 130.688 13.9984C127.863 12.8296 124.836 12.2287 121.78 12.23ZM122.13 49.45C119.302 49.448 116.538 48.6076 114.188 47.0351C111.837 45.4626 110.006 43.2286 108.925 40.6154C107.844 38.0023 107.563 35.1273 108.116 32.3541C108.668 29.5808 110.031 27.0337 112.031 25.0348C114.032 23.0359 116.58 21.675 119.353 21.124C122.127 20.5731 125.002 20.8568 127.614 21.9395C130.227 23.0221 132.459 24.855 134.03 27.2064C135.601 29.5578 136.44 32.3221 136.44 35.15C136.441 37.0291 136.072 38.89 135.353 40.6262C134.634 42.3624 133.58 43.9398 132.251 45.2681C130.921 46.5964 129.343 47.6494 127.607 48.367C125.87 49.0846 124.009 49.4526 122.13 49.45Z" fill="#BAC8FF"/>
<path d="M122.14 12.24V20.85C124.388 20.8514 126.604 21.3827 128.608 22.401C130.612 23.4192 132.348 24.8956 133.675 26.7104C135.002 28.5252 135.882 30.6273 136.244 32.8459C136.606 35.0646 136.44 37.3375 135.76 39.48L144.19 41.77C145.155 38.3451 145.321 34.7442 144.674 31.2452C144.027 27.7461 142.585 24.4423 140.46 21.5888C138.334 18.7353 135.581 16.4084 132.413 14.7874C129.245 13.1665 125.748 12.2949 122.19 12.24H122.14Z" fill="#BAC8FF"/>
<path d="M107.84 35.1501C107.839 32.3877 108.639 29.6843 110.142 27.3666C111.645 25.049 113.787 23.2163 116.31 22.0901L112.73 14.0901C108.52 15.8688 104.926 18.8475 102.397 22.6548C99.8686 26.4621 98.5166 30.9296 98.5098 35.5001C98.5098 35.8301 98.5098 36.1501 98.5098 36.5001H107.88C107.86 36.0001 107.84 35.6001 107.84 35.1501Z" fill="#BAC8FF"/>
<path d="M122.13 49.45C121.121 49.4459 120.115 49.3353 119.13 49.12C118.77 51.2 118.13 55.22 117.56 58.38C118.958 58.6373 120.377 58.7678 121.8 58.77C126.879 58.7718 131.819 57.111 135.865 54.0413C139.912 50.9716 142.843 46.6617 144.21 41.77L135.78 39.48C134.858 42.3759 133.038 44.9032 130.584 46.6958C128.13 48.4883 125.169 49.453 122.13 49.45Z" fill="#DBE4FF"/>
<path d="M141.04 64.6502C141.04 64.7702 132.42 64.8702 121.78 64.8702C111.14 64.8702 102.52 64.7702 102.52 64.6502C102.52 64.5302 111.15 64.4302 121.78 64.4302C132.41 64.4302 141.04 64.5202 141.04 64.6502Z" fill="#0C1641"/>
<path d="M132.439 68.1802C132.439 68.3002 127.659 68.4002 121.759 68.4002C115.859 68.4002 111.079 68.3002 111.079 68.1802C111.079 68.0602 115.859 67.9602 121.759 67.9602C127.659 67.9602 132.439 68.0602 132.439 68.1802Z" fill="#0C1641"/>
<path d="M120.189 35.8702C120.189 36.6802 119.559 37.4502 118.129 37.4502C117.482 37.4623 116.843 37.3 116.279 36.9802L116.769 35.9802C117.161 36.2392 117.62 36.3783 118.089 36.3802C118.539 36.3802 118.839 36.2002 118.839 35.8802C118.839 35.5602 118.629 35.4202 118.109 35.4202H117.549V34.5802L118.399 33.6602H116.529V32.6602H119.949V33.5002L118.949 34.5502C119.281 34.5816 119.59 34.733 119.819 34.976C120.047 35.219 120.179 35.5369 120.189 35.8702Z" fill="#0C1641"/>
<path d="M124.28 35.8301C124.28 36.6801 123.64 37.4501 122.21 37.4501C121.569 37.4627 120.936 37.3002 120.38 36.9801L120.86 35.9801C121.248 36.2395 121.703 36.3786 122.17 36.3801C122.63 36.3801 122.93 36.1901 122.93 35.8801C122.93 35.5701 122.73 35.4001 122.01 35.4001H120.72L120.96 32.6301H123.96V33.6301H122.05L121.99 34.3201H122.31C123.73 34.3401 124.28 35.0001 124.28 35.8301Z" fill="#0C1641"/>
<path d="M124.509 33.8701C124.527 33.633 124.613 33.4062 124.758 33.2176C124.902 33.029 125.099 32.8867 125.323 32.8083C125.548 32.73 125.79 32.7189 126.021 32.7764C126.252 32.834 126.461 32.9577 126.622 33.1323C126.783 33.307 126.89 33.525 126.929 33.7595C126.968 33.994 126.938 34.2348 126.842 34.4523C126.746 34.6699 126.589 34.8546 126.389 34.9839C126.19 35.1132 125.957 35.1814 125.719 35.1801C125.551 35.1822 125.384 35.149 125.23 35.0825C125.075 35.0161 124.936 34.9179 124.822 34.7944C124.708 34.6709 124.621 34.5248 124.567 34.3656C124.513 34.2063 124.494 34.0375 124.509 33.8701ZM128.509 32.6201H129.509L126.279 37.3601H125.279L128.509 32.6201ZM126.099 33.8701C126.099 33.3901 125.929 33.2001 125.699 33.2001C125.469 33.2001 125.299 33.3901 125.299 33.8701C125.299 34.3501 125.489 34.5401 125.699 34.5401C125.909 34.5401 126.119 34.3501 126.119 33.8701H126.099ZM127.839 36.1001C127.82 35.932 127.838 35.7619 127.891 35.6012C127.943 35.4406 128.03 35.2931 128.145 35.1689C128.26 35.0447 128.4 34.9465 128.556 34.8812C128.712 34.8158 128.88 34.7848 129.049 34.7901C129.314 34.768 129.58 34.8264 129.811 34.9578C130.042 35.0891 130.228 35.2873 130.345 35.5263C130.462 35.7654 130.504 36.0341 130.465 36.2972C130.426 36.5604 130.309 36.8058 130.129 37.0012C129.948 37.1966 129.713 37.3329 129.454 37.3922C129.194 37.4516 128.923 37.4312 128.676 37.3338C128.428 37.2364 128.216 37.0665 128.066 36.8464C127.917 36.6262 127.838 36.3661 127.839 36.1001ZM129.449 36.1001C129.449 35.6201 129.269 35.4301 129.049 35.4301C128.829 35.4301 128.649 35.6201 128.649 36.1001C128.649 36.5801 128.819 36.7701 129.049 36.7701C129.279 36.7701 129.439 36.5801 129.439 36.1001H129.449Z" fill="#0C1641"/>
<path d="M0.629883 23.8301V86.4701H8.20988H18.6399H67.2899V23.8301H0.629883Z" fill="white"/>
<path d="M0.629453 23.8302H1.83945H5.38945L18.9395 23.7802L67.2895 23.6802H67.4395V23.8702C67.4395 42.1902 67.4395 63.6602 67.4395 86.5102V86.7302H67.2195H0.559453H0.439453V86.5502C0.439453 67.6302 0.509453 52.0002 0.539453 41.0002C0.539453 35.5502 0.539453 31.2602 0.539453 28.3202C0.539453 26.8702 0.539453 25.7602 0.539453 24.9902C0.539453 24.2202 0.539453 23.8602 0.539453 23.8602C0.539453 23.8602 0.539453 24.2702 0.539453 25.0302C0.539453 25.7902 0.539453 26.9302 0.539453 28.3902C0.539453 31.3402 0.539453 35.6502 0.589453 41.1202C0.589453 52.1202 0.649453 67.7102 0.689453 86.5102L0.499453 86.3202H67.1595L66.9295 86.5502C66.9295 63.7002 66.9295 42.2302 66.9295 23.9102L67.1295 24.1102L18.8995 24.0102L5.43945 23.8802H1.83945H0.629453V23.8302Z" fill="#0C1641"/>
<path d="M33.6599 30.9302C29.5915 30.9302 25.6145 32.1366 22.2318 34.3968C18.8491 36.6571 16.2125 39.8697 14.6557 43.6284C13.0988 47.3871 12.6914 51.523 13.4851 55.5132C14.2788 59.5034 16.2379 63.1686 19.1147 66.0454C21.9914 68.9221 25.6567 70.8812 29.6468 71.6749C33.637 72.4686 37.773 72.0613 41.5316 70.5044C45.2903 68.9475 48.5029 66.311 50.7632 62.9283C53.0234 59.5455 54.2299 55.5685 54.2299 51.5002C54.2312 48.7985 53.7 46.1231 52.6667 43.6268C51.6335 41.1306 50.1183 38.8624 48.208 36.9521C46.2976 35.0417 44.0295 33.5266 41.5332 32.4933C39.0369 31.46 36.3615 30.9289 33.6599 30.9302ZM33.9699 63.8202C31.4695 63.8202 29.0253 63.0786 26.9464 61.6893C24.8676 60.2999 23.2475 58.3252 22.2911 56.015C21.3347 53.7047 21.0849 51.1627 21.5735 48.7106C22.062 46.2584 23.2668 44.0061 25.0356 42.2388C26.8043 40.4715 29.0575 39.2684 31.51 38.7818C33.9626 38.2952 36.5044 38.547 38.8139 39.5052C41.1234 40.4634 43.0968 42.0851 44.4845 44.165C45.8722 46.245 46.6118 48.6898 46.6099 51.1902C46.6112 52.85 46.2851 54.4937 45.6502 56.0273C45.0153 57.5609 44.0841 58.9542 42.91 60.1274C41.7359 61.3006 40.3419 62.2307 38.8078 62.8643C37.2737 63.498 35.6297 63.8228 33.9699 63.8202Z" fill="#BAC8FF"/>
<path d="M33.9792 30.9401V38.5501C37.329 38.5554 40.5399 39.8892 42.9077 42.2588C45.2754 44.6284 46.6066 47.8404 46.6092 51.1901C46.6099 52.4903 46.4075 53.7825 46.0092 55.0201L53.4392 57.0001C54.2875 53.9697 54.4289 50.785 53.8524 47.6914C53.2759 44.5977 51.9969 41.6777 50.114 39.1562C48.2312 36.6347 45.7946 34.5791 42.992 33.1477C40.1895 31.7164 37.0958 30.9474 33.9492 30.9001L33.9792 30.9401Z" fill="#5C7CFA"/>
<path d="M21.3396 51.19C21.3378 48.7481 22.0444 46.358 23.3739 44.3097C24.7033 42.2613 26.5985 40.6427 28.8296 39.65L25.6596 32.54C21.929 34.1201 18.7475 36.7655 16.5133 40.1452C14.2792 43.5249 13.0917 47.4886 13.0996 51.54C13.0996 51.83 13.0996 52.11 13.0996 52.4H21.4396C21.3596 52 21.3396 51.58 21.3396 51.19Z" fill="#DBE4FF"/>
<path d="M33.9692 63.82C33.0719 63.8191 32.1771 63.7252 31.2992 63.54C30.9792 65.37 30.3792 68.92 29.9092 71.72C31.1462 71.9483 32.4012 72.0654 33.6592 72.07C38.1491 72.061 42.5127 70.5833 46.0842 67.8623C49.6556 65.1412 52.2387 61.3264 53.4392 57L45.9792 55C45.1698 57.5529 43.5706 59.7827 41.412 61.3679C39.2535 62.9531 36.6473 63.8117 33.9692 63.82Z" fill="#5C7CFA"/>
<g opacity="0.3">
<path opacity="0.3" d="M33.9692 63.82C33.0719 63.8191 32.1771 63.7252 31.2992 63.54C30.9792 65.37 30.3792 68.92 29.9092 71.72C31.1462 71.9483 32.4012 72.0654 33.6592 72.07C38.1491 72.061 42.5127 70.5833 46.0842 67.8623C49.6556 65.1412 52.2387 61.3264 53.4392 57L45.9792 55C45.1698 57.5529 43.5706 59.7827 41.412 61.3679C39.2535 62.9531 36.6473 63.8117 33.9692 63.82Z" fill="#0C1641"/>
</g>
<path d="M50.6797 77.2501C50.6797 77.3601 43.0597 77.4501 33.6797 77.4501C24.2997 77.4501 16.6797 77.3601 16.6797 77.2501C16.6797 77.1401 24.2997 77.0601 33.6797 77.0601C43.0597 77.0601 50.6797 77.1501 50.6797 77.2501Z" fill="#0C1641"/>
<path d="M43.0997 80.3802C43.0997 80.4902 38.8697 80.5702 33.6597 80.5702C28.4497 80.5702 24.2197 80.4902 24.2197 80.3802C24.2197 80.2702 28.4497 80.1802 33.6597 80.1802C38.8697 80.1802 43.0997 80.2702 43.0997 80.3802Z" fill="#0C1641"/>
<path d="M31.1998 51.75C31.1915 51.982 31.1355 52.2098 31.0353 52.4192C30.9351 52.6286 30.7929 52.8151 30.6174 52.9671C30.442 53.1191 30.2371 53.2333 30.0155 53.3026C29.794 53.3719 29.5606 53.3949 29.3298 53.37C29.0209 53.3913 28.7111 53.3431 28.4233 53.2288C28.1355 53.1145 27.877 52.9372 27.6669 52.7098C27.4567 52.4823 27.3003 52.2107 27.2091 51.9148C27.1178 51.6189 27.0942 51.3063 27.1398 51C27.1071 50.6578 27.1492 50.3125 27.2633 49.9882C27.3774 49.6638 27.5606 49.3682 27.8004 49.1218C28.0401 48.8754 28.3306 48.6841 28.6517 48.5612C28.9728 48.4383 29.3168 48.3867 29.6598 48.41C30.1454 48.3947 30.626 48.5123 31.0498 48.75L30.5698 49.75C30.3074 49.583 30.0006 49.4993 29.6898 49.51C29.5378 49.4991 29.3851 49.5193 29.2412 49.5695C29.0973 49.6196 28.9652 49.6985 28.8528 49.8015C28.7405 49.9045 28.6504 50.0293 28.5879 50.1683C28.5255 50.3073 28.4921 50.4576 28.4898 50.61C28.7923 50.3676 29.1725 50.2432 29.5598 50.26C29.7664 50.245 29.974 50.2722 30.1698 50.3399C30.3656 50.4075 30.5457 50.5143 30.699 50.6536C30.8524 50.7929 30.9758 50.9619 31.0619 51.1504C31.148 51.3389 31.1949 51.5429 31.1998 51.75ZM29.8998 51.81C29.9016 51.7264 29.8857 51.6433 29.853 51.5663C29.8203 51.4893 29.7716 51.4201 29.7101 51.3634C29.6486 51.3067 29.5758 51.2636 29.4964 51.2372C29.4171 51.2107 29.333 51.2015 29.2498 51.21C29.1656 51.2031 29.0808 51.2137 29.0009 51.2413C28.9211 51.2688 28.8478 51.3126 28.7857 51.37C28.7237 51.4273 28.6742 51.4969 28.6405 51.5744C28.6068 51.6519 28.5895 51.7355 28.5898 51.82C28.6095 51.9798 28.687 52.1268 28.8077 52.2334C28.9283 52.3401 29.0838 52.3989 29.2448 52.3989C29.4058 52.3989 29.5612 52.3401 29.6819 52.2334C29.8025 52.1268 29.88 51.9798 29.8998 51.82V51.81Z" fill="#0C1641"/>
<path d="M31.5293 50.9002C31.5293 49.3402 32.4093 48.4402 33.6193 48.4402C34.8293 48.4402 35.7093 49.3402 35.7093 50.9002C35.7093 52.4602 34.8293 53.3702 33.6193 53.3702C32.4093 53.3702 31.5293 52.4702 31.5293 50.9002ZM34.3593 50.9002C34.3593 49.9002 34.0493 49.5402 33.6193 49.5402C33.1893 49.5402 32.8793 49.9102 32.8793 50.9002C32.8793 51.8902 33.1893 52.2702 33.6193 52.2702C34.0493 52.2702 34.3593 51.9002 34.3593 50.9002Z" fill="#0C1641"/>
<path d="M36.0792 49.7901C36.0639 49.6212 36.0839 49.4511 36.138 49.2904C36.1921 49.1298 36.2791 48.9822 36.3934 48.857C36.5077 48.7318 36.6468 48.6318 36.8019 48.5634C36.9571 48.495 37.1247 48.4597 37.2942 48.4597C37.4637 48.4597 37.6314 48.495 37.7865 48.5634C37.9416 48.6318 38.0807 48.7318 38.1951 48.857C38.3094 48.9822 38.3964 49.1298 38.4504 49.2904C38.5045 49.4511 38.5246 49.6212 38.5092 49.7901C38.5246 49.9589 38.5045 50.129 38.4504 50.2897C38.3964 50.4503 38.3094 50.598 38.1951 50.7231C38.0807 50.8483 37.9416 50.9483 37.7865 51.0167C37.6314 51.0851 37.4637 51.1204 37.2942 51.1204C37.1247 51.1204 36.9571 51.0851 36.8019 51.0167C36.6468 50.9483 36.5077 50.8483 36.3934 50.7231C36.2791 50.598 36.1921 50.4503 36.138 50.2897C36.0839 50.129 36.0639 49.9589 36.0792 49.7901ZM40.0792 48.5301H41.0792L37.8392 53.2701H36.8392L40.0792 48.5301ZM37.6792 49.7901C37.6792 49.3001 37.5092 49.1201 37.2792 49.1201C37.0492 49.1201 36.8792 49.3001 36.8792 49.7901C36.8792 50.2801 37.0592 50.4601 37.2792 50.4601C37.4992 50.4601 37.6992 50.2701 37.6992 49.7901H37.6792ZM39.4392 52.0001C39.4568 51.763 39.5432 51.5362 39.6879 51.3475C39.8326 51.1589 40.0293 51.0166 40.2537 50.9383C40.4782 50.8599 40.7206 50.8488 40.9513 50.9064C41.182 50.9639 41.3908 51.0876 41.5521 51.2623C41.7134 51.4369 41.8202 51.6549 41.8593 51.8894C41.8984 52.1239 41.8681 52.3647 41.7722 52.5823C41.6763 52.7998 41.5189 52.9846 41.3194 53.1139C41.1199 53.2432 40.887 53.3114 40.6492 53.3101C40.4806 53.3138 40.3132 53.2816 40.158 53.2157C40.0028 53.1498 39.8634 53.0516 39.749 52.9278C39.6346 52.8039 39.5478 52.6571 39.4944 52.4972C39.441 52.3373 39.4222 52.1678 39.4392 52.0001ZM41.0492 52.0001C41.0492 51.5201 40.8692 51.3301 40.6492 51.3301C40.4292 51.3301 40.2492 51.5201 40.2492 52.0001C40.2492 52.4801 40.4292 52.6701 40.6492 52.6701C40.8692 52.6701 41.0392 52.5001 41.0392 52.0001H41.0492Z" fill="#0C1641"/>
</g>
<defs>
<clipPath id="clip0_6013_71174">
<rect width="234.77" height="192.49" fill="white" transform="translate(0.439453 4)"/>
</clipPath>
</defs>
</svg>
