<svg width="246" height="200" viewBox="0 0 246 200" fill="none" xmlns="http://www.w3.org/2000/svg">
<g clip-path="url(#clip0_6013_71343)">
<path d="M5.77182 69.3903C-12.526 34.8418 19.3829 18.8335 47.3324 18.8335C75.2819 18.8335 148.931 33.1988 194.478 44.1164C240.025 55.034 227.347 141.316 160.8 141.316C94.253 141.316 45.824 144.952 5.77182 69.3903Z" fill="#EDF2FF"/>
<path d="M185.832 35.8026C185.741 35.3866 185.693 34.9624 185.688 34.5367C185.67 34.0273 185.613 33.52 185.517 33.0194C185.436 32.3312 185.304 31.65 185.122 30.9813C184.677 29.1506 183.963 27.3958 183.004 25.7739C181.765 23.5977 180.119 21.6804 178.155 20.1265C175.609 18.1151 172.6 16.7736 169.402 16.2247C166.204 15.6758 162.92 15.9369 159.849 16.9841C158.069 17.5582 156.388 18.4031 154.866 19.4891C154.084 20.0415 153.338 20.6412 152.63 21.2847C151.934 21.9732 151.287 22.7081 150.691 23.4844C148.172 26.7336 146.759 30.7035 146.659 34.8133C146.559 38.9231 147.777 42.9571 150.134 46.3252C150.681 47.1276 151.281 47.8924 151.93 48.6147C152.603 49.3 153.32 49.9417 154.075 50.536C155.533 51.7016 157.163 52.6344 158.906 53.3013C163.111 54.9493 167.758 55.0905 172.056 53.701C176.354 52.3114 180.038 49.4769 182.483 45.6788C183.524 44.0944 184.323 42.3634 184.853 40.5432C185.068 39.8831 185.233 39.2078 185.347 38.5231C185.466 38.0303 185.547 37.529 185.589 37.0237C185.612 36.5984 185.681 36.1768 185.796 35.7667C185.845 36.1903 185.845 36.6181 185.796 37.0416C185.789 37.5564 185.741 38.0698 185.652 38.5769C185.568 39.2772 185.433 39.9704 185.248 40.6509C184.777 42.5529 184.014 44.3702 182.986 46.0379C181.495 48.4892 179.498 50.5932 177.127 52.2084C174.756 53.8236 172.067 54.9126 169.24 55.4023C165.651 56.0048 161.967 55.6295 158.574 54.3159C156.735 53.6282 155.015 52.6589 153.474 51.4428C152.677 50.8056 151.925 50.1157 151.22 49.3778C150.516 48.6222 149.865 47.8182 149.272 46.9716C146.774 43.4205 145.483 39.1608 145.59 34.8205C145.697 30.4802 147.195 26.289 149.865 22.8649C150.495 22.0483 151.182 21.2773 151.921 20.5575C152.669 19.8728 153.461 19.2371 154.291 18.6541C155.886 17.5118 157.649 16.6243 159.516 16.0234C162.966 14.8821 166.659 14.6868 170.209 15.4578C173.015 16.0768 175.655 17.2877 177.954 19.0095C180.254 20.7313 182.159 22.9242 183.542 25.4417C184.484 27.1445 185.156 28.9829 185.535 30.8915C185.696 31.5789 185.798 32.2788 185.841 32.9834C185.91 33.4951 185.934 34.0118 185.913 34.5277C185.932 34.9544 185.905 35.3819 185.832 35.8026Z" fill="#BAC8FF"/>
<path d="M181.864 23.3944C181.864 23.4483 181.55 23.7625 180.858 24.2922L179.574 25.1901C179.323 25.3607 179.054 25.5582 178.766 25.7377L177.788 26.2495C174.238 28.2755 170.202 29.2938 166.116 29.1944L164.32 29.1136L162.623 28.8532L161.797 28.7096L161.007 28.5031C160.486 28.3594 159.975 28.2337 159.481 28.0721C157.756 27.4871 156.101 26.7164 154.543 25.7737C151.849 24.1665 150.583 22.7031 150.682 22.6043C150.781 22.5056 152.244 23.7086 154.92 25.1003C156.482 25.9099 158.113 26.577 159.795 27.0935C160.271 27.2371 160.774 27.3359 161.277 27.4706L162.031 27.6591L162.821 27.7758L164.446 28.0182L166.134 28.0811C170.052 28.1663 173.932 27.2942 177.437 25.5402L178.425 25.1182C178.73 24.9566 179 24.786 179.269 24.6424L180.625 23.8972C181.379 23.5201 181.819 23.3316 181.864 23.3944Z" fill="#BAC8FF"/>
<path d="M150.08 47.5461C150.08 47.4832 150.394 47.169 151.086 46.6482C151.463 46.3699 151.894 46.0647 152.37 45.7504C152.621 45.5708 152.881 45.3733 153.178 45.1938L154.156 44.682C157.706 42.656 161.742 41.6377 165.828 41.7371L167.624 41.8179L169.321 42.0873C169.599 42.1322 169.868 42.1681 170.138 42.2219L170.937 42.4284C171.457 42.5811 171.969 42.6978 172.463 42.8594C174.192 43.4396 175.854 44.2042 177.419 45.1399C180.113 46.747 181.369 48.2105 181.271 48.3092C181.172 48.408 179.717 47.2049 177.033 45.8133C175.47 45.0059 173.839 44.3389 172.158 43.8201C171.682 43.6764 171.188 43.5777 170.685 43.443L169.922 43.2544L169.132 43.1377L167.516 42.8953L165.81 42.8325C161.892 42.7472 158.011 43.6194 154.506 45.3733L153.51 45.8043C153.214 45.9569 152.935 46.1275 152.675 46.2712L151.319 47.0164C150.565 47.4114 150.125 47.5999 150.08 47.5461Z" fill="#BAC8FF"/>
<path d="M185.823 36.2605C185.823 36.5658 176.916 36.5927 165.954 36.3234C154.991 36.054 146.094 35.5961 146.103 35.2998C146.112 35.0036 155.009 34.9676 165.981 35.237C176.952 35.5063 185.832 35.9642 185.823 36.2605Z" fill="#BAC8FF"/>
<path d="M165.047 55.1601C164.742 55.1601 164.715 46.2536 164.984 35.2911C165.254 24.3286 165.711 15.449 166.008 15.458C166.304 15.467 166.34 24.3555 166.071 35.318C165.801 46.2805 165.352 55.1691 165.047 55.1601Z" fill="#BAC8FF"/>
<path d="M165.047 55.1328C164.975 55.2496 162.784 53.7592 160.262 50.4013C158.774 48.4274 157.566 46.2582 156.67 43.9548C155.6 41.113 155.079 38.0936 155.135 35.0573C155.21 32.0176 155.891 29.0233 157.137 26.2496C158.146 23.99 159.453 21.8761 161.025 19.9648C163.718 16.7326 165.9 15.2961 165.972 15.4128C166.044 15.5295 164.086 17.2085 161.626 20.4407C160.187 22.3459 158.981 24.4167 158.035 26.6088C156.911 29.2808 156.302 32.1412 156.239 35.0394C156.187 37.9459 156.659 40.8381 157.631 43.5778C158.438 45.8181 159.524 47.9478 160.863 49.9164C163.189 53.3372 165.155 55.0071 165.047 55.1328Z" fill="#BAC8FF"/>
<path d="M166.483 15.458C166.555 15.3413 168.746 16.8317 171.269 20.1896C172.756 22.1634 173.964 24.3326 174.86 26.636C175.918 29.4802 176.427 32.4995 176.359 35.5335C176.287 38.5737 175.606 41.5686 174.357 44.3412C173.348 46.5986 172.044 48.712 170.478 50.626C167.785 53.8582 165.594 55.2947 165.522 55.178C165.451 55.0613 167.408 53.3824 169.868 50.1502C171.307 48.245 172.513 46.1742 173.459 43.9821C174.587 41.3113 175.197 38.4502 175.255 35.5515C175.308 32.6448 174.837 29.7524 173.863 27.0131C173.056 24.7728 171.971 22.6431 170.631 20.6744C168.279 17.2447 166.348 15.5837 166.483 15.458Z" fill="#BAC8FF"/>
<path d="M95.4825 15.9606C95.4825 15.9606 71.7349 17.0201 69.1402 37.7869C66.5454 58.5537 86.6389 57.8085 92.4837 57.8714C95.1054 57.8714 100.358 57.8714 105.305 57.8714C115.809 57.8714 124.159 53.885 126.242 43.5869C126.488 42.378 126.617 41.1483 126.628 39.9148C126.646 28.7368 118.269 14.1021 95.4825 15.9606Z" fill="#5C7CFA"/>
<path d="M117.579 40.2201L87.1604 42.3838C86.4002 42.4375 85.637 42.3407 84.9143 42.0988C84.1917 41.857 83.5238 41.4749 82.9492 40.9744C82.3745 40.474 81.9042 39.865 81.5653 39.1825C81.2264 38.4999 81.0256 37.7572 80.9743 36.9969C80.9207 36.2372 81.0176 35.4744 81.2595 34.7522C81.5015 34.0301 81.8837 33.3629 82.3843 32.7889C82.8849 32.215 83.4939 31.7455 84.1764 31.4076C84.8589 31.0697 85.6014 30.8699 86.3613 30.8198L116.78 28.656C117.54 28.6023 118.303 28.6991 119.026 28.941C119.749 29.1829 120.416 29.565 120.991 30.0654C121.566 30.5659 122.036 31.1748 122.375 31.8574C122.714 32.5399 122.915 33.2827 122.966 34.043C123.02 34.8027 122.923 35.5655 122.681 36.2876C122.439 37.0097 122.056 37.6769 121.556 38.2509C121.055 38.8249 120.446 39.2943 119.764 39.6322C119.081 39.9702 118.339 40.1699 117.579 40.2201Z" fill="#0C1641"/>
<path d="M93.8487 36.9699C93.7975 37.3317 93.6401 37.6702 93.3966 37.9427C93.1531 38.2152 92.8344 38.4095 92.4806 38.501C92.1268 38.5925 91.7538 38.5771 91.4087 38.4568C91.0637 38.3366 90.762 38.1168 90.5417 37.8252C90.3214 37.5336 90.1925 37.1832 90.1711 36.8184C90.1498 36.4536 90.237 36.0907 90.4217 35.7754C90.6065 35.4601 90.8805 35.2065 91.2092 35.0468C91.5379 34.8871 91.9065 34.8284 92.2686 34.878C92.755 34.947 93.1942 35.2058 93.4904 35.5978C93.7865 35.9898 93.9153 36.4832 93.8487 36.9699Z" fill="white"/>
<path d="M115.101 35.4526C115.05 35.8141 114.893 36.1525 114.65 36.425C114.407 36.6976 114.089 36.8921 113.736 36.9841C113.382 37.0761 113.01 37.0615 112.665 36.9421C112.32 36.8227 112.018 36.6038 111.797 36.3131C111.576 36.0223 111.446 35.6727 111.423 35.3083C111.401 34.9439 111.487 34.581 111.67 34.2653C111.854 33.9495 112.126 33.6952 112.454 33.5342C112.782 33.3732 113.15 33.3128 113.512 33.3607C113.754 33.3927 113.987 33.4723 114.198 33.595C114.41 33.7177 114.594 33.881 114.742 34.0755C114.89 34.27 114.998 34.4918 115.059 34.7282C115.121 34.9645 115.135 35.2107 115.101 35.4526Z" fill="white"/>
<path d="M102.98 28.1533C102.7 27.4272 102.469 26.6833 102.288 25.9267C101.77 24.1346 101.015 22.4196 100.044 20.827C99.1213 19.2149 97.7815 17.8813 96.1652 16.9663C95.4723 16.6227 94.7587 16.3229 94.0283 16.0685C94.2405 16.052 94.4538 16.0763 94.6568 16.1403C95.2229 16.2601 95.7718 16.4501 96.2909 16.706C97.9925 17.5876 99.4044 18.9403 100.358 20.6025C101.347 22.2242 102.077 23.9902 102.522 25.8369C102.692 26.5372 102.809 27.1118 102.89 27.5069C102.957 27.7156 102.987 27.9343 102.98 28.1533Z" fill="white"/>
<path d="M99.6044 57.8805C99.5596 57.8266 100.314 57.279 101.301 56.1746C102.583 54.7369 103.527 53.0315 104.067 51.1827C104.563 49.3169 104.813 47.3942 104.812 45.4635C104.759 44.6593 104.759 43.8525 104.812 43.0483C104.88 43.2541 104.917 43.4691 104.92 43.6858C104.92 44.1078 105.018 44.7093 105.054 45.4815C105.131 47.4452 104.913 49.4093 104.408 51.3084C103.856 53.2126 102.848 54.9536 101.472 56.3811C101.06 56.807 100.616 57.2003 100.143 57.5573C99.9802 57.6906 99.7987 57.7994 99.6044 57.8805Z" fill="white"/>
<g opacity="0.3">
<path opacity="0.3" d="M120.811 53.1578C118.342 51.4519 116.457 51.5148 113.314 50.9222C110.161 50.3855 106.969 50.1122 103.77 50.1052C96.3902 49.9346 88.7856 50.2309 82.4379 52.7987C80.7482 53.3633 79.2599 54.4086 78.1553 55.8064C78.1553 55.8064 81.1899 57.4764 87.4748 57.7278C93.4723 57.9702 106.024 57.8265 106.024 57.8265C109.601 57.7896 113.142 57.1051 116.475 55.8064C120.452 54.1005 120.811 53.1578 120.811 53.1578Z" fill="#0C1641"/>
</g>
<path d="M124.815 33.7107C124.899 34.0697 124.938 34.4376 124.932 34.8061C124.941 35.878 124.695 36.9368 124.213 37.8946C123.424 39.4088 122.127 40.5974 120.55 41.2525C118.457 42.0196 116.252 42.4381 114.023 42.4915L96.7936 43.8203L91.8107 44.1974C90.1138 44.3051 88.39 44.5116 86.6033 44.5027C84.7414 44.5577 82.9177 43.9677 81.4407 42.8327C79.9804 41.5862 79.0415 39.8366 78.8101 37.9305C78.5739 36.022 79.0749 34.0953 80.2107 32.5435C81.3151 31.04 82.8983 29.9571 84.6999 29.473C85.5626 29.2617 86.4434 29.1325 87.3305 29.0869L89.8983 28.8535L94.8723 28.3956L104.039 27.5696C106.921 27.3541 109.588 26.9231 112.048 26.7795C113.222 26.694 114.402 26.694 115.576 26.7795C116.626 26.8357 117.666 27.0166 118.674 27.3182C120.302 27.7852 121.783 28.6633 122.974 29.868C123.708 30.6318 124.258 31.5531 124.582 32.5615C124.671 32.8246 124.737 33.095 124.779 33.3695C124.787 33.4621 124.787 33.5553 124.779 33.6479C124.779 33.6479 124.707 33.2708 124.474 32.5884C124.132 31.5952 123.574 30.6905 122.84 29.9398C121.649 28.8107 120.196 27.9961 118.611 27.5696C117.617 27.2831 116.592 27.1144 115.558 27.0668C114.396 26.9862 113.229 26.9862 112.066 27.0668C109.624 27.2284 106.957 27.6773 104.075 27.9018L94.8813 28.7996L89.9073 29.2665L87.3395 29.5089C86.4734 29.5519 85.6136 29.6782 84.7717 29.886C83.0604 30.3572 81.558 31.3915 80.507 32.8219C79.4375 34.3018 78.9638 36.1298 79.18 37.9429C79.3963 39.756 80.2866 41.4214 81.6742 42.6082C83.0843 43.6652 84.8154 44.2042 86.5763 44.1345C88.372 44.1345 90.0599 43.955 91.7658 43.8472L96.7398 43.4791L113.978 42.2311C116.183 42.1963 118.367 41.7989 120.443 41.055C121.979 40.4285 123.249 39.2854 124.034 37.8228C124.52 36.8902 124.785 35.8577 124.806 34.8061C124.869 34.0878 124.797 33.7107 124.815 33.7107Z" fill="white"/>
<path d="M68.9883 41.2705C69.3611 40.924 69.7889 40.6419 70.2542 40.4355C71.3232 39.8483 72.4443 39.3614 73.6031 38.981C74.773 38.5986 75.975 38.3221 77.1945 38.155C77.694 38.0573 78.2047 38.0301 78.7118 38.0742C78.7118 38.191 76.4313 38.4423 73.7468 39.3312C71.0623 40.2201 69.0422 41.3693 68.9883 41.2705Z" fill="white"/>
<path d="M96.596 19.0759C96.6421 19.0569 96.6922 19.0494 96.7418 19.0541C96.7915 19.0589 96.8392 19.0757 96.8809 19.1032C96.9225 19.1306 96.9568 19.1679 96.9807 19.2117C97.0046 19.2554 97.0174 19.3044 97.018 19.3543C97.0116 19.4037 96.9936 19.4509 96.9654 19.492C96.9371 19.5331 96.8995 19.5668 96.8557 19.5905C96.8118 19.6142 96.763 19.6271 96.7131 19.6282C96.6633 19.6292 96.6139 19.6185 96.5691 19.5967C96.53 19.5665 96.4983 19.5277 96.4765 19.4834C96.4547 19.439 96.4434 19.3902 96.4434 19.3408C96.4434 19.2914 96.4547 19.2426 96.4765 19.1982C96.4983 19.1539 96.53 19.1151 96.5691 19.0849" fill="white"/>
<path d="M99.5227 24.9478C99.5696 24.9307 99.6199 24.925 99.6694 24.9311C99.7189 24.9373 99.7662 24.9551 99.8074 24.9832C99.8487 25.0113 99.8826 25.0488 99.9065 25.0926C99.9304 25.1364 99.9435 25.1852 99.9447 25.2351C99.939 25.2847 99.9212 25.3322 99.8929 25.3733C99.8646 25.4145 99.8266 25.448 99.7823 25.4711C99.738 25.4941 99.6887 25.506 99.6387 25.5055C99.5888 25.5051 99.5397 25.4924 99.4958 25.4685C99.4568 25.4393 99.4251 25.4013 99.4033 25.3577C99.3815 25.314 99.3701 25.2659 99.3701 25.2171C99.3701 25.1684 99.3815 25.1202 99.4033 25.0766C99.4251 25.033 99.4568 24.995 99.4958 24.9658" fill="white"/>
<path d="M75.2095 36.8801C75.2556 36.8611 75.3056 36.8536 75.3553 36.8583C75.4049 36.8631 75.4527 36.8799 75.4943 36.9074C75.5359 36.9348 75.5702 36.9721 75.5941 37.0159C75.618 37.0596 75.6308 37.1086 75.6315 37.1585C75.6297 37.2102 75.6143 37.2606 75.587 37.3046C75.5596 37.3485 75.5213 37.3846 75.4757 37.4091C75.43 37.4336 75.3788 37.4458 75.327 37.4443C75.2753 37.4429 75.2248 37.4279 75.1806 37.4008C75.1365 37.3738 75.1002 37.3357 75.0753 37.2902C75.0505 37.2448 75.038 37.1936 75.0391 37.1419C75.0402 37.0901 75.0549 37.0395 75.0816 36.9952C75.1084 36.9508 75.1462 36.9143 75.1915 36.8891" fill="white"/>
<path d="M70.2806 38.6939C70.3274 38.6768 70.3777 38.6711 70.4272 38.6772C70.4767 38.6834 70.524 38.7012 70.5652 38.7293C70.6065 38.7574 70.6404 38.7949 70.6643 38.8387C70.6882 38.8825 70.7013 38.9313 70.7025 38.9812C70.6968 39.0308 70.679 39.0783 70.6507 39.1194C70.6224 39.1606 70.5844 39.1941 70.5401 39.2172C70.4958 39.2402 70.4465 39.252 70.3965 39.2516C70.3466 39.2512 70.2975 39.2385 70.2536 39.2146C70.2146 39.1854 70.1829 39.1474 70.1611 39.1038C70.1393 39.0601 70.1279 39.012 70.1279 38.9632C70.1279 38.9145 70.1393 38.8663 70.1611 38.8227C70.1829 38.7791 70.2146 38.7411 70.2536 38.7118" fill="white"/>
<g opacity="0.3">
<path opacity="0.3" d="M101.696 17.1637C101.696 17.4331 99.5412 17.7473 96.1025 18.3399C91.6618 18.9962 87.3492 20.3348 83.3174 22.3083C81.173 23.4671 79.2123 24.9376 77.4994 26.6717C76.1142 28.0665 74.9379 29.6541 74.0069 31.3854C72.3818 34.3931 72.2112 36.6107 71.906 36.5479C71.7892 36.5479 71.6995 35.9822 71.7533 34.9677C71.873 33.5319 72.2247 32.125 72.7948 30.8018C73.6313 28.8179 74.8071 26.995 76.2694 25.4148C78.0476 23.4831 80.139 21.8653 82.4555 20.6293C84.7622 19.4347 87.2079 18.53 89.7369 17.9358C91.7778 17.4619 93.8518 17.1438 95.9409 16.9841C99.4873 16.7956 101.678 16.9303 101.696 17.1637Z" fill="white"/>
</g>
<g opacity="0.3">
<path opacity="0.3" d="M74.6715 47.3218C74.3124 47.6719 73.0555 46.9447 72.2654 45.4274C71.4753 43.91 71.601 42.4555 72.0858 42.3658C72.5706 42.276 73.235 43.3175 73.8815 44.5744C74.5279 45.8314 75.0486 46.9986 74.6715 47.3218Z" fill="white"/>
</g>
<path d="M106.94 35.8657C107.046 36.3948 106.963 36.9445 106.706 37.419C106.445 38.0296 106.02 38.5559 105.478 38.9395C104.936 39.3231 104.298 39.5488 103.636 39.5917C102.979 39.6587 102.316 39.5433 101.721 39.2582C101.125 38.9731 100.619 38.5293 100.26 37.9756C99.9312 37.549 99.7572 37.0236 99.7659 36.4852C99.9558 36.9543 100.194 37.4026 100.475 37.823C100.799 38.2546 101.217 38.6075 101.696 38.8555C102.291 39.1718 102.965 39.3061 103.636 39.2416C104.286 39.1864 104.908 38.95 105.431 38.5592C105.86 38.2281 106.212 37.8086 106.464 37.3292C106.672 36.8591 106.832 36.3686 106.94 35.8657Z" fill="white"/>
<path d="M125.184 65.2782C126.575 65.781 124.986 86.2336 123.927 96.7023C123.352 102.287 122.508 108.096 119.303 112.702C115.711 117.837 109.427 120.127 103.142 120.782C94.4867 121.68 87.6991 117.604 83.7576 110.717C79.9336 104.078 77.4334 96.7606 76.3954 89.1695C75.309 80.5683 74.5997 74.9568 74.8062 67.442C74.8332 67.4151 100.044 56.0934 125.184 65.2782Z" fill="#5C7CFA"/>
<path d="M90.5092 106.578C90.5543 106.554 90.605 106.542 90.6564 106.543C90.7077 106.544 90.7579 106.558 90.8021 106.584C90.8462 106.61 90.8828 106.648 90.9081 106.692C90.9335 106.737 90.9469 106.787 90.9469 106.839C90.9469 106.89 90.9335 106.941 90.9081 106.985C90.8828 107.03 90.8462 107.067 90.8021 107.093C90.7579 107.12 90.7077 107.134 90.6564 107.135C90.605 107.136 90.5543 107.124 90.5092 107.099C90.4646 107.072 90.4278 107.034 90.4022 106.988C90.3767 106.942 90.3633 106.891 90.3633 106.839C90.3633 106.787 90.3767 106.735 90.4022 106.69C90.4278 106.644 90.4646 106.606 90.5092 106.578Z" fill="white"/>
<path d="M99.595 106.866C99.6407 106.846 99.6906 106.837 99.7405 106.84C99.7904 106.843 99.8389 106.858 99.8819 106.883C99.9249 106.909 99.9612 106.944 99.9878 106.986C100.014 107.029 100.031 107.077 100.035 107.126C100.036 107.178 100.023 107.229 99.9988 107.274C99.974 107.32 99.9379 107.358 99.894 107.385C99.8501 107.412 99.7999 107.427 99.7483 107.428C99.6967 107.43 99.6456 107.418 99.6 107.394C99.5545 107.37 99.516 107.334 99.4884 107.291C99.4608 107.247 99.445 107.197 99.4427 107.146C99.4404 107.094 99.4515 107.043 99.4751 106.997C99.4986 106.951 99.5338 106.912 99.577 106.884" fill="white"/>
<path d="M110.19 98.2289C110.235 98.2087 110.285 98.1997 110.335 98.2027C110.385 98.2057 110.434 98.2205 110.477 98.246C110.52 98.2714 110.556 98.3068 110.583 98.3491C110.609 98.3914 110.625 98.4395 110.63 98.4893C110.63 98.5401 110.617 98.5902 110.592 98.6345C110.567 98.6788 110.531 98.716 110.487 98.7424C110.444 98.7688 110.394 98.7835 110.343 98.7852C110.292 98.7869 110.242 98.7755 110.197 98.7521C110.152 98.7286 110.113 98.6939 110.085 98.6514C110.058 98.6088 110.041 98.5598 110.038 98.509C110.034 98.4583 110.044 98.4075 110.066 98.3616C110.088 98.3157 110.121 98.2761 110.163 98.2469" fill="white"/>
<path d="M107.325 74.7772C107.371 74.7571 107.421 74.7481 107.471 74.751C107.521 74.754 107.569 74.7688 107.612 74.7943C107.655 74.8198 107.692 74.8551 107.718 74.8974C107.745 74.9397 107.761 74.9878 107.765 75.0376C107.765 75.0885 107.752 75.1385 107.727 75.1828C107.702 75.2271 107.666 75.2643 107.623 75.2907C107.579 75.3171 107.53 75.3319 107.479 75.3336C107.428 75.3353 107.378 75.3238 107.333 75.3004C107.287 75.2769 107.249 75.2423 107.221 75.1997C107.193 75.1571 107.177 75.1081 107.174 75.0574C107.17 75.0066 107.18 74.9558 107.202 74.9099C107.224 74.864 107.257 74.8245 107.299 74.7952" fill="white"/>
<path d="M116.33 79.2488C116.375 79.2243 116.426 79.2119 116.478 79.2129C116.529 79.214 116.579 79.2283 116.623 79.2545C116.667 79.2808 116.704 79.3181 116.729 79.3627C116.755 79.4073 116.768 79.4578 116.768 79.5092C116.768 79.5605 116.755 79.611 116.729 79.6556C116.704 79.7003 116.667 79.7375 116.623 79.7638C116.579 79.7901 116.529 79.8044 116.478 79.8054C116.426 79.8064 116.375 79.794 116.33 79.7695C116.29 79.7415 116.256 79.7039 116.233 79.6601C116.21 79.6163 116.198 79.5676 116.198 79.5182C116.198 79.4687 116.21 79.42 116.233 79.3762C116.256 79.3324 116.29 79.2948 116.33 79.2668" fill="white"/>
<path d="M80.4262 103.131C80.4713 103.107 80.522 103.094 80.5734 103.095C80.6247 103.096 80.6749 103.111 80.7191 103.137C80.7632 103.163 80.7997 103.2 80.8251 103.245C80.8505 103.29 80.8639 103.34 80.8639 103.391C80.8639 103.443 80.8505 103.493 80.8251 103.538C80.7997 103.583 80.7632 103.62 80.7191 103.646C80.6749 103.672 80.6247 103.687 80.5734 103.688C80.522 103.689 80.4713 103.676 80.4262 103.652C80.3816 103.625 80.3448 103.586 80.3192 103.541C80.2937 103.495 80.2803 103.444 80.2803 103.391C80.2803 103.339 80.2937 103.288 80.3192 103.242C80.3448 103.197 80.3816 103.158 80.4262 103.131Z" fill="white"/>
<path d="M79.4836 95.329C79.5294 95.3088 79.5793 95.2998 79.6292 95.3028C79.6791 95.3058 79.7275 95.3206 79.7705 95.3461C79.8136 95.3715 79.8499 95.4069 79.8765 95.4492C79.9031 95.4915 79.9192 95.5396 79.9236 95.5894C79.9246 95.6409 79.9121 95.6919 79.8874 95.7372C79.8627 95.7825 79.8266 95.8205 79.7827 95.8475C79.7387 95.8746 79.6885 95.8897 79.637 95.8914C79.5854 95.893 79.5343 95.8812 79.4887 95.8571C79.4431 95.833 79.4046 95.7973 79.377 95.7538C79.3494 95.7102 79.3337 95.6601 79.3314 95.6086C79.329 95.5571 79.3402 95.5058 79.3638 95.4599C79.3873 95.414 79.4224 95.3751 79.4657 95.3469" fill="white"/>
<path d="M79.3401 88.3167C79.3852 88.2922 79.436 88.2798 79.4873 88.2808C79.5386 88.2818 79.5888 88.2962 79.633 88.3224C79.6771 88.3487 79.7137 88.3859 79.739 88.4306C79.7644 88.4752 79.7778 88.5257 79.7778 88.577C79.7778 88.6284 79.7644 88.6789 79.739 88.7235C79.7137 88.7682 79.6771 88.8054 79.633 88.8317C79.5888 88.8579 79.5386 88.8723 79.4873 88.8733C79.436 88.8743 79.3852 88.8619 79.3401 88.8374C79.2994 88.8094 79.2661 88.7718 79.243 88.728C79.22 88.6842 79.208 88.6355 79.208 88.586C79.208 88.5366 79.22 88.4878 79.243 88.444C79.2661 88.4002 79.2994 88.3627 79.3401 88.3346" fill="white"/>
<path d="M79.2234 80.8645C79.2684 80.8445 79.3176 80.8353 79.3669 80.8378C79.4162 80.8403 79.4642 80.8543 79.507 80.8788C79.5498 80.9033 79.5863 80.9375 79.6135 80.9787C79.6406 81.0199 79.6577 81.0669 79.6633 81.1159C79.6603 81.1665 79.6452 81.2156 79.6191 81.2591C79.5931 81.3025 79.5569 81.339 79.5137 81.3655C79.4705 81.392 79.4215 81.4076 79.3709 81.411C79.3204 81.4145 79.2698 81.4056 79.2234 81.3853C79.1843 81.356 79.1526 81.3181 79.1308 81.2744C79.109 81.2308 79.0977 81.1827 79.0977 81.1339C79.0977 81.0851 79.109 81.037 79.1308 80.9934C79.1526 80.9497 79.1843 80.9118 79.2234 80.8825" fill="white"/>
<path d="M121.978 77.848C122.023 77.8279 122.073 77.8189 122.123 77.8218C122.173 77.8248 122.222 77.8396 122.265 77.8651C122.308 77.8906 122.344 77.9259 122.371 77.9682C122.397 78.0106 122.413 78.0586 122.418 78.1084C122.419 78.16 122.406 78.2109 122.382 78.2562C122.357 78.3015 122.321 78.3395 122.277 78.3666C122.233 78.3936 122.183 78.4087 122.131 78.4104C122.08 78.4121 122.028 78.4003 121.983 78.3761C121.937 78.352 121.899 78.3164 121.871 78.2728C121.844 78.2292 121.828 78.1792 121.825 78.1277C121.823 78.0761 121.834 78.0249 121.858 77.979C121.881 77.9331 121.917 77.8941 121.96 77.866" fill="white"/>
<path d="M111.07 107C111.115 106.98 111.164 106.971 111.214 106.974C111.263 106.977 111.311 106.991 111.354 107.017C111.396 107.043 111.432 107.078 111.457 107.121C111.483 107.163 111.498 107.211 111.501 107.261C111.498 107.31 111.483 107.358 111.457 107.401C111.432 107.443 111.396 107.479 111.354 107.505C111.311 107.53 111.263 107.545 111.214 107.548C111.164 107.551 111.115 107.542 111.07 107.521C111.029 107.493 110.996 107.456 110.973 107.412C110.95 107.368 110.938 107.319 110.938 107.27C110.938 107.22 110.95 107.172 110.973 107.128C110.996 107.084 111.029 107.046 111.07 107.018" fill="white"/>
<path d="M111.528 114.381C111.574 114.362 111.623 114.355 111.672 114.359C111.721 114.363 111.769 114.378 111.811 114.403C111.854 114.428 111.89 114.463 111.917 114.504C111.944 114.545 111.961 114.592 111.968 114.641C111.968 114.692 111.954 114.742 111.929 114.786C111.904 114.831 111.869 114.868 111.825 114.894C111.782 114.921 111.732 114.935 111.681 114.937C111.63 114.939 111.58 114.927 111.535 114.904C111.49 114.88 111.451 114.846 111.423 114.803C111.396 114.761 111.379 114.712 111.376 114.661C111.372 114.61 111.382 114.559 111.404 114.513C111.426 114.467 111.459 114.428 111.501 114.399" fill="white"/>
<path d="M88.9913 115.664C88.8586 115.565 88.7354 115.454 88.6232 115.332C88.3897 115.108 88.0665 114.767 87.6625 114.3C86.5029 112.997 85.5901 111.494 84.969 109.864C84.5793 108.738 84.2791 107.582 84.0712 106.408C83.7928 105.151 83.5235 103.804 83.2541 102.386C82.7154 99.5484 82.2216 96.406 81.8086 93.093C81.1138 87.4325 80.7421 81.737 80.6953 76.0342C80.6953 73.8525 80.6953 72.0837 80.7761 70.8627C80.7761 70.2881 80.7761 69.8212 80.839 69.4621C80.834 69.2958 80.8521 69.1296 80.8928 68.9683C80.9065 69.1326 80.9065 69.2977 80.8928 69.4621C80.8928 69.8212 80.8928 70.2881 80.8928 70.8627C80.8928 72.0837 80.8928 73.8525 80.8928 76.0342C81.0152 81.7164 81.4227 87.3888 82.1139 93.0301C82.5179 96.3341 83.0117 99.4676 83.5235 102.305C83.7928 103.723 84.0442 105.07 84.3046 106.327C84.5193 107.491 84.8193 108.637 85.2024 109.757C85.7891 111.372 86.6518 112.872 87.7523 114.192C88.1293 114.668 88.4436 115.027 88.6501 115.269C88.7763 115.39 88.8906 115.522 88.9913 115.664Z" fill="white"/>
<path d="M107.083 94.3589C107.182 94.3589 107.532 100.033 107.864 107.045C108.196 114.057 108.376 119.75 108.268 119.759C108.16 119.767 107.819 114.075 107.496 107.063C107.173 100.051 106.984 94.3679 107.083 94.3589Z" fill="white"/>
<path d="M98.7598 61.8667C98.9424 62.027 99.1024 62.2112 99.2356 62.4144C99.5139 62.7735 99.918 63.3122 100.403 63.9766C101.372 65.2964 102.692 67.1459 104.138 69.202L104.667 69.9651L104.739 70.0549C104.772 70.0875 104.797 70.1275 104.811 70.1716C104.815 70.2254 104.815 70.2794 104.811 70.3332V70.45C104.811 70.6116 104.811 70.7642 104.811 70.9168C104.811 71.5184 104.811 72.084 104.811 72.6317C104.811 73.7181 104.739 74.6967 104.694 75.5227C104.65 76.3487 104.605 77.0041 104.56 77.462C104.561 77.7049 104.528 77.9467 104.461 78.1803C104.398 77.2836 104.398 76.3835 104.461 75.4868C104.461 74.589 104.461 73.6911 104.461 72.5958C104.461 72.0571 104.461 71.4825 104.461 70.9079C104.461 70.7552 104.461 70.6116 104.461 70.4769V70.3961C104.462 70.3752 104.462 70.3542 104.461 70.3332C104.461 70.3332 104.38 70.2435 104.353 70.1716L103.815 69.4175C102.378 67.3614 101.121 65.485 100.169 64.1203C99.7115 63.4379 99.3434 62.8812 99.1009 62.4952C98.9598 62.3018 98.8451 62.0904 98.7598 61.8667Z" fill="white"/>
<path d="M106.93 105.07C106.637 105.146 106.335 105.185 106.033 105.187C105.458 105.241 104.614 105.304 103.572 105.358C101.49 105.456 98.6165 105.528 95.4381 105.456C92.2598 105.384 89.3868 105.187 87.3128 104.989C86.2713 104.891 85.4363 104.801 84.8617 104.72C84.5575 104.699 84.2565 104.644 83.9639 104.558C84.2623 104.526 84.5633 104.526 84.8617 104.558L87.3218 104.711C89.3957 104.846 92.2688 104.998 95.4022 105.07C98.5357 105.142 101.445 105.07 103.483 105.07L105.943 105.016C106.273 105 106.604 105.018 106.93 105.07Z" fill="white"/>
<path d="M125.318 78.9795C125.161 79.1049 124.989 79.2104 124.806 79.2937C124.327 79.5429 123.836 79.7676 123.334 79.9671C121.671 80.6334 119.952 81.1532 118.198 81.5203C116.451 81.895 114.682 82.1559 112.901 82.3015C112.165 82.3901 111.422 82.4051 110.684 82.3464C111.405 82.1887 112.137 82.0866 112.874 82.0411C114.23 81.8705 116.089 81.6012 118.127 81.1433C119.858 80.7726 121.564 80.2928 123.235 79.7067C123.917 79.4297 124.612 79.187 125.318 78.9795Z" fill="white"/>
<path d="M113.592 86.7456C113.469 88.3806 112.864 89.9425 111.854 91.2339C110.844 92.5254 109.473 93.4885 107.916 94.0017C106.359 94.5149 104.684 94.5552 103.104 94.1174C101.524 93.6795 100.109 92.7833 99.0381 91.5419C97.967 90.3004 97.2879 88.7694 97.0863 87.1422C96.8848 85.515 97.17 83.8646 97.9059 82.3994C98.6418 80.9341 99.7953 79.7198 101.221 78.9098C102.646 78.0997 104.28 77.7303 105.915 77.8481C107.004 77.9277 108.066 78.2211 109.041 78.7114C110.016 79.2017 110.885 79.8795 111.598 80.7058C112.311 81.5321 112.854 82.4909 113.196 83.5272C113.538 84.5636 113.673 85.6572 113.592 86.7456Z" fill="#0C1641"/>
<path d="M111.348 86.5838C111.261 87.7776 110.822 88.919 110.087 89.8634C109.351 90.8079 108.352 91.513 107.216 91.8897C106.08 92.2663 104.857 92.2975 103.704 91.9793C102.55 91.6611 101.516 91.0078 100.733 90.1021C99.9507 89.1963 99.4543 88.0789 99.3068 86.891C99.1594 85.7031 99.3676 84.4981 99.905 83.4285C100.442 82.359 101.285 81.4728 102.326 80.8822C103.367 80.2916 104.56 80.023 105.754 80.1104C107.354 80.2276 108.842 80.9753 109.891 82.1892C110.94 83.403 111.464 84.9837 111.348 86.5838Z" fill="white"/>
<path d="M108.43 87.7242C108.38 87.3945 108.362 87.0607 108.376 86.7276C108.376 86.0991 108.376 85.2102 108.376 84.1239L108.448 84.2406L105.333 82.4449H105.512L102.37 84.2406C102.28 84.3842 102.487 84.0431 102.46 84.079V84.9768V85.8746C102.46 86.4762 102.46 87.0598 102.46 87.6164L102.379 87.4638L105.449 89.3492H105.315L107.622 88.1372C107.911 87.976 108.211 87.835 108.52 87.7152C108.274 87.9141 108.01 88.0885 107.73 88.2359C107.2 88.5591 106.419 89.026 105.441 89.5916H105.369H105.306L102.19 87.796L102.101 87.7421V87.6434C102.101 87.0777 102.101 86.4941 102.101 85.8926C102.101 85.5963 102.101 85.291 102.101 84.9947V84.0969C102.101 84.0969 102.28 83.7917 102.199 83.9353L105.351 82.1396H105.441L105.521 82.1935L108.601 84.07H108.664V84.1418C108.664 85.2731 108.592 86.1889 108.556 86.8353C108.542 87.1349 108.5 87.4325 108.43 87.7242Z" fill="#5C7CFA"/>
<g opacity="0.2">
<path opacity="0.2" d="M74.833 67.4152C74.833 67.4152 100.044 55.932 125.183 65.2784C125.183 65.2784 113.44 74.8852 74.833 67.4152Z" fill="#0C1641"/>
</g>
<path d="M125.184 65.2782C125.184 65.2782 140.348 53.0767 143.015 53.9924C145.681 54.9082 146.732 56.2999 145.475 59.5859C144.218 62.872 125.184 81.1339 125.184 81.1339V65.2782Z" fill="#5C7CFA"/>
<path d="M124.599 88.6221C124.683 88.3293 124.734 88.0282 124.752 87.7243C124.833 87.1407 124.914 86.2878 124.994 85.2373C125.156 83.1274 125.318 80.2095 125.398 76.9773C125.479 73.7451 125.497 70.8361 125.47 68.7172C125.47 67.6578 125.47 66.8049 125.398 66.2123C125.41 65.9103 125.38 65.6082 125.309 65.3145C125.243 65.6091 125.213 65.9105 125.219 66.2123C125.219 66.9126 125.165 67.7386 125.138 68.7172C125.084 70.9439 125.012 73.8079 124.932 76.9683C124.851 80.1286 124.734 82.9838 124.662 85.2193C124.662 86.189 124.599 87.015 124.572 87.7153C124.538 88.0173 124.547 88.3227 124.599 88.6221Z" fill="#0C1641"/>
<g opacity="0.2">
<path opacity="0.2" d="M83.9281 71.563C83.1739 79.4729 80.5253 88.1549 77.6433 95.571C77.1315 93.2995 76.6916 91.0818 76.4043 89.1246C76.7275 86.853 78.2 83.8004 79.0978 81.7085L83.5869 71.563" fill="#0C1641"/>
</g>
<path d="M74.8327 67.415C74.8327 67.415 60.9612 95.7326 66.3033 98.7763C73.9079 103.104 84.4036 69.2287 84.4036 69.2287L79.4924 68.25L74.8327 67.415Z" fill="#5C7CFA"/>
<path d="M73.5312 94.3591C73.7794 94.0848 73.9963 93.7837 74.1777 93.4613C74.5638 92.8957 75.0755 92.0517 75.713 90.9833C77.2937 88.1937 78.6942 85.3057 79.9058 82.3372C81.3514 78.8626 82.4557 75.6483 83.1739 73.296C83.5421 72.1199 83.8024 71.1592 83.973 70.4948C84.0886 70.1551 84.161 69.8021 84.1885 69.4443C84.0213 69.7603 83.8917 70.0948 83.8024 70.4409C83.551 71.1891 83.2518 72.1049 82.9046 73.1883C82.1055 75.5137 80.9563 78.701 79.5198 82.1666C78.0832 85.6322 76.6288 88.6759 75.4706 90.8307C74.8959 91.917 74.4111 92.7789 74.061 93.3715C73.8429 93.6767 73.6649 94.0086 73.5312 94.3591Z" fill="#0C1641"/>
<path fill-rule="evenodd" clip-rule="evenodd" d="M23.5487 147.933C21.9685 148.121 11.6973 148.696 17.6948 145.096C16.1779 144.83 14.7174 144.308 13.3763 143.551C13.2094 143.477 13.0675 143.357 12.968 143.204C12.8684 143.051 12.8154 142.872 12.8154 142.689C12.8154 142.507 12.8684 142.328 12.968 142.175C13.0675 142.022 13.2094 141.901 13.3763 141.827C14.4464 141.377 15.5913 141.13 16.7521 141.1C17.4896 141.028 18.2323 141.028 18.9698 141.1L19.284 141.145C19.0751 140.817 18.9148 140.46 18.8082 140.086C17.65 135.884 25.5598 141.343 26.9694 143.677C27.4902 144.575 28.2982 145.922 27.6249 146.9C26.9515 147.879 24.68 147.798 23.5397 147.933H23.5487Z" fill="#BAC8FF"/>
<path fill-rule="evenodd" clip-rule="evenodd" d="M31.0815 160.17C29.8694 160.421 27.6248 160.897 27.0502 159.353C26.9364 159.016 26.9334 158.651 27.0416 158.312C27.1498 157.972 27.3636 157.677 27.6518 157.468C26.7561 157.544 25.8563 157.562 24.9583 157.521C23.6474 157.459 20.3344 157.01 20.8731 154.954C21.0796 154.137 22.0224 153.849 22.7316 153.616C23.7548 153.284 24.8118 153.067 25.883 152.969C26.2601 152.969 26.6372 152.969 27.0233 152.916C26.8817 152.721 26.7806 152.5 26.726 152.266C26.6714 152.032 26.6644 151.789 26.7054 151.552C26.7464 151.315 26.8347 151.089 26.9648 150.886C27.095 150.684 27.2645 150.51 27.4632 150.375C28.6753 149.477 30.6415 150.042 31.9524 150.375C33.5309 150.718 35.0602 151.258 36.5044 151.982C37.6356 152.574 39.4223 153.391 38.9285 154.981C38.5245 156.309 36.8545 157.512 35.7592 158.24C34.3334 159.184 32.7392 159.846 31.0635 160.188L31.0815 160.17Z" fill="#BAC8FF"/>
<path fill-rule="evenodd" clip-rule="evenodd" d="M50.1517 147.412C49.0743 146.514 47.0632 144.898 48.0149 143.291C48.2306 142.952 48.5491 142.691 48.9238 142.545C49.2985 142.4 49.7098 142.378 50.0978 142.483C49.3973 141.753 48.7436 140.979 48.1406 140.167C47.2427 138.964 45.3124 135.74 47.5031 134.78C48.4009 134.385 49.2988 135.013 49.9901 135.471C51.0082 136.132 51.948 136.906 52.7913 137.778C53.0876 138.084 53.3749 138.407 53.6891 138.739C53.7614 138.476 53.8855 138.231 54.0539 138.016C54.2224 137.802 54.432 137.624 54.6703 137.492C54.9086 137.36 55.1709 137.276 55.4419 137.247C55.7128 137.218 55.9868 137.243 56.248 137.32C57.891 137.751 58.7798 139.879 59.4442 141.262C60.2558 142.892 60.8591 144.617 61.2399 146.398C61.5182 147.807 62.0659 149.989 60.3421 150.653C58.8786 151.237 56.643 150.653 55.2244 150.177C53.3846 149.598 51.6743 148.668 50.1876 147.439L50.1517 147.412Z" fill="#BAC8FF"/>
<path fill-rule="evenodd" clip-rule="evenodd" d="M70.4963 145.069C69.347 144.62 67.2102 143.794 67.5693 142.187C67.6572 141.841 67.8537 141.532 68.13 141.306C68.4064 141.079 68.7479 140.948 69.1046 140.93C68.3144 140.507 67.5526 140.033 66.8241 139.511C65.7557 138.739 63.2328 136.557 64.795 135.13C65.4235 134.564 66.3662 134.834 67.0845 135.022C68.1212 135.307 69.1237 135.705 70.0743 136.207C70.4155 136.387 70.7387 136.584 71.0619 136.791C71.0484 136.547 71.0849 136.303 71.1692 136.073C71.2534 135.844 71.3835 135.634 71.5516 135.457C71.7197 135.279 71.9222 135.138 72.1468 135.042C72.3713 134.946 72.6132 134.896 72.8575 134.896C74.3659 134.807 75.6947 136.351 76.6374 137.339C77.7745 138.485 78.7584 139.773 79.5643 141.172C80.1928 142.286 81.2433 143.947 79.9684 145.006C78.8999 145.904 76.8529 145.994 75.5241 146.012C73.8183 146.031 72.1243 145.726 70.5322 145.114L70.4963 145.069Z" fill="#BAC8FF"/>
<path fill-rule="evenodd" clip-rule="evenodd" d="M33.9544 143.758C33.3439 143.022 32.2126 141.666 33.0566 140.723C33.2447 140.524 33.4914 140.389 33.7609 140.339C34.0304 140.289 34.3088 140.326 34.556 140.445C34.1842 139.867 33.8483 139.268 33.5504 138.649C33.1194 137.751 32.2306 135.318 33.8197 134.941C34.4572 134.788 34.9869 135.327 35.3999 135.722C35.9935 136.299 36.5205 136.94 36.9711 137.635C37.1345 137.877 37.2844 138.129 37.42 138.389C37.5019 138.222 37.6164 138.073 37.7566 137.952C37.8968 137.83 38.0601 137.737 38.2366 137.68C38.4132 137.622 38.5995 137.6 38.7846 137.615C38.9697 137.631 39.1499 137.683 39.3145 137.769C40.3559 138.272 40.6792 139.807 40.9395 140.822C41.274 142.018 41.458 143.252 41.4872 144.494C41.4872 145.473 41.577 146.99 40.329 147.187C39.2785 147.385 37.86 146.694 36.9621 146.209C35.8086 145.582 34.7872 144.737 33.9544 143.722V143.758Z" fill="#BAC8FF"/>
<path fill-rule="evenodd" clip-rule="evenodd" d="M54.8648 164.471C54.8648 164.399 54.8648 164.336 54.793 164.273C52.8626 166.167 50.7527 167.864 47.9605 168.152C47.6387 168.178 47.3173 168.098 47.045 167.925C46.7727 167.751 46.5646 167.494 46.4521 167.191C45.662 164.435 47.6283 162.19 49.415 160.26C49.2376 160.209 49.0684 160.133 48.9122 160.035C47.8348 159.371 48.0952 157.943 48.9122 157.171C51.4441 154.72 60.8623 153.23 61.7601 155.025C62.2921 156.077 62.3888 157.296 62.0295 158.419C61.6865 159.646 61.2046 160.83 60.593 161.948C60.0171 163.077 59.2857 164.119 58.4202 165.045C58.1797 165.307 57.8781 165.504 57.5424 165.62C57.2067 165.737 56.8474 165.768 56.4967 165.711C56.1461 165.654 55.815 165.511 55.5333 165.294C55.2517 165.078 55.0281 164.795 54.8828 164.471H54.8648Z" fill="#BAC8FF"/>
<path fill-rule="evenodd" clip-rule="evenodd" d="M77.5983 163.725C77.0237 165.521 76.1618 167.425 74.2045 167.613C73.9633 167.65 73.7166 167.608 73.5003 167.495C73.284 167.382 73.1093 167.204 73.0015 166.985C72.4303 165.234 72.4303 163.348 73.0015 161.598C72.8714 161.628 72.7394 161.649 72.6064 161.66C72.3683 161.681 72.1285 161.654 71.9009 161.581C71.6734 161.508 71.4627 161.391 71.2812 161.235C71.0998 161.079 70.9512 160.889 70.8442 160.676C70.7372 160.462 70.6739 160.229 70.6581 159.991C70.5953 158.563 72.1395 155.421 73.0374 154.307C74.2494 152.799 77.3649 149.701 79.0977 150.186C81.45 151.228 81.3064 154.595 81.3154 156.731C81.3243 158.868 81.3962 161.544 79.9237 163.178C79.6547 163.523 79.2776 163.768 78.8528 163.874C78.428 163.98 77.98 163.94 77.5804 163.761L77.5983 163.725Z" fill="#BAC8FF"/>
<path d="M22.5614 145.06C22.5614 145.06 22.6332 145.06 22.7589 145.122L23.3335 145.356C23.8273 145.553 24.5546 145.895 25.5063 146.254C27.3917 147.044 30.166 148.121 33.6496 149.235C37.7433 150.534 41.9304 151.519 46.1743 152.179C51.3604 152.976 56.623 153.151 61.8505 152.7C67.0747 152.193 72.1831 150.847 76.9789 148.714C80.8988 146.983 84.6071 144.808 88.0312 142.231C90.9581 140.032 93.1937 138.083 94.729 136.719C95.4742 136.063 96.0578 135.534 96.5247 135.148L96.9826 134.735C97.0343 134.686 97.0915 134.644 97.1532 134.609L97.0185 134.77L96.5875 135.21C96.2104 135.596 95.6358 136.153 94.8906 136.853C92.7618 138.846 90.5323 140.728 88.2108 142.492C84.7923 145.128 81.0732 147.349 77.1315 149.109C72.3003 151.288 67.144 152.659 61.8684 153.167C56.6037 153.622 51.3032 153.432 46.0846 152.601C41.8194 151.932 37.6157 150.917 33.5149 149.567C30.7701 148.663 28.0732 147.62 25.4344 146.442C24.5366 146.038 23.7824 145.67 23.2886 145.437L22.741 145.167C22.6153 145.105 22.5524 145.069 22.5614 145.06Z" fill="#0C1641"/>
<path d="M28.8906 155.564C28.8906 155.438 33.6491 154.756 39.5479 154.047C45.4466 153.338 50.25 152.862 50.268 152.987C50.2859 153.113 45.5095 153.795 39.6017 154.505C33.694 155.214 28.9086 155.69 28.8906 155.564Z" fill="#0C1641"/>
<path d="M47.9703 152.296C47.7505 152.264 47.5378 152.194 47.3418 152.09C46.7878 151.841 46.2587 151.54 45.7616 151.192C44.1441 150.029 42.6756 148.672 41.3892 147.151C40.0736 145.658 38.873 144.068 37.7978 142.393C37.3186 141.722 36.9293 140.992 36.6396 140.22C37.1595 140.851 37.6392 141.514 38.0762 142.204C39.1939 143.811 40.3926 145.361 41.6675 146.846C42.9389 148.338 44.3521 149.703 45.8873 150.922C47.0724 151.847 47.9703 152.224 47.9703 152.296Z" fill="#0C1641"/>
<path d="M51.3633 163.941C51.9302 163.182 52.5741 162.484 53.2846 161.858C56.5648 158.687 60.2225 155.931 64.1753 153.652C64.9733 153.139 65.8216 152.709 66.7072 152.368C65.9564 152.939 65.1675 153.458 64.3459 153.921C62.8824 154.819 60.8803 156.193 58.7614 157.791C56.6425 159.389 54.811 160.942 53.5091 162.092C52.8346 162.754 52.1178 163.372 51.3633 163.941Z" fill="#0C1641"/>
<path d="M64.3734 152.619C63.7394 152.504 63.1312 152.276 62.5778 151.946C61.2224 151.26 59.9685 150.39 58.8518 149.36C57.7331 148.331 56.7577 147.157 55.9518 145.868C55.5798 145.356 55.303 144.781 55.1348 144.171C56.3192 145.91 57.6692 147.531 59.166 149.01C60.7804 150.38 62.5244 151.589 64.3734 152.619Z" fill="#0C1641"/>
<path d="M74.8506 160.601C74.8647 160.347 74.913 160.097 74.9942 159.856C75.111 159.389 75.3175 158.716 75.6137 157.89C77.1661 153.609 79.6149 149.709 82.7964 146.451C83.4069 145.841 83.9277 145.356 84.3047 145.051C84.6818 144.746 84.8973 144.575 84.9153 144.602C84.9332 144.629 84.188 145.401 83.0388 146.685C80.0055 150.017 77.575 153.851 75.8562 158.015C75.5712 158.896 75.2355 159.759 74.8506 160.601Z" fill="#0C1641"/>
<path d="M71.8428 140.454C73.6418 141.72 75.5359 142.846 77.5081 143.82C78.2798 144.174 79.0747 144.474 79.8873 144.718C80.5615 144.883 81.2452 145.006 81.9344 145.086C83.1195 145.221 83.8647 145.221 83.8647 145.284C83.2271 145.455 82.5618 145.498 81.9075 145.41C81.1945 145.384 80.4854 145.294 79.7886 145.14C78.9422 144.91 78.1163 144.609 77.3195 144.242C75.8738 143.594 74.5112 142.774 73.2613 141.8C72.7205 141.429 72.2418 140.974 71.8428 140.454Z" fill="#0C1641"/>
<path fill-rule="evenodd" clip-rule="evenodd" d="M234.144 87.401C235.688 87.0509 245.816 85.3629 240.267 89.5917C241.813 89.6903 243.332 90.0516 244.756 90.6601C244.93 90.718 245.083 90.8247 245.197 90.9673C245.312 91.1099 245.383 91.2824 245.401 91.4642C245.42 91.646 245.387 91.8295 245.304 91.9926C245.222 92.1557 245.094 92.2916 244.936 92.384C243.919 92.9438 242.809 93.312 241.659 93.4703C240.934 93.6082 240.197 93.6773 239.459 93.6768H239.136C239.38 93.9795 239.579 94.315 239.729 94.6734C241.327 98.7316 232.869 94.1527 231.226 91.9799C230.616 91.1899 229.664 89.897 230.23 88.8555C230.795 87.814 233.058 87.6344 234.18 87.3831L234.144 87.401Z" fill="#BAC8FF"/>
<path fill-rule="evenodd" clip-rule="evenodd" d="M225.337 76.0525C226.513 75.6665 228.685 74.9482 229.431 76.4296C229.579 76.753 229.62 77.1151 229.549 77.4637C229.478 77.8122 229.298 78.1292 229.036 78.3689C229.925 78.1952 230.825 78.0812 231.729 78.0278C233.049 77.947 236.389 78.0278 236.075 80.1377C235.949 80.9727 235.042 81.3587 234.369 81.664C233.387 82.1044 232.361 82.4355 231.307 82.6516C230.939 82.7234 230.562 82.7773 230.185 82.8222C230.347 83.0007 230.471 83.21 230.55 83.4376C230.629 83.6651 230.662 83.9063 230.646 84.1468C230.63 84.3872 230.566 84.622 230.457 84.8371C230.349 85.0522 230.198 85.2433 230.014 85.399C228.91 86.4225 226.89 86.0723 225.525 85.9017C223.919 85.7302 222.341 85.3561 220.829 84.7884C219.644 84.3216 217.777 83.7021 218.136 82.0949C218.396 80.7302 219.932 79.4015 220.946 78.5036C222.269 77.4069 223.794 76.5803 225.435 76.0705L225.337 76.0525Z" fill="#BAC8FF"/>
<path fill-rule="evenodd" clip-rule="evenodd" d="M207.784 90.7859C208.951 91.549 211.124 92.9496 210.361 94.6465C210.181 95.006 209.893 95.2995 209.536 95.485C209.18 95.6705 208.774 95.7384 208.377 95.679C209.145 96.3322 209.874 97.0307 210.558 97.771C211.564 98.8753 213.844 101.865 211.788 103.086C210.962 103.571 209.993 103.086 209.239 102.673C208.156 102.119 207.135 101.451 206.195 100.68C205.872 100.402 205.557 100.114 205.252 99.7821C205.209 100.051 205.112 100.308 204.968 100.539C204.824 100.769 204.635 100.969 204.412 101.125C204.19 101.282 203.938 101.392 203.672 101.45C203.406 101.507 203.131 101.511 202.864 101.461C201.185 101.219 200.063 99.1985 199.273 97.8697C198.287 96.3371 197.497 94.6873 196.92 92.9586C196.489 91.5849 195.708 89.502 197.369 88.6221C198.752 87.8859 201.041 88.254 202.505 88.5503C204.394 88.9301 206.193 89.6708 207.802 90.732L207.784 90.7859Z" fill="#BAC8FF"/>
<path fill-rule="evenodd" clip-rule="evenodd" d="M187.771 95.3017C188.966 95.625 191.183 96.1996 190.995 97.8516C190.944 98.2041 190.783 98.5315 190.535 98.7865C190.286 99.0415 189.963 99.2109 189.612 99.2702C190.44 99.607 191.246 99.9937 192.027 100.428C193.167 101.084 195.915 102.978 194.514 104.576C193.948 105.205 192.979 105.034 192.252 104.918C191.188 104.753 190.146 104.47 189.145 104.074C188.795 103.939 188.445 103.777 188.104 103.607C188.142 103.844 188.132 104.087 188.074 104.32C188.016 104.554 187.913 104.773 187.769 104.966C187.625 105.159 187.443 105.32 187.236 105.442C187.028 105.563 186.798 105.641 186.559 105.672C185.069 105.923 183.579 104.531 182.537 103.661C181.289 102.636 180.173 101.459 179.215 100.159C178.47 99.1175 177.249 97.5822 178.398 96.3881C179.368 95.3915 181.397 95.0683 182.708 94.9157C184.405 94.7201 186.124 94.8511 187.771 95.3017Z" fill="#BAC8FF"/>
<path fill-rule="evenodd" clip-rule="evenodd" d="M224.25 92.6801C224.924 93.3445 226.199 94.5655 225.462 95.598C225.296 95.8139 225.066 95.9718 224.805 96.0492C224.544 96.1266 224.265 96.1195 224.008 96.029C224.439 96.5652 224.835 97.1291 225.193 97.7169C225.723 98.6147 226.863 100.877 225.328 101.425C224.717 101.64 224.125 101.165 223.676 100.814C223.015 100.309 222.412 99.7305 221.88 99.0906C221.701 98.8661 221.53 98.6237 221.359 98.3903C221.296 98.562 221.198 98.7194 221.073 98.8532C220.948 98.9871 220.798 99.0947 220.631 99.1699C220.463 99.2451 220.283 99.2863 220.1 99.2912C219.917 99.2961 219.735 99.2645 219.564 99.1983C218.468 98.8212 217.983 97.3218 217.615 96.3432C217.166 95.1887 216.864 93.9821 216.718 92.7519C216.601 91.7733 216.349 90.2829 217.615 89.9148C218.639 89.6005 220.12 90.1392 221.063 90.5253C222.281 91.0258 223.391 91.7575 224.331 92.6801H224.25Z" fill="#BAC8FF"/>
<path fill-rule="evenodd" clip-rule="evenodd" d="M201.229 74.3375L201.319 74.5261C203.034 72.4341 204.91 70.5307 207.694 69.9292C208.012 69.8697 208.341 69.9155 208.631 70.0597C208.921 70.2038 209.156 70.4385 209.301 70.7282C210.378 73.3768 208.663 75.8279 207.101 77.9109C207.281 77.9446 207.457 78.0019 207.622 78.0815C208.762 78.6292 208.663 80.0747 207.954 80.9276C205.692 83.6211 196.489 86.135 195.384 84.4471C194.737 83.4593 194.505 82.2561 194.738 81.0982C194.952 79.8421 195.304 78.6136 195.788 77.435C196.232 76.2534 196.836 75.1386 197.584 74.122C197.795 73.8338 198.075 73.6028 198.398 73.45C198.721 73.2972 199.077 73.2275 199.433 73.2471C199.79 73.2667 200.136 73.3751 200.44 73.5624C200.745 73.7496 200.997 74.0099 201.175 74.3196L201.229 74.3375Z" fill="#BAC8FF"/>
<path fill-rule="evenodd" clip-rule="evenodd" d="M178.757 77.5159C179.134 75.7202 179.781 73.6822 181.711 73.2871C181.946 73.2219 182.195 73.2347 182.422 73.3238C182.649 73.4129 182.841 73.5734 182.968 73.7809C183.728 75.4698 183.926 77.358 183.534 79.1679C183.659 79.1196 183.788 79.0806 183.92 79.0512C184.157 79.0049 184.402 79.007 184.638 79.0575C184.875 79.1079 185.099 79.2057 185.297 79.3449C185.495 79.4841 185.662 79.6619 185.79 79.8675C185.917 80.0731 186.002 80.3024 186.039 80.5416C186.254 81.9602 185.051 85.2462 184.288 86.4493C183.246 88.0834 180.472 91.5041 178.703 91.2078C176.252 90.4177 176.01 87.0598 175.794 84.923C175.579 82.7862 175.193 80.1466 176.486 78.3599C176.716 77.9866 177.066 77.702 177.478 77.552C177.89 77.4021 178.341 77.3957 178.757 77.5339V77.5159Z" fill="#BAC8FF"/>
<path d="M235.437 90.1574C235.368 90.1679 235.299 90.1679 235.23 90.1574L234.638 89.9868C234.117 89.8432 233.363 89.5828 232.375 89.3134C230.409 88.7209 227.545 87.9577 223.954 87.2305C219.751 86.3776 215.488 85.8523 211.204 85.6593C205.963 85.4273 200.713 85.8192 195.564 86.8264C190.425 87.8918 185.493 89.7806 180.956 92.4199C177.248 94.5646 173.796 97.125 170.667 100.051C167.974 102.556 165.981 104.738 164.598 106.255L163.018 108.051C162.856 108.24 162.721 108.383 162.605 108.509C162.488 108.635 162.461 108.662 162.452 108.653C162.484 108.591 162.523 108.534 162.569 108.482L162.946 107.997C163.287 107.575 163.79 106.956 164.463 106.202C166.348 104.006 168.344 101.908 170.443 99.9168C173.557 96.9283 177.014 94.3185 180.741 92.1416C185.311 89.4618 190.287 87.5452 195.474 86.4673C200.658 85.4508 205.946 85.0679 211.222 85.3271C215.523 85.4824 219.805 85.9838 224.025 86.8264C226.863 87.4249 229.668 88.1681 232.429 89.0531C233.408 89.3583 234.153 89.6456 234.665 89.8162L235.239 90.0317L235.437 90.1574Z" fill="#0C1641"/>
<path d="M228.012 80.389C228.012 80.5147 223.37 81.7088 217.579 83.0825C211.788 84.4561 207.065 85.4168 207.03 85.2911C206.994 85.1654 211.671 83.9713 217.471 82.5976C223.271 81.224 227.976 80.2633 228.012 80.389Z" fill="#0C1641"/>
<path d="M209.436 85.686C209.661 85.693 209.882 85.7385 210.092 85.8207C210.666 86.0132 211.222 86.2566 211.753 86.548C213.486 87.523 215.091 88.7114 216.529 90.0854C217.986 91.4331 219.34 92.8887 220.578 94.4399C221.126 95.0546 221.594 95.7365 221.97 96.469C221.382 95.908 220.834 95.3081 220.327 94.6733C219.321 93.542 217.903 91.9798 216.215 90.4535C214.794 89.1091 213.245 87.9063 211.591 86.8622C210.307 86.0452 209.409 85.7668 209.436 85.686Z" fill="#0C1641"/>
<path d="M204.767 74.481C204.281 75.2923 203.715 76.0532 203.079 76.7525C201.621 78.5063 200.056 80.1675 198.392 81.7265C196.732 83.2899 194.974 84.7472 193.131 86.0899C192.385 86.685 191.578 87.1996 190.725 87.6252C191.414 86.9817 192.142 86.382 192.906 85.8295C194.262 84.7432 196.112 83.1989 198.042 81.3404C199.972 79.4819 201.633 77.7491 202.809 76.4921C203.417 75.7796 204.071 75.1077 204.767 74.481Z" fill="#0C1641"/>
<path d="M193.05 87.1406C193.671 87.1964 194.278 87.3573 194.845 87.6165C197.7 88.7027 200.205 90.5465 202.091 92.9496C202.508 93.421 202.845 93.9579 203.088 94.5387C201.712 92.9466 200.194 91.4831 198.554 90.1663C196.818 88.9872 194.975 87.9742 193.05 87.1406Z" fill="#0C1641"/>
<path d="M181.747 80.3262C181.777 80.5788 181.758 80.8346 181.693 81.0804C181.594 81.7603 181.459 82.4346 181.289 83.1005C180.2 87.525 178.18 91.6663 175.363 95.2482C174.816 95.9305 174.358 96.4603 174.017 96.8104C173.675 97.1606 173.478 97.3401 173.451 97.3222C173.424 97.3042 174.088 96.4243 175.094 95.0507C176.41 93.2308 177.57 91.3025 178.56 89.2866C179.536 87.2616 180.344 85.1596 180.975 83.0018C181.478 81.3587 181.693 80.3173 181.747 80.3262Z" fill="#0C1641"/>
<path d="M186.927 100.043C185.01 98.964 183.007 98.0451 180.938 97.2952C180.129 97.0301 179.305 96.8142 178.469 96.6488C177.782 96.5601 177.089 96.5151 176.395 96.5141C175.75 96.5539 175.102 96.5539 174.456 96.5141C175.073 96.2846 175.728 96.1719 176.386 96.1819C177.1 96.1164 177.818 96.1164 178.532 96.1819C179.398 96.3189 180.251 96.5291 181.082 96.8104C182.579 97.3117 184.009 97.9963 185.338 98.8485C185.932 99.1518 186.47 99.5558 186.927 100.043Z" fill="#0C1641"/>
<path fill-rule="evenodd" clip-rule="evenodd" d="M63.8528 103.688C63.8528 103.688 55.8442 91.926 41.829 91.4142C27.8139 90.9024 19.6167 92.6173 19.6167 92.6173L30.8575 105.088C30.8575 105.088 21.8792 111.544 16.3037 116.293C16.3037 116.293 21.6368 116.886 27.8678 121.384C34.0987 125.882 50.3135 133.307 59.3816 128.656L63.8528 103.688Z" fill="#3B5BDB"/>
<path fill-rule="evenodd" clip-rule="evenodd" d="M48.5623 112.864L59.3363 117.981L63.8255 103.679C63.8255 103.679 57.3341 101.793 52.4679 105.367C47.6016 108.94 48.5623 112.864 48.5623 112.864Z" fill="#5C7CFA"/>
<path fill-rule="evenodd" clip-rule="evenodd" d="M48.5623 112.864L61.132 118.816L63.8255 103.679C63.8255 103.679 57.3341 101.793 52.4679 105.367C47.6016 108.94 48.5623 112.864 48.5623 112.864Z" fill="#364FC7"/>
<path fill-rule="evenodd" clip-rule="evenodd" d="M193.418 117.173C193.418 117.173 201.427 105.411 215.442 104.9C229.457 104.388 237.645 106.112 237.645 106.112L226.404 118.574C226.404 118.574 235.383 125.029 240.958 129.788C240.958 129.788 235.634 130.371 229.403 134.878C223.172 139.385 206.957 146.792 197.88 142.142L193.418 117.173Z" fill="#3B5BDB"/>
<path fill-rule="evenodd" clip-rule="evenodd" d="M208.681 137.024L197.862 142.142L193.373 128.468C193.373 128.468 199.864 125.954 204.731 129.527C209.597 133.101 208.681 137.024 208.681 137.024Z" fill="#5C7CFA"/>
<path fill-rule="evenodd" clip-rule="evenodd" d="M208.681 137.024L197.862 142.142L193.373 128.468C193.373 128.468 199.864 125.954 204.731 129.527C209.597 133.101 208.681 137.024 208.681 137.024Z" fill="#364FC7"/>
<path fill-rule="evenodd" clip-rule="evenodd" d="M138.139 111.005C151.723 106.632 161.186 101.191 175.103 97.8515C180.571 96.5497 186.299 96.7831 191.919 97.0794C195.259 97.259 205.683 98.471 206.464 101.91C209.024 112.468 210.745 123.213 211.609 134.043C211.689 135.192 211.725 136.198 208.655 137.024C209.768 132.759 200.466 128.593 195.367 128.548C189.082 128.548 182.995 130.551 177.186 132.678C166.133 136.719 155.539 141.558 144.128 144.548C123.612 149.935 102.01 151.578 81.073 147.789C69.2333 145.663 57.8018 141.688 47.1978 136.009C45.5099 135.112 45.4919 129.41 45.7254 127.929C46.1563 125.235 46.6232 107.476 52.7554 105.33C50.6096 107.342 66.2857 111.292 73.0104 112.612C73.0104 112.612 102.01 116.733 115.011 115.512C122.85 114.774 130.597 113.264 138.139 111.005Z" fill="#3B5BDB"/>
<path d="M208.682 137.024C209.103 136.791 209.508 136.53 209.894 136.243C210.924 135.434 211.634 134.285 211.896 133.002C212.246 131.386 211.824 129.411 211.492 127.211C211.16 125.011 210.648 122.632 210.154 120.118L207.515 107.252C207.192 105.672 206.931 104.352 206.725 103.356C206.61 102.881 206.532 102.397 206.491 101.91C206.673 102.366 206.811 102.838 206.904 103.32C207.138 104.218 207.452 105.546 207.802 107.189C208.565 110.458 209.598 114.992 210.576 120.028C211.07 122.542 211.474 124.948 211.878 127.148C212.282 129.348 212.596 131.359 212.183 133.074C211.879 134.412 211.093 135.591 209.975 136.387C209.677 136.602 209.355 136.78 209.014 136.917C208.79 137.015 208.682 137.042 208.682 137.024Z" fill="#0C1641"/>
<path d="M45.9582 133.603C45.8683 133.154 45.8202 132.697 45.8146 132.239C45.7607 131.341 45.7158 130.075 45.7158 128.495C45.7158 124.372 46.0945 120.257 46.8471 116.203C47.2595 113.96 47.9065 111.766 48.7774 109.658C49.5353 107.928 50.7107 106.414 52.1982 105.25C53.2154 104.488 54.3854 103.955 55.6279 103.688C56.0754 103.568 56.5415 103.534 57.0015 103.589C57.0015 103.589 56.5077 103.643 55.6638 103.867C54.479 104.193 53.3711 104.751 52.4047 105.51C50.9951 106.668 49.8862 108.15 49.1725 109.829C48.338 111.917 47.7125 114.082 47.305 116.293C46.5632 120.324 46.1429 124.407 46.048 128.504C46.048 130.075 45.9941 131.35 45.9941 132.23C46.0208 132.688 46.0088 133.147 45.9582 133.603Z" fill="#0C1641"/>
<path d="M84.4183 140.015L85.5758 128.64L89.3733 129.026C90.2095 129.111 90.9526 129.304 91.6025 129.605C92.2536 129.894 92.75 130.32 93.0917 130.883C93.445 131.447 93.5756 132.182 93.4834 133.087C93.3948 133.958 93.1241 134.658 92.6713 135.187C92.2197 135.705 91.6436 136.062 90.9428 136.261C90.2537 136.461 89.5026 136.519 88.6897 136.437L87.209 136.286L86.8049 140.258L84.4183 140.015ZM87.4022 134.387L88.7261 134.522C89.481 134.599 90.0544 134.499 90.4463 134.222C90.851 133.934 91.0853 133.477 91.1491 132.85C91.2129 132.223 91.0604 131.761 90.6915 131.466C90.3343 131.171 89.7782 130.986 89.0234 130.909L87.7691 130.781L87.4022 134.387Z" fill="#DBE4FF"/>
<path d="M97.6855 141.036L97.7634 129.603L101.791 129.63C102.596 129.635 103.325 129.751 103.977 129.978C104.629 130.192 105.146 130.558 105.528 131.074C105.921 131.578 106.115 132.274 106.109 133.161C106.103 134.014 105.9 134.713 105.499 135.259C105.111 135.805 104.588 136.204 103.933 136.456C103.277 136.708 102.547 136.832 101.742 136.826L100.113 136.815L100.084 141.053L97.6855 141.036ZM103.884 141.079L101.308 136.193L102.999 134.699L106.58 141.097L103.884 141.079ZM100.126 134.907L101.544 134.916C102.257 134.921 102.8 134.779 103.176 134.49C103.563 134.189 103.759 133.741 103.763 133.145C103.767 132.55 103.577 132.134 103.193 131.898C102.822 131.662 102.28 131.542 101.567 131.537L100.149 131.527L100.126 134.907Z" fill="#DBE4FF"/>
<path d="M115.781 140.639C114.765 140.72 113.847 140.553 113.027 140.137C112.218 139.72 111.562 139.085 111.059 138.232C110.555 137.368 110.254 136.317 110.155 135.08C110.056 133.843 110.187 132.769 110.549 131.859C110.911 130.949 111.459 130.229 112.192 129.701C112.936 129.171 113.817 128.866 114.832 128.785C115.848 128.703 116.759 128.865 117.567 129.271C118.375 129.676 119.03 130.299 119.532 131.14C120.034 131.981 120.334 133.02 120.433 134.258C120.532 135.495 120.402 136.58 120.042 137.514C119.681 138.436 119.134 139.167 118.402 139.707C117.67 140.247 116.796 140.558 115.781 140.639ZM115.614 138.555C116.151 138.512 116.605 138.317 116.977 137.97C117.36 137.623 117.639 137.148 117.815 136.547C117.99 135.945 118.045 135.248 117.982 134.454C117.918 133.66 117.753 132.992 117.487 132.449C117.219 131.895 116.869 131.482 116.436 131.212C116.015 130.94 115.536 130.825 114.999 130.868C114.45 130.912 113.984 131.102 113.6 131.439C113.227 131.774 112.953 132.236 112.777 132.826C112.611 133.403 112.56 134.089 112.624 134.882C112.687 135.676 112.848 136.357 113.104 136.923C113.373 137.489 113.718 137.914 114.14 138.197C114.574 138.48 115.065 138.599 115.614 138.555Z" fill="#DBE4FF"/>
<path d="M125.664 139.385L123.842 128.098L126.97 127.592C128.123 127.406 129.152 127.447 130.059 127.715C130.965 127.982 131.71 128.495 132.293 129.252C132.886 129.996 133.286 131.007 133.493 132.286C133.699 133.565 133.64 134.663 133.315 135.579C133.001 136.492 132.469 137.223 131.717 137.77C130.966 138.317 130.037 138.679 128.931 138.858L125.664 139.385ZM127.722 137.084L128.345 136.984C129.013 136.876 129.575 136.655 130.029 136.322C130.495 135.986 130.817 135.527 130.995 134.942C131.182 134.344 131.202 133.59 131.055 132.68C130.908 131.769 130.654 131.071 130.292 130.586C129.939 130.087 129.491 129.763 128.946 129.615C128.412 129.453 127.81 129.426 127.142 129.534L126.52 129.634L127.722 137.084Z" fill="#DBE4FF"/>
<path d="M143.552 136.153C142.859 136.316 142.215 136.36 141.622 136.285C141.028 136.209 140.494 136.005 140.02 135.673C139.557 135.339 139.15 134.859 138.799 134.235C138.447 133.61 138.163 132.838 137.945 131.917L136.513 125.851L138.847 125.299L140.332 131.588C140.51 132.337 140.73 132.915 140.994 133.32C141.257 133.726 141.565 133.989 141.918 134.11C142.267 134.219 142.652 134.224 143.073 134.125C143.504 134.023 143.852 133.845 144.116 133.59C144.377 133.325 144.541 132.95 144.606 132.467C144.672 131.984 144.616 131.367 144.439 130.617L142.954 124.329L145.203 123.798L146.636 129.865C146.854 130.785 146.945 131.603 146.91 132.319C146.887 133.032 146.737 133.643 146.462 134.152C146.197 134.658 145.817 135.078 145.32 135.411C144.834 135.742 144.245 135.989 143.552 136.153Z" fill="#DBE4FF"/>
<path d="M157.471 132.291C156.545 132.575 155.637 132.622 154.748 132.431C153.859 132.24 153.058 131.796 152.343 131.099C151.629 130.403 151.085 129.447 150.711 128.23C150.433 127.326 150.321 126.482 150.373 125.697C150.421 124.9 150.604 124.184 150.922 123.55C151.251 122.911 151.683 122.369 152.218 121.924C152.764 121.476 153.378 121.147 154.058 120.938C154.761 120.722 155.431 120.675 156.067 120.798C156.71 120.905 157.267 121.088 157.738 121.347L156.968 123.195C156.61 123.024 156.249 122.903 155.885 122.831C155.522 122.76 155.133 122.788 154.72 122.914C154.196 123.076 153.768 123.372 153.436 123.803C153.101 124.224 152.895 124.745 152.818 125.367C152.736 125.978 152.812 126.663 153.045 127.422C153.285 128.203 153.603 128.838 153.997 129.328C154.388 129.806 154.835 130.127 155.337 130.29C155.85 130.45 156.385 130.444 156.943 130.273C157.401 130.133 157.777 129.907 158.073 129.597C158.379 129.283 158.626 128.932 158.812 128.545L160.476 129.609C160.191 130.271 159.795 130.832 159.29 131.293C158.78 131.742 158.174 132.075 157.471 132.291Z" fill="#DBE4FF"/>
<path d="M166.985 128.818L163.692 119.992L160.706 121.106L160.002 119.219L168.237 116.147L168.941 118.033L165.939 119.153L169.232 127.979L166.985 128.818Z" fill="#DBE4FF"/>
</g>
<defs>
<clipPath id="clip0_6013_71343">
<rect width="245" height="153.161" fill="white" transform="translate(0.384766 15)"/>
</clipPath>
</defs>
</svg>
