<svg width="200" height="200" viewBox="0 0 200 200" fill="none" xmlns="http://www.w3.org/2000/svg">
<g clip-path="url(#clip0_6013_59389)">
<path d="M27.1148 71.9102C90.7648 27.5802 124.825 29.4702 144.925 54.2302C165.025 78.9902 205.165 127.31 170.355 154.42C135.545 181.53 42.4348 200.42 27.1148 154.42C11.7948 108.42 12.3448 82.1902 27.1148 71.9102Z" fill="#EDF2FF"/>
<mask id="mask0_6013_59389" style="mask-type:alpha" maskUnits="userSpaceOnUse" x="15" y="36" width="170" height="147">
<path d="M27.1148 71.9102C90.7648 27.5802 124.825 29.4702 144.925 54.2302C165.025 78.9902 205.165 127.31 170.355 154.42C135.545 181.53 42.4348 200.42 27.1148 154.42C11.7948 108.42 12.3448 82.1902 27.1148 71.9102Z" fill="#B00020"/>
</mask>
<g mask="url(#mask0_6013_59389)">
<path d="M71.2852 166.94C71.2852 167.94 75.2852 310.33 75.2852 310.33H96.6852L101.025 188.55C101.025 188.55 106.025 252.23 106.025 253.55C106.025 254.87 110.545 311 110.545 311L130.365 309.38L129.065 181.16L126.645 162.36L71.2852 166.94Z" fill="#0C1641"/>
<path d="M103.246 184C102.972 184.16 102.68 184.284 102.376 184.37C101.806 184.58 100.986 184.86 99.9656 185.21L99.7656 185.27V185.07C99.6456 183.36 99.5156 181.07 99.3856 178.56C99.2456 175.84 99.1456 173.37 99.0956 171.56C99.0956 170.67 99.0956 169.94 99.0956 169.44C99.0593 169.185 99.0593 168.926 99.0956 168.67C99.1721 168.92 99.2125 169.179 99.2156 169.44C99.2156 169.93 99.3256 170.66 99.3856 171.55C99.5156 173.33 99.6656 175.79 99.7956 178.55C99.9256 181.06 100.016 183.35 100.076 185.07L99.8256 185C100.826 184.69 101.696 184.45 102.286 184.29C102.595 184.16 102.916 184.063 103.246 184Z" fill="#BAC8FF"/>
<path d="M101.625 169.24C101.625 169.24 101.695 169.12 101.905 169.05C102.236 168.948 102.594 168.977 102.905 169.13C103.129 169.229 103.316 169.395 103.443 169.604C103.57 169.813 103.63 170.056 103.615 170.3C103.586 170.605 103.46 170.892 103.254 171.119C103.049 171.346 102.776 171.501 102.475 171.56C102.172 171.61 101.862 171.57 101.582 171.443C101.303 171.317 101.067 171.11 100.905 170.85C100.777 170.648 100.709 170.414 100.709 170.175C100.709 169.936 100.777 169.702 100.905 169.5C101.067 169.228 101.318 169.019 101.615 168.91C101.825 168.83 101.955 168.84 101.955 168.91C101.955 168.98 101.475 169.07 101.175 169.67C101.087 169.822 101.041 169.995 101.041 170.17C101.041 170.346 101.087 170.518 101.175 170.67C101.302 170.855 101.477 171.001 101.682 171.091C101.887 171.181 102.113 171.212 102.335 171.18C102.548 171.132 102.742 171.02 102.89 170.859C103.038 170.698 103.134 170.496 103.165 170.28C103.186 170.102 103.152 169.921 103.068 169.762C102.984 169.603 102.854 169.474 102.695 169.39C102.365 169.221 101.988 169.169 101.625 169.24Z" fill="#BAC8FF"/>
<path d="M111.435 170.7C111.325 170.7 111.155 170.09 111.075 169.32C110.995 168.55 111.015 167.91 111.135 167.9C111.255 167.89 111.415 168.51 111.495 169.28C111.575 170.05 111.555 170.69 111.435 170.7Z" fill="#BAC8FF"/>
<path d="M112.925 170.56C112.805 170.56 112.705 169.9 112.705 169.09C112.705 168.28 112.785 167.62 112.905 167.62C113.025 167.62 113.125 168.27 113.125 169.09C113.125 169.91 113.035 170.56 112.925 170.56Z" fill="#BAC8FF"/>
<path d="M87.1455 171.54C87.0255 171.54 86.8455 170.81 86.7455 169.89C86.6109 169.332 86.6109 168.749 86.7455 168.19C86.8655 168.19 87.0455 168.92 87.1555 169.84C87.2655 170.76 87.2655 171.53 87.1455 171.54Z" fill="#BAC8FF"/>
<path d="M88.9447 171.67C88.8347 171.67 88.4547 170.96 88.4147 169.94C88.3231 169.327 88.4582 168.701 88.7947 168.18C88.8519 168.762 88.8519 169.348 88.7947 169.93C88.8964 170.504 88.9466 171.087 88.9447 171.67Z" fill="#BAC8FF"/>
<path d="M82.1744 169.77C82.1871 169.982 82.1634 170.195 82.1044 170.4C82.0008 170.966 81.8571 171.524 81.6744 172.07C81.0751 173.894 80.1798 175.607 79.0244 177.14C77.8528 178.684 76.4456 180.034 74.8544 181.14C74.3692 181.487 73.8614 181.801 73.3344 182.08C73.1457 182.193 72.9443 182.284 72.7344 182.35C72.7344 182.29 73.5044 181.84 74.7344 180.94C76.2439 179.795 77.5897 178.449 78.7344 176.94C79.857 175.427 80.7625 173.764 81.4244 172C81.9244 170.64 82.1144 169.76 82.1744 169.77Z" fill="#BAC8FF"/>
<path d="M128.414 179.37C128.203 179.431 127.984 179.465 127.764 179.47C127.169 179.522 126.57 179.522 125.974 179.47C124.009 179.274 122.124 178.586 120.494 177.47C118.894 176.334 117.627 174.791 116.824 173C116.588 172.478 116.4 171.936 116.264 171.38C116.2 171.18 116.17 170.97 116.174 170.76C116.244 170.76 116.424 171.62 117.074 172.89C117.924 174.565 119.17 176.007 120.704 177.09C122.285 178.175 124.096 178.88 125.994 179.15C127.474 179.39 128.414 179.3 128.414 179.37Z" fill="#BAC8FF"/>
</g>
<mask id="path-12-outside-1_6013_59389" maskUnits="userSpaceOnUse" x="80.3008" y="22.0681" width="37" height="65" fill="black">
<rect fill="white" x="80.3008" y="22.0681" width="37" height="65"/>
<path fill-rule="evenodd" clip-rule="evenodd" d="M110.55 45.3421L110.474 39.1598C110.584 30.3498 105.554 22.9398 96.7539 23.0698L95.9339 23.1298C91.9875 23.4137 88.2927 25.1735 85.5853 28.0588C82.8779 30.9442 81.3565 34.7433 81.3239 38.6998C81.2639 46.3398 81.3039 54.7798 81.6439 58.8498C82.3639 67.2798 90.8939 67.9698 90.8939 67.9698C90.9139 68.2298 90.9739 70.3298 90.9739 72.8498C91.0339 78.1598 93.0939 85.5298 100.884 86.3798C109.884 86.6798 110.954 78.3098 110.884 72.6198L110.653 53.8073C111.541 54.027 116.362 54.3391 116.144 49.0902C115.936 44.0767 111.733 44.9746 110.55 45.3421Z"/>
</mask>
<path fill-rule="evenodd" clip-rule="evenodd" d="M110.55 45.3421L110.474 39.1598C110.584 30.3498 105.554 22.9398 96.7539 23.0698L95.9339 23.1298C91.9875 23.4137 88.2927 25.1735 85.5853 28.0588C82.8779 30.9442 81.3565 34.7433 81.3239 38.6998C81.2639 46.3398 81.3039 54.7798 81.6439 58.8498C82.3639 67.2798 90.8939 67.9698 90.8939 67.9698C90.9139 68.2298 90.9739 70.3298 90.9739 72.8498C91.0339 78.1598 93.0939 85.5298 100.884 86.3798C109.884 86.6798 110.954 78.3098 110.884 72.6198L110.653 53.8073C111.541 54.027 116.362 54.3391 116.144 49.0902C115.936 44.0767 111.733 44.9746 110.55 45.3421Z" fill="white"/>
<path d="M110.474 39.1598L110.174 39.1561L110.174 39.1635L110.474 39.1598ZM110.55 45.3421L110.25 45.3458L110.255 45.7479L110.639 45.6286L110.55 45.3421ZM96.7539 23.0698L96.7495 22.7698L96.7408 22.77L96.732 22.7706L96.7539 23.0698ZM95.9339 23.1298L95.9555 23.429L95.9558 23.429L95.9339 23.1298ZM85.5853 28.0588L85.8041 28.2641L85.5853 28.0588ZM81.3239 38.6998L81.0239 38.6973L81.0239 38.6974L81.3239 38.6998ZM81.6439 58.8498L81.345 58.8748L81.345 58.8753L81.6439 58.8498ZM90.8939 67.9698L91.1931 67.9468L91.1734 67.6914L90.9181 67.6708L90.8939 67.9698ZM90.9739 72.8498H90.6739L90.674 72.8532L90.9739 72.8498ZM100.884 86.3798L100.851 86.678L100.863 86.6793L100.874 86.6796L100.884 86.3798ZM110.884 72.6198L110.584 72.6235V72.6235L110.884 72.6198ZM110.653 53.8073L110.725 53.5161L110.349 53.4229L110.353 53.811L110.653 53.8073ZM116.144 49.0902L116.444 49.0777L116.144 49.0902ZM110.174 39.1635L110.25 45.3458L110.85 45.3385L110.774 39.1561L110.174 39.1635ZM96.7584 23.3698C101.064 23.3062 104.434 25.0832 106.721 27.9494C109.013 30.8225 110.228 34.806 110.174 39.1561L110.774 39.1635C110.83 34.7036 109.585 30.5771 107.19 27.5752C104.789 24.5664 101.244 22.7034 96.7495 22.7698L96.7584 23.3698ZM95.9558 23.429L96.7758 23.369L96.732 22.7706L95.912 22.8306L95.9558 23.429ZM85.8041 28.2641C88.4599 25.4338 92.0842 23.7075 95.9555 23.429L95.9124 22.8306C91.8907 23.1199 88.1256 24.9133 85.3666 27.8536L85.8041 28.2641ZM81.6239 38.7023C81.6558 34.8212 83.1483 31.0944 85.8041 28.2641L85.3666 27.8536C82.6075 30.7939 81.0571 34.6654 81.0239 38.6973L81.6239 38.7023ZM81.9429 58.8248C81.6043 54.7712 81.5639 46.3459 81.6239 38.7022L81.0239 38.6974C80.964 46.3337 81.0036 54.7884 81.345 58.8748L81.9429 58.8248ZM90.8939 67.9698C90.9181 67.6708 90.9182 67.6708 90.9183 67.6708C90.9183 67.6708 90.9183 67.6708 90.9183 67.6708C90.9182 67.6708 90.918 67.6708 90.9177 67.6707C90.9171 67.6707 90.9159 67.6706 90.9143 67.6704C90.9109 67.6701 90.9056 67.6697 90.8983 67.669C90.8838 67.6676 90.8614 67.6653 90.8318 67.6619C90.7725 67.6552 90.6842 67.6441 90.5707 67.627C90.3436 67.5928 90.0163 67.5346 89.6205 67.4387C88.8279 67.2467 87.7657 66.9053 86.6839 66.3084C84.5289 65.1194 82.2925 62.9185 81.9428 58.8243L81.345 58.8753C81.7153 63.2111 84.104 65.5702 86.394 66.8337C87.5346 67.4631 88.65 67.821 89.4793 68.0218C89.8944 68.1224 90.2391 68.1839 90.4813 68.2203C90.6025 68.2386 90.6981 68.2506 90.7641 68.2581C90.7972 68.2618 90.8228 68.2645 90.8406 68.2662C90.8495 68.267 90.8564 68.2677 90.8613 68.2681C90.8637 68.2683 90.8656 68.2685 90.867 68.2686C90.8678 68.2687 90.8683 68.2687 90.8688 68.2687C90.869 68.2688 90.8693 68.2688 90.8694 68.2688C90.8696 68.2688 90.8697 68.2688 90.8939 67.9698ZM91.2739 72.8498C91.2739 70.3312 91.2141 68.22 91.1931 67.9468L90.5948 67.9928C90.6138 68.2396 90.6739 70.3284 90.6739 72.8498H91.2739ZM100.916 86.0816C97.1283 85.6682 94.7451 83.6779 93.2905 81.1382C91.8284 78.5853 91.3036 75.4712 91.2739 72.8464L90.674 72.8532C90.7043 75.5384 91.2395 78.7643 92.7699 81.4364C94.3078 84.1217 96.8496 86.2414 100.851 86.678L100.916 86.0816ZM110.584 72.6235C110.619 75.4593 110.367 78.9131 109.017 81.6118C108.345 82.9554 107.404 84.1039 106.097 84.9003C104.79 85.6963 103.096 86.1534 100.894 86.08L100.874 86.6796C103.172 86.7562 104.986 86.2795 106.409 85.4127C107.832 84.5463 108.842 83.3029 109.553 81.8803C110.971 79.0465 111.219 75.4703 111.184 72.6161L110.584 72.6235ZM110.353 53.811L110.584 72.6235L111.184 72.6161L110.953 53.8036L110.353 53.811ZM115.844 49.1026C115.897 50.3687 115.645 51.271 115.248 51.915C114.851 52.5584 114.294 52.9679 113.696 53.2236C112.482 53.742 111.124 53.6148 110.725 53.5161L110.581 54.0985C111.07 54.2194 112.567 54.3582 113.931 53.7753C114.622 53.4804 115.285 52.9975 115.758 52.23C116.232 51.4631 116.5 50.4361 116.444 49.0777L115.844 49.1026ZM110.639 45.6286C111.217 45.4491 112.492 45.1556 113.629 45.4863C114.187 45.6488 114.708 45.9606 115.105 46.5128C115.504 47.068 115.794 47.8904 115.844 49.1026L116.444 49.0777C116.39 47.7832 116.077 46.8378 115.592 46.1628C115.105 45.4848 114.462 45.104 113.796 44.9102C112.484 44.5284 111.066 44.8676 110.461 45.0556L110.639 45.6286Z" fill="#0C1641" mask="url(#path-12-outside-1_6013_59389)"/>
<path d="M61.0218 121.256L61.0169 121.25L61.0113 121.245L57.2513 117.445L57.1683 117.361L57.0672 117.422L49.9772 121.702L49.8557 121.775L49.9222 121.9L50.0547 121.83C49.9222 121.9 49.9222 121.9 49.9223 121.9L49.9225 121.901L49.9234 121.903L49.9272 121.91L49.9419 121.937L49.9997 122.046C50.0506 122.141 50.1257 122.282 50.2227 122.462C50.4168 122.823 50.6986 123.345 51.0495 123.987C51.7512 125.272 52.7295 127.04 53.8358 128.972C56.0466 132.834 58.7739 137.363 60.8263 140.002C61.7136 141.144 62.6808 142.222 63.7204 143.228L63.7209 143.228C64.4009 143.88 65.2353 144.348 66.1457 144.589C67.0562 144.83 68.0129 144.835 68.9261 144.605C69.8394 144.375 70.6792 143.917 71.3668 143.273C72.0541 142.63 72.5668 141.823 72.857 140.928C73.3859 139.395 73.7664 137.816 73.9932 136.211L73.9937 136.211L73.9944 136.199C74.0901 134.653 73.8867 130.272 73.6607 126.29C73.5475 124.297 73.4285 122.399 73.3377 121C73.2923 120.3 73.2539 119.725 73.2269 119.325L73.1955 118.862L73.1872 118.741L73.1851 118.71L73.1845 118.702L73.1844 118.7L73.1843 118.7C73.1843 118.7 73.1843 118.7 73.0347 118.71L73.1843 118.7L73.1746 118.56H73.0347H63.8247H63.6747V118.71V124.572L61.0218 121.256Z" fill="white" stroke="#0C1641" stroke-width="0.3"/>
<path d="M60.3252 120.67C60.6725 121.244 61.0743 121.783 61.5252 122.28C62.3052 123.28 63.3752 124.57 64.6052 126C65.8352 127.43 67.0052 128.7 67.9052 129.56C68.3629 130.054 68.8881 130.482 69.4652 130.83C69.0565 130.3 68.6086 129.802 68.1252 129.34C67.2852 128.44 66.1252 127.15 64.9352 125.72C63.5292 123.922 61.988 122.234 60.3252 120.67Z" fill="#0C1641"/>
<path d="M110.475 39.16L110.885 72.62C110.955 78.31 109.885 86.68 100.885 86.38C93.0949 85.53 91.0349 78.16 90.9749 72.85C90.9749 70.33 90.9149 68.23 90.8949 67.97C90.8949 67.97 82.3649 67.28 81.6449 58.85C81.3049 54.78 81.2649 46.34 81.3249 38.7C81.3574 34.7435 82.8789 30.9444 85.5863 28.0591C88.2937 25.1738 91.9885 23.414 95.9349 23.13L96.7549 23.07C105.555 22.94 110.585 30.35 110.475 39.16Z" fill="white"/>
<path d="M90.9043 68C94.7938 67.7242 98.522 66.3357 101.644 64C101.644 64 99.4143 70.36 90.9443 70.21L90.9043 68Z" fill="#FCE5EC"/>
<path d="M95.7351 42.16C95.9051 42.33 96.8751 41.54 98.2851 41.51C99.6951 41.48 100.745 42.16 100.895 41.98C101.045 41.8 100.795 41.59 100.335 41.26C99.7146 40.8472 98.9797 40.6407 98.2351 40.67C97.5078 40.695 96.8074 40.9507 96.2351 41.4C95.8251 41.76 95.6551 42.08 95.7351 42.16Z" fill="#0C1641"/>
<path d="M94.965 45.5599C94.9831 45.857 95.1167 46.1353 95.3371 46.3352C95.5576 46.5351 95.8476 46.6409 96.145 46.6299C96.2907 46.6313 96.4352 46.6034 96.5699 46.548C96.7046 46.4926 96.8269 46.4107 96.9294 46.3072C97.032 46.2037 97.1127 46.0808 97.167 45.9455C97.2212 45.8103 97.2477 45.6656 97.245 45.5199C97.2245 45.2237 97.0902 44.947 96.8703 44.7476C96.6503 44.5481 96.3618 44.4415 96.065 44.4499C95.9193 44.4486 95.7749 44.4764 95.6401 44.5319C95.5054 44.5873 95.3832 44.6692 95.2806 44.7726C95.1781 44.8761 95.0973 44.9991 95.0431 45.1343C94.9889 45.2695 94.9623 45.4143 94.965 45.5599Z" fill="#0C1641"/>
<path d="M92.1947 51.9999C91.4961 51.8414 90.7809 51.7676 90.0647 51.7799C89.7347 51.7799 89.4147 51.7199 89.3447 51.4999C89.2914 51.1591 89.3438 50.8101 89.4947 50.4999L90.2847 47.9099C91.0389 45.7133 91.6141 43.4593 92.0047 41.1699C91.0731 43.3013 90.3172 45.5054 89.7447 47.7599L88.9947 50.3599C88.8166 50.774 88.7883 51.2372 88.9147 51.6699C88.9721 51.7831 89.054 51.8821 89.1542 51.9599C89.2545 52.0377 89.3708 52.0924 89.4947 52.1199C89.6836 52.1484 89.8757 52.1484 90.0647 52.1199C90.7768 52.1765 91.4934 52.1362 92.1947 51.9999Z" fill="#0C1641"/>
<path d="M96.3346 36.15C96.4746 36.46 97.6046 36.23 98.9546 36.3C100.305 36.37 101.415 36.67 101.575 36.36C101.645 36.22 101.435 35.93 100.975 35.65C100.364 35.3035 99.6765 35.1145 98.9746 35.1C98.2858 35.0614 97.5983 35.1954 96.9746 35.49C96.5046 35.73 96.2746 36 96.3346 36.15Z" fill="#0C1641"/>
<path d="M82.9346 38.2601C83.0846 38.5201 84.1846 38.2601 85.5146 38.2001C86.8446 38.1401 87.9546 38.3301 88.0946 38.0601C88.2346 37.7901 87.9446 37.7001 87.4746 37.5001C86.8398 37.246 86.1573 37.1334 85.4746 37.1701C84.7811 37.1929 84.1 37.3598 83.4746 37.6601C83.0846 37.9001 82.8246 38.1401 82.9346 38.2601Z" fill="#0C1641"/>
<path d="M110.245 45.4499C110.375 45.3799 115.905 43.3199 116.145 49.0899C116.385 54.8599 110.535 53.9099 110.515 53.7499C110.495 53.5899 110.245 45.4499 110.245 45.4499Z" fill="white"/>
<path d="M112.195 51.49C112.195 51.49 112.295 51.56 112.465 51.63C112.708 51.73 112.981 51.73 113.225 51.63C113.586 51.3767 113.875 51.0326 114.061 50.6323C114.247 50.232 114.324 49.7897 114.285 49.35C114.276 48.8543 114.16 48.3664 113.945 47.92C113.883 47.7417 113.779 47.5811 113.641 47.4522C113.504 47.3232 113.337 47.2298 113.155 47.18C113.037 47.1537 112.914 47.1692 112.806 47.224C112.698 47.2787 112.613 47.3692 112.565 47.48C112.495 47.64 112.565 47.76 112.505 47.77C112.445 47.78 112.385 47.68 112.415 47.44C112.439 47.2933 112.517 47.1612 112.635 47.07C112.71 47.0053 112.797 46.9569 112.892 46.9276C112.987 46.8984 113.086 46.889 113.185 46.9C113.423 46.9359 113.648 47.0331 113.837 47.1822C114.027 47.3312 114.174 47.5268 114.265 47.75C114.532 48.2378 114.677 48.7837 114.685 49.34C114.734 49.8542 114.631 50.3716 114.387 50.8271C114.143 51.2826 113.77 51.6559 113.315 51.9C113.162 51.9503 113 51.9657 112.841 51.9449C112.682 51.9241 112.529 51.8677 112.395 51.78C112.205 51.63 112.175 51.5 112.195 51.49Z" fill="#FCE5EC"/>
<path d="M93.5646 56.0001C93.4946 55.8601 94.6346 55.5201 95.4246 54.4601C95.7557 53.9936 96.0246 53.486 96.2246 52.9501C96.3946 52.5301 96.5246 52.2601 96.5846 52.2801C96.6446 52.3001 96.5846 52.5901 96.5346 53.0401C96.4184 53.6375 96.1763 54.2034 95.8246 54.7001C95.4434 55.2046 94.9317 55.5953 94.3446 55.8301C93.8746 56.0001 93.5746 56.0001 93.5646 56.0001Z" fill="#0C1641"/>
<path d="M70.1452 31.14C70.2518 30.8027 70.4847 30.5196 70.7952 30.35C71.4677 30.0431 72.2102 29.9222 72.9452 30C75.1929 29.9532 77.3838 29.2852 79.2752 28.07C80.1742 26.7987 81.1777 25.6046 82.2752 24.5C84.8252 21.87 86.8752 20.08 89.0552 19.2C92.396 17.9829 96.0054 17.6994 99.4952 18.38C102.425 19.15 105.055 21.53 105.495 24.53C106.371 23.9117 107.396 23.5369 108.464 23.4438C109.532 23.3507 110.606 23.5426 111.575 24C113.805 24.8 115.075 27.15 115.725 29.43C116.375 31.71 116.665 34.13 117.875 36.17C118.125 36.6 118.425 37.11 118.205 37.55C118.098 37.7106 117.946 37.8367 117.769 37.913C117.591 37.9893 117.396 38.0126 117.205 37.98C116.844 37.8906 116.504 37.7309 116.205 37.51C116.445 38.1 116.695 38.7 116.945 39.29C116.137 39.4274 115.308 39.3726 114.525 39.13C114.115 41.1598 113.584 43.1633 112.935 45.13C112.104 45.0251 111.263 45.2317 110.575 45.71C109.795 46.41 109.445 47.71 108.145 47.23C107.485 46.97 106.885 45.59 106.665 44.92C105.198 40.4359 104.713 35.6882 105.245 31C104.316 30.0144 103.206 29.2166 101.975 28.65L102.075 28.74C99.7252 27.92 97.0752 27.11 94.8252 28.22C93.0952 29.08 92.0752 30.87 90.8252 32.31C89.6274 33.6328 88.1746 34.6999 86.5542 35.4474C84.9337 36.1949 83.179 36.6074 81.3952 36.66C81.2752 39.03 81.4752 42.39 81.3952 44.76L79.3952 40.96C79.2362 40.6884 79.0926 40.4079 78.9652 40.12L78.8252 40C78.6152 39.55 78.4252 39.1 78.1652 38.65C77.8901 38.8909 77.5355 39.0213 77.1698 39.0162C76.8041 39.0111 76.4533 38.8708 76.185 38.6223C75.9166 38.3739 75.7498 38.0349 75.7166 37.6707C75.6834 37.3065 75.7862 36.9429 76.0052 36.65C76.2054 36.3766 76.4446 36.134 76.7152 35.93C76.4257 36.2117 76.0679 36.4133 75.677 36.515C75.286 36.6167 74.8753 36.615 74.4852 36.51C74.0987 36.3916 73.7619 36.1492 73.527 35.8202C73.292 35.4913 73.1719 35.0941 73.1852 34.69C73.2171 34.4185 73.3198 34.16 73.483 33.9406C73.6463 33.7212 73.8643 33.5486 74.1152 33.44C73.072 33.521 72.0282 33.2914 71.1152 32.78C70.5352 32.45 69.9452 31.89 70.1452 31.14Z" fill="#0C1641"/>
<path d="M102.825 25.5C103.125 25.7341 103.406 25.9916 103.665 26.27C104.335 27.074 104.783 28.0393 104.965 29.07C105.106 29.7746 105.177 30.4915 105.175 31.21C105.175 31.98 105.115 32.81 105.055 33.69C104.979 34.6079 104.959 35.5296 104.995 36.45C105.02 36.9409 105.083 37.4291 105.185 37.91C105.26 38.4222 105.463 38.9073 105.775 39.32C105.921 39.4857 106.107 39.61 106.316 39.6802C106.525 39.7505 106.749 39.7642 106.965 39.72C107.38 39.6491 107.758 39.4372 108.035 39.12C108.481 38.4954 108.753 37.764 108.825 37H108.655C108.903 37.6314 109.24 38.224 109.655 38.76C110.065 39.2601 110.653 39.5825 111.295 39.66C111.594 39.6884 111.896 39.633 112.165 39.5C112.421 39.3773 112.628 39.1733 112.755 38.92C112.882 38.6947 112.945 38.4386 112.935 38.18C112.929 37.9343 112.833 37.6993 112.665 37.52L112.575 37.6C113.08 38.1943 113.708 38.6719 114.415 39C114.655 39.11 114.845 39.17 114.975 39.22L115.175 39.27C115.175 39.27 115.115 39.27 114.985 39.19C114.855 39.11 114.675 39.06 114.445 38.94C113.773 38.6059 113.177 38.136 112.695 37.56L112.605 37.64C112.742 37.817 112.822 38.0319 112.832 38.2555C112.843 38.4792 112.785 38.7007 112.665 38.89C112.541 39.113 112.353 39.2939 112.125 39.41C111.882 39.5238 111.612 39.5687 111.345 39.54C110.744 39.4467 110.201 39.1286 109.825 38.65C109.41 38.125 109.073 37.5422 108.825 36.92L108.705 36.65L108.645 36.94C108.565 37.6619 108.3 38.3509 107.875 38.94C107.613 39.2281 107.26 39.4185 106.875 39.48C106.693 39.5147 106.506 39.5016 106.33 39.442C106.155 39.3824 105.998 39.2783 105.875 39.14C105.58 38.7555 105.39 38.3004 105.325 37.82C105.228 37.3484 105.165 36.8706 105.135 36.39C105.096 35.4765 105.113 34.5615 105.185 33.65C105.245 32.78 105.295 31.94 105.285 31.16C105.295 30.435 105.228 29.7109 105.085 29C104.887 27.9552 104.414 26.982 103.715 26.18C103.46 25.9037 103.159 25.6736 102.825 25.5Z" fill="#BAC8FF"/>
<path d="M76.7451 33.6901C76.7451 33.6901 76.7451 33.6901 76.8151 33.7501L77.0251 33.9101C77.1413 33.9895 77.2614 34.0629 77.3851 34.1301C77.546 34.2362 77.7168 34.3267 77.8951 34.4001C79.0235 34.9204 80.2661 35.1442 81.5051 35.0501C83.3436 34.9309 85.1081 34.2813 86.5851 33.1801C88.3605 31.8213 89.8463 30.1214 90.9551 28.1801C91.5651 27.1801 92.0651 26.1101 92.6151 25.1801C93.1181 24.2369 93.7547 23.3713 94.5051 22.6101C95.1679 21.8995 96.0007 21.3695 96.9251 21.0701C97.3411 20.9524 97.7732 20.9018 98.2051 20.9201C98.607 20.9435 99.0039 21.0208 99.3851 21.1501C100.037 21.3714 100.633 21.7294 101.135 22.2001C101.537 22.5531 101.875 22.9725 102.135 23.4401C102.315 23.8431 102.446 24.2661 102.525 24.7001C102.527 24.6701 102.527 24.64 102.525 24.6101C102.525 24.5401 102.525 24.4601 102.525 24.3601C102.46 24.0147 102.353 23.6788 102.205 23.3601C101.966 22.8867 101.648 22.4573 101.265 22.0901C100.739 21.5965 100.111 21.2244 99.4251 21.0001C99.0347 20.8632 98.6278 20.7791 98.2151 20.7501C97.7672 20.7282 97.3186 20.7754 96.8851 20.8901C95.9351 21.1699 95.0716 21.686 94.3751 22.3901C93.613 23.1656 92.9634 24.0442 92.4451 25.0001C91.8951 26.0001 91.3951 27.0001 90.7851 28.0001C89.7017 29.9413 88.2354 31.6423 86.4751 33.0001C85.0256 34.0976 83.2886 34.7507 81.4751 34.8801C80.2556 34.9804 79.0301 34.7813 77.9051 34.3001C77.5068 34.1198 77.1194 33.9161 76.7451 33.6901Z" fill="#BAC8FF"/>
<path d="M75.9844 30C76.0724 30.0857 76.1737 30.1566 76.2844 30.21C76.5685 30.3865 76.8661 30.5403 77.1744 30.67C77.6333 30.8648 78.1084 31.0187 78.5944 31.13C79.1881 31.2704 79.7945 31.3508 80.4044 31.37C81.0135 31.3882 81.6229 31.348 82.2244 31.25C82.7167 31.165 83.2015 31.0413 83.6744 30.88C83.9887 30.7651 84.2959 30.6315 84.5944 30.48C84.7073 30.4338 84.812 30.3697 84.9044 30.29C84.9044 30.29 84.4244 30.49 83.6244 30.74C83.16 30.8855 82.6853 30.9958 82.2044 31.07C81.6116 31.1539 81.013 31.1907 80.4144 31.18C79.8173 31.1655 79.2222 31.1053 78.6344 31C78.156 30.89 77.685 30.7497 77.2244 30.58C76.4444 30.23 75.9944 30 75.9844 30Z" fill="#BAC8FF"/>
<path d="M82.8252 42.1601C82.9952 42.3301 83.9652 41.5401 85.3852 41.5101C86.8052 41.4801 87.8452 42.1601 87.9952 41.9801C88.1452 41.8001 87.8952 41.5901 87.4352 41.2601C86.8139 40.8492 86.0796 40.6429 85.3352 40.6701C84.6073 40.6916 83.9058 40.9477 83.3352 41.4001C82.9252 41.7601 82.8252 42.0801 82.8252 42.1601Z" fill="#0C1641"/>
<path d="M83.1652 45.56C83.1833 45.8571 83.3169 46.1353 83.5373 46.3353C83.7578 46.5352 84.0478 46.641 84.3452 46.63C84.4909 46.6314 84.6354 46.6035 84.7701 46.5481C84.9048 46.4926 85.0271 46.4108 85.1296 46.3073C85.2322 46.2038 85.3129 46.0808 85.3672 45.9456C85.4214 45.8104 85.4479 45.6657 85.4452 45.52C85.4272 45.2229 85.2936 44.9447 85.0731 44.7447C84.8526 44.5448 84.5627 44.439 84.2652 44.45C84.1196 44.4486 83.9751 44.4765 83.8403 44.5319C83.7056 44.5873 83.5834 44.6692 83.4808 44.7727C83.3783 44.8762 83.2975 44.9992 83.2433 45.1344C83.1891 45.2696 83.1625 45.4143 83.1652 45.56Z" fill="#0C1641"/>
<path d="M81.915 77.09L91.635 73.28L109.525 72.27L117.935 75.46L106.405 81.86L96.475 81.5L81.915 77.09Z" fill="white"/>
<path d="M70.4645 168.49C71.3345 168.64 129.965 171.13 129.965 171.13L127.905 118.42L127.735 108.07L124.405 76.72C124.405 76.72 115.645 73.72 111.175 72.26C111.175 72.26 106.465 77.17 97.5245 77.04C88.7745 76.91 86.9445 74.93 86.9445 74.93L74.7145 79.62C74.7145 79.62 66.0245 82.74 64.5245 86.62C63.0245 90.5 60.3945 111.75 60.3945 111.75H73.0745L72.8245 149.51L70.4645 168.49Z" fill="#5C7CFA"/>
<g opacity="0.2">
<path opacity="0.2" d="M107.325 98.14L109.135 111.43L117.935 115.36L124.435 109.82V97.48L107.325 98.14Z" fill="#0C1641"/>
</g>
<path d="M124.205 101.91C124.205 102.02 120.545 102.11 116.045 102.11C111.545 102.11 107.875 102.02 107.875 101.91C107.875 101.8 111.535 101.71 116.045 101.71C120.555 101.71 124.205 101.8 124.205 101.91Z" fill="#0C1641"/>
<path d="M66.5146 92.0801C66.5562 92.1935 66.5864 92.3107 66.6046 92.4301C66.6646 92.6901 66.7446 93.0301 66.8346 93.4301C67.1526 94.6982 67.5432 95.9469 68.0047 97.1701C68.5847 98.7401 69.4146 100.59 70.4246 102.67C71.4346 104.75 72.2446 107.21 73.1446 109.85V109.91C73.1446 113.06 73.1446 116.52 73.0746 120.13C72.9846 128.19 72.9146 135.49 72.8546 140.81C72.8546 143.43 72.7746 145.56 72.7446 147.08C72.7446 147.79 72.7446 148.36 72.7446 148.78C72.7615 148.98 72.7615 149.18 72.7446 149.38C72.7254 149.181 72.7254 148.98 72.7446 148.78C72.7446 148.36 72.7446 147.78 72.7446 147.08C72.7446 145.56 72.7446 143.43 72.7446 140.81C72.7446 135.48 72.8146 128.19 72.8546 120.13C72.8546 116.52 72.9146 113.06 72.9446 109.9V110C72.0546 107.37 71.2146 104.93 70.2846 102.83C69.3546 100.73 68.4947 98.8301 67.9347 97.2801C67.4908 96.043 67.1333 94.7766 66.8647 93.4901C66.7747 93.0501 66.7147 92.7001 66.6847 92.4901C66.6093 92.3619 66.5521 92.2239 66.5146 92.0801Z" fill="#0C1641"/>
<path d="M128.665 85.9102C128.7 86.286 128.7 86.6643 128.665 87.0402C128.665 87.8302 128.595 88.8602 128.545 90.1002C128.445 92.7502 128.305 96.2901 128.155 100.2C128.005 104.11 127.815 107.64 127.695 110.29C127.625 111.53 127.565 112.56 127.515 113.35C127.505 113.726 127.468 114.1 127.405 114.47C127.369 114.098 127.369 113.723 127.405 113.35C127.405 112.55 127.405 111.52 127.465 110.28C127.525 107.7 127.645 104.12 127.815 100.18C127.985 96.2402 128.155 92.6701 128.325 90.0901C128.405 88.7901 128.485 87.7502 128.555 87.0302C128.558 86.6543 128.595 86.2795 128.665 85.9102Z" fill="#0C1641"/>
<g opacity="0.3">
<path opacity="0.3" d="M66.5448 94C66.3207 99.7861 68.3867 105.427 72.2948 109.7C71.1048 104.26 68.1248 99.2 66.5448 94Z" fill="#0C1641"/>
</g>
<g opacity="0.3">
<path opacity="0.3" d="M92.2949 146.18C95.0396 145.811 97.5418 144.414 99.2949 142.27C101.153 140.198 102.742 137.9 104.025 135.43C105.695 132.076 106.648 128.412 106.825 124.67C103.405 133.82 98.4049 141.07 92.2949 146.18Z" fill="#0C1641"/>
</g>
<path d="M107.904 120.68C107.915 120.79 107.915 120.9 107.904 121.01C107.844 121.27 107.774 121.603 107.694 122.01C107.604 122.42 107.474 122.92 107.294 123.5C107.114 124.08 106.944 124.74 106.684 125.5C106.112 127.177 105.444 128.82 104.684 130.42C103.696 132.344 102.594 134.207 101.384 136C100.164 137.805 98.8276 139.528 97.3843 141.16C96.209 142.493 94.9462 143.745 93.6043 144.91C93.0543 145.43 92.5043 145.84 92.0343 146.22C91.6378 146.549 91.2239 146.856 90.7943 147.14L89.9943 147.69C89.9026 147.76 89.8017 147.817 89.6943 147.86C89.6943 147.86 89.7743 147.77 89.9443 147.63L90.7043 147.02C91.0443 146.77 91.4543 146.45 91.9043 146.02C92.3543 145.59 92.9043 145.21 93.4243 144.68C94.7309 143.494 95.9664 142.232 97.1243 140.9C99.9611 137.64 102.364 134.027 104.274 130.15C105.134 128.35 105.854 126.71 106.364 125.29C106.634 124.58 106.834 123.93 107.024 123.36C107.214 122.79 107.374 122.3 107.484 121.9C107.594 121.5 107.684 121.22 107.764 120.97C107.844 120.72 107.894 120.67 107.904 120.68Z" fill="#0C1641"/>
<path d="M106.215 104.18C106.215 104.18 106.215 104.36 106.145 104.72C106.075 105.08 105.985 105.61 105.875 106.25C105.765 106.89 105.605 107.72 105.365 108.65C105.125 109.58 104.905 110.65 104.545 111.81L104.005 113.63C103.815 114.26 103.575 114.9 103.345 115.57C102.905 116.92 102.345 118.32 101.715 119.8C100.342 122.971 98.7553 126.045 96.9647 129C95.1348 131.947 93.1068 134.767 90.8947 137.44C89.8947 138.65 88.8947 139.81 87.8947 140.82C87.4047 141.33 86.8947 141.82 86.4647 142.29C86.0347 142.76 85.5347 143.18 85.0947 143.6C84.2347 144.45 83.3847 145.14 82.6547 145.76C81.9247 146.38 81.2847 146.91 80.7447 147.31L79.5047 148.25C79.3652 148.365 79.2145 148.465 79.0547 148.55C79.1772 148.418 79.3111 148.298 79.4547 148.19L80.6547 147.19C81.1747 146.77 81.8147 146.19 82.5147 145.59C83.2147 144.99 84.0647 144.25 84.9047 143.4C85.3347 142.97 85.7947 142.53 86.2647 142.08C86.7347 141.63 87.1847 141.08 87.6647 140.59C88.6647 139.59 89.6647 138.41 90.6647 137.21C92.8452 134.536 94.8495 131.724 96.6647 128.79C98.4471 125.839 100.037 122.776 101.425 119.62C102.025 118.15 102.625 116.76 103.075 115.42C103.315 114.75 103.565 114.11 103.755 113.49C103.945 112.87 104.135 112.26 104.315 111.68C104.695 110.54 104.935 109.48 105.185 108.55C105.435 107.62 105.625 106.83 105.755 106.17C105.885 105.51 106.015 105.03 106.095 104.65C106.116 104.489 106.156 104.331 106.215 104.18Z" fill="#0C1641"/>
<path d="M59.8845 87.78C63.5045 93.27 78.1345 115.52 82.4645 122.1C82.5827 122.262 82.6492 122.457 82.6555 122.658C82.6617 122.858 82.6073 123.056 82.4994 123.226C82.3915 123.395 82.235 123.528 82.0504 123.607C81.8658 123.687 81.6616 123.708 81.4645 123.67L55.4645 120.4C55.2071 120.355 54.9774 120.212 54.8245 120L29.9645 86.08C29.8396 85.9251 29.7638 85.7364 29.7468 85.5381C29.7298 85.3398 29.7724 85.141 29.869 84.967C29.9657 84.793 30.112 84.6519 30.2893 84.5615C30.4667 84.4712 30.6669 84.4359 30.8645 84.46L57.6045 86.46C58.0599 86.492 58.502 86.6276 58.8971 86.8564C59.2922 87.0851 59.6299 87.401 59.8845 87.78Z" fill="#364FC7"/>
<path d="M59.8843 87.7801C59.8307 87.6689 59.7635 87.5648 59.6843 87.4701C59.4495 87.1846 59.1649 86.9441 58.8443 86.7601C58.3089 86.4758 57.7104 86.3313 57.1043 86.3401L54.6943 86.1401L39.2743 84.9301L34.1643 84.5401L31.4443 84.3301C31.2043 84.3301 31.0043 84.3301 30.7243 84.3301C30.4474 84.3366 30.1832 84.4473 29.9843 84.6401C29.7754 84.8281 29.6405 85.0845 29.6038 85.3632C29.5672 85.6418 29.6312 85.9244 29.7843 86.1601L37.0143 96.0001L53.5843 118.67C53.9643 119.18 54.3043 119.67 54.7143 120.18C54.8392 120.323 54.9971 120.433 55.1743 120.5C55.3363 120.554 55.5042 120.587 55.6743 120.6L56.5943 120.71L60.2343 121.17L67.3443 122.06L80.8243 123.78C81.1043 123.78 81.3343 123.85 81.6443 123.87C81.9584 123.857 82.2556 123.725 82.475 123.5C82.6945 123.275 82.8195 122.974 82.8243 122.66C82.8089 122.355 82.7008 122.062 82.5143 121.82L80.8243 119.23L77.5543 114.23L71.6543 105.32L63.0743 92.4701C62.0743 90.9701 61.2743 89.8001 60.7343 88.9801C60.4643 88.6001 60.2643 88.3001 60.1143 88.0801C60.0473 87.973 59.9703 87.8726 59.8843 87.7801L60.0743 88.1001C60.2143 88.3301 60.4043 88.6401 60.6543 89.0301L62.9343 92.5601L71.3743 105.56C73.1643 108.3 75.1143 111.29 77.2243 114.5L80.4843 119.5L82.1843 122.1C82.3363 122.272 82.4246 122.491 82.4343 122.72C82.4281 122.935 82.3384 123.14 82.1843 123.29C82.1122 123.369 82.024 123.431 81.9256 123.472C81.8272 123.514 81.721 123.534 81.6143 123.53C81.3943 123.53 81.0943 123.47 80.8343 123.44L67.3943 121.74L60.2843 120.84L56.6443 120.38L55.7343 120.27C55.5944 120.264 55.4563 120.237 55.3243 120.19C55.2109 120.146 55.1084 120.078 55.0243 119.99L53.9343 118.51L37.3343 95.8001L30.0843 85.9301C29.9763 85.7643 29.931 85.5654 29.9567 85.3692C29.9824 85.173 30.0773 84.9925 30.2243 84.8601C30.292 84.7907 30.3729 84.7355 30.4622 84.6978C30.5515 84.66 30.6474 84.6404 30.7443 84.6401C30.9674 84.626 31.1912 84.626 31.4143 84.6401L34.1343 84.8301L39.2443 85.2001L54.6743 86.2701L57.0943 86.4301C57.6829 86.4101 58.2672 86.5372 58.7943 86.8001C59.2277 87.0392 59.6006 87.3744 59.8843 87.7801Z" fill="#0C1641"/>
<path d="M29.9648 86.08C30.1458 86.121 30.3297 86.1478 30.5148 86.16L32.0848 86.32L37.9648 86.84L57.9648 88.47L57.8248 88.38C59.0748 90.24 60.3648 92.16 61.6648 94.16C66.9348 102.26 71.5348 109.71 75.0148 115.01C76.7448 117.66 78.1848 119.79 79.1848 121.25L80.3548 122.92C80.4837 123.123 80.631 123.314 80.7948 123.49C80.6848 123.276 80.5612 123.069 80.4248 122.87L79.3248 121.16L75.2248 114.84C71.8248 109.5 67.2548 102 61.9748 93.92C60.6848 91.92 59.3848 90 58.1248 88.14V88.05H58.0248L38.0248 86.56L32.1348 86.17L30.5548 86.08C30.3588 86.0573 30.1609 86.0573 29.9648 86.08Z" fill="#0C1641"/>
<path d="M46.0852 90.9299L46.0752 90.9199L46.0852 90.9299Z" fill="white"/>
<path d="M45.4343 91.31C45.4518 91.2422 45.4825 91.1786 45.5246 91.1227C45.5668 91.0668 45.6197 91.0199 45.6801 90.9846C45.7405 90.9492 45.8074 90.9262 45.8768 90.9169C45.9461 90.9075 46.0167 90.912 46.0843 90.93C46.3477 90.9892 46.5878 91.1249 46.7743 91.32C46.9006 91.4271 46.9835 91.5766 47.0075 91.7405C47.0314 91.9043 46.9947 92.0713 46.9043 92.21C46.6443 92.53 46.1143 92.41 45.7943 92.14C45.6671 92.0451 45.567 91.9186 45.5039 91.773C45.4407 91.6274 45.4167 91.4678 45.4343 91.31Z" fill="white"/>
<path d="M57.7919 110.373C57.8068 110.321 57.8224 110.261 57.8374 110.196C57.8931 109.952 57.941 109.618 57.9029 109.27C57.8647 108.92 57.7389 108.55 57.4418 108.247C57.1444 107.943 56.6901 107.721 56.023 107.641L56.0231 107.641L56.013 107.64C52.8633 107.473 49.7069 107.473 46.5571 107.64L46.5571 107.64L46.5495 107.641L46.5651 107.79C46.5495 107.641 46.5494 107.641 46.5494 107.641L46.5491 107.641L46.5484 107.641L46.5459 107.641L46.537 107.642L46.5041 107.646C46.4756 107.65 46.4344 107.656 46.3825 107.664C46.2789 107.68 46.1323 107.706 45.9592 107.747C45.6139 107.827 45.158 107.963 44.7249 108.187C44.2928 108.41 43.8721 108.727 43.6129 109.174C43.3617 109.608 43.271 110.149 43.4464 110.814C43.4371 110.823 43.4268 110.833 43.4157 110.845C43.3555 110.906 43.2714 110.995 43.1746 111.108C42.9814 111.334 42.7358 111.659 42.5285 112.054C42.1143 112.842 41.8446 113.928 42.4849 115.045C42.7905 115.577 43.0506 115.944 43.2709 116.194C43.4903 116.442 43.6762 116.582 43.835 116.649C43.9344 116.691 44.0229 116.706 44.0997 116.701C44.098 116.755 44.0969 116.816 44.0974 116.883C44.0992 117.141 44.1226 117.491 44.2105 117.855C44.3833 118.572 44.8152 119.374 45.8446 119.606C45.8608 119.625 45.8826 119.649 45.9097 119.679C45.9733 119.749 46.066 119.849 46.1834 119.968C46.4179 120.206 46.7518 120.522 47.1488 120.833C47.9341 121.449 49.0014 122.074 50.0472 121.989C50.5647 121.947 51.4764 121.657 52.5428 121.246C53.6163 120.833 54.8666 120.288 56.0712 119.723C57.2759 119.158 58.4372 118.573 59.3328 118.076C59.7804 117.828 60.1636 117.6 60.4533 117.409C60.598 117.313 60.7213 117.225 60.8183 117.146C60.9126 117.07 60.9922 116.994 61.0396 116.923C61.1717 116.727 61.3188 116.553 61.4631 116.384L61.4836 116.36C61.6187 116.202 61.7532 116.045 61.8581 115.884C61.9695 115.714 62.0544 115.53 62.0741 115.321C62.0922 115.129 62.0539 114.929 61.9495 114.712C61.9541 114.7 61.9593 114.686 61.9648 114.671C61.9891 114.604 62.0209 114.508 62.052 114.392C62.1137 114.162 62.1739 113.846 62.1612 113.515C62.1485 113.184 62.0624 112.828 61.8217 112.529C61.5934 112.246 61.2387 112.03 60.717 111.929C60.7041 111.877 60.6847 111.807 60.6552 111.725C60.5881 111.54 60.4684 111.294 60.2527 111.061C59.8388 110.613 59.0994 110.24 57.7919 110.373Z" fill="white" stroke="#0C1641" stroke-width="0.3"/>
<path d="M45.7148 111.43C46.2935 111.548 46.885 111.592 47.4748 111.56C48.5648 111.56 50.0648 111.56 51.7148 111.56C53.1397 111.596 54.565 111.509 55.9748 111.3C57.1048 111.04 57.5448 110.38 57.4848 110.37C57.0065 110.678 56.4736 110.892 55.9148 111C54.518 111.115 53.116 111.155 51.7148 111.12C50.0548 111.12 48.5548 111.2 47.4748 111.25C46.8831 111.24 46.2923 111.3 45.7148 111.43Z" fill="#0C1641"/>
<path d="M47.585 115.38C47.7558 115.483 47.9468 115.548 48.145 115.57C48.681 115.679 49.2296 115.713 49.775 115.67C50.5783 115.613 51.373 115.469 52.145 115.24C53.025 115 53.945 114.66 54.925 114.36C55.8328 114.061 56.7725 113.87 57.725 113.79C58.5523 113.861 59.3825 113.691 60.115 113.3C60.4 113.111 60.6035 112.822 60.685 112.49C60.7398 112.239 60.7044 111.977 60.585 111.75C60.375 111.38 60.095 111.36 60.105 111.38C60.115 111.4 60.305 111.49 60.435 111.82C60.5173 112.05 60.5129 112.301 60.4227 112.528C60.3324 112.754 60.1625 112.94 59.945 113.05C59.2413 113.359 58.4685 113.476 57.705 113.39C56.7222 113.465 55.7538 113.67 54.825 114L52.055 114.91C51.3077 115.146 50.5415 115.316 49.765 115.42C49.0382 115.454 48.31 115.441 47.585 115.38Z" fill="#0C1641"/>
<path d="M50.3753 118.71C50.9743 118.675 51.5661 118.56 52.1353 118.37C53.2053 118.1 54.6653 117.68 56.2653 117.16C57.8653 116.64 59.2653 116.16 60.3153 115.69C60.8843 115.504 61.4284 115.249 61.9353 114.93C59.9726 115.439 58.0368 116.046 56.1353 116.75C52.9453 117.79 50.3453 118.59 50.3753 118.71Z" fill="#0C1641"/>
<path d="M132.824 98.2803C132.824 98.2803 127.514 119.58 120.874 127.44C114.444 135.05 104.364 131.55 100.874 121.7C97.3841 111.85 91.1641 89.3603 91.1641 89.3603L98.8241 83.5203L111.984 109.09L117.984 91.6603L132.824 98.2803Z" fill="white" stroke="#0C1641" stroke-width="0.3"/>
<path d="M91.504 90.0001L85.904 81.8801C85.0909 81.7023 84.2946 81.4547 83.524 81.1401C82.884 80.7701 82.264 77.5501 82.274 76.9201C82.284 76.2901 81.194 74.8201 81.634 74.4001C82.074 73.9801 83.634 73.9601 83.504 73.3501C83.504 73.2201 82.384 71.8801 83.254 70.8901C83.7299 70.5579 84.2617 70.314 84.824 70.1701L84.734 67.0701C84.734 67.0701 86.404 63.4201 88.114 64.7401C88.114 64.7401 94.564 69.6901 95.214 70.4801C95.864 71.2701 98.344 81.5901 98.784 83.4801" fill="white"/>
<path d="M98.8243 83.5201C98.8079 83.3347 98.7779 83.1509 98.7343 82.9701C98.6543 82.5801 98.5443 82.0701 98.4043 81.4201C98.1043 80.0801 97.6543 78.1301 97.0443 75.7401C96.7343 74.5401 96.3943 73.2301 95.9643 71.8401C95.8443 71.4901 95.7343 71.1301 95.5843 70.7701C95.4174 70.4013 95.1593 70.0812 94.8343 69.8401C94.2443 69.3201 93.6243 68.8401 92.9843 68.3001C91.7143 67.3001 90.3543 66.2001 88.9843 65.1001C88.6333 64.7837 88.2352 64.5239 87.8043 64.3301C87.5532 64.2649 87.2899 64.2618 87.0373 64.3211C86.7847 64.3803 86.5503 64.5001 86.3543 64.6701C85.5919 65.304 84.9804 66.1 84.5643 67.0001C84.5643 67.3001 84.5643 67.6201 84.5643 68.0001L84.6243 70.1501L84.8243 70.0001C84.4381 70.0965 84.0603 70.2236 83.6943 70.3801C83.4884 70.4615 83.3013 70.584 83.1443 70.7401C82.9992 70.9042 82.8933 71.0991 82.8343 71.3101C82.7318 71.7225 82.7633 72.1568 82.9243 72.5501C82.9967 72.7333 83.0837 72.9106 83.1843 73.0801L83.3243 73.3201V73.3701C83.3243 73.3701 83.1643 73.5401 83.0143 73.6001L82.5143 73.7701C82.3348 73.8176 82.1579 73.8744 81.9843 73.9401C81.769 74.0072 81.5802 74.1401 81.4443 74.3201C81.3597 74.5319 81.3597 74.7682 81.4443 74.9801C81.5043 75.1601 81.5643 75.3401 81.6343 75.5001C81.7743 75.8301 81.9343 76.1401 82.0443 76.4401C82.1038 76.5795 82.1377 76.7286 82.1443 76.8801C82.1335 77.0566 82.1335 77.2336 82.1443 77.4101C82.1976 77.7501 82.2576 78.0834 82.3243 78.4101C82.4422 79.0487 82.6094 79.6772 82.8243 80.2901C82.9202 80.6102 83.0878 80.9043 83.3143 81.1501C83.5804 81.3278 83.8745 81.4597 84.1843 81.5401C84.7543 81.7201 85.3043 81.8501 85.8443 81.9801L85.8243 81.9201L89.9743 87.8101L91.1243 89.4101C91.2527 89.5988 91.393 89.7791 91.5443 89.9501C91.4477 89.7422 91.3304 89.5445 91.1943 89.3601L90.1143 87.7201L86.1143 81.7201H86.0543C85.5243 81.5901 84.9743 81.4401 84.4243 81.2601C84.1566 81.1915 83.9004 81.0836 83.6643 80.9401C83.4907 80.7189 83.3586 80.4682 83.2743 80.2001C83.0664 79.6063 82.9026 78.998 82.7843 78.3801C82.7143 78.0601 82.6543 77.7401 82.6143 77.3801C82.6143 77.2201 82.6143 77.0501 82.5643 76.9001C82.5646 76.708 82.5272 76.5177 82.4543 76.3401C82.3243 76.0001 82.1743 75.6901 82.0443 75.3401C81.9729 75.1891 81.916 75.0317 81.8743 74.8701C81.83 74.7473 81.83 74.6129 81.8743 74.4901C81.9699 74.397 82.0865 74.3284 82.2143 74.2901L82.7243 74.1201C82.8596 74.0868 82.9931 74.0467 83.1243 74.0001C83.2373 73.9683 83.3426 73.9138 83.4338 73.8399C83.5249 73.7659 83.6 73.6741 83.6543 73.5701C83.6743 73.4981 83.6743 73.422 83.6543 73.3501C83.6653 73.304 83.6653 73.2561 83.6543 73.2101V73.1401L83.5243 72.9001C83.4355 72.7461 83.3586 72.5857 83.2943 72.4201C83.1549 72.1057 83.1233 71.7542 83.2043 71.4201C83.2544 71.265 83.3362 71.122 83.4443 71.0001C83.5611 70.8854 83.7008 70.7968 83.8543 70.7401C84.2008 70.5917 84.5586 70.4713 84.9243 70.3801H85.0743V70.2301L84.9743 68.0001V67.0001V67.0901C85.3395 66.2955 85.8636 65.5842 86.5143 65.0001C86.6623 64.8659 86.8405 64.7695 87.0337 64.719C87.227 64.6685 87.4296 64.6654 87.6243 64.7101C87.9883 64.9002 88.3248 65.1391 88.6243 65.4201C90.0443 66.5101 91.4043 67.5701 92.6843 68.5901C93.3143 69.1001 93.9443 69.5901 94.5243 70.1101C94.8173 70.3166 95.0516 70.5957 95.2043 70.9201C95.3443 71.2501 95.4543 71.6001 95.5743 71.9201C96.0143 73.3001 96.3643 74.6101 96.6943 75.8001L98.1743 81.4501C98.3443 82.0801 98.4743 82.5901 98.5743 82.9801C98.6366 83.1691 98.7205 83.3503 98.8243 83.5201Z" fill="#0C1641"/>
<path d="M84.8252 70.17C84.8252 70.24 85.4852 70.17 86.4952 70.29C87.0919 70.3745 87.6806 70.5083 88.2552 70.69C89.0116 70.7952 89.7788 70.7952 90.5352 70.69C91.1824 70.5969 91.8423 70.6531 92.4646 70.8541C93.0868 71.0552 93.6548 71.3958 94.1252 71.85C94.4969 72.2531 94.7917 72.7208 94.9952 73.23C95.0016 72.9366 94.9461 72.6452 94.8324 72.3747C94.7187 72.1042 94.5493 71.8607 94.3352 71.66C93.9178 71.1978 93.4017 70.8355 92.8252 70.6C92.1013 70.3144 91.3175 70.2147 90.5452 70.31C89.8213 70.3995 89.0891 70.3995 88.3652 70.31C87.7636 70.1461 87.1473 70.0423 86.5252 70C85.9529 69.9475 85.3758 70.0052 84.8252 70.17Z" fill="#0C1641"/>
<path d="M87.1146 70.0002C87.2146 70.0002 87.4746 69.6702 87.4346 69.1402C87.3946 68.6102 87.1046 68.2602 87.0146 68.3202C86.9246 68.3802 87.0146 68.7302 87.0146 69.1602C87.0146 69.5902 87.0146 70.0002 87.1146 70.0002Z" fill="#0C1641"/>
<path d="M83.3047 73.4201C84.9335 73.5644 86.575 73.4223 88.1547 73.0001C88.7325 72.8155 89.339 72.7376 89.9447 72.7701C90.4075 72.8817 90.8152 73.1547 91.0947 73.5401C91.335 73.9355 91.5489 74.3464 91.7347 74.7701C91.763 74.2733 91.6181 73.782 91.3247 73.3801C91.186 73.133 90.9983 72.9168 90.773 72.7448C90.5477 72.5728 90.2897 72.4487 90.0147 72.3801C89.3619 72.3035 88.7003 72.3683 88.0747 72.5701C85.4747 73.2201 83.2947 73.3001 83.3047 73.4201Z" fill="#0C1641"/>
<path d="M82.4443 76.35C82.8356 76.4423 83.243 76.4423 83.6343 76.35C84.3743 76.26 85.3543 76.01 86.4243 75.8C86.9199 75.6901 87.4268 75.6397 87.9343 75.65C88.327 75.66 88.7059 75.7968 89.0143 76.04C89.2957 76.3063 89.4819 76.6576 89.5443 77.04C89.5443 77.04 89.6143 76.93 89.6043 76.71C89.5744 76.3973 89.4323 76.106 89.2043 75.89C88.8706 75.5634 88.4304 75.3681 87.9643 75.34C87.4247 75.3016 86.8823 75.342 86.3543 75.46C85.2543 75.68 84.2943 75.97 83.5943 76.12C83.2041 76.157 82.8188 76.234 82.4443 76.35Z" fill="#0C1641"/>
<path d="M84.3644 78.6699C84.2944 78.6699 84.8444 79.2999 85.8444 79.2899L85.6544 79.1199L85.7144 79.6399C85.7416 80.3295 85.8976 81.0078 86.1744 81.6399C86.2776 80.9448 86.2539 80.2366 86.1044 79.5499L86.0344 79.0299V78.8499H85.8244C85.3324 78.8461 84.8425 78.7858 84.3644 78.6699Z" fill="#0C1641"/>
<path d="M124.405 76.72C124.405 76.72 135.295 79.35 135.275 93.79C135.255 108.23 131.985 115.36 131.985 115.36L111.915 104.43L116.395 93.19L124.405 76.72Z" fill="#5C7CFA"/>
<path d="M131.985 115.36C131.84 115.309 131.699 115.245 131.565 115.17L130.405 114.58L126.125 112.33L111.825 104.62L111.665 104.53L111.725 104.36C112.075 103.46 112.435 102.51 112.805 101.55L116.425 92.1501L118.015 88.0601C118.454 86.851 118.986 85.6775 119.605 84.5501C120.429 82.8641 121.677 81.4206 123.225 80.3601C123.658 80.0914 124.136 79.9018 124.635 79.8001C124.765 79.7903 124.895 79.7903 125.025 79.8001H125.155C124.497 79.9328 123.87 80.1871 123.305 80.5501C121.822 81.6264 120.626 83.0518 119.825 84.7001C119.228 85.8183 118.719 86.9819 118.305 88.1801L116.825 92.2901L113.195 101.7C112.825 102.7 112.455 103.61 112.115 104.51L112.015 104.25L126.255 112.08L130.475 114.45L131.605 115.1C131.741 115.173 131.868 115.26 131.985 115.36Z" fill="#0C1641"/>
</g>
<defs>
<clipPath id="clip0_6013_59389">
<rect width="168" height="164" fill="white" transform="translate(15.8252 18)"/>
</clipPath>
</defs>
</svg>
