<svg width="200" height="200" viewBox="0 0 200 200" fill="none" xmlns="http://www.w3.org/2000/svg">
<g clip-path="url(#clip0_6013_71260)">
<path d="M3.54507 109.72C16.7951 67.0001 101.435 91.9001 117.215 61.4001C132.995 30.9001 209.675 48.9101 197.325 96.0001C184.975 143.09 192.815 162.89 152.195 178.53C111.575 194.17 -17.0649 176.18 3.54507 109.72Z" fill="#EDF2FF"/>
<mask id="mask0_6013_71260" style="mask-type:alpha" maskUnits="userSpaceOnUse" x="1" y="46" width="198" height="138">
<path d="M3.54507 109.72C16.7951 67.0001 101.435 91.9001 117.215 61.4001C132.995 30.9001 209.675 48.9101 197.325 96.0001C184.975 143.09 192.815 162.89 152.195 178.53C111.575 194.17 -17.0649 176.18 3.54507 109.72Z" fill="#B00020"/>
</mask>
<g mask="url(#mask0_6013_71260)">
<path d="M85.165 167.06C85.165 168.12 89.295 314.42 89.295 314.42H111.295L115.755 189.27C115.755 189.27 120.945 254.71 120.945 256.12C120.945 257.53 125.535 315.12 125.535 315.12L145.905 313.46L144.545 181.7L142.055 162.38L85.165 167.06Z" fill="#0C1641"/>
<path d="M118.006 184.64C117.725 184.799 117.426 184.923 117.116 185.01C116.536 185.23 115.686 185.52 114.636 185.88L114.436 185.94V185.74C114.316 183.98 114.176 181.62 114.046 179.04C113.906 176.25 113.806 173.71 113.756 171.88C113.756 170.96 113.756 170.22 113.756 169.71C113.715 169.445 113.715 169.175 113.756 168.91C113.826 169.168 113.866 169.433 113.876 169.7C113.876 170.21 113.986 170.95 114.056 171.87C114.186 173.7 114.336 176.23 114.476 179.02C114.606 181.6 114.696 183.96 114.756 185.72L114.536 185.58C115.606 185.26 116.466 185.01 117.066 184.85C117.37 184.744 117.686 184.674 118.006 184.64Z" fill="#BAC8FF"/>
<path d="M116.326 169.42C116.326 169.42 116.396 169.31 116.616 169.23C116.949 169.135 117.305 169.167 117.616 169.32C117.846 169.42 118.04 169.59 118.171 169.804C118.302 170.019 118.363 170.269 118.346 170.52C118.315 170.832 118.185 171.126 117.974 171.359C117.764 171.591 117.484 171.749 117.176 171.81C116.864 171.862 116.544 171.821 116.255 171.691C115.967 171.561 115.724 171.348 115.556 171.08C115.424 170.872 115.354 170.631 115.354 170.385C115.354 170.139 115.424 169.898 115.556 169.69C115.725 169.411 115.982 169.197 116.286 169.08C116.496 169.01 116.626 169.02 116.636 169.08C116.646 169.14 116.136 169.25 115.826 169.87C115.738 170.022 115.692 170.195 115.692 170.37C115.692 170.546 115.738 170.718 115.826 170.87C115.955 171.063 116.137 171.215 116.349 171.308C116.562 171.402 116.796 171.434 117.026 171.4C117.244 171.348 117.442 171.232 117.594 171.066C117.746 170.9 117.844 170.692 117.876 170.47C117.896 170.288 117.86 170.104 117.775 169.942C117.689 169.78 117.557 169.647 117.396 169.56C117.061 169.407 116.688 169.358 116.326 169.42Z" fill="#BAC8FF"/>
<path d="M126.425 170.92C126.305 170.92 126.135 170.3 126.055 169.51C125.975 168.72 125.995 168.06 126.115 168.05C126.235 168.04 126.405 168.67 126.485 169.47C126.565 170.27 126.545 170.91 126.425 170.92Z" fill="#BAC8FF"/>
<path d="M127.946 170.78C127.826 170.78 127.726 170.1 127.726 169.27C127.726 168.44 127.816 167.76 127.936 167.76C128.056 167.76 128.156 168.43 128.156 169.27C128.156 170.11 128.066 170.78 127.946 170.78Z" fill="#BAC8FF"/>
<path d="M101.454 171.79C101.189 171.262 101.049 170.681 101.044 170.09C100.901 169.519 100.901 168.921 101.044 168.35C101.164 168.35 101.344 169.09 101.454 170.04C101.597 170.615 101.597 171.215 101.454 171.79Z" fill="#BAC8FF"/>
<path d="M103.325 171.93C102.944 171.417 102.753 170.788 102.785 170.15C102.692 169.516 102.831 168.87 103.175 168.33C103.231 168.929 103.231 169.531 103.175 170.13C103.288 170.723 103.339 171.326 103.325 171.93Z" fill="#BAC8FF"/>
<path d="M96.3246 170C96.3371 170.219 96.3134 170.439 96.2546 170.65C96.1429 171.228 95.996 171.799 95.8146 172.36C95.1923 174.236 94.2704 175.999 93.0846 177.58C91.8816 179.18 90.4338 180.581 88.7946 181.73C88.2973 182.097 87.7761 182.431 87.2346 182.73C86.8546 182.93 86.6346 183.03 86.6146 183C86.5946 182.97 87.4146 182.48 88.6146 181.56C90.1831 180.371 91.5796 178.971 92.7646 177.4C93.921 175.845 94.8534 174.135 95.5346 172.32C96.0946 170.86 96.3246 170 96.3246 170Z" fill="#BAC8FF"/>
<path d="M143.876 179.83C143.659 179.898 143.433 179.935 143.206 179.94C142.593 179.992 141.978 179.992 141.366 179.94C139.343 179.735 137.406 179.019 135.736 177.86C134.111 176.717 132.817 175.165 131.986 173.36C131.744 172.826 131.553 172.27 131.416 171.7C131.346 171.494 131.312 171.278 131.316 171.06C131.386 171.06 131.576 171.94 132.236 173.25C133.115 174.965 134.394 176.444 135.966 177.56C137.592 178.676 139.453 179.402 141.406 179.68C142.916 179.86 143.866 179.76 143.876 179.83Z" fill="#BAC8FF"/>
</g>
<mask id="path-12-outside-1_6013_71260" maskUnits="userSpaceOnUse" x="94.4619" y="18.2378" width="40" height="67" fill="black">
<rect fill="white" x="94.4619" y="18.2378" width="40" height="67"/>
<path fill-rule="evenodd" clip-rule="evenodd" d="M125.435 35.7403L125.514 42.0983C126.74 41.7205 131.047 40.8029 131.264 45.95C131.491 51.3333 126.551 51.0631 125.623 50.8105L125.865 70.1303C125.865 70.1883 125.866 70.2467 125.867 70.3053L133.105 73.05L125.005 77.5479C123.848 81.3385 121.245 84.4592 115.595 84.2703C110.921 83.762 108.251 80.9637 106.826 77.6379L97.952 74.2464L105.424 71.0853C105.414 70.8434 105.407 70.6049 105.405 70.3703C105.405 67.7803 105.345 65.6203 105.325 65.3703C105.325 65.3703 96.5648 64.6603 95.8248 56.0003C95.4648 51.8203 95.4248 43.1503 95.4848 35.3003C95.5215 31.2377 97.0843 27.3374 99.8629 24.3735C102.642 21.4096 106.433 19.5987 110.485 19.3003L111.325 19.2403C120.385 19.0803 125.555 26.6903 125.435 35.7403Z"/>
</mask>
<path fill-rule="evenodd" clip-rule="evenodd" d="M125.435 35.7403L125.514 42.0983C126.74 41.7205 131.047 40.8029 131.264 45.95C131.491 51.3333 126.551 51.0631 125.623 50.8105L125.865 70.1303C125.865 70.1883 125.866 70.2467 125.867 70.3053L133.105 73.05L125.005 77.5479C123.848 81.3385 121.245 84.4592 115.595 84.2703C110.921 83.762 108.251 80.9637 106.826 77.6379L97.952 74.2464L105.424 71.0853C105.414 70.8434 105.407 70.6049 105.405 70.3703C105.405 67.7803 105.345 65.6203 105.325 65.3703C105.325 65.3703 96.5648 64.6603 95.8248 56.0003C95.4648 51.8203 95.4248 43.1503 95.4848 35.3003C95.5215 31.2377 97.0843 27.3374 99.8629 24.3735C102.642 21.4096 106.433 19.5987 110.485 19.3003L111.325 19.2403C120.385 19.0803 125.555 26.6903 125.435 35.7403Z" fill="white"/>
<path d="M125.514 42.0983L125.214 42.102L125.219 42.5031L125.603 42.3849L125.514 42.0983ZM125.435 35.7403L125.135 35.7363L125.135 35.744L125.435 35.7403ZM131.264 45.95L131.564 45.9373L131.264 45.95ZM125.623 50.8105L125.702 50.521L125.318 50.4165L125.323 50.8142L125.623 50.8105ZM125.865 70.1303L126.165 70.1267L126.165 70.1265L125.865 70.1303ZM125.867 70.3053L125.567 70.3076L125.568 70.513L125.76 70.5858L125.867 70.3053ZM133.105 73.05L133.251 73.3123L133.816 72.9986L133.211 72.7695L133.105 73.05ZM125.005 77.5479L124.859 77.2856L124.753 77.3444L124.718 77.4604L125.005 77.5479ZM115.595 84.2703L115.562 84.5685L115.574 84.5697L115.585 84.5701L115.595 84.2703ZM106.826 77.6379L107.102 77.5198L107.052 77.403L106.934 77.3576L106.826 77.6379ZM97.952 74.2464L97.8351 73.9701L97.1486 74.2605L97.8449 74.5266L97.952 74.2464ZM105.424 71.0853L105.541 71.3615L105.733 71.2804L105.724 71.0722L105.424 71.0853ZM105.405 70.3703H105.105L105.105 70.3736L105.405 70.3703ZM105.325 65.3703L105.624 65.3463L105.603 65.0919L105.349 65.0713L105.325 65.3703ZM95.8248 56.0003L96.1237 55.9747L96.1237 55.9745L95.8248 56.0003ZM95.4848 35.3003L95.1848 35.2976L95.1848 35.298L95.4848 35.3003ZM99.8629 24.3735L100.082 24.5787L99.8629 24.3735ZM110.485 19.3003L110.463 19.001L110.463 19.0011L110.485 19.3003ZM111.325 19.2403L111.319 18.9403L111.311 18.9405L111.303 18.941L111.325 19.2403ZM125.814 42.0945L125.735 35.7365L125.135 35.744L125.214 42.102L125.814 42.0945ZM131.564 45.9373C131.508 44.6095 131.187 43.6404 130.69 42.9487C130.192 42.254 129.534 41.8634 128.851 41.6643C127.506 41.2719 126.052 41.6186 125.426 41.8116L125.603 42.3849C126.202 42.2001 127.514 41.8992 128.683 42.2403C129.258 42.408 129.794 42.7294 130.203 43.2985C130.613 43.8706 130.912 44.7169 130.965 45.9626L131.564 45.9373ZM125.544 51.0999C125.813 51.173 126.327 51.2385 126.94 51.2144C127.556 51.1901 128.292 51.0745 128.996 50.7689C129.703 50.4621 130.381 49.9622 130.865 49.1727C131.348 48.3838 131.623 47.3294 131.564 45.9373L130.965 45.9626C131.019 47.2622 130.762 48.1927 130.353 48.8594C129.945 49.5254 129.373 49.9515 128.757 50.2185C128.139 50.4867 127.48 50.5926 126.916 50.6149C126.348 50.6372 125.897 50.5742 125.702 50.521L125.544 51.0999ZM126.165 70.1265L125.923 50.8067L125.323 50.8142L125.565 70.134L126.165 70.1265ZM126.167 70.3029C126.166 70.2439 126.165 70.1851 126.165 70.1267L125.565 70.1339C125.566 70.1915 125.566 70.2495 125.567 70.3076L126.167 70.3029ZM125.76 70.5858L132.999 73.3305L133.211 72.7695L125.973 70.0248L125.76 70.5858ZM132.959 72.7877L124.859 77.2856L125.15 77.8102L133.251 73.3123L132.959 72.7877ZM115.585 84.5701C118.47 84.6666 120.608 83.9173 122.175 82.6335C123.737 81.3537 124.703 79.5665 125.292 77.6354L124.718 77.4604C124.15 79.32 123.236 80.9884 121.795 82.1694C120.358 83.3463 118.369 84.0629 115.605 83.9704L115.585 84.5701ZM106.551 77.756C108.008 81.1581 110.758 84.0461 115.562 84.5685L115.627 83.972C111.084 83.478 108.494 80.7693 107.102 77.5198L106.551 77.756ZM106.934 77.3576L98.0591 73.9662L97.8449 74.5266L106.719 77.9181L106.934 77.3576ZM98.0689 74.5227L105.541 71.3615L105.307 70.809L97.8351 73.9701L98.0689 74.5227ZM105.105 70.3736C105.107 70.6114 105.114 70.8532 105.125 71.0983L105.724 71.0722C105.714 70.8337 105.707 70.5984 105.705 70.367L105.105 70.3736ZM105.026 65.3942C105.045 65.6302 105.105 67.778 105.105 70.3703H105.705C105.705 67.7825 105.645 65.6104 105.624 65.3463L105.026 65.3942ZM95.5259 56.0258C95.9062 60.4765 98.3573 62.8981 100.707 64.1954C101.878 64.8416 103.023 65.2093 103.874 65.4156C104.3 65.5189 104.654 65.582 104.902 65.6195C105.027 65.6382 105.125 65.6506 105.192 65.6583C105.226 65.6621 105.253 65.6648 105.271 65.6666C105.28 65.6675 105.287 65.6681 105.292 65.6685C105.294 65.6688 105.296 65.6689 105.298 65.6691C105.299 65.6691 105.299 65.6692 105.3 65.6692C105.3 65.6692 105.3 65.6692 105.3 65.6693C105.3 65.6693 105.301 65.6693 105.325 65.3703C105.349 65.0713 105.349 65.0713 105.349 65.0713C105.349 65.0713 105.349 65.0713 105.349 65.0713C105.349 65.0713 105.349 65.0712 105.349 65.0712C105.348 65.0712 105.347 65.0711 105.345 65.0709C105.342 65.0706 105.336 65.0701 105.329 65.0694C105.314 65.0679 105.291 65.0656 105.26 65.0621C105.199 65.0552 105.108 65.0438 104.992 65.0262C104.758 64.991 104.422 64.9311 104.015 64.8325C103.201 64.635 102.109 64.2839 100.997 63.6701C98.7823 62.4474 96.4834 60.1841 96.1237 55.9747L95.5259 56.0258ZM95.1848 35.298C95.1248 43.1439 95.1644 51.8292 95.5259 56.026L96.1237 55.9745C95.7651 51.8114 95.7248 43.1566 95.7848 35.3026L95.1848 35.298ZM99.6441 24.1683C96.8139 27.1872 95.2222 31.1597 95.1848 35.2976L95.7848 35.303C95.8208 31.3157 97.3546 27.4877 100.082 24.5787L99.6441 24.1683ZM110.463 19.0011C106.336 19.3051 102.474 21.1495 99.6441 24.1683L100.082 24.5787C102.809 21.6697 106.53 19.8924 110.507 19.5995L110.463 19.0011ZM111.303 18.941L110.463 19.001L110.506 19.5995L111.346 19.5395L111.303 18.941ZM125.735 35.7442C125.795 31.1643 124.518 26.9275 122.057 23.8492C119.589 20.7639 115.944 18.8587 111.319 18.9403L111.33 19.5402C115.766 19.4619 119.235 21.2817 121.588 24.2239C123.946 27.1731 125.194 31.2663 125.135 35.7363L125.735 35.7442Z" fill="#0C1641" mask="url(#path-12-outside-1_6013_71260)"/>
<path d="M125.435 35.7403L125.865 70.1303C125.935 75.9803 124.865 84.5803 115.595 84.2703C107.595 83.4003 105.465 75.8203 105.405 70.3703C105.405 67.7803 105.345 65.6203 105.325 65.3703C105.325 65.3703 96.5648 64.6603 95.8248 56.0003C95.4648 51.8203 95.4248 43.1503 95.4848 35.3003C95.5215 31.2377 97.0843 27.3374 99.8629 24.3735C102.642 21.4096 106.433 19.5987 110.485 19.3003L111.325 19.2403C120.385 19.0803 125.555 26.6903 125.435 35.7403Z" fill="white"/>
<path d="M105.325 65.3502C109.312 65.0424 113.128 63.6026 116.325 61.2002C116.325 61.2002 114.035 67.7202 105.325 67.5802V65.3502Z" fill="#FCE5EC"/>
<path d="M110.325 38.8203C110.495 39.0003 111.495 38.1903 112.945 38.1603C114.395 38.1303 115.485 38.8303 115.635 38.6403C115.785 38.4503 115.525 38.2403 115.055 37.9103C114.423 37.4808 113.669 37.2668 112.905 37.3003C112.149 37.316 111.418 37.5795 110.825 38.0503C110.325 38.4203 110.205 38.7503 110.325 38.8203Z" fill="#0C1641"/>
<path d="M111.765 41.5499C111.783 41.8549 111.92 42.1408 112.146 42.3463C112.372 42.5519 112.669 42.6608 112.975 42.6499C113.125 42.6513 113.275 42.6223 113.414 42.5648C113.553 42.5072 113.679 42.4222 113.784 42.3149C113.89 42.2076 113.972 42.0801 114.027 41.94C114.083 41.8 114.109 41.6503 114.105 41.4999C114.087 41.1957 113.95 40.9108 113.723 40.7068C113.497 40.5029 113.199 40.3962 112.895 40.4099C112.745 40.4085 112.597 40.4371 112.458 40.4941C112.32 40.551 112.195 40.6351 112.089 40.7414C111.984 40.8476 111.901 40.9739 111.845 41.1128C111.789 41.2516 111.762 41.4003 111.765 41.5499Z" fill="#0C1641"/>
<path d="M106.655 48.9101C105.937 48.7451 105.202 48.6679 104.465 48.6801C104.125 48.6801 103.795 48.6801 103.725 48.4001C103.673 48.0592 103.725 47.7105 103.875 47.4001C104.135 46.5601 104.405 45.6701 104.685 44.7401C105.457 42.4803 106.049 40.1631 106.455 37.8101C105.504 40.0017 104.728 42.2655 104.135 44.5801C103.865 45.5201 103.605 46.4101 103.365 47.2601C103.185 47.6842 103.157 48.1575 103.285 48.6001C103.342 48.7171 103.424 48.8196 103.526 48.8994C103.629 48.9792 103.748 49.0342 103.875 49.0601C104.071 49.083 104.269 49.083 104.465 49.0601C105.199 49.1038 105.935 49.0534 106.655 48.9101Z" fill="#0C1641"/>
<path d="M110.905 32.6501C111.045 32.9801 112.205 32.7301 113.595 32.8001C114.985 32.8701 116.125 33.1801 116.285 32.8701C116.365 32.7301 116.145 32.4301 115.675 32.1401C115.05 31.7933 114.353 31.5981 113.639 31.5703C112.925 31.5426 112.215 31.6829 111.565 31.9801C111.075 32.2201 110.845 32.5001 110.905 32.6501Z" fill="#0C1641"/>
<path d="M97.1353 36.06C97.2853 36.32 98.4153 36.06 99.7853 35.99C101.155 35.92 102.295 36.12 102.445 35.85C102.595 35.58 102.275 35.48 101.805 35.27C101.161 35.0316 100.476 34.923 99.7893 34.9505C99.1028 34.9779 98.4286 35.1409 97.8053 35.43C97.3253 35.68 97.0653 35.93 97.1353 36.06Z" fill="#0C1641"/>
<path d="M125.194 42.21C125.334 42.14 131.014 40.02 131.264 45.95C131.514 51.88 125.494 50.95 125.474 50.74C125.454 50.53 125.194 42.21 125.194 42.21Z" fill="white"/>
<path d="M127.195 48.4199C127.195 48.4199 127.305 48.4799 127.485 48.5599C127.607 48.6108 127.738 48.637 127.87 48.637C128.003 48.637 128.133 48.6108 128.255 48.5599C128.629 48.2988 128.926 47.9419 129.114 47.5266C129.302 47.1114 129.375 46.6531 129.325 46.1999C129.323 45.6895 129.203 45.1865 128.975 44.7299C128.913 44.5465 128.807 44.3812 128.665 44.2487C128.524 44.1161 128.352 44.0204 128.165 43.9699C128.046 43.9431 127.921 43.9583 127.812 44.0129C127.703 44.0676 127.615 44.1584 127.565 44.2699C127.495 44.4399 127.565 44.5599 127.505 44.5699C127.445 44.5799 127.375 44.4799 127.415 44.2299C127.441 44.081 127.519 43.9461 127.635 43.8499C127.792 43.7201 127.993 43.6556 128.195 43.6699C128.441 43.7097 128.673 43.8113 128.869 43.9652C129.065 44.1192 129.219 44.3204 129.315 44.5499C129.588 45.0544 129.735 45.6168 129.745 46.1899C129.794 46.7194 129.685 47.2515 129.432 47.7193C129.18 48.1872 128.795 48.5701 128.325 48.8199C128.161 48.8779 127.985 48.8972 127.811 48.8764C127.638 48.8555 127.472 48.7952 127.325 48.6999C127.215 48.5599 127.175 48.4299 127.195 48.4199Z" fill="#FCE5EC"/>
<path d="M108.056 53.0002C107.996 52.8502 109.156 52.5002 109.976 51.4102C110.314 50.9304 110.589 50.4096 110.796 49.8602C110.966 49.4302 111.096 49.1602 111.166 49.1802C111.236 49.2002 111.166 49.4902 111.166 49.9602C111.037 50.5886 110.774 51.1819 110.396 51.7002C110.005 52.2144 109.484 52.6148 108.886 52.8602C108.376 53.0602 108.076 53.0702 108.056 53.0002Z" fill="#0C1641"/>
<path d="M83.9945 27.51C84.0975 27.1602 84.3348 26.8654 84.6545 26.69C85.3463 26.3765 86.1089 26.2523 86.8645 26.33C89.1775 26.2772 91.4307 25.5849 93.3745 24.33C94.2715 23.026 95.2749 21.7985 96.3745 20.66C98.9945 17.95 101.154 16.11 103.374 15.21C106.826 13.9603 110.554 13.6768 114.154 14.39C117.154 15.18 119.864 17.62 120.284 20.71C121.974 19.28 124.514 19.29 126.564 20.12H126.614C128.904 20.94 130.214 23.36 130.884 25.69C131.554 28.02 131.884 30.53 133.084 32.62C133.344 33.06 133.654 33.62 133.424 34.04C133.318 34.2025 133.167 34.3305 132.99 34.4087C132.812 34.4868 132.616 34.5116 132.424 34.48C132.028 34.4005 131.653 34.2368 131.324 34L132.084 35.83C131.253 35.9739 130.399 35.9156 129.594 35.66C129.171 37.7466 128.627 39.8068 127.964 41.83C127.113 41.7214 126.251 41.9315 125.544 42.42C124.734 43.14 124.374 44.5 123.044 43.99C122.364 43.72 121.744 42.3 121.524 41.61C120.015 37.0038 119.514 32.127 120.054 27.31C119.103 26.296 117.966 25.4744 116.704 24.89L116.804 24.98C114.384 24.14 111.654 23.31 109.354 24.45C107.574 25.33 106.534 27.18 105.194 28.65C103.967 30.011 102.476 31.1095 100.812 31.8794C99.1488 32.6493 97.3467 33.0747 95.5145 33.13C95.3845 35.56 95.5945 39.01 95.5145 41.45L93.5145 37.54C93.3445 37.26 93.2045 36.97 93.0645 36.68V36.59C92.8587 36.1151 92.6284 35.6511 92.3745 35.2C92.0927 35.4153 91.7445 35.5252 91.3902 35.5109C91.0359 35.4965 90.6978 35.3588 90.4344 35.1214C90.1709 34.8841 89.9988 34.5621 89.9476 34.2113C89.8965 33.8604 89.9697 33.5027 90.1545 33.2C90.3586 32.9175 90.6047 32.6679 90.8845 32.46C90.5878 32.7503 90.2202 32.9575 89.8183 33.0611C89.4164 33.1646 88.9944 33.1608 88.5945 33.05C88.1956 32.9307 87.8476 32.6824 87.6051 32.3439C87.3625 32.0055 87.2392 31.5961 87.2545 31.18C87.2931 30.8961 87.4058 30.6273 87.5814 30.4008C87.7569 30.1744 87.9891 29.9982 88.2545 29.89C87.1796 29.9788 86.1028 29.7419 85.1645 29.21C84.3845 28.85 83.7845 28.27 83.9945 27.51Z" fill="#0C1641"/>
<path d="M117.565 21.7002C117.87 21.947 118.157 22.2143 118.425 22.5002C119.117 23.3207 119.577 24.3118 119.755 25.3702C119.904 26.0941 119.978 26.8313 119.975 27.5702C119.975 28.3702 119.915 29.2202 119.855 30.1202C119.775 31.0646 119.755 32.0132 119.795 32.9602C119.824 33.464 119.888 33.9651 119.985 34.4602C120.061 34.9879 120.271 35.4874 120.595 35.9102C120.748 36.0788 120.941 36.2058 121.156 36.2793C121.371 36.3528 121.602 36.3703 121.825 36.3302C122.251 36.245 122.637 36.0239 122.925 35.7002C123.39 35.0523 123.676 34.2936 123.755 33.5002H123.575C123.822 34.1509 124.158 34.7635 124.575 35.3202C125.001 35.8309 125.605 36.16 126.265 36.2402C126.571 36.2639 126.877 36.2088 127.155 36.0802C127.414 35.9451 127.626 35.7363 127.765 35.4802C127.889 35.2425 127.95 34.9778 127.945 34.7102C127.928 34.4621 127.83 34.2266 127.665 34.0402L127.575 34.1202C128.092 34.7105 128.725 35.1872 129.435 35.5202C129.624 35.6061 129.818 35.6796 130.015 35.7402C130.145 35.7402 130.215 35.8002 130.215 35.7402L130.025 35.6602C129.895 35.6102 129.705 35.5302 129.465 35.4102C128.774 35.0658 128.161 34.5824 127.665 33.9902L127.575 34.0802C127.718 34.2605 127.8 34.481 127.811 34.7106C127.822 34.9401 127.76 35.1673 127.635 35.3602C127.51 35.5887 127.318 35.7736 127.085 35.8902C126.833 36.0095 126.552 36.0546 126.275 36.0202C125.663 35.9427 125.103 35.6309 124.715 35.1502C124.301 34.61 123.964 34.0142 123.715 33.3802L123.595 33.1002L123.535 33.4002C123.457 34.1565 123.185 34.8798 122.745 35.5002C122.481 35.7891 122.13 35.9854 121.745 36.0602C121.563 36.0908 121.375 36.0747 121.201 36.0135C121.026 35.9523 120.869 35.848 120.745 35.7102C120.452 35.3083 120.26 34.8419 120.185 34.3502C120.083 33.8661 120.019 33.3745 119.995 32.8802C119.94 31.9444 119.94 31.006 119.995 30.0702C119.995 29.1702 120.105 28.3102 120.095 27.5002C120.094 26.7499 120.01 26.0021 119.845 25.2702C119.647 24.1965 119.16 23.1973 118.435 22.3802C118.181 22.1108 117.888 21.8816 117.565 21.7002Z" fill="#BAC8FF"/>
<path d="M90.7744 30.1301L90.8444 30.1901L91.0644 30.3501C91.1777 30.4368 91.2981 30.5137 91.4244 30.5801C91.5943 30.6857 91.7714 30.7793 91.9544 30.8601C93.1166 31.3864 94.392 31.6133 95.6644 31.5201C97.553 31.3959 99.3655 30.7293 100.884 29.6001C102.716 28.1952 104.244 26.4329 105.374 24.4201C106.004 23.3701 106.514 22.3001 107.084 21.3001C107.598 20.3353 108.248 19.4496 109.014 18.6701C109.71 17.9649 110.568 17.4427 111.514 17.1501C111.941 17.0324 112.383 16.9818 112.824 17.0001C113.236 17.0275 113.642 17.1047 114.034 17.2301C115.223 17.643 116.214 18.4846 116.814 19.5901C117.018 20.0031 117.169 20.4398 117.264 20.8901C117.267 20.8601 117.267 20.83 117.264 20.8001V20.5301C117.198 20.184 117.087 19.8479 116.934 19.5301C116.679 19.0388 116.341 18.5956 115.934 18.2201C115.411 17.7155 114.788 17.327 114.104 17.0801C113.702 16.9385 113.281 16.8543 112.854 16.8301C112.393 16.8032 111.931 16.8505 111.484 16.9701C110.51 17.2618 109.624 17.791 108.904 18.5101C108.113 19.3036 107.44 20.206 106.904 21.1901C106.324 22.1901 105.814 23.2601 105.194 24.3001C104.076 26.2865 102.569 28.0277 100.764 29.4201C99.2792 30.5445 97.5018 31.2179 95.6444 31.3601C94.3916 31.4573 93.1336 31.2551 91.9744 30.7701C91.1744 30.4201 90.7944 30.1001 90.7744 30.1301Z" fill="#BAC8FF"/>
<path d="M89.9854 26.3201C89.9854 26.3201 90.0953 26.4101 90.2953 26.5401C90.592 26.7156 90.8993 26.8726 91.2153 27.0101C91.689 27.2073 92.1771 27.3678 92.6753 27.4901C93.2868 27.6262 93.9094 27.7065 94.5353 27.7301C95.1615 27.7501 95.788 27.7066 96.4053 27.6001C96.912 27.5165 97.4105 27.3894 97.8953 27.2201C98.2189 27.1082 98.5332 26.9711 98.8354 26.8101C98.9524 26.7599 99.0631 26.6961 99.1653 26.6201C99.1653 26.6201 98.6653 26.8301 97.8453 27.0901C97.3639 27.2352 96.8726 27.3455 96.3754 27.4201C95.7696 27.5093 95.1574 27.5461 94.5453 27.5301C93.9296 27.51 93.317 27.433 92.7153 27.3001C92.2414 27.1935 91.7767 27.0497 91.3253 26.8701C90.4653 26.5701 90.0054 26.2901 89.9854 26.3201Z" fill="#BAC8FF"/>
<path d="M97.0653 39.3699C97.2353 39.5499 98.2353 38.7399 99.6853 38.6999C101.135 38.6599 102.225 39.3699 102.375 39.1899C102.525 39.0099 102.265 38.7899 101.795 38.4499C101.161 38.0249 100.408 37.8114 99.6453 37.8399C98.8874 37.8586 98.1567 38.1256 97.5653 38.5999C97.1253 38.9999 96.9853 39.2899 97.0653 39.3699Z" fill="#0C1641"/>
<path d="M99.1652 41.8101C99.1833 42.1143 99.3204 42.3991 99.5468 42.6031C99.7732 42.8071 100.071 42.9137 100.375 42.9001C100.525 42.9028 100.674 42.8752 100.813 42.8187C100.952 42.7623 101.078 42.6782 101.184 42.5717C101.29 42.4651 101.373 42.3383 101.428 42.1988C101.483 42.0593 101.509 41.91 101.505 41.7601C101.487 41.4603 101.355 41.179 101.135 40.9742C100.915 40.7694 100.625 40.657 100.325 40.6601C100.173 40.656 100.021 40.6829 99.8789 40.7391C99.7369 40.7953 99.6079 40.8797 99.4995 40.9872C99.3911 41.0947 99.3056 41.223 99.2481 41.3644C99.1907 41.5058 99.1625 41.6574 99.1652 41.8101Z" fill="#0C1641"/>
<path d="M83.6446 135.4C82.9216 133.712 81.9249 132.154 80.6946 130.79C79.3698 129.521 77.8464 128.477 76.1846 127.7C76.7305 127.777 77.2586 127.95 77.7446 128.21C80.178 129.359 82.1112 131.353 83.1846 133.82C83.4298 134.316 83.5856 134.851 83.6446 135.4Z" fill="#FCE5EC"/>
<mask id="path-31-outside-2_6013_71260" maskUnits="userSpaceOnUse" x="35.4248" y="109.32" width="54" height="36" fill="black">
<rect fill="white" x="35.4248" y="109.32" width="54" height="36"/>
<path fill-rule="evenodd" clip-rule="evenodd" d="M75.1543 127.38L75.5243 110.32H87.0043C87.0043 110.32 89.3743 131.18 88.5843 135.93C87.9745 139.597 85.9582 141.237 84.6793 142.278C84.3016 142.585 83.9882 142.84 83.7943 143.08C82.9443 144.13 80.8443 144.35 76.1043 144.24C72.5864 144.158 63.3234 142.11 58.7808 141.059L58.5651 141.33C58.5651 141.33 54.2551 143.78 53.0651 143.91C51.8751 144.04 50.7451 142.04 50.7451 142.04C50.7451 142.04 51.4551 140.92 50.4451 141.82C49.4351 142.72 48.1851 140.52 48.1851 140.52L45.9251 140.93C45.423 141.005 44.9104 140.964 44.4267 140.809C43.943 140.655 43.5012 140.392 43.1351 140.04C42.1303 138.982 43.5291 137.505 44.1397 136.86C44.2158 136.78 44.2797 136.712 44.3251 136.66C44.7351 136.19 43.9051 136 43.9051 136C42.2748 136.327 40.6245 136.544 38.9651 136.65C38.7968 136.65 38.6355 136.652 38.4817 136.654C37.1739 136.67 36.4072 136.68 36.4251 135.4C36.4415 134.225 38.5509 133.739 39.863 133.436C40.1478 133.371 40.395 133.314 40.5751 133.26C41.5851 132.96 45.0351 130.58 45.2751 129.39C45.5151 128.2 44.3751 127.79 41.5851 126.86C38.7951 125.93 36.0651 124.94 36.4751 123.45C36.8851 121.96 41.2251 122.89 42.7751 123.74C43.4847 124.129 44.7455 124.275 46.2101 124.445C47.9448 124.646 49.9655 124.88 51.6951 125.59C53.9399 126.512 55.5954 128.85 56.3794 130.155C58.6001 130.426 65.5377 131.246 66.9443 131.07C68.6243 130.86 75.1543 127.38 75.1543 127.38Z"/>
</mask>
<path fill-rule="evenodd" clip-rule="evenodd" d="M75.1543 127.38L75.5243 110.32H87.0043C87.0043 110.32 89.3743 131.18 88.5843 135.93C87.9745 139.597 85.9582 141.237 84.6793 142.278C84.3016 142.585 83.9882 142.84 83.7943 143.08C82.9443 144.13 80.8443 144.35 76.1043 144.24C72.5864 144.158 63.3234 142.11 58.7808 141.059L58.5651 141.33C58.5651 141.33 54.2551 143.78 53.0651 143.91C51.8751 144.04 50.7451 142.04 50.7451 142.04C50.7451 142.04 51.4551 140.92 50.4451 141.82C49.4351 142.72 48.1851 140.52 48.1851 140.52L45.9251 140.93C45.423 141.005 44.9104 140.964 44.4267 140.809C43.943 140.655 43.5012 140.392 43.1351 140.04C42.1303 138.982 43.5291 137.505 44.1397 136.86C44.2158 136.78 44.2797 136.712 44.3251 136.66C44.7351 136.19 43.9051 136 43.9051 136C42.2748 136.327 40.6245 136.544 38.9651 136.65C38.7968 136.65 38.6355 136.652 38.4817 136.654C37.1739 136.67 36.4072 136.68 36.4251 135.4C36.4415 134.225 38.5509 133.739 39.863 133.436C40.1478 133.371 40.395 133.314 40.5751 133.26C41.5851 132.96 45.0351 130.58 45.2751 129.39C45.5151 128.2 44.3751 127.79 41.5851 126.86C38.7951 125.93 36.0651 124.94 36.4751 123.45C36.8851 121.96 41.2251 122.89 42.7751 123.74C43.4847 124.129 44.7455 124.275 46.2101 124.445C47.9448 124.646 49.9655 124.88 51.6951 125.59C53.9399 126.512 55.5954 128.85 56.3794 130.155C58.6001 130.426 65.5377 131.246 66.9443 131.07C68.6243 130.86 75.1543 127.38 75.1543 127.38Z" fill="white"/>
<path d="M75.5243 110.32V110.02H75.2308L75.2244 110.313L75.5243 110.32ZM75.1543 127.38L75.2954 127.645L75.4505 127.562L75.4543 127.386L75.1543 127.38ZM87.0043 110.32L87.3024 110.286L87.2722 110.02H87.0043V110.32ZM88.5843 135.93L88.8803 135.979L88.5843 135.93ZM84.6793 142.278L84.8687 142.511L84.6793 142.278ZM83.7943 143.08L84.0275 143.269L83.7943 143.08ZM76.1043 144.24L76.1113 143.94L76.1043 144.24ZM58.7808 141.059L58.8484 140.767L58.6641 140.725L58.5462 140.872L58.7808 141.059ZM58.5651 141.33L58.7134 141.591L58.7637 141.562L58.7997 141.517L58.5651 141.33ZM53.0651 143.91L53.0977 144.208L53.0651 143.91ZM50.7451 142.04L50.4917 141.879L50.3955 142.031L50.4839 142.188L50.7451 142.04ZM50.4451 141.82L50.2455 141.596L50.4451 141.82ZM48.1851 140.52L48.4459 140.372L48.3409 140.187L48.1316 140.225L48.1851 140.52ZM45.9251 140.93L45.9694 141.227L45.9787 141.225L45.9251 140.93ZM44.4267 140.809L44.3355 141.095L44.4267 140.809ZM43.1351 140.04L42.9173 140.247L42.9272 140.256L43.1351 140.04ZM44.1397 136.86L43.9219 136.654L43.9219 136.654L44.1397 136.86ZM44.3251 136.66L44.099 136.463L44.099 136.463L44.3251 136.66ZM43.9051 136L43.9721 135.708L43.9093 135.693L43.8461 135.706L43.9051 136ZM38.9651 136.65V136.95H38.9747L38.9842 136.949L38.9651 136.65ZM38.4817 136.654L38.478 136.354H38.478L38.4817 136.654ZM36.4251 135.4L36.1251 135.396L36.4251 135.4ZM39.863 133.436L39.9304 133.729L39.9304 133.729L39.863 133.436ZM40.5751 133.26L40.6605 133.548L40.5751 133.26ZM45.2751 129.39L44.981 129.331V129.331L45.2751 129.39ZM41.5851 126.86L41.68 126.576H41.68L41.5851 126.86ZM36.4751 123.45L36.1859 123.371L36.4751 123.45ZM42.7751 123.74L42.6309 124.003L42.7751 123.74ZM46.2101 124.445L46.2446 124.147L46.2101 124.445ZM51.6951 125.59L51.5811 125.868H51.5811L51.6951 125.59ZM56.3794 130.155L56.1222 130.309L56.1977 130.435L56.343 130.452L56.3794 130.155ZM66.9443 131.07L66.9816 131.368L66.9443 131.07ZM75.2244 110.313L74.8544 127.373L75.4543 127.386L75.8243 110.326L75.2244 110.313ZM87.0043 110.02H75.5243V110.62H87.0043V110.02ZM88.8803 135.979C89.0837 134.756 89.0814 132.531 88.9705 129.912C88.8591 127.282 88.6365 124.224 88.3895 121.318C88.1424 118.411 87.8707 115.654 87.6607 113.623C87.5557 112.607 87.4662 111.773 87.4029 111.193C87.3712 110.903 87.3461 110.676 87.3289 110.522C87.3203 110.445 87.3137 110.386 87.3092 110.346C87.307 110.326 87.3053 110.311 87.3042 110.301C87.3036 110.296 87.3032 110.292 87.3029 110.29C87.3027 110.289 87.3026 110.288 87.3025 110.287C87.3025 110.287 87.3025 110.286 87.3025 110.286C87.3024 110.286 87.3024 110.286 87.0043 110.32C86.7063 110.354 86.7063 110.354 86.7063 110.354C86.7063 110.354 86.7063 110.354 86.7064 110.355C86.7064 110.355 86.7065 110.356 86.7067 110.357C86.707 110.36 86.7074 110.364 86.708 110.369C86.7091 110.379 86.7108 110.394 86.713 110.413C86.7174 110.453 86.724 110.512 86.7326 110.588C86.7498 110.742 86.7748 110.968 86.8064 111.258C86.8696 111.837 86.959 112.67 87.0639 113.684C87.2736 115.713 87.545 118.467 87.7917 121.369C88.0384 124.272 88.2602 127.32 88.371 129.937C88.4823 132.565 88.48 134.729 88.2884 135.881L88.8803 135.979ZM84.8687 142.511C86.1619 141.458 88.2518 139.758 88.8803 135.979L88.2884 135.881C87.6972 139.435 85.7545 141.016 84.49 142.045L84.8687 142.511ZM84.0275 143.269C84.1971 143.059 84.4809 142.826 84.8687 142.511L84.49 142.045C84.1222 142.345 83.7792 142.622 83.5612 142.891L84.0275 143.269ZM76.0974 144.54C78.4673 144.595 80.1994 144.568 81.45 144.392C82.6946 144.216 83.5288 143.885 84.0275 143.269L83.5612 142.891C83.2099 143.325 82.5691 143.628 81.3662 143.798C80.1693 143.966 78.4813 143.995 76.1113 143.94L76.0974 144.54ZM58.7132 141.352C60.9859 141.877 64.441 142.653 67.769 143.307C71.0876 143.96 74.3083 144.498 76.0974 144.54L76.1113 143.94C74.3825 143.9 71.2127 143.373 67.8847 142.719C64.5661 142.066 61.1183 141.292 58.8484 140.767L58.7132 141.352ZM58.7997 141.517L59.0154 141.246L58.5462 140.872L58.3305 141.143L58.7997 141.517ZM53.0977 144.208C53.447 144.17 53.9795 143.973 54.5459 143.727C55.1258 143.476 55.7826 143.154 56.3982 142.838C57.0146 142.522 57.5931 142.211 58.0173 141.978C58.2295 141.862 58.4033 141.765 58.5241 141.697C58.5845 141.664 58.6317 141.637 58.6638 141.619C58.6799 141.61 58.6922 141.603 58.7006 141.598C58.7047 141.596 58.7079 141.594 58.71 141.593C58.7111 141.592 58.7119 141.592 58.7125 141.591C58.7128 141.591 58.713 141.591 58.7131 141.591C58.7132 141.591 58.7133 141.591 58.7133 141.591C58.7133 141.591 58.7134 141.591 58.5651 141.33C58.4169 141.069 58.4169 141.069 58.4168 141.069C58.4168 141.069 58.4168 141.069 58.4167 141.069C58.4166 141.069 58.4164 141.07 58.4162 141.07C58.4157 141.07 58.4149 141.07 58.4139 141.071C58.4119 141.072 58.4089 141.074 58.4049 141.076C58.3968 141.081 58.3848 141.087 58.369 141.096C58.3374 141.114 58.2909 141.14 58.2311 141.174C58.1116 141.241 57.9393 141.337 57.7289 141.452C57.3078 141.683 56.7344 141.992 56.1245 142.304C55.5139 142.617 54.87 142.933 54.3071 143.177C53.7308 143.427 53.2782 143.585 53.0325 143.612L53.0977 144.208ZM50.7451 142.04C50.4839 142.188 50.484 142.188 50.484 142.188C50.484 142.188 50.4841 142.188 50.4841 142.188C50.4842 142.188 50.4843 142.188 50.4844 142.189C50.4846 142.189 50.4849 142.189 50.4853 142.19C50.486 142.191 50.4871 142.193 50.4883 142.195C50.4909 142.2 50.4946 142.206 50.4993 142.214C50.5087 142.23 50.5223 142.253 50.5399 142.282C50.5751 142.34 50.6262 142.421 50.6912 142.518C50.8207 142.711 51.0075 142.968 51.2349 143.223C51.461 143.477 51.7357 143.738 52.0426 143.928C52.3489 144.117 52.7103 144.251 53.0977 144.208L53.0325 143.612C52.825 143.635 52.5988 143.566 52.3585 143.418C52.1189 143.269 51.888 143.054 51.6828 142.824C51.479 142.596 51.3089 142.361 51.1893 142.183C51.1298 142.095 51.0833 142.021 51.0521 141.969C51.0364 141.944 51.0246 141.924 51.0169 141.911C51.0131 141.904 51.0102 141.899 51.0084 141.896C51.0075 141.895 51.0069 141.894 51.0066 141.893C51.0064 141.893 51.0063 141.892 51.0062 141.892C51.0062 141.892 51.0062 141.892 51.0062 141.892C51.0062 141.892 51.0062 141.892 51.0062 141.892C51.0063 141.892 51.0063 141.893 50.7451 142.04ZM50.6447 142.044C50.7669 141.935 50.8576 141.862 50.923 141.815C50.9557 141.791 50.9791 141.777 50.9947 141.768C51.0118 141.758 51.0125 141.76 51.0005 141.763C50.9939 141.765 50.9793 141.769 50.9587 141.77C50.938 141.771 50.9064 141.77 50.8697 141.758C50.8312 141.745 50.793 141.723 50.7607 141.69C50.7293 141.658 50.7113 141.623 50.7012 141.595C50.6915 141.568 50.6888 141.545 50.6879 141.531C50.6871 141.517 50.6879 141.507 50.6884 141.502C50.6894 141.494 50.6902 141.494 50.687 141.505C50.6805 141.526 50.667 141.56 50.6459 141.604C50.6256 141.646 50.6018 141.691 50.5783 141.733C50.555 141.775 50.533 141.812 50.5169 141.839C50.5088 141.852 50.5023 141.862 50.4979 141.87C50.4957 141.873 50.4941 141.876 50.493 141.877C50.4925 141.878 50.4921 141.879 50.4919 141.879C50.4918 141.879 50.4917 141.88 50.4917 141.88C50.4917 141.88 50.4917 141.88 50.4917 141.88C50.4917 141.88 50.4917 141.88 50.4917 141.88C50.4917 141.88 50.4917 141.879 50.7451 142.04C50.9985 142.201 50.9985 142.201 50.9985 142.201C50.9986 142.201 50.9986 142.201 50.9986 142.201C50.9987 142.2 50.9987 142.2 50.9988 142.2C50.9989 142.2 50.9991 142.2 50.9994 142.199C50.9998 142.199 51.0004 142.198 51.0012 142.196C51.0028 142.194 51.005 142.19 51.0078 142.186C51.0133 142.177 51.021 142.164 51.0304 142.149C51.0491 142.118 51.0747 142.075 51.1022 142.025C51.1531 141.934 51.2248 141.798 51.2607 141.68C51.2703 141.649 51.2801 141.611 51.2847 141.569C51.2889 141.532 51.2923 141.466 51.2665 141.394C51.2356 141.307 51.1655 141.223 51.0548 141.187C50.9629 141.157 50.8809 141.173 50.8357 141.186C50.7451 141.212 50.6547 141.269 50.5729 141.328C50.4839 141.392 50.3758 141.48 50.2455 141.596L50.6447 142.044ZM48.1851 140.52C47.9243 140.668 47.9243 140.668 47.9244 140.668C47.9244 140.669 47.9244 140.669 47.9245 140.669C47.9246 140.669 47.9247 140.669 47.9248 140.669C47.9251 140.67 47.9254 140.67 47.9258 140.671C47.9266 140.672 47.9277 140.674 47.9292 140.677C47.932 140.682 47.936 140.689 47.9412 140.697C47.9515 140.715 47.9665 140.74 47.9857 140.771C48.0241 140.833 48.0797 140.92 48.1495 141.02C48.2882 141.221 48.4876 141.484 48.7245 141.72C48.957 141.952 49.2496 142.183 49.5777 142.283C49.9289 142.391 50.3075 142.345 50.6447 142.044L50.2455 141.596C50.0777 141.746 49.9214 141.761 49.754 141.71C49.5637 141.651 49.3545 141.501 49.1482 141.295C48.9464 141.094 48.7702 140.863 48.6429 140.679C48.5798 140.588 48.5298 140.51 48.4959 140.455C48.4789 140.428 48.4661 140.406 48.4576 140.392C48.4534 140.385 48.4503 140.379 48.4483 140.376C48.4473 140.374 48.4466 140.373 48.4462 140.372C48.446 140.372 48.4459 140.372 48.4459 140.372C48.4458 140.372 48.4458 140.372 48.4459 140.372C48.4459 140.372 48.4459 140.372 48.4459 140.372C48.4459 140.372 48.4459 140.372 48.1851 140.52ZM45.9787 141.225L48.2387 140.815L48.1316 140.225L45.8716 140.635L45.9787 141.225ZM44.3355 141.095C44.8629 141.263 45.4218 141.308 45.9693 141.227L45.8809 140.633C45.4241 140.701 44.9578 140.664 44.5179 140.524L44.3355 141.095ZM42.9272 140.256C43.3264 140.64 43.8081 140.927 44.3355 141.095L44.5179 140.524C44.0779 140.383 43.676 140.144 43.343 139.824L42.9272 140.256ZM43.9219 136.654C43.621 136.971 43.0881 137.532 42.7651 138.157C42.6025 138.473 42.4816 138.825 42.4823 139.188C42.4831 139.561 42.6127 139.926 42.9176 140.247L43.3527 139.834C43.1551 139.626 43.0828 139.409 43.0823 139.187C43.0818 138.955 43.1604 138.7 43.2982 138.433C43.576 137.894 44.0478 137.393 44.3575 137.066L43.9219 136.654ZM44.099 136.463C44.0586 136.509 43.9998 136.571 43.9219 136.654L44.3575 137.066C44.4319 136.988 44.5008 136.915 44.5512 136.857L44.099 136.463ZM43.9051 136C43.8382 136.293 43.8381 136.293 43.838 136.293C43.838 136.292 43.8379 136.292 43.8378 136.292C43.8377 136.292 43.8377 136.292 43.8376 136.292C43.8374 136.292 43.8373 136.292 43.8373 136.292C43.8372 136.292 43.8372 136.292 43.8375 136.292C43.838 136.293 43.8392 136.293 43.841 136.293C43.8448 136.294 43.851 136.296 43.8593 136.298C43.876 136.303 43.9004 136.31 43.9287 136.32C43.9885 136.341 44.0523 136.369 44.1002 136.402C44.1538 136.438 44.1463 136.452 44.1408 136.429C44.1307 136.387 44.1624 136.39 44.099 136.463L44.5512 136.857C44.6929 136.695 44.7746 136.498 44.7242 136.289C44.6783 136.098 44.5402 135.976 44.4376 135.906C44.3292 135.832 44.2111 135.783 44.1281 135.754C44.085 135.739 44.0477 135.728 44.0207 135.72C44.0071 135.716 43.9959 135.714 43.9876 135.711C43.9835 135.71 43.9801 135.71 43.9775 135.709C43.9762 135.709 43.9751 135.708 43.9742 135.708C43.9737 135.708 43.9733 135.708 43.973 135.708C43.9728 135.708 43.9726 135.708 43.9725 135.708C43.9724 135.708 43.9723 135.708 43.9723 135.708C43.9722 135.708 43.9721 135.708 43.9051 136ZM38.9842 136.949C40.657 136.843 42.3207 136.624 43.9641 136.294L43.8461 135.706C42.229 136.03 40.592 136.246 38.946 136.351L38.9842 136.949ZM38.4854 136.954C38.6394 136.952 38.7989 136.95 38.9651 136.95V136.35C38.7946 136.35 38.6315 136.352 38.478 136.354L38.4854 136.954ZM36.1251 135.396C36.1203 135.742 36.1673 136.035 36.2869 136.273C36.4111 136.52 36.6017 136.685 36.8353 136.787C37.0592 136.886 37.318 136.927 37.5864 136.944C37.856 136.962 38.1619 136.958 38.4854 136.954L38.478 136.354C38.1476 136.358 37.8672 136.361 37.6258 136.345C37.3832 136.33 37.2063 136.295 37.0773 136.238C36.9579 136.186 36.8785 136.114 36.8231 136.003C36.7631 135.884 36.721 135.698 36.7251 135.404L36.1251 135.396ZM39.7956 133.144C39.1457 133.294 38.2612 133.497 37.537 133.817C37.1745 133.977 36.8319 134.175 36.575 134.426C36.314 134.681 36.1306 135.003 36.1251 135.396L36.7251 135.404C36.7278 135.21 36.8143 135.031 36.9944 134.855C37.1787 134.675 37.4485 134.512 37.7794 134.365C38.442 134.073 39.2683 133.881 39.9304 133.729L39.7956 133.144ZM40.4897 132.973C40.3206 133.023 40.0842 133.077 39.7956 133.144L39.9304 133.729C40.2114 133.664 40.4694 133.604 40.6605 133.548L40.4897 132.973ZM44.981 129.331C44.9619 129.426 44.9047 129.556 44.7958 129.72C44.6889 129.881 44.5425 130.059 44.3634 130.249C44.0051 130.628 43.5332 131.036 43.0313 131.421C42.5303 131.805 42.006 132.162 41.5465 132.44C41.0792 132.722 40.7024 132.909 40.4897 132.973L40.6605 133.548C40.9528 133.461 41.3861 133.238 41.8571 132.953C42.3361 132.663 42.8787 132.294 43.3964 131.897C43.9133 131.501 44.412 131.071 44.7997 130.661C44.9935 130.455 45.1639 130.25 45.2956 130.052C45.4253 129.857 45.5284 129.652 45.5692 129.449L44.981 129.331ZM41.4902 127.145C42.9001 127.615 43.8427 127.938 44.4104 128.284C44.6887 128.453 44.8456 128.61 44.927 128.764C45.0044 128.91 45.0306 129.085 44.981 129.331L45.5692 129.449C45.6396 129.1 45.6134 128.778 45.4572 128.483C45.3052 128.196 45.0478 127.969 44.7223 127.771C44.0825 127.382 43.0602 127.036 41.68 126.576L41.4902 127.145ZM36.1859 123.371C36.0537 123.851 36.1829 124.287 36.4698 124.663C36.748 125.027 37.1792 125.344 37.6833 125.627C38.6927 126.193 40.101 126.682 41.4902 127.145L41.68 126.576C40.2793 126.109 38.9276 125.637 37.9769 125.103C37.501 124.836 37.1522 124.568 36.9467 124.299C36.7498 124.041 36.6915 123.794 36.7644 123.53L36.1859 123.371ZM42.9194 123.477C42.1019 123.029 40.5896 122.575 39.2318 122.42C38.5524 122.342 37.885 122.335 37.3492 122.454C36.8222 122.572 36.3329 122.836 36.1859 123.371L36.7644 123.53C36.8223 123.319 37.0293 123.141 37.4798 123.04C37.9215 122.942 38.5128 122.941 39.1634 123.016C40.4656 123.165 41.8983 123.601 42.6309 124.003L42.9194 123.477ZM46.2446 124.147C45.5095 124.062 44.8385 123.984 44.2629 123.88C43.6829 123.775 43.2299 123.647 42.9194 123.477L42.6309 124.003C43.0299 124.222 43.5621 124.362 44.156 124.47C44.7543 124.578 45.446 124.658 46.1756 124.743L46.2446 124.147ZM51.8091 125.313C50.0344 124.584 47.971 124.347 46.2446 124.147L46.1756 124.743C47.9186 124.945 49.8966 125.176 51.5811 125.868L51.8091 125.313ZM56.6365 130C55.8494 128.69 54.1513 126.274 51.8091 125.313L51.5811 125.868C53.7284 126.749 55.3413 129.01 56.1222 130.309L56.6365 130ZM66.9071 130.772C66.5886 130.812 65.9204 130.797 65.0315 130.74C64.1537 130.684 63.0892 130.59 61.9967 130.481C59.8123 130.265 57.5254 129.992 56.4158 129.857L56.343 130.452C57.4541 130.588 59.7463 130.861 61.9376 131.078C63.0329 131.187 64.1054 131.282 64.9933 131.339C65.8703 131.395 66.5968 131.416 66.9816 131.368L66.9071 130.772ZM75.1543 127.38C75.0132 127.115 75.0132 127.115 75.0132 127.115C75.0131 127.115 75.0131 127.115 75.013 127.115C75.0128 127.115 75.0125 127.115 75.0121 127.116C75.0114 127.116 75.0102 127.117 75.0087 127.118C75.0056 127.119 75.001 127.122 74.9948 127.125C74.9825 127.131 74.9642 127.141 74.9402 127.154C74.8922 127.179 74.8215 127.217 74.7309 127.264C74.5496 127.359 74.2887 127.496 73.9702 127.66C73.3331 127.989 72.4666 128.43 71.5481 128.876C70.629 129.323 69.6609 129.775 68.8199 130.128C67.9658 130.486 67.2798 130.726 66.9071 130.772L66.9816 131.368C67.4489 131.309 68.2091 131.035 69.0519 130.681C69.9077 130.322 70.8871 129.865 71.8106 129.416C72.7346 128.966 73.6056 128.524 74.2454 128.193C74.5653 128.028 74.8276 127.891 75.01 127.795C75.1012 127.747 75.1725 127.71 75.221 127.684C75.2452 127.671 75.2638 127.661 75.2763 127.655C75.2826 127.651 75.2873 127.649 75.2905 127.647C75.2921 127.646 75.2933 127.646 75.2942 127.645C75.2946 127.645 75.2949 127.645 75.2951 127.645C75.2952 127.645 75.2953 127.645 75.2953 127.645C75.2954 127.645 75.2954 127.645 75.1543 127.38Z" fill="#0C1641" mask="url(#path-31-outside-2_6013_71260)"/>
<path d="M46.3255 139.05C46.3255 139.05 46.5155 138.55 47.0855 137.96C47.404 137.632 47.6765 137.262 47.8955 136.86C48.0303 136.644 48.1017 136.395 48.1017 136.14C48.1017 135.886 48.0303 135.636 47.8955 135.42C47.7257 135.228 47.5057 135.087 47.2602 135.013C47.0147 134.938 46.7533 134.934 46.5055 135C46.0705 135.108 45.6687 135.321 45.3355 135.62C44.7555 136.15 44.4455 136.57 44.3955 136.52C44.56 136.102 44.8163 135.726 45.1455 135.42C45.4933 135.051 45.9362 134.784 46.4255 134.65C46.7395 134.56 47.0727 134.561 47.3861 134.653C47.6996 134.745 47.9803 134.924 48.1955 135.17C48.4215 135.452 48.5323 135.81 48.5055 136.17C48.4845 136.478 48.3993 136.777 48.2555 137.05C48.0132 137.481 47.6947 137.863 47.3155 138.18C46.6455 138.69 46.3255 139.07 46.3255 139.05Z" fill="#0C1641"/>
<path d="M51.0749 140.29C51.0149 140.29 51.6549 139.24 52.5949 137.55C53.147 136.565 53.6217 135.539 54.0149 134.48C54.2616 133.884 54.4167 133.253 54.4749 132.61C54.4752 132.459 54.4453 132.31 54.3869 132.171C54.3285 132.032 54.2428 131.906 54.1349 131.8C54.0153 131.709 53.8744 131.651 53.7256 131.63C53.5768 131.609 53.4251 131.626 53.2849 131.68C52.6549 131.86 52.2849 132.52 51.9449 133.11L50.9449 134.85L49.2149 137.78C48.7645 138.382 48.4257 139.059 48.2149 139.78C48.1725 140.049 48.1725 140.322 48.2149 140.59C48.2149 140.59 48.1549 140.53 48.1149 140.4C48.0488 140.194 48.025 139.976 48.0449 139.76C48.2028 138.995 48.5085 138.268 48.9449 137.62C49.4249 136.74 49.9449 135.74 50.6049 134.62C50.9149 134.06 51.2549 133.48 51.6049 132.87C51.8928 132.15 52.4483 131.57 53.1549 131.25C53.3596 131.18 53.5786 131.163 53.7918 131.199C54.005 131.236 54.2055 131.326 54.3749 131.46C54.5238 131.6 54.6423 131.769 54.7232 131.956C54.804 132.144 54.8455 132.346 54.8449 132.55C54.788 133.24 54.6191 133.915 54.3449 134.55C53.9231 135.613 53.4148 136.64 52.8249 137.62C52.3249 138.46 51.8849 139.11 51.5749 139.56C51.4373 139.822 51.2695 140.067 51.0749 140.29Z" fill="#0C1641"/>
<path d="M54.7551 142C54.8221 141.74 54.9195 141.488 55.0451 141.25C55.2551 140.78 55.5751 140.1 55.9751 139.25L57.3851 136.33C57.6744 135.792 57.8255 135.191 57.8251 134.58C57.8238 134.279 57.7217 133.987 57.5351 133.75C57.4614 133.633 57.3543 133.541 57.2277 133.486C57.1012 133.431 56.9609 133.415 56.8251 133.44C56.2751 133.58 55.9251 134.29 55.5351 134.8L54.4551 136.38L52.6751 139.09L51.4751 141C51.3369 141.229 51.1761 141.443 50.9951 141.64C51.0819 141.387 51.1994 141.145 51.3451 140.92C51.5951 140.46 51.9751 139.81 52.4451 139.02C52.9151 138.23 53.4951 137.29 54.1551 136.26C54.4851 135.74 54.8451 135.26 55.2151 134.66C55.4151 134.38 55.5951 134.11 55.8151 133.82C56.0317 133.49 56.3572 133.245 56.7351 133.13C56.9447 133.095 57.16 133.119 57.3563 133.2C57.5527 133.282 57.7221 133.417 57.8451 133.59C58.0642 133.879 58.1898 134.228 58.2051 134.59C58.2054 135.261 58.0369 135.921 57.7151 136.51C57.1651 137.61 56.6551 138.58 56.2251 139.4C55.7951 140.22 55.4351 140.88 55.2251 141.33C55.1019 141.575 54.9435 141.801 54.7551 142Z" fill="#0C1641"/>
<path d="M41.9253 124.06C42.0253 124.06 42.2553 124.58 41.9253 125.22C41.5953 125.86 41.0753 126.08 41.0353 125.98C40.9953 125.88 41.3553 125.58 41.5653 125.07C41.7753 124.56 41.8153 124.09 41.9253 124.06Z" fill="#0C1641"/>
<path d="M59.1057 140.4C59.4447 139.973 59.7301 139.506 59.9557 139.01C60.1718 138.47 60.2805 137.892 60.2757 137.31C60.2634 136.595 60.114 135.889 59.8357 135.23C59.2932 134.026 58.5492 132.924 57.6357 131.97C57.2334 131.585 56.8715 131.159 56.5557 130.7C57.0253 131.006 57.4553 131.369 57.8357 131.78C58.841 132.708 59.6474 133.831 60.2057 135.08C60.4974 135.787 60.6436 136.546 60.6357 137.31C60.6178 137.939 60.475 138.557 60.2157 139.13C59.7357 140.1 59.1157 140.44 59.1057 140.4Z" fill="#0C1641"/>
<path d="M96.085 74.72L106.075 70.81L124.455 69.77L133.105 73.05L121.255 79.63L111.045 79.25L96.085 74.72Z" fill="white"/>
<path d="M159.376 101.63C159.376 101.63 154.916 88 150.796 80.12C150.018 78.6469 148.932 77.3584 147.612 76.3421C146.292 75.3258 144.769 74.6055 143.146 74.23C138.376 73.11 130.746 71.23 126.146 69.77C126.146 69.77 121.306 74.77 112.146 74.67C103.146 74.54 101.276 72.51 101.276 72.51L88.6856 77.33C88.6856 77.33 79.7556 80.53 78.2156 84.49C76.6756 88.45 73.9756 110.32 73.9756 110.32H86.9756L86.7256 149.15L84.3256 168.66C85.2256 168.81 145.476 171.37 145.476 171.37L143.326 117.2L143.146 106.56L159.376 101.63Z" fill="#5C7CFA"/>
<path opacity="0.2" d="M122.194 96.3602L124.064 110.01L133.104 114.05L139.784 108.36V95.6802L122.194 96.3602Z" fill="#0C1641"/>
<path d="M139.545 100.23C139.545 100.34 135.785 100.44 131.155 100.44C126.525 100.44 122.765 100.34 122.765 100.23C122.765 100.12 126.525 100.03 131.155 100.03C135.785 100.03 139.545 100.12 139.545 100.23Z" fill="#0C1641"/>
<path d="M80.9248 90.1299C80.9671 90.2465 80.9973 90.3671 81.0148 90.4899L81.2548 91.5399C81.5794 92.8422 81.9801 94.1244 82.4548 95.3799C83.0548 96.9999 83.9048 98.8999 84.9448 101.03C85.9848 103.16 86.8148 105.7 87.7348 108.41V108.47C87.7348 111.72 87.7348 115.27 87.6648 118.98C87.5748 127.26 87.4948 134.76 87.4448 140.23C87.4448 142.92 87.3548 145.11 87.3248 146.67C87.3248 147.4 87.3248 147.99 87.2748 148.42C87.2919 148.623 87.2919 148.827 87.2748 149.03C87.2577 148.827 87.2577 148.623 87.2748 148.42C87.2748 147.98 87.2748 147.42 87.2748 146.67C87.2748 145.11 87.2748 142.92 87.2748 140.23C87.2748 134.75 87.3448 127.23 87.3848 118.97C87.3848 115.26 87.4548 111.71 87.4848 108.47V108.53C86.5748 105.82 85.7048 103.31 84.7648 101.16C83.8592 99.3034 83.0514 97.4008 82.3448 95.4599C81.89 94.1864 81.5225 92.8833 81.2448 91.5599C81.1548 91.0999 81.0848 90.7399 81.0548 90.4999C80.9974 90.3819 80.9538 90.2578 80.9248 90.1299Z" fill="#0C1641"/>
<path d="M144.125 83.79C144.159 84.1759 144.159 84.5641 144.125 84.95C144.125 85.76 144.055 86.82 144.015 88.09C143.905 90.82 143.755 94.45 143.605 98.47C143.455 102.49 143.255 106.12 143.135 108.85C143.055 110.12 142.995 111.18 142.955 111.99C142.939 112.375 142.899 112.76 142.835 113.14C142.799 112.754 142.799 112.366 142.835 111.98C142.835 111.17 142.835 110.11 142.895 108.84C142.965 106.18 143.085 102.51 143.245 98.45C143.405 94.39 143.605 90.73 143.775 88.08C143.865 86.75 143.945 85.68 144.015 84.94C144.024 84.5546 144.061 84.1703 144.125 83.79Z" fill="#0C1641"/>
<g opacity="0.3">
<path opacity="0.3" d="M80.3255 92.1001C80.1022 98.0489 82.2288 103.847 86.2455 108.24C84.9755 102.65 81.9155 97.4501 80.3255 92.1001Z" fill="#0C1641"/>
</g>
<g opacity="0.3">
<path opacity="0.3" d="M106.755 145.73C109.583 145.355 112.165 143.927 113.985 141.73C115.884 139.606 117.513 137.254 118.835 134.73C120.544 131.282 121.515 127.515 121.685 123.67C118.175 133 113.025 140.47 106.755 145.73Z" fill="#0C1641"/>
</g>
<path d="M122.796 119.52C122.807 119.633 122.807 119.747 122.796 119.86L122.576 120.86C122.486 121.29 122.356 121.8 122.176 122.39C121.996 122.98 121.806 123.67 121.536 124.39C120.942 126.116 120.247 127.805 119.456 129.45C117.519 133.486 115.028 137.232 112.056 140.58C110.847 141.949 109.551 143.238 108.176 144.44C107.606 144.96 107.036 145.39 106.556 145.78C106.076 146.17 105.646 146.48 105.286 146.73L104.456 147.29C104.266 147.41 104.166 147.48 104.156 147.46C104.146 147.44 104.236 147.37 104.416 147.23C104.596 147.09 104.886 146.85 105.196 146.6C105.506 146.35 105.956 146.01 106.416 145.6C106.876 145.19 107.416 144.76 107.986 144.22C109.326 142.997 110.595 141.698 111.786 140.33C113.226 138.65 114.561 136.883 115.786 135.04C117.004 133.186 118.113 131.263 119.106 129.28C119.905 127.651 120.62 125.983 121.246 124.28C121.536 123.55 121.736 122.88 121.936 122.28C122.136 121.68 122.286 121.19 122.396 120.77C122.506 120.35 122.606 120.08 122.686 119.77C122.712 119.682 122.749 119.599 122.796 119.52Z" fill="#0C1641"/>
<path d="M121.055 102.56C121.047 102.748 121.024 102.936 120.985 103.12C120.915 103.51 120.825 104.04 120.705 104.69C120.585 105.34 120.425 106.21 120.185 107.16C119.945 108.11 119.715 109.22 119.345 110.4C119.165 111 118.985 111.62 118.795 112.27C118.605 112.92 118.345 113.58 118.105 114.27C117.655 115.66 117.045 117.1 116.435 118.62C115.021 121.89 113.388 125.061 111.545 128.11C109.668 131.141 107.586 134.041 105.315 136.79C104.235 138.03 103.235 139.22 102.205 140.26C101.695 140.78 101.205 141.26 100.735 141.78L99.3252 143.12C98.4352 143.99 97.5652 144.69 96.8152 145.34C96.0652 145.99 95.4052 146.52 94.8152 146.93L93.5352 147.93C93.393 148.052 93.2389 148.159 93.0752 148.25C93.2021 148.113 93.3391 147.986 93.4852 147.87L94.7152 146.87C95.2552 146.44 95.9152 145.87 96.6352 145.24C97.3552 144.61 98.2252 143.86 99.0952 142.98L100.485 141.62C100.965 141.15 101.425 140.62 101.925 140.1C102.925 139.1 103.925 137.86 104.995 136.62C107.241 133.874 109.306 130.985 111.175 127.97C113.003 124.933 114.636 121.784 116.065 118.54C116.685 117.03 117.295 115.6 117.765 114.22C118.005 113.54 118.265 112.88 118.465 112.22L119.035 110.37C119.425 109.19 119.675 108.1 119.935 107.15C120.195 106.2 120.375 105.38 120.515 104.7C120.655 104.02 120.775 103.53 120.865 103.14C120.902 102.939 120.966 102.744 121.055 102.56Z" fill="#0C1641"/>
<mask id="path-48-outside-3_6013_71260" maskUnits="userSpaceOnUse" x="119.864" y="101.34" width="43" height="80" fill="black">
<rect fill="white" x="119.864" y="101.34" width="43" height="80"/>
<path fill-rule="evenodd" clip-rule="evenodd" d="M161.294 141.45C163.044 137.34 157.044 102.34 157.044 102.34L143.164 106.56C143.164 106.56 147.324 134.63 147.324 136.7C147.324 138.49 138.558 158.839 136.189 164.305C135.93 164.593 135.682 164.874 135.454 165.14C133.594 167.31 128.454 168.85 128.454 168.85C128.454 168.85 127.644 169.77 126.394 171.35C124.671 173.166 122.823 174.86 120.864 176.42C120.952 178.677 122.716 178.194 124.019 177.837C124.206 177.786 124.383 177.738 124.544 177.7C126.134 177.32 128.624 173.84 128.624 173.84L140.314 180.84C141.294 178.552 142.106 176.196 142.744 173.79C142.869 172.984 143.585 171.477 144.363 170.019C148.159 163.873 159.832 144.885 161.294 141.45Z"/>
</mask>
<path fill-rule="evenodd" clip-rule="evenodd" d="M161.294 141.45C163.044 137.34 157.044 102.34 157.044 102.34L143.164 106.56C143.164 106.56 147.324 134.63 147.324 136.7C147.324 138.49 138.558 158.839 136.189 164.305C135.93 164.593 135.682 164.874 135.454 165.14C133.594 167.31 128.454 168.85 128.454 168.85C128.454 168.85 127.644 169.77 126.394 171.35C124.671 173.166 122.823 174.86 120.864 176.42C120.952 178.677 122.716 178.194 124.019 177.837C124.206 177.786 124.383 177.738 124.544 177.7C126.134 177.32 128.624 173.84 128.624 173.84L140.314 180.84C141.294 178.552 142.106 176.196 142.744 173.79C142.869 172.984 143.585 171.477 144.363 170.019C148.159 163.873 159.832 144.885 161.294 141.45Z" fill="white"/>
<path d="M157.044 102.34L157.34 102.289L157.283 101.954L156.957 102.053L157.044 102.34ZM161.294 141.45L161.018 141.332L161.294 141.45ZM143.164 106.56L143.077 106.273L142.83 106.348L142.868 106.604L143.164 106.56ZM136.189 164.305L136.412 164.506L136.444 164.469L136.464 164.424L136.189 164.305ZM135.454 165.14L135.682 165.335H135.682L135.454 165.14ZM128.454 168.85L128.368 168.563L128.286 168.587L128.229 168.652L128.454 168.85ZM126.394 171.35L126.612 171.557L126.621 171.547L126.63 171.536L126.394 171.35ZM120.864 176.42L120.677 176.185L120.559 176.28L120.564 176.432L120.864 176.42ZM124.019 177.837L123.94 177.548H123.94L124.019 177.837ZM124.544 177.7L124.612 177.992L124.614 177.992L124.544 177.7ZM128.624 173.84L128.778 173.583L128.541 173.441L128.38 173.666L128.624 173.84ZM140.314 180.84L140.16 181.097L140.455 181.274L140.59 180.958L140.314 180.84ZM142.744 173.79L143.034 173.867L143.038 173.852L143.041 173.836L142.744 173.79ZM144.363 170.019L144.107 169.862L144.102 169.87L144.098 169.878L144.363 170.019ZM157.044 102.34C156.749 102.391 156.749 102.391 156.749 102.391C156.749 102.391 156.749 102.392 156.749 102.392C156.749 102.393 156.75 102.395 156.75 102.397C156.751 102.401 156.752 102.407 156.753 102.416C156.756 102.433 156.76 102.458 156.766 102.491C156.777 102.557 156.794 102.655 156.816 102.784C156.859 103.041 156.923 103.419 157.003 103.901C157.164 104.866 157.391 106.248 157.658 107.92C158.193 111.264 158.888 115.766 159.529 120.395C160.169 125.025 160.754 129.779 161.07 133.63C161.228 135.555 161.318 137.25 161.314 138.589C161.313 139.258 161.288 139.833 161.237 140.301C161.186 140.774 161.11 141.117 161.018 141.332L161.571 141.567C161.697 141.269 161.78 140.857 161.833 140.366C161.887 139.869 161.913 139.271 161.914 138.59C161.918 137.228 161.826 135.514 161.668 133.58C161.351 129.713 160.764 124.946 160.123 120.312C159.482 115.678 158.786 111.172 158.251 107.825C157.983 106.152 157.756 104.768 157.595 103.803C157.514 103.32 157.451 102.941 157.407 102.684C157.385 102.555 157.369 102.456 157.357 102.39C157.352 102.357 157.347 102.332 157.345 102.315C157.343 102.306 157.342 102.3 157.341 102.296C157.341 102.293 157.341 102.292 157.34 102.291C157.34 102.29 157.34 102.29 157.34 102.29C157.34 102.289 157.34 102.289 157.044 102.34ZM143.252 106.847L157.132 102.627L156.957 102.053L143.077 106.273L143.252 106.847ZM147.624 136.7C147.624 136.419 147.557 135.734 147.444 134.775C147.33 133.807 147.167 132.539 146.972 131.078C146.582 128.153 146.062 124.45 145.541 120.811C145.021 117.173 144.501 113.599 144.111 110.935C143.916 109.603 143.754 108.498 143.64 107.726C143.583 107.34 143.538 107.038 143.508 106.832C143.493 106.729 143.481 106.65 143.473 106.597C143.469 106.57 143.466 106.55 143.464 106.536C143.463 106.529 143.463 106.524 143.462 106.521C143.462 106.519 143.462 106.518 143.461 106.517C143.461 106.517 143.461 106.516 143.461 106.516C143.461 106.516 143.461 106.516 143.164 106.56C142.868 106.604 142.868 106.604 142.868 106.604C142.868 106.604 142.868 106.605 142.868 106.605C142.868 106.606 142.868 106.607 142.868 106.609C142.869 106.612 142.87 106.617 142.871 106.624C142.873 106.638 142.876 106.658 142.88 106.684C142.888 106.738 142.899 106.816 142.914 106.919C142.945 107.126 142.99 107.428 143.046 107.814C143.16 108.585 143.323 109.69 143.518 111.022C143.908 113.685 144.428 117.258 144.948 120.896C145.467 124.534 145.987 128.236 146.377 131.157C146.572 132.618 146.734 133.882 146.848 134.846C146.962 135.819 147.024 136.463 147.024 136.7H147.624ZM136.464 164.424C137.649 161.691 140.433 155.235 142.922 149.239C144.166 146.241 145.337 143.356 146.198 141.107C146.628 139.983 146.982 139.015 147.228 138.27C147.351 137.898 147.449 137.578 147.516 137.32C147.58 137.072 147.624 136.854 147.624 136.7H147.024C147.024 136.769 147 136.92 146.935 137.169C146.873 137.409 146.78 137.715 146.658 138.082C146.416 138.814 146.066 139.772 145.637 140.893C144.78 143.133 143.611 146.013 142.368 149.009C139.881 155.001 137.098 161.453 135.913 164.186L136.464 164.424ZM135.682 165.335C135.908 165.071 136.154 164.792 136.412 164.506L135.965 164.105C135.706 164.394 135.457 164.676 135.226 164.945L135.682 165.335ZM128.454 168.85C128.54 169.137 128.54 169.137 128.54 169.137C128.541 169.137 128.541 169.137 128.541 169.137C128.541 169.137 128.541 169.137 128.542 169.137C128.542 169.137 128.543 169.137 128.545 169.136C128.547 169.135 128.551 169.134 128.556 169.133C128.567 169.129 128.582 169.125 128.601 169.119C128.64 169.107 128.697 169.089 128.771 169.065C128.917 169.018 129.127 168.949 129.385 168.859C129.901 168.679 130.609 168.416 131.376 168.084C132.894 167.428 134.703 166.478 135.682 165.335L135.226 164.945C134.346 165.972 132.654 166.878 131.138 167.533C130.387 167.858 129.694 168.116 129.188 168.292C128.935 168.381 128.729 168.448 128.587 168.494C128.516 168.517 128.461 168.534 128.424 168.546C128.405 168.551 128.391 168.556 128.382 168.559C128.377 168.56 128.373 168.561 128.371 168.562C128.37 168.562 128.369 168.562 128.369 168.563C128.369 168.563 128.368 168.563 128.368 168.563C128.368 168.563 128.368 168.563 128.368 168.563C128.368 168.563 128.368 168.563 128.454 168.85ZM126.63 171.536C127.253 170.749 127.766 170.126 128.123 169.7C128.301 169.488 128.441 169.324 128.536 169.214C128.583 169.159 128.619 169.118 128.643 169.09C128.655 169.076 128.665 169.065 128.671 169.058C128.674 169.055 128.676 169.052 128.677 169.051C128.678 169.05 128.679 169.049 128.679 169.049C128.679 169.049 128.679 169.049 128.679 169.048C128.679 169.048 128.679 169.048 128.679 169.048C128.679 169.048 128.679 169.048 128.679 169.048C128.679 169.048 128.679 169.048 128.454 168.85C128.229 168.652 128.229 168.652 128.229 168.652C128.229 168.652 128.229 168.652 128.229 168.652C128.229 168.652 128.229 168.652 128.229 168.652C128.229 168.652 128.229 168.652 128.228 168.653C128.228 168.653 128.227 168.654 128.226 168.655C128.225 168.657 128.222 168.66 128.219 168.663C128.213 168.671 128.203 168.681 128.191 168.696C128.166 168.724 128.129 168.767 128.081 168.823C127.985 168.935 127.843 169.1 127.663 169.315C127.303 169.744 126.786 170.371 126.159 171.164L126.63 171.536ZM121.051 176.655C123.021 175.086 124.879 173.383 126.612 171.557L126.177 171.144C124.463 172.95 122.625 174.634 120.677 176.185L121.051 176.655ZM123.94 177.548C123.612 177.638 123.271 177.731 122.938 177.788C122.603 177.846 122.298 177.863 122.042 177.814C121.793 177.767 121.596 177.66 121.452 177.465C121.302 177.264 121.185 176.937 121.164 176.408L120.564 176.432C120.588 177.032 120.724 177.491 120.97 177.823C121.221 178.161 121.564 178.334 121.93 178.404C122.288 178.472 122.674 178.442 123.04 178.379C123.406 178.316 123.775 178.215 124.099 178.126L123.94 177.548ZM124.476 177.408C124.308 177.447 124.125 177.497 123.94 177.548L124.099 178.126C124.287 178.075 124.458 178.028 124.612 177.992L124.476 177.408ZM128.624 173.84C128.38 173.666 128.38 173.665 128.38 173.665C128.38 173.665 128.38 173.666 128.38 173.666C128.38 173.666 128.38 173.666 128.38 173.666C128.38 173.666 128.379 173.667 128.379 173.668C128.378 173.669 128.376 173.671 128.374 173.675C128.369 173.681 128.362 173.69 128.353 173.703C128.335 173.728 128.308 173.764 128.273 173.812C128.203 173.906 128.101 174.041 127.974 174.206C127.718 174.534 127.362 174.975 126.957 175.427C126.551 175.881 126.102 176.339 125.661 176.706C125.212 177.079 124.802 177.33 124.475 177.408L124.614 177.992C125.081 177.88 125.579 177.554 126.044 177.167C126.517 176.775 126.988 176.292 127.404 175.828C127.821 175.362 128.186 174.91 128.447 174.574C128.578 174.406 128.683 174.267 128.755 174.169C128.791 174.12 128.819 174.082 128.838 174.056C128.848 174.043 128.855 174.033 128.86 174.026C128.863 174.022 128.865 174.019 128.866 174.018C128.867 174.017 128.867 174.016 128.868 174.016C128.868 174.015 128.868 174.015 128.868 174.015C128.868 174.015 128.868 174.015 128.868 174.015C128.868 174.015 128.868 174.015 128.624 173.84ZM140.468 180.583L128.778 173.583L128.47 174.097L140.16 181.097L140.468 180.583ZM142.454 173.713C141.82 176.105 141.012 178.447 140.038 180.722L140.59 180.958C141.575 178.657 142.392 176.287 143.034 173.867L142.454 173.713ZM144.098 169.878C143.707 170.611 143.33 171.359 143.034 172.028C142.741 172.689 142.516 173.299 142.448 173.744L143.041 173.836C143.096 173.475 143.292 172.929 143.583 172.271C143.87 171.62 144.24 170.886 144.627 170.161L144.098 169.878ZM161.018 141.332C160.661 142.171 159.668 143.985 158.306 146.349C156.948 148.706 155.234 151.591 153.447 154.563C149.872 160.506 146.005 166.789 144.107 169.862L144.618 170.177C146.516 167.103 150.384 160.819 153.961 154.872C155.749 151.899 157.465 149.01 158.826 146.648C160.182 144.294 161.196 142.446 161.571 141.567L161.018 141.332Z" fill="#0C1641" mask="url(#path-48-outside-3_6013_71260)"/>
<path d="M60.7554 61.8101C60.4745 57.453 59.0287 53.2512 56.569 49.6439C54.1092 46.0365 50.7259 43.1558 46.7724 41.3029C42.819 39.45 38.4404 38.6927 34.0943 39.1103C29.7481 39.5279 25.5939 41.1049 22.0655 43.6767C18.5372 46.2484 15.7642 49.7206 14.0363 53.7303C12.3084 57.74 11.689 62.1401 12.2428 66.471C12.7967 70.8019 14.5034 74.9046 17.1847 78.3505C19.8659 81.7963 23.4234 84.4589 27.4854 86.0601C27.6754 88.9501 27.8854 92.2001 27.8854 92.2001L49.2054 90.8201C49.2054 90.8201 49.1154 87.3701 48.9554 84.2901C52.7997 81.9909 55.9352 78.6758 58.0171 74.7097C60.099 70.7435 61.0465 66.28 60.7554 61.8101Z" fill="#BAC8FF"/>
<path d="M41.4853 91.2202C41.4853 91.2202 41.4853 91.1202 41.4853 90.9202C41.4853 90.7202 41.4853 90.4102 41.4853 90.0302C41.4853 89.2602 41.5953 88.1102 41.7153 86.6402C41.8353 85.1702 42.0053 83.3602 42.3353 81.2902C42.7004 78.935 43.2931 76.6208 44.1053 74.3802C44.5793 73.0723 45.1718 71.8104 45.8753 70.6102C46.27 69.9448 46.8275 69.3907 47.4953 69.0002C47.8466 68.8043 48.2398 68.6957 48.6418 68.6835C49.0438 68.6713 49.4428 68.7559 49.8053 68.9302C50.1913 69.1207 50.49 69.4514 50.6405 69.8546C50.7911 70.2579 50.782 70.7034 50.6153 71.1002C50.2616 71.8797 49.6308 72.4999 48.8453 72.8402C47.2183 73.5103 45.3924 73.5103 43.7653 72.8402C42.9201 72.485 42.1562 71.9613 41.5201 71.3011C40.8839 70.6409 40.3889 69.858 40.0653 69.0002C39.6955 68.1161 39.5811 67.146 39.7353 66.2002C39.8208 65.6981 40.0779 65.2411 40.4627 64.9074C40.8475 64.5737 41.3361 64.3838 41.8453 64.3702C42.1081 64.3833 42.3635 64.4615 42.5886 64.5976C42.8138 64.7337 43.0016 64.9236 43.1353 65.1502C43.4041 65.5974 43.5067 66.1249 43.4253 66.6402C43.1901 67.6238 42.6471 68.5066 41.8753 69.1602C41.1383 69.8645 40.2618 70.4064 39.3024 70.7509C38.343 71.0953 37.322 71.2348 36.3053 71.1602C35.2861 71.0608 34.3058 70.7172 33.4476 70.1584C32.5894 69.5996 31.8785 68.8421 31.3753 67.9502C31.1146 67.51 30.9488 67.0202 30.8885 66.5122C30.8282 66.0042 30.8748 65.4891 31.0253 65.0002C31.1019 64.749 31.2306 64.5168 31.4029 64.3187C31.5752 64.1206 31.7872 63.9609 32.0253 63.8502C32.261 63.7436 32.5167 63.6885 32.7753 63.6885C33.034 63.6885 33.2897 63.7436 33.5253 63.8502C33.9856 64.0632 34.3695 64.4122 34.6253 64.8502C34.8643 65.2771 35.0204 65.7453 35.0853 66.2302C35.213 67.1701 35.1484 68.1261 34.8953 69.0402C34.4254 70.8252 33.2915 72.3634 31.7253 73.3402C30.2324 74.262 28.458 74.6169 26.7253 74.3402C25.881 74.2703 25.0849 73.918 24.4653 73.3402C24.1597 73.0424 23.9646 72.6495 23.9119 72.226C23.8592 71.8026 23.9521 71.3738 24.1753 71.0102C24.4347 70.6754 24.8155 70.4562 25.2353 70.4002C25.6359 70.3527 26.0419 70.4077 26.4153 70.5602C27.1026 70.8957 27.6611 71.4472 28.0053 72.1302C28.7053 73.4102 29.2753 74.6602 29.8553 75.8502C32.1153 80.6302 33.7553 84.5802 34.8553 87.3202C35.4053 88.6902 35.8553 89.7602 36.0953 90.4902C36.2253 90.8402 36.3253 91.1202 36.4053 91.3202C36.4426 91.411 36.4726 91.5047 36.4953 91.6002L36.3753 91.3302C36.2953 91.1302 36.1853 90.8602 36.0353 90.5102L34.7653 87.4002C33.6253 84.6802 31.9553 80.7402 29.6753 76.0002C29.0953 74.8202 28.5053 73.5602 27.8153 72.3102C27.4985 71.6614 26.9741 71.137 26.3253 70.8202C26.008 70.6233 25.6273 70.5555 25.2616 70.6308C24.8958 70.706 24.5727 70.9185 24.3589 71.2246C24.145 71.5307 24.0565 71.9071 24.1117 72.2764C24.1668 72.6458 24.3614 72.9799 24.6553 73.2102C25.2386 73.7477 25.9848 74.075 26.7753 74.1402C28.4433 74.3883 30.1452 74.0338 31.5753 73.1402C33.0615 72.1878 34.1331 70.7091 34.5753 69.0002C34.8201 68.1255 34.8813 67.2097 34.7553 66.3102C34.726 65.8631 34.5829 65.4309 34.3396 65.0546C34.0963 64.6784 33.761 64.3705 33.3653 64.1602C33.1696 64.0584 32.9535 64.0019 32.7331 63.995C32.5126 63.9881 32.2934 64.0309 32.0917 64.1202C31.89 64.2095 31.711 64.3431 31.5679 64.511C31.4249 64.6789 31.3215 64.8769 31.2653 65.0902C31.1293 65.5389 31.0893 66.0112 31.1479 66.4764C31.2065 66.9416 31.3623 67.3892 31.6053 67.7902C32.0821 68.6471 32.7617 69.3741 33.5845 69.9076C34.4074 70.4411 35.3484 70.7647 36.3253 70.8502C37.2992 70.9179 38.2765 70.7812 39.1944 70.4489C40.1124 70.1165 40.9506 69.5958 41.6553 68.9202C42.3816 68.308 42.8961 67.482 43.1253 66.5602C43.1946 66.1142 43.1062 65.658 42.8753 65.2702C42.7667 65.0852 42.614 64.9299 42.4308 64.8182C42.2476 64.7065 42.0396 64.6419 41.8253 64.6302C41.3839 64.633 40.9595 64.8006 40.6353 65.1002C40.3077 65.4007 40.0895 65.8018 40.0153 66.2402C39.8678 67.1285 39.9753 68.0405 40.3253 68.8702C40.6243 69.6724 41.0804 70.4068 41.6669 71.0303C42.2535 71.6539 42.9586 72.1541 43.741 72.5015C44.5234 72.8489 45.3673 73.0366 46.2232 73.0535C47.0791 73.0705 47.9298 72.9164 48.7253 72.6002C49.4556 72.2912 50.044 71.7206 50.3753 71.0002C50.5189 70.6617 50.5286 70.2813 50.4023 69.936C50.2761 69.5907 50.0234 69.3062 49.6953 69.1402C49.367 68.9844 49.0064 68.9085 48.6431 68.919C48.2798 68.9294 47.9242 69.0258 47.6053 69.2002C46.9902 69.5753 46.4781 70.0977 46.1153 70.7202C45.4108 71.9088 44.8118 73.1569 44.3253 74.4502C43.5025 76.676 42.8996 78.9769 42.5253 81.3202C42.1753 83.3802 41.9853 85.1802 41.8453 86.6502C41.7053 88.1202 41.6353 89.2502 41.5653 90.0402L41.4953 90.9202C41.5053 91.1202 41.4853 91.2202 41.4853 91.2202Z" fill="#0C1641"/>
<path d="M47.8145 94.88L29.5145 96.06C29.149 96.0819 28.7895 95.9588 28.5143 95.7172C28.239 95.4757 28.0702 95.1353 28.0445 94.77C28.0225 94.4071 28.1446 94.0502 28.3843 93.7768C28.624 93.5034 28.9619 93.3356 29.3245 93.31L47.6345 92.13C47.9974 92.108 48.3543 92.2301 48.6277 92.4698C48.9011 92.7094 49.0688 93.0473 49.0945 93.41C49.1166 93.7739 48.9948 94.1319 48.7554 94.4069C48.5159 94.6819 48.178 94.8518 47.8145 94.88Z" fill="#0C1641"/>
<path d="M47.8956 96.0798L29.5856 97.2598C29.2484 97.3166 28.9444 97.4964 28.7323 97.7646C28.5202 98.0327 28.4151 98.37 28.4375 98.7112C28.46 99.0523 28.6082 99.373 28.8536 99.6111C29.0989 99.8492 29.4239 99.9877 29.7656 99.9998L31.7656 99.8699L34.7656 104.77C34.9347 105.045 35.176 105.269 35.4633 105.417C35.7507 105.565 36.0731 105.632 36.3956 105.61L42.9356 105.19C43.2604 105.169 43.5732 105.059 43.8396 104.872C44.106 104.685 44.3157 104.428 44.4456 104.13L46.7056 98.8998L48.0756 98.8098C48.2555 98.798 48.4313 98.7509 48.593 98.6711C48.7547 98.5914 48.8991 98.4805 49.018 98.3449C49.1368 98.2094 49.2278 98.0517 49.2857 97.881C49.3437 97.7102 49.3674 97.5298 49.3556 97.3498C49.3438 97.1699 49.2966 96.9941 49.2169 96.8324C49.1371 96.6707 49.0263 96.5263 48.8907 96.4075C48.7551 96.2886 48.5975 96.1976 48.4267 96.1397C48.256 96.0818 48.0755 96.058 47.8956 96.0698V96.0798Z" fill="#0C1641"/>
<g opacity="0.2">
<path opacity="0.2" d="M19.7954 48.8899C21.1468 47.4583 22.7245 46.259 24.4654 45.3399C25.6128 44.7076 26.8506 44.2557 28.1354 43.9999C29.0554 43.8399 29.5854 43.8999 29.6454 44.0899C29.7754 44.5199 27.9754 45.2999 25.5954 47.0899C22.5165 49.4033 20.1301 52.5159 18.6954 56.0899C17.3601 59.6903 17.0316 63.5867 17.7454 67.3599C18.2754 70.3599 19.0854 72.0999 18.6954 72.3599C18.5154 72.4599 18.0954 72.1399 17.5254 71.4099C16.7439 70.3573 16.13 69.1902 15.7054 67.9499C15.0423 66.0969 14.6876 64.1477 14.6554 62.1799C14.6049 59.7283 15.0293 57.2901 15.9054 54.9999" fill="white"/>
</g>
<g opacity="0.2">
<path opacity="0.2" d="M35.555 44.7698C34.015 44.8498 32.625 44.5198 32.415 43.7098C32.325 43.3098 32.585 42.8598 33.115 42.4898C33.8008 42.0711 34.5791 41.8275 35.3813 41.7804C36.1834 41.7333 36.9849 41.8842 37.715 42.2198C38.295 42.5198 38.595 42.9398 38.555 43.3498" fill="white"/>
</g>
<path d="M44.1347 104.59C43.6993 104.515 43.2686 104.415 42.8447 104.29C41.8171 104.068 40.7616 104.004 39.7146 104.1C38.6812 104.202 37.6694 104.462 36.7146 104.87C35.9746 105.18 35.5346 105.45 35.5146 105.41C35.8355 105.097 36.2119 104.846 36.6246 104.67C37.5973 104.196 38.6474 103.902 39.7247 103.8C40.8028 103.696 41.8908 103.791 42.9347 104.08C43.359 104.186 43.7639 104.358 44.1347 104.59Z" fill="#BAC8FF"/>
<path d="M46.7558 99.0002C46.7558 99.0902 43.4558 99.3702 39.3658 99.6302C35.2758 99.8902 31.9758 100.04 31.9658 99.9602C31.9558 99.8802 35.2658 99.5902 39.3458 99.3302C43.4258 99.0702 46.7458 98.8902 46.7558 99.0002Z" fill="#BAC8FF"/>
<path d="M45.745 101.22C45.1584 101.373 44.5594 101.473 43.955 101.52C42.845 101.66 41.305 101.82 39.595 101.96C37.885 102.1 36.345 102.17 35.225 102.21C34.6228 102.263 34.0172 102.263 33.415 102.21C34.0088 102.096 34.6107 102.029 35.215 102.01L39.575 101.68L43.935 101.33C44.5346 101.246 45.1398 101.209 45.745 101.22Z" fill="#BAC8FF"/>
</g>
<defs>
<clipPath id="clip0_6013_71260">
<rect width="197" height="172" fill="white" transform="translate(1.3252 14)"/>
</clipPath>
</defs>
</svg>
