<svg width="213" height="200" viewBox="0 0 213 200" fill="none" xmlns="http://www.w3.org/2000/svg">
<g clip-path="url(#clip0_6013_57267)">
<path d="M181.915 86.5651C147.165 46.6851 52.045 71.2451 19.105 94.2451C-13.835 117.245 -7.54501 199.935 81.995 191.505C171.535 183.075 262.005 178.485 181.915 86.5651Z" fill="#EDF2FF"/>
<mask id="mask0_6013_57267" style="mask-type:alpha" maskUnits="userSpaceOnUse" x="0" y="65" width="213" height="128">
<path d="M181.915 86.5651C147.165 46.6851 52.045 71.2451 19.105 94.2451C-13.835 117.245 -7.54501 199.935 81.995 191.505C171.535 183.075 262.005 178.485 181.915 86.5651Z" fill="#B00020"/>
</mask>
<g mask="url(#mask0_6013_57267)">
<path d="M31.2758 113.805H56.0158V216.555H19.6758V125.415C19.6758 122.338 20.8976 119.386 23.0727 117.209C25.2479 115.032 28.1984 113.808 31.2758 113.805Z" fill="#BAC8FF"/>
<path d="M27.7149 214.995C27.6249 214.995 27.5449 192.705 27.5449 165.205C27.5449 137.705 27.6249 115.405 27.7149 115.405C27.8049 115.405 27.8949 137.695 27.8949 165.205C27.8949 192.715 27.8249 214.995 27.7149 214.995Z" fill="#0C1641"/>
<path d="M88.4143 115.945C88.4143 115.945 94.3343 118.355 97.7043 126.545C100.074 132.295 113.234 150.465 113.234 150.465L148.234 158.235L149.434 169.395L93.4343 168.935L85.6543 144.165L88.4143 115.945Z" fill="#5C7CFA"/>
<path d="M64.8247 105.625L58.6347 108.245C52.8847 110.655 45.5247 116.245 43.0647 121.935C37.1447 135.695 31.8247 153.445 29.7247 169.135C27.6247 184.825 31.8247 208.365 31.8247 208.365L84.3547 178.365L81.2447 176.245L91.2447 122.085L89.3947 115.525L90.6347 109.985C90.6347 109.985 76.6947 104.385 66.5347 100.375L64.8247 105.625Z" fill="#5C7CFA"/>
<g opacity="0.3">
<path opacity="0.3" d="M59.8241 192.715C60.0141 190.005 60.2041 187.305 60.4041 184.595C59.7908 185.188 58.9858 185.543 58.1341 185.595C59.4429 184.335 60.6067 182.933 61.6041 181.415L59.2141 182.415C60.0566 181.767 60.7406 180.936 61.2141 179.985C59.9341 178.985 58.1241 179.155 56.5041 179.315C48.1941 180.155 39.8141 179.595 31.5041 179.045C30.6655 178.984 29.8502 178.742 29.1141 178.335C29.0158 177.288 29.0833 176.231 29.3141 175.205C29.6841 174.355 30.2641 174.595 31.1341 174.285C32.0225 174.013 32.945 173.868 33.8741 173.855C44.0241 173.325 54.1841 174.165 64.3141 174.995C64.9462 174.986 65.5664 175.167 66.0941 175.515C66.9141 176.185 66.8441 177.445 66.7041 178.515C66.1908 182.302 65.6741 186.088 65.1541 189.875" fill="#0C1641"/>
</g>
<path d="M90.5847 119.855C90.579 120.026 90.5589 120.197 90.5247 120.365L90.3147 121.815C90.1247 123.065 89.8247 124.875 89.4247 127.115C88.6347 131.585 87.4247 137.735 86.0347 144.515C84.6447 151.295 83.2647 157.415 82.2547 161.835C81.7547 164.025 81.3447 165.835 81.0447 167.075C80.9047 167.665 80.7847 168.135 80.7047 168.495C80.6654 168.661 80.6153 168.825 80.5547 168.985C80.5696 168.813 80.5964 168.643 80.6347 168.475L80.9147 167.045C81.1847 165.765 81.5547 163.975 82.0147 161.785C83.0147 157.315 84.2547 151.205 85.6847 144.445C87.1147 137.685 88.3347 131.525 89.1847 127.065C89.6047 124.865 89.9447 123.065 90.1847 121.785C90.2947 121.195 90.3947 120.715 90.4647 120.355C90.4804 120.183 90.5208 120.015 90.5847 119.855Z" fill="#0C1641"/>
<path d="M43.0645 196.755C43.1555 196.637 43.2595 196.53 43.3745 196.435L44.3745 195.565C44.7745 195.185 45.2845 194.735 45.8945 194.235C46.5045 193.735 47.1845 193.145 47.9745 192.535C49.5245 191.295 51.4445 189.905 53.6245 188.445C55.8045 186.985 58.3045 185.505 60.9845 184.085C63.6645 182.665 66.3045 181.475 68.7345 180.475C71.1645 179.475 73.4045 178.705 75.3045 178.115C76.2545 177.805 77.1245 177.575 77.8844 177.365C78.6444 177.155 79.2945 176.975 79.8345 176.855L81.0845 176.565C81.2289 176.528 81.376 176.501 81.5244 176.485C81.3888 176.547 81.2484 176.597 81.1045 176.635L79.8745 176.985C79.3345 177.135 78.6845 177.315 77.9345 177.555C77.1845 177.795 76.3144 178.025 75.3844 178.355C73.4944 178.965 71.2845 179.785 68.8545 180.775C66.4244 181.765 63.8545 182.985 61.1445 184.395C58.4345 185.805 56.0045 187.295 53.8045 188.715C51.6045 190.135 49.6945 191.525 48.1245 192.715C47.3245 193.305 46.6345 193.875 46.0245 194.365C45.4145 194.855 44.8845 195.285 44.4545 195.645L43.4545 196.465C43.3338 196.574 43.2033 196.671 43.0645 196.755Z" fill="#0C1641"/>
<path d="M70.0353 176.925C70.0353 177.015 64.9653 179.925 58.6253 183.335C52.2853 186.745 47.0953 189.525 47.0453 189.445C46.9953 189.365 52.1053 186.445 58.4553 183.035C64.8053 179.625 69.9853 176.845 70.0353 176.925Z" fill="#0C1641"/>
<g opacity="0.3">
<path opacity="0.3" d="M51.5742 135.425C54.8242 149.515 64.8242 162.145 78.0742 167.895C68.5258 157.676 59.6726 146.828 51.5742 135.425Z" fill="#0C1641"/>
</g>
<g opacity="0.3">
<path opacity="0.3" d="M89.7459 124.695C91.0233 131.063 90.0847 137.675 87.0859 143.435L86.3359 141.885C87.3959 137.405 88.9059 129.455 89.7459 124.695Z" fill="#0C1641"/>
</g>
<path d="M82.1045 177.905C82.1045 177.905 128.545 189.975 134.315 198.015C139.185 204.815 113.615 274.245 113.615 274.245L93.4445 272.505L102.145 214.425L50.1445 197.885L58.0045 177.885L82.1045 177.905Z" fill="#0C1641"/>
<path d="M85.4352 188.785C85.4352 188.785 132.905 200.315 137.705 208.515C139.945 212.335 138.475 224.895 137.645 230.825C137.075 234.825 128.645 290.695 128.645 290.695H108.165L108.615 227.585L59.2852 217.585C59.2852 217.585 32.8152 219.585 31.7852 208.315L42.7852 193.315L68.8752 180.425L85.4352 188.785Z" fill="#0C1641"/>
<path d="M81.8258 187.335C81.8258 187.335 82.0658 187.335 82.5158 187.515C82.9658 187.695 83.6558 187.825 84.5158 188.075L92.2658 190.245C95.6258 191.185 99.7358 192.335 104.496 193.755C109.256 195.175 114.636 196.865 120.496 199.085C123.422 200.172 126.442 201.415 129.556 202.815L131.916 203.885C132.709 204.268 133.48 204.696 134.226 205.165C134.991 205.646 135.713 206.191 136.386 206.795C137.089 207.403 137.676 208.136 138.116 208.955C139.716 216.225 138.746 224.175 137.556 232.305C137.036 236.395 136.376 240.575 135.746 244.845C135.116 249.115 134.456 253.485 133.746 257.925C132.416 266.805 131.046 275.995 129.636 285.415C129.366 287.195 129.096 288.975 128.836 290.735V290.885H107.986V290.705C108.176 266.785 108.346 245.125 108.476 227.595L108.586 227.725L73.5858 220.595L64.0158 218.595L61.5258 218.075C60.9658 217.955 60.6758 217.875 60.6758 217.875L61.5358 218.035L64.0358 218.515L73.6158 220.415L108.676 227.415H108.786V227.525C108.666 245.055 108.526 266.715 108.376 290.635L108.206 290.465H128.726L128.546 290.615C128.816 288.845 129.076 287.075 129.346 285.295C130.756 275.875 132.136 266.685 133.466 257.805C134.132 253.365 134.799 249.008 135.466 244.735C136.096 240.455 136.766 236.285 137.286 232.195L138.106 226.135C138.387 224.176 138.56 222.203 138.626 220.225C138.696 218.285 138.686 216.355 138.626 214.465C138.626 213.525 138.536 212.585 138.456 211.655C138.451 210.748 138.267 209.851 137.916 209.015C137.488 208.227 136.923 207.522 136.246 206.935C135.592 206.34 134.885 205.804 134.136 205.335C133.401 204.867 132.64 204.443 131.856 204.065L129.506 202.995C126.406 201.595 123.406 200.345 120.506 199.245C114.686 197.015 109.296 195.315 104.506 193.865C99.7158 192.415 95.6558 191.275 92.2958 190.305L84.5758 188.075L82.5758 187.485L81.8258 187.335Z" fill="#BAC8FF"/>
<path d="M21.2758 176.925L61.2758 178.325C61.4188 178.324 61.5604 178.354 61.6911 178.412C61.8217 178.47 61.9384 178.555 62.0331 178.663C62.1279 178.77 62.1986 178.896 62.2405 179.033C62.2823 179.169 62.2944 179.314 62.2758 179.455L56.5158 227.455H65.5158L70.1758 174.615C70.229 174.186 70.1916 173.75 70.0661 173.336C69.9407 172.921 69.7299 172.538 69.4473 172.21C69.1646 171.882 68.8165 171.617 68.4253 171.432C68.0341 171.247 67.6085 171.146 67.1758 171.135L20.1758 169.445L21.2758 176.925Z" fill="#BAC8FF"/>
<path d="M93.9658 173.425H100.246V174.845L87.3658 306.775H80.9258L93.9658 173.425Z" fill="#BAC8FF"/>
<path d="M93.9646 173.425C93.9646 173.425 93.9646 173.665 93.9646 174.125C93.9646 174.585 93.8546 175.255 93.7746 176.125C93.6146 177.895 93.3646 180.505 93.0446 183.855C92.4046 190.565 91.4746 200.275 90.3146 212.315C87.9846 236.315 84.7446 269.665 81.1446 306.775L80.9746 306.585H87.4146L87.2346 306.745C93.3446 244.745 98.5146 192.265 100.235 174.835C100.235 174.175 100.235 173.835 100.235 173.415H95.5046H100.265V173.465C100.265 173.835 100.265 174.225 100.265 174.885C98.5746 192.325 93.5046 244.835 87.5046 306.815V306.975H80.7246V306.785C84.3846 269.635 87.7246 236.285 90.0546 212.205C91.2446 200.205 92.2146 190.505 92.8846 183.805C93.2246 180.465 93.4846 177.875 93.6646 176.115C93.7546 175.245 93.8246 174.585 93.8646 174.115C93.9046 173.645 93.9646 173.425 93.9646 173.425Z" fill="#0C1641"/>
</g>
<path d="M87.5389 56.5371L87.5389 56.5368L87.5302 56.5359C82.5883 56.0058 78.5077 57.6932 75.5673 60.7536C72.6303 63.8104 70.8373 68.2297 70.4448 73.1613L69.7426 79.8713C69.0157 79.589 67.6466 79.184 66.322 79.4393C65.5927 79.5799 64.8753 79.9212 64.2905 80.592C63.7069 81.2615 63.2649 82.2483 63.0648 83.6641C62.8512 85.1756 63.0464 86.3255 63.4864 87.1954C63.9264 88.0654 64.6047 88.6416 65.3333 89.0173C66.0605 89.3921 66.8399 89.5684 67.4914 89.6407C67.999 89.6969 68.4361 89.6907 68.7178 89.6629L66.555 110.329C66.2195 113.494 66.1282 117.462 67.3931 120.718C68.0268 122.349 69.0023 123.806 70.4607 124.892C71.9194 125.978 73.8514 126.686 76.3854 126.835L76.3854 126.835L76.3968 126.835C80.8304 126.759 83.8253 124.696 85.7843 121.913C87.7391 119.136 88.6618 115.646 88.9734 112.701L88.9734 112.7L89.0242 112.209C89.2664 109.871 89.465 107.953 89.5345 107.414C89.6057 107.412 89.7042 107.408 89.8268 107.401C90.0953 107.386 90.4796 107.354 90.9456 107.285C91.8771 107.149 93.1376 106.869 94.4518 106.295C97.0846 105.145 99.9312 102.811 100.772 98.1014C101.583 93.6029 102.484 84.2054 103.204 75.7079C103.586 71.2615 102.279 66.8342 99.5425 63.3089C96.8059 59.7835 92.8412 57.4191 88.4388 56.687L87.5389 56.5371Z" fill="white" stroke="#0C1641" stroke-width="0.3"/>
<path d="M212.865 169.135H78.875V174.815H212.865V169.135Z" fill="#BAC8FF"/>
<path d="M198.604 174.815C198.604 174.915 171.894 174.995 138.964 174.995C106.034 174.995 79.3145 174.915 79.3145 174.815C79.3145 174.715 106.014 174.645 138.964 174.645C171.914 174.645 198.604 174.725 198.604 174.815Z" fill="#0C1641"/>
<path d="M70.5952 73.175L66.7052 110.345C66.0352 116.665 66.3552 126.095 76.3952 126.685C85.1552 126.535 88.2052 118.545 88.8252 112.685C89.1152 109.885 89.3552 107.555 89.4052 107.265C89.4052 107.265 98.9652 107.375 100.625 98.075C101.435 93.585 102.335 84.195 103.055 75.695C103.435 71.2862 102.138 66.8964 99.425 63.4008C96.7116 59.9053 92.7803 57.5608 88.4152 56.835L87.5152 56.685C77.7252 55.635 71.3752 63.365 70.5952 73.175Z" fill="white"/>
<path d="M89.405 107.245C85.1049 106.52 81.1031 104.577 77.875 101.645C77.875 101.645 79.705 108.945 89.135 109.645L89.405 107.245Z" fill="#FCE5EC"/>
<path d="M86.6855 78.0153C86.4855 78.1853 85.4755 77.2153 83.9155 77.0153C82.3555 76.8153 81.1055 77.4853 80.9155 77.2653C80.7255 77.0453 81.0755 76.8453 81.6155 76.5353C82.3491 76.1388 83.1882 75.9815 84.0155 76.0853C84.8291 76.171 85.5918 76.5224 86.1855 77.0853C86.6655 77.5653 86.8255 77.9453 86.6855 78.0153Z" fill="#0C1641"/>
<path d="M86.5257 81.615C86.4761 81.9437 86.2997 82.2399 86.0342 82.4399C85.7687 82.64 85.4353 82.728 85.1057 82.685C84.9434 82.6713 84.7855 82.6252 84.6412 82.5495C84.497 82.4738 84.3694 82.37 84.2659 82.2441C84.1625 82.1183 84.0853 81.9731 84.0388 81.8169C83.9924 81.6608 83.9778 81.4969 83.9957 81.335C84.043 81.0038 84.2181 80.7042 84.4835 80.5005C84.7489 80.2968 85.0835 80.2051 85.4157 80.245C85.5799 80.2585 85.7397 80.3052 85.8854 80.3822C86.0311 80.4591 86.1597 80.5648 86.2634 80.6929C86.3671 80.8209 86.4438 80.9686 86.4889 81.1271C86.534 81.2856 86.5465 81.4516 86.5257 81.615Z" fill="#0C1641"/>
<path d="M89.6055 89.2951C90.4027 89.2016 91.2082 89.2016 92.0055 89.2951C92.3755 89.2951 92.7355 89.2951 92.8355 89.0651C92.9497 88.6897 92.9462 88.2884 92.8255 87.9151C92.6255 86.9151 92.4255 85.9851 92.2055 84.9151C91.3655 80.7051 90.8155 77.2651 90.9855 77.2351C91.1555 77.2051 91.9855 80.5951 92.8255 84.8051C93.0155 85.8051 93.2155 86.8051 93.3955 87.8051C93.5593 88.2814 93.5593 88.7988 93.3955 89.2751C93.317 89.3911 93.215 89.4893 93.0961 89.5634C92.9773 89.6374 92.8442 89.6857 92.7055 89.7051C92.4929 89.7313 92.278 89.7313 92.0655 89.7051C91.2304 89.6832 90.4025 89.5452 89.6055 89.2951Z" fill="#0C1641"/>
<path d="M86.564 72.0551C86.374 72.3851 85.144 72.0551 83.634 71.9451C82.124 71.8351 80.854 72.1051 80.714 71.7551C80.644 71.5851 80.914 71.2851 81.454 71.0251C82.1628 70.706 82.9379 70.562 83.714 70.6051C84.4864 70.638 85.2387 70.8613 85.904 71.2551C86.414 71.5751 86.644 71.8951 86.564 72.0551Z" fill="#0C1641"/>
<path d="M101.205 76.3354C101.015 76.6054 99.815 76.1754 98.335 75.9954C96.855 75.8154 95.605 75.8854 95.475 75.5754C95.415 75.4354 95.685 75.1954 96.225 75.0254C96.9475 74.8085 97.709 74.7538 98.455 74.8654C99.2095 74.9518 99.9362 75.2009 100.585 75.5954C101.075 75.9154 101.285 76.2454 101.205 76.3354Z" fill="#0C1641"/>
<path d="M70.2143 80.2451C70.0643 80.1451 64.1243 77.2451 63.2143 83.6851C62.3043 90.1251 68.9643 89.6251 69.0043 89.4451C69.0443 89.2651 70.2143 80.2451 70.2143 80.2451Z" fill="white"/>
<path d="M67.4259 86.7151C67.4259 86.7151 67.2959 86.7751 67.0959 86.8351C66.8177 86.9101 66.5215 86.878 66.2659 86.7451C65.8795 86.4315 65.5833 86.0209 65.4076 85.5553C65.2319 85.0897 65.183 84.5858 65.2659 84.0951C65.3322 83.5394 65.5237 83.0061 65.8259 82.5351C65.9159 82.3369 66.055 82.1649 66.2299 82.0354C66.4049 81.906 66.61 81.8232 66.8259 81.7951C66.9583 81.7789 67.0923 81.8088 67.2052 81.8798C67.3182 81.9509 67.4032 82.0587 67.4459 82.1851C67.5059 82.3751 67.4459 82.5051 67.4459 82.5151C67.4459 82.5251 67.5959 82.4251 67.5759 82.1551C67.5639 81.9922 67.4928 81.8393 67.3759 81.7251C67.299 81.6464 67.2073 81.5838 67.106 81.5409C67.0047 81.4979 66.8959 81.4756 66.7859 81.4751C66.5151 81.4909 66.253 81.5765 66.0252 81.7238C65.7974 81.871 65.6116 82.0747 65.4859 82.3151C65.1273 82.8289 64.9007 83.423 64.8259 84.0451C64.7146 84.6137 64.7749 85.2026 64.9993 85.7369C65.2237 86.2711 65.6019 86.7265 66.0859 87.0451C66.2422 87.119 66.413 87.1573 66.5859 87.1573C66.7588 87.1573 66.9296 87.119 67.0859 87.0451C67.3859 86.8651 67.4459 86.7251 67.4259 86.7151Z" fill="#FCE5EC"/>
<path d="M87.6848 93.605C87.7648 93.455 86.5448 92.955 85.7648 91.695C85.4443 91.1433 85.1988 90.5515 85.0348 89.935C84.8848 89.455 84.7747 89.145 84.7047 89.165C84.6347 89.185 84.6247 89.495 84.7047 90.015C84.7713 90.7228 84.9969 91.4065 85.3648 92.015C85.7245 92.5878 86.2279 93.0567 86.8248 93.375C87.3348 93.615 87.6648 93.665 87.6848 93.605Z" fill="#0C1641"/>
<path d="M62.6254 69.0054C64.1754 66.8554 64.7354 64.1854 65.7054 61.7254C66.6754 59.2654 68.3154 56.7754 70.8754 56.1154H70.9354C73.2354 55.4254 75.9354 55.6654 77.6754 57.3854C78.4354 54.0854 81.6054 51.7054 84.9454 51.1554C88.8991 50.7618 92.8853 51.4533 96.4754 53.1554C98.8054 54.3554 100.955 56.5654 103.475 59.7554C104.562 61.0992 105.535 62.5308 106.385 64.0354L108.385 73.0354L105.535 77.4054C105.355 77.7054 105.175 77.9954 104.965 78.2954L101.885 87.7754C101.995 85.1254 103.025 75.9654 103.135 73.3154C101.164 73.0667 99.2632 72.4242 97.5453 71.4261C95.8274 70.428 94.3277 69.0947 93.1354 67.5054C91.8454 65.7754 90.8954 63.6654 89.0554 62.5054C86.6854 61.0454 83.6454 61.6654 80.9354 62.3354L81.0554 62.2454C79.632 62.7567 78.3188 63.5338 77.1854 64.5354C77.2959 69.8013 76.2727 75.0295 74.1854 79.8654C73.8754 80.5854 73.0554 82.0654 72.2954 82.2854C70.8254 82.7254 70.5854 81.2454 69.8254 80.3654C69.1074 79.7626 68.1924 79.4458 67.2554 79.4754C66.7362 77.2241 66.3555 74.9432 66.1154 72.6454C65.2154 72.8306 64.2848 72.8067 63.3954 72.5754C63.7354 71.9354 64.0754 71.3054 64.3954 70.6654C64.027 70.883 63.6192 71.0257 63.1954 71.0854C62.9812 71.1152 62.7631 71.0748 62.5738 70.9703C62.3845 70.8657 62.2342 70.7026 62.1454 70.5054C61.9154 69.9854 62.3054 69.4554 62.6254 69.0054Z" fill="#0C1641"/>
<path d="M80.5242 58.7554C80.1719 58.9901 79.8376 59.2508 79.5242 59.5354C78.6954 60.3671 78.0989 61.4014 77.7942 62.5354C77.5623 63.3047 77.4082 64.0953 77.3342 64.8954C77.2542 65.7554 77.2342 66.6854 77.2142 67.6654C77.206 68.6953 77.1358 69.7238 77.0042 70.7454C76.9238 71.2877 76.8001 71.8228 76.6342 72.3454C76.5021 72.9092 76.2266 73.4294 75.8342 73.8554C75.6533 74.0232 75.4322 74.1416 75.1923 74.1994C74.9524 74.2572 74.7017 74.2524 74.4642 74.1854C74.0134 74.054 73.6192 73.776 73.3442 73.3954C72.8998 72.6512 72.6617 71.8021 72.6542 70.9354H72.8542C72.504 71.6145 72.0596 72.2407 71.5342 72.7954C71.0199 73.3001 70.3345 73.5928 69.6142 73.6154C69.2622 73.632 68.9135 73.5413 68.6142 73.3554C68.3506 73.1851 68.1422 72.9419 68.0142 72.6554C67.9022 72.387 67.8608 72.0943 67.8942 71.8054C67.9325 71.5361 68.0633 71.2886 68.2642 71.1054L68.3542 71.1954C67.7381 71.7837 67.0058 72.2368 66.2042 72.5254C65.9923 72.6015 65.7751 72.6616 65.5542 72.7054H65.3242L65.5442 72.6354C65.6942 72.6354 65.9042 72.5254 66.1742 72.4154C66.9548 72.111 67.6658 71.6518 68.2642 71.0654L68.3542 71.1654C68.1816 71.3463 68.0703 71.5769 68.0362 71.8247C68.0021 72.0724 68.0469 72.3246 68.1642 72.5454C68.2748 72.8061 68.4634 73.0262 68.7042 73.1754C68.964 73.3294 69.2624 73.4057 69.5642 73.3954C70.2361 73.3752 70.874 73.0957 71.3442 72.6154C71.8515 72.0696 72.2821 71.4573 72.6242 70.7954L72.7842 70.5054V70.8354C72.7988 71.6881 73.0442 72.5209 73.4942 73.2454C73.7435 73.5802 74.0942 73.8257 74.4942 73.9454C74.6941 74.0073 74.9069 74.0149 75.1108 73.9675C75.3146 73.92 75.5022 73.8192 75.6542 73.6754C76.0238 73.2702 76.2852 72.7784 76.4142 72.2454C76.5688 71.7312 76.6858 71.2065 76.7642 70.6754C76.8979 69.6605 76.9747 68.6389 76.9942 67.6154C76.9942 66.6154 76.9942 65.7054 77.1342 64.8354C77.2179 64.0244 77.382 63.2238 77.6242 62.4454C77.9541 61.3016 78.5822 60.2662 79.4442 59.4454C79.7627 59.156 80.1278 58.9227 80.5242 58.7554Z" fill="#BAC8FF"/>
<path d="M108.676 70.555L108.596 70.615L108.346 70.755C108.213 70.8406 108.072 70.9143 107.926 70.975C107.732 71.0732 107.532 71.1568 107.326 71.225C106.016 71.6798 104.614 71.8001 103.246 71.5751C101.226 71.2434 99.3445 70.3374 97.8259 68.9651C95.9862 67.2787 94.5066 65.2378 93.4759 62.9651C92.9059 61.7651 92.4759 60.555 91.9459 59.425C91.4832 58.327 90.867 57.3001 90.1159 56.3751C89.432 55.5473 88.5568 54.8986 87.5659 54.4851C86.6978 54.13 85.7425 54.0463 84.8259 54.245C84.0751 54.4258 83.3723 54.7669 82.7659 55.245C82.3038 55.6058 81.9021 56.0379 81.5759 56.525C81.3206 56.9532 81.1159 57.4096 80.9659 57.885C80.9619 57.8518 80.9619 57.8183 80.9659 57.7851C80.9659 57.7151 80.9659 57.615 81.0359 57.505C81.1482 57.156 81.2992 56.8206 81.4859 56.505C81.8032 56.0026 82.202 55.5565 82.6659 55.185C83.2869 54.7063 84.0028 54.3654 84.7659 54.185C85.2127 54.0683 85.6743 54.0178 86.1359 54.0351C86.638 54.0542 87.1341 54.152 87.6059 54.3251C88.6253 54.7372 89.5258 55.3971 90.2259 56.245C90.9877 57.1517 91.6173 58.1618 92.0959 59.245C92.6159 60.385 93.0959 61.5951 93.6359 62.7851C94.6516 65.0485 96.1063 67.0879 97.9159 68.7851C99.4183 70.1467 101.278 71.052 103.276 71.3951C104.612 71.622 105.984 71.526 107.276 71.115C107.752 70.9537 108.22 70.7667 108.676 70.555Z" fill="#BAC8FF"/>
<path d="M100.944 79.925C100.734 80.105 99.7343 79.135 98.1643 78.925C96.5943 78.715 95.3643 79.395 95.1643 79.185C94.9643 78.975 95.3143 78.755 95.8643 78.445C96.5949 78.0505 97.4302 77.8933 98.2543 77.995C99.0697 78.0849 99.8342 78.4356 100.434 78.995C100.914 79.485 101.034 79.855 100.944 79.925Z" fill="#0C1641"/>
<path d="M99.6148 82.8354C99.5605 83.1638 99.3814 83.4585 99.1149 83.6579C98.8484 83.8573 98.5151 83.946 98.1848 83.9054C98.0229 83.8904 97.8657 83.8434 97.7221 83.7673C97.5785 83.6912 97.4515 83.5873 97.3483 83.4618C97.2451 83.3363 97.1678 83.1915 97.1208 83.036C97.0739 82.8804 97.0582 82.717 97.0748 82.5554C97.1267 82.2258 97.3052 81.9296 97.5723 81.7298C97.8394 81.5299 98.174 81.4422 98.5048 81.4854C98.6671 81.4991 98.825 81.5451 98.9692 81.6209C99.1135 81.6966 99.2411 81.8004 99.3445 81.9262C99.448 82.052 99.5252 82.1973 99.5716 82.3535C99.618 82.5096 99.6327 82.6735 99.6148 82.8354Z" fill="#0C1641"/>
<path d="M105.755 62.8853C106.049 63.488 106.49 64.0072 107.037 64.3951C107.584 64.783 108.219 65.0272 108.885 65.1053C109.371 65.0552 109.853 64.9682 110.325 64.8453C110.755 65.1753 110.485 66.7253 110.125 67.1253C109.788 67.4619 109.424 67.7696 109.035 68.0453C110.485 69.0453 111.925 68.7753 113.635 68.3453C113.325 69.728 112.658 71.0051 111.7 72.0492C110.742 73.0933 109.526 73.8678 108.175 74.2953C107.757 74.465 107.304 74.5335 106.854 74.4953C106.404 74.457 105.969 74.3131 105.585 74.0753C105.026 73.4996 104.698 72.7375 104.665 71.9353C104.222 69.0501 104.138 66.1211 104.415 63.2153L105.755 62.8853Z" fill="#0C1641"/>
<path d="M152.872 153.638L152.858 153.635H152.844C152.668 153.635 152.461 153.726 152.249 153.852C152.03 153.983 151.782 154.168 151.519 154.386C150.991 154.824 150.388 155.411 149.812 156.009C149.234 156.607 148.681 157.22 148.254 157.711C147.858 158.167 147.562 158.528 147.458 158.675L147.434 158.69C147.402 158.711 147.355 158.742 147.295 158.782C147.175 158.861 147.003 158.976 146.796 159.119C146.382 159.406 145.825 159.807 145.258 160.263C144.691 160.72 144.11 161.234 143.648 161.748C143.19 162.256 142.83 162.784 142.737 163.267C142.644 163.75 142.765 164.231 142.985 164.67C143.205 165.11 143.529 165.52 143.858 165.868C144.188 166.217 144.528 166.51 144.785 166.714C144.914 166.817 145.022 166.898 145.098 166.953C145.137 166.981 145.167 167.002 145.188 167.017L145.212 167.033L145.218 167.038L145.22 167.039L145.22 167.039L145.221 167.039C145.221 167.04 145.221 167.04 145.304 166.915L145.221 167.04L145.259 167.065H145.304H159.784H159.832L159.871 167.038L159.784 166.915L159.871 167.038L159.871 167.038L159.872 167.037L159.873 167.036L159.879 167.032L159.901 167.016C159.92 167.003 159.948 166.982 159.983 166.956C160.055 166.904 160.156 166.829 160.278 166.735C160.522 166.547 160.85 166.286 161.183 165.991C161.515 165.697 161.855 165.366 162.124 165.04C162.387 164.72 162.599 164.383 162.643 164.077C162.737 163.466 162.738 162.845 162.644 162.234V159.965C162.644 159.761 162.566 159.532 162.445 159.295C162.322 159.055 162.148 158.794 161.94 158.523C161.524 157.98 160.962 157.386 160.374 156.827C159.786 156.267 159.17 155.74 158.642 155.332C158.378 155.129 158.135 154.954 157.928 154.82C157.724 154.688 157.545 154.588 157.413 154.543L157.401 154.539L157.388 154.537C156.626 154.414 155.846 154.511 155.138 154.816C154.518 154.206 153.729 153.795 152.872 153.638Z" fill="white" stroke="#0C1641" stroke-width="0.3"/>
<path d="M155.105 155.015C155.423 155.157 155.728 155.328 156.015 155.525L158.405 157.035C158.681 157.196 158.945 157.376 159.195 157.575C159.467 157.817 159.667 158.128 159.775 158.475C159.871 158.841 159.918 159.217 159.915 159.595L159.975 160.745C160.045 162.325 160.135 164.065 160.215 165.875C160.215 166.155 160.215 166.425 160.215 166.695V166.845H160.075L159.185 167.065C158.769 167.049 158.369 166.898 158.045 166.635C157.751 166.388 157.504 166.09 157.315 165.755C156.978 165.144 156.723 164.492 156.555 163.815C156.276 162.674 156.108 161.509 156.055 160.335L156.135 160.445C155.135 160.035 154.265 159.695 153.605 159.445C153.295 159.332 152.994 159.195 152.705 159.035C153.045 159.101 153.38 159.195 153.705 159.315L156.275 160.215H156.345V160.305C156.421 161.457 156.605 162.598 156.895 163.715C157.066 164.361 157.318 164.983 157.645 165.565C157.791 165.872 158.012 166.137 158.289 166.335C158.565 166.533 158.887 166.657 159.225 166.695L160.105 166.475L159.975 166.655C159.975 166.385 159.975 166.105 159.975 165.835C159.905 164.015 159.825 162.285 159.755 160.705C159.755 160.305 159.755 159.925 159.755 159.545C159.762 159.209 159.729 158.873 159.655 158.545C159.56 158.245 159.392 157.974 159.165 157.755C158.926 157.564 158.675 157.387 158.415 157.225L156.085 155.615C155.74 155.447 155.411 155.247 155.105 155.015Z" fill="#0C1641"/>
<path d="M145.305 166.415C145.632 166.336 145.968 166.293 146.305 166.285L148.945 166.065C149.935 166.297 150.936 166.477 151.945 166.605C152.505 166.675 153.085 166.725 153.685 166.745C153.967 166.791 154.257 166.774 154.532 166.694C154.807 166.615 155.06 166.475 155.275 166.285C155.456 166.029 155.544 165.718 155.525 165.405C155.525 165.075 155.475 164.745 155.475 164.405C155.429 164.12 155.288 163.859 155.075 163.665C154.864 163.449 154.621 163.266 154.355 163.125C153.398 162.64 152.32 162.449 151.255 162.575C150.88 162.604 150.505 162.544 150.158 162.402C149.81 162.26 149.501 162.038 149.255 161.755C148.935 161.305 148.965 160.975 148.985 160.975C149.067 161.225 149.192 161.458 149.355 161.665C149.608 161.916 149.916 162.106 150.254 162.22C150.591 162.334 150.951 162.37 151.305 162.325C152.419 162.165 153.556 162.346 154.565 162.845C154.858 162.998 155.128 163.194 155.365 163.425C155.646 163.687 155.824 164.042 155.865 164.425C155.865 164.735 155.935 165.085 155.925 165.425C155.945 165.817 155.832 166.205 155.605 166.525C155.37 166.798 155.049 166.981 154.695 167.045C154.365 167.107 154.029 167.127 153.695 167.105C153.102 167.084 152.511 167.031 151.925 166.945C150.915 166.799 149.913 166.599 148.925 166.345L146.285 166.435C145.958 166.459 145.63 166.452 145.305 166.415Z" fill="#0C1641"/>
<path d="M160.064 166.345C160.399 165.448 160.79 164.573 161.234 163.725C161.575 162.822 162.021 161.963 162.564 161.165C162.341 162.102 162.005 163.008 161.564 163.865C161.22 164.776 160.711 165.617 160.064 166.345Z" fill="#0C1641"/>
<path d="M128.655 169.405L180.885 170.095L197.705 122.945C197.882 122.478 197.878 121.96 197.693 121.496C197.507 121.031 197.155 120.653 196.705 120.435C196.457 120.328 196.191 120.273 195.921 120.272C195.651 120.27 195.384 120.324 195.136 120.428C194.887 120.533 194.663 120.687 194.475 120.88C194.288 121.074 194.141 121.304 194.045 121.555L177.425 166.245L128.645 166.735C128.288 166.738 127.948 166.881 127.697 167.134C127.446 167.387 127.305 167.729 127.305 168.085C127.313 168.438 127.458 168.774 127.711 169.021C127.963 169.267 128.302 169.405 128.655 169.405Z" fill="#0C1641"/>
<path d="M125.085 99.2453C124.481 100.237 124.016 101.307 123.705 102.425L120.555 103.075L120.465 108.395L123.585 109.155C123.865 110.283 124.292 111.369 124.855 112.385L123.095 115.075L126.785 118.895L129.535 117.225C130.528 117.829 131.597 118.296 132.715 118.615L133.365 121.755L138.685 121.855L139.445 118.725C140.573 118.453 141.66 118.029 142.675 117.465L145.355 119.225L149.185 115.525L147.515 112.785C148.114 111.79 148.582 110.721 148.905 109.605L152.045 108.945L152.135 103.635L149.015 102.865C148.743 101.738 148.316 100.654 147.745 99.6453L149.515 96.9553L145.825 93.1153L143.085 94.7753C142.092 94.1747 141.022 93.7106 139.905 93.3953L139.235 90.2453L133.925 90.1553L133.155 93.2453C132.031 93.526 130.948 93.953 129.935 94.5153L127.245 92.7553L123.425 96.4453L125.085 99.2453ZM132.165 102.075C132.976 101.294 134.001 100.77 135.11 100.57C136.219 100.371 137.362 100.504 138.395 100.954C139.428 101.404 140.305 102.15 140.914 103.098C141.524 104.045 141.838 105.152 141.819 106.279C141.799 107.406 141.446 108.501 140.804 109.427C140.163 110.353 139.261 111.068 138.213 111.482C137.165 111.896 136.017 111.989 134.916 111.752C133.815 111.514 132.809 110.955 132.025 110.145C131.503 109.605 131.092 108.967 130.817 108.268C130.541 107.569 130.406 106.823 130.419 106.071C130.432 105.32 130.593 104.579 130.892 103.89C131.192 103.2 131.624 102.577 132.165 102.055V102.075Z" fill="#BAC8FF"/>
<path d="M132.166 102.055C131.8 102.355 131.486 102.713 131.236 103.115C130.633 104.046 130.312 105.131 130.312 106.24C130.312 107.349 130.633 108.434 131.236 109.365C131.814 110.222 132.607 110.911 133.536 111.365C134.041 111.616 134.58 111.791 135.136 111.885C135.719 111.98 136.313 111.98 136.896 111.885C138.136 111.728 139.292 111.175 140.193 110.308C141.093 109.442 141.691 108.308 141.896 107.075C141.986 106.492 141.986 105.898 141.896 105.315C141.823 104.754 141.665 104.208 141.426 103.695C141.026 102.806 140.409 102.032 139.631 101.445C138.853 100.858 137.94 100.476 136.976 100.335C135.677 100.146 134.352 100.411 133.226 101.085C132.814 101.32 132.442 101.621 132.126 101.975C132.126 101.975 132.506 101.635 133.286 101.195C134.399 100.585 135.683 100.364 136.936 100.565C137.853 100.715 138.72 101.09 139.456 101.657C140.193 102.225 140.777 102.966 141.156 103.815C141.376 104.304 141.521 104.823 141.586 105.355C141.671 105.905 141.671 106.465 141.586 107.015C141.389 108.177 140.826 109.245 139.978 110.064C139.131 110.883 138.044 111.409 136.876 111.565C136.326 111.655 135.765 111.655 135.216 111.565C134.688 111.481 134.176 111.319 133.696 111.085C132.857 110.68 132.133 110.072 131.59 109.315C131.047 108.559 130.702 107.679 130.586 106.755C130.425 105.494 130.693 104.216 131.346 103.125C131.826 102.415 132.196 102.085 132.166 102.055Z" fill="#BAC8FF"/>
<path d="M125.085 99.2452C125.061 99.1826 125.031 99.1223 124.995 99.0652L124.685 98.5452L123.465 96.4752V96.5352L127.315 92.8652H127.215L129.885 94.6352H129.935C130.945 94.0806 132.025 93.6635 133.145 93.3952H133.205V93.3352L133.975 90.2152L133.865 90.3052L139.175 90.4052L139.055 90.3052C139.255 91.3052 139.475 92.3052 139.705 93.4552V93.5352H139.785C140.889 93.8492 141.945 94.31 142.925 94.9052H143.005H143.075L145.895 93.2452H145.715L149.405 97.0752V96.8852L147.635 99.5652V99.6452V99.7252C148.167 100.723 148.567 101.785 148.825 102.885V102.975H148.925L152.045 103.735L151.915 103.575C151.915 105.265 151.855 107.065 151.825 108.895L151.955 108.735L148.805 109.395H148.715V109.485C148.398 110.585 147.941 111.641 147.355 112.625L147.305 112.715L147.355 112.795L149.025 115.545V115.345C147.725 116.585 146.455 117.825 145.195 119.035H145.395L142.715 117.275H142.625H142.545C141.545 117.829 140.476 118.25 139.365 118.525H139.265V118.625C139.005 119.625 138.755 120.715 138.505 121.745L138.655 121.625L133.345 121.535L133.485 121.655C133.265 120.585 133.045 119.545 132.825 118.515V118.425H132.745C131.638 118.119 130.578 117.661 129.595 117.065H129.525H129.455L126.705 118.735H126.875L123.175 114.915V115.065L124.935 112.375V112.315V112.255C124.374 111.254 123.95 110.18 123.675 109.065V108.995H123.615L120.485 108.235L120.565 108.335C120.565 106.275 120.615 104.525 120.635 103.015L120.575 103.085L123.715 102.415C123.947 101.576 124.261 100.762 124.655 99.9852L124.945 99.4152C125.025 99.2852 125.055 99.2252 125.045 99.2252L124.925 99.4052C124.855 99.5252 124.735 99.7052 124.605 99.9652C124.187 100.734 123.852 101.545 123.605 102.385L120.455 103.015H120.395V103.075C120.395 104.575 120.325 106.335 120.275 108.395V108.465H120.355L123.475 109.245L123.395 109.165C123.67 110.304 124.097 111.401 124.665 112.425V112.295L122.895 114.985V115.065L122.965 115.135L126.645 118.965L126.725 119.045H126.815L129.565 117.385H129.425C130.429 117.992 131.508 118.463 132.635 118.785L132.525 118.675C132.745 119.675 132.955 120.745 133.175 121.815V121.935H133.295L138.615 122.035H138.825V121.915L139.595 118.795L139.475 118.915C140.616 118.631 141.715 118.201 142.745 117.635H142.575L145.265 119.395L145.365 119.465L145.465 119.375L149.285 115.685L149.385 115.595L149.315 115.485L147.645 112.735V112.905C148.251 111.899 148.718 110.816 149.035 109.685L148.915 109.805L152.055 109.145H152.185V109.015C152.185 107.185 152.255 105.375 152.275 103.695V103.565H152.145L149.025 102.805L149.145 102.915C148.863 101.776 148.429 100.679 147.855 99.6552V99.8152C148.465 98.8852 149.075 97.9652 149.615 97.1252L149.685 97.0252L149.605 96.9452L145.905 93.1252L145.825 93.0352L145.725 93.0952L142.975 94.7652H143.125C142.132 94.1168 141.056 93.6055 139.925 93.2452L140.025 93.3452C139.825 92.2452 139.565 91.2452 139.365 90.2452V90.1452H139.265L133.945 90.0552H133.825V90.1452C133.565 91.2452 133.305 92.2952 133.075 93.2752L133.155 93.1952C132.019 93.4784 130.926 93.9122 129.905 94.4852H130.005L127.315 92.7352H127.255L123.455 96.4452L124.715 98.4452L125.045 98.9652L125.085 99.2452Z" fill="#BAC8FF"/>
<path d="M128.685 14.2452C128.305 14.9136 128.016 15.63 127.825 16.3752L125.755 16.8052L125.695 20.3052L127.755 20.8052C127.934 21.5465 128.213 22.2598 128.585 22.9252L127.425 24.6952L129.825 27.2452L131.635 26.1552C132.287 26.5508 132.99 26.8537 133.725 27.0552L134.155 29.1252L137.645 29.1852L138.145 27.1852C138.888 27.0023 139.604 26.7233 140.275 26.3552L142.035 27.5152L144.555 25.0852L143.455 23.2752C143.85 22.6219 144.156 21.9191 144.365 21.1852L146.435 20.7552L146.495 17.2652L144.445 16.7552C144.262 16.0141 143.979 15.301 143.605 14.6352L144.765 12.8752L142.315 10.2452L140.515 11.3452C139.863 10.9482 139.16 10.642 138.425 10.4352L137.995 8.3852L134.495 8.3252L133.995 10.3752C133.255 10.5581 132.543 10.8372 131.875 11.2052L130.105 10.0552L127.595 12.4752L128.685 14.2452ZM133.345 16.1052C133.88 15.5918 134.555 15.2484 135.284 15.1183C136.014 14.9882 136.766 15.0772 137.445 15.3742C138.124 15.6712 138.7 16.1628 139.1 16.7869C139.5 17.411 139.706 18.1396 139.692 18.8807C139.678 19.6217 139.445 20.3421 139.022 20.9507C138.599 21.5593 138.005 22.0288 137.315 22.3C136.625 22.5712 135.87 22.6319 135.146 22.4744C134.422 22.3169 133.76 21.9484 133.245 21.4152C132.565 20.7003 132.195 19.7461 132.213 18.7597C132.232 17.7732 132.639 16.8338 133.345 16.1452V16.1052Z" fill="#DBE4FF"/>
<path d="M133.344 16.145C133.101 16.3436 132.892 16.58 132.724 16.845C132.259 17.5723 132.058 18.4371 132.154 19.295C132.215 19.8877 132.417 20.457 132.744 20.955C133.12 21.5301 133.641 21.9958 134.254 22.305C134.571 22.462 134.907 22.5763 135.254 22.645C135.639 22.7001 136.03 22.7001 136.414 22.645C137.219 22.5386 137.972 22.1898 138.574 21.645C139.165 21.0725 139.557 20.3262 139.694 19.515C139.754 19.134 139.754 18.746 139.694 18.365C139.677 17.981 139.596 17.6025 139.454 17.245C139.169 16.6205 138.724 16.0824 138.164 15.685C137.676 15.3423 137.114 15.1196 136.524 15.035C135.671 14.9124 134.802 15.0891 134.064 15.535C133.791 15.6836 133.548 15.88 133.344 16.115C133.588 15.9306 133.841 15.7603 134.104 15.605C134.836 15.2046 135.68 15.057 136.504 15.185C137.067 15.2801 137.601 15.5024 138.064 15.835C138.593 16.2152 139.011 16.7295 139.274 17.325C139.421 17.641 139.516 17.9787 139.554 18.325C139.614 18.6892 139.614 19.0608 139.554 19.425C139.423 20.1895 139.052 20.8925 138.495 21.432C137.938 21.9714 137.223 22.3192 136.454 22.425C135.74 22.5151 135.016 22.4006 134.364 22.095C133.777 21.808 133.276 21.3696 132.914 20.825C132.594 20.353 132.392 19.8112 132.324 19.245C132.219 18.418 132.395 17.5796 132.824 16.865C132.985 16.6159 133.158 16.3755 133.344 16.145Z" fill="#DBE4FF"/>
<path d="M128.686 14.2452L128.626 14.1252L128.426 13.7852C128.236 13.4652 127.966 13.0152 127.626 12.4252L130.156 10.0152H130.086L131.826 11.2452C132.49 10.8808 133.2 10.6051 133.936 10.4252L134.446 8.42518H134.366L137.866 8.49518L137.776 8.43518C137.916 9.07518 138.056 9.77518 138.206 10.5052C138.932 10.7174 139.628 11.0233 140.276 11.4152H140.326H140.376L142.176 10.3152H142.056L144.486 12.8352V12.7252L143.326 14.4952C143.694 15.1553 143.973 15.8615 144.156 16.5952V16.6552H144.216L146.276 17.1652L146.186 17.0552C146.186 18.1652 146.186 19.3552 146.126 20.5552L146.216 20.4552L144.146 20.8852H144.076V20.9452C143.866 21.668 143.564 22.3605 143.176 23.0052V23.0652C143.546 23.6652 143.906 24.2752 144.276 24.8652V24.7352L141.766 27.1652H141.896L140.126 26.0052H140.066C139.408 26.3698 138.706 26.6456 137.976 26.8252H137.916V26.8852C137.746 27.5752 137.586 28.2652 137.416 28.9352L137.516 28.8552L134.026 28.7952L134.116 28.8752C133.976 28.1752 133.826 27.4852 133.686 26.8152V26.9452H133.626C132.9 26.7397 132.204 26.4405 131.556 26.0552L129.746 27.1452H129.856L127.426 24.6352V24.7352C127.836 24.1152 128.216 23.5352 128.576 22.9652C128.204 22.3056 127.921 21.5994 127.736 20.8652L125.736 20.3652V20.4352C125.736 19.0752 125.736 17.9252 125.736 16.9352L127.826 16.4052C127.973 15.8523 128.178 15.3161 128.436 14.8052L128.636 14.4352L128.696 14.3052L128.616 14.4252C128.616 14.5052 128.496 14.6252 128.406 14.7952C128.133 15.3006 127.915 15.8336 127.756 16.3852L125.676 16.7952C125.676 17.7952 125.676 18.9352 125.596 20.2952L127.596 20.8052V20.7552C127.774 21.5027 128.054 22.2226 128.426 22.8952V22.8152C128.066 23.3752 127.676 23.9552 127.266 24.5752V24.6352C128.036 25.4352 128.836 26.2752 129.696 27.1552V27.2052H129.766L131.566 26.1152H131.476C132.135 26.5139 132.845 26.8233 133.586 27.0352L133.516 26.9552C133.656 27.6352 133.796 28.3252 133.946 29.0252V29.1052H134.016L137.516 29.1752H137.596V29.0952L138.106 27.0452L138.026 27.1152C138.776 26.9317 139.499 26.6492 140.176 26.2752H140.066L141.826 27.4252H141.896L141.966 27.3652L144.476 24.9452L144.536 24.8852V24.8052L143.436 23.0052V23.2452C143.832 22.582 144.138 21.8691 144.346 21.1252L144.266 21.2052L146.336 20.7752H146.416V20.6852C146.416 19.4852 146.416 18.2952 146.476 17.1952V17.0852H146.396L144.336 16.5852L144.416 16.6652C144.233 15.9127 143.947 15.1892 143.566 14.5152V14.6252L144.826 12.8352V12.7652H144.766L142.386 10.2452L142.336 10.1952H142.266L140.466 11.2452H140.566C139.902 10.8487 139.189 10.5395 138.446 10.3252L138.506 10.3952C138.356 9.67518 138.206 8.96518 138.076 8.32518V8.30518H138.006H134.506H134.446C134.266 9.02518 134.096 9.71518 133.946 10.3552H133.996C133.252 10.545 132.536 10.8308 131.866 11.2052H131.926L130.156 10.0552L127.656 12.4952L128.476 13.8252L128.696 14.1652L128.686 14.2452Z" fill="#DBE4FF"/>
<path d="M175.065 55.6651L170.745 54.6051C170.357 53.0475 169.765 51.5479 168.985 50.1451L171.435 46.3951L166.285 41.0551L162.475 43.3651C161.099 42.5379 159.62 41.8957 158.075 41.4551L157.155 37.0751L149.745 36.9351L148.605 41.2451C147.045 41.6348 145.542 42.2265 144.135 43.0051L140.395 40.5551L135.055 45.7051L137.365 49.5151C136.535 50.8896 135.892 52.3695 135.455 53.9151L131.075 54.8251L130.945 62.2451L135.275 63.3051C135.663 64.8626 136.255 66.3622 137.035 67.7651L134.585 71.5151L139.735 76.8551L143.545 74.5451C144.92 75.3758 146.4 76.0182 147.945 76.4551L148.855 80.8351L156.275 80.9651L157.335 76.6451C158.9 76.2816 160.409 75.7134 161.825 74.9551L165.575 77.4051L170.965 72.2451L168.655 68.4351C169.486 67.0605 170.128 65.5806 170.565 64.0351L174.945 63.1151L175.065 55.6651ZM168.905 50.1251C169.691 51.5321 170.283 53.0392 170.665 54.6051L174.985 55.6651L174.865 63.0151L170.485 63.9251C170.043 65.4767 169.398 66.963 168.565 68.3451L170.905 72.2451L165.605 77.3551L161.875 74.9051C160.468 75.6912 158.961 76.2832 157.395 76.6651L156.335 80.9851L148.975 80.8551L148.065 76.4851C146.513 76.0448 145.027 75.3991 143.645 74.5651L139.835 76.8651L134.725 71.5751L137.175 67.8451C136.389 66.438 135.797 64.931 135.415 63.3651L130.985 62.2451L131.115 54.8851L135.495 53.9751C135.937 52.4234 136.583 50.9372 137.415 49.5551L135.105 45.7451L140.405 40.6351L144.135 43.0851C145.542 42.2989 147.049 41.7069 148.615 41.3251L149.675 36.9951L157.025 37.1251L157.935 41.5051C159.487 41.9471 160.973 42.5927 162.355 43.4251L166.165 41.1151L171.275 46.4151L168.905 50.1251ZM160.725 59.2451C160.707 57.1799 159.871 55.2061 158.401 53.7556C156.931 52.305 154.946 51.4959 152.881 51.5051C150.815 51.5144 148.838 52.3413 147.381 53.8049C145.924 55.2686 145.106 57.2498 145.106 59.3151C145.106 61.3803 145.924 63.3615 147.381 64.8252C148.838 66.2888 150.815 67.1157 152.881 67.125C154.946 67.1342 156.931 66.3251 158.401 64.8746C159.871 63.424 160.707 61.4503 160.725 59.3851V59.2451ZM144.825 59.2451C144.827 57.4093 145.466 55.6312 146.635 54.2154C147.803 52.7996 149.428 51.8343 151.23 51.4849C153.032 51.1355 154.9 51.4239 156.513 52.3005C158.125 53.1771 159.383 54.5874 160.07 56.2897C160.757 57.9919 160.831 59.8802 160.279 61.6308C159.726 63.3814 158.582 64.8854 157.042 65.8849C155.503 66.8845 153.663 67.3174 151.839 67.1094C150.015 66.9014 148.321 66.0656 147.045 64.7451C145.62 63.2691 144.824 61.2969 144.825 59.2451Z" fill="#BAC8FF"/>
<path d="M147.244 53.5152C146.738 53.9363 146.302 54.436 145.954 54.9952C144.957 56.5275 144.522 58.3582 144.724 60.1752C144.866 61.5269 145.35 62.8201 146.13 63.9328C146.911 65.0456 147.962 65.9412 149.184 66.5352C149.887 66.8883 150.638 67.1344 151.414 67.2652C152.222 67.3954 153.046 67.3954 153.854 67.2652C155.577 67.0431 157.183 66.2714 158.434 65.0645C159.684 63.8576 160.511 62.2798 160.794 60.5652C160.929 59.7574 160.929 58.9329 160.794 58.1252C160.698 57.3466 160.482 56.5876 160.154 55.8752C159.556 54.5481 158.613 53.4052 157.424 52.5652C156.396 51.8635 155.218 51.4115 153.984 51.2452C152.2 50.974 150.377 51.3273 148.824 52.2452C148.249 52.5714 147.732 52.9904 147.294 53.4852C147.294 53.4852 147.824 53.0052 148.914 52.3952C150.463 51.5462 152.251 51.2399 153.994 51.5252C155.185 51.7145 156.315 52.1803 157.294 52.8852C158.406 53.7089 159.279 54.8132 159.824 56.0852C160.129 56.7608 160.328 57.4791 160.414 58.2152C160.527 58.9859 160.51 59.77 160.364 60.5352C160.09 62.149 159.307 63.6331 158.131 64.7716C156.955 65.9101 155.446 66.6435 153.824 66.8652C152.311 67.073 150.77 66.8295 149.394 66.1652C148.233 65.6012 147.231 64.7576 146.477 63.7103C145.723 62.6631 145.241 61.4449 145.074 60.1652C144.866 58.4272 145.239 56.6692 146.134 55.1652C146.754 54.0252 147.294 53.5552 147.244 53.5152Z" fill="#91A7FF"/>
<path d="M137.394 49.5754C137.357 49.4889 137.314 49.4053 137.264 49.3254L136.844 48.5954L135.134 45.7154V45.8054L140.494 40.6954H140.344L144.074 43.1554H144.144H144.214C145.616 42.3787 147.116 41.7935 148.674 41.4154H148.764V41.3254C149.094 39.9754 149.464 38.5054 149.834 36.9854L149.674 37.1054L157.074 37.2554L156.904 37.1154C157.184 38.4654 157.494 39.9654 157.804 41.4954V41.6054H157.914C159.452 42.0458 160.925 42.688 162.294 43.5154L162.394 43.5754L162.494 43.5154L166.354 41.2454H166.104L171.234 46.5754V46.3154L168.784 50.0554L168.714 50.1654L168.774 50.2754C169.55 51.6674 170.135 53.1574 170.514 54.7054V54.8354H170.644L174.994 55.8954L174.824 55.6754C174.774 58.0254 174.734 60.5354 174.684 63.0754L174.864 62.8554L170.484 63.7654H170.354V63.8954C169.919 65.4288 169.284 66.8981 168.464 68.2654L168.394 68.3854L168.464 68.5054L170.784 72.3254V72.0454L165.454 77.2454H165.734L161.994 74.7954L161.874 74.7254L161.764 74.7854C160.369 75.5641 158.876 76.1526 157.324 76.5354H157.194V76.6654L156.134 81.0154L156.354 80.8454L148.954 80.7254L149.154 80.8954C148.844 79.4054 148.534 77.8954 148.234 76.5154V76.3954H148.114C146.578 75.954 145.106 75.3153 143.734 74.4954L143.634 74.4354L143.534 74.4954L139.714 76.8154H139.944L134.794 71.5054V71.7254L137.244 67.9754L137.294 67.8954L137.244 67.8154C136.462 66.417 135.87 64.9204 135.484 63.3654V63.2754H135.394L131.044 62.2754L131.144 62.4054C131.144 59.5454 131.214 57.1054 131.244 55.0154L131.164 55.1054L135.534 54.1754H135.584C135.912 53.0109 136.347 51.8794 136.884 50.7954L137.304 50.0054C137.352 49.9178 137.396 49.8276 137.434 49.7354C137.371 49.8138 137.314 49.8974 137.264 49.9854C137.164 50.1554 137.004 50.4054 136.814 50.7654C136.242 51.8383 135.783 52.9677 135.444 54.1354L131.064 55.0154H130.984V55.0954C130.984 57.1854 130.884 59.6254 130.824 62.4954V62.6054H130.934L135.274 63.6854L135.164 63.5754C135.548 65.158 136.144 66.6817 136.934 68.1054V67.9454L134.474 71.6754L134.404 71.7854L134.494 71.8854L139.624 77.2254L139.734 77.3354L139.864 77.2554L143.684 74.9454H143.484C144.88 75.8052 146.383 76.4776 147.954 76.9454L147.804 76.7854C148.104 78.2254 148.404 79.6854 148.714 81.1654V81.3354H148.884L156.284 81.4754H156.454V81.3054C156.804 79.8754 157.164 78.4354 157.524 76.9654L157.364 77.1254C158.95 76.7371 160.477 76.1385 161.904 75.3454H161.674L165.414 77.7954L165.564 77.8954L165.694 77.7654L171.014 72.6354L171.144 72.5054L171.054 72.3454L168.824 68.2954V68.5354C169.664 67.1369 170.316 65.634 170.764 64.0654L170.594 64.2254L174.974 63.3154H175.144V63.1354C175.144 60.5854 175.224 58.0754 175.264 55.7354V55.5554H175.094L170.754 54.4954L170.914 54.6554C170.522 53.0692 169.92 51.5424 169.124 50.1154V50.2454L171.574 46.5054L171.664 46.3654L171.544 46.2454L166.404 40.9254L166.284 40.8154L166.154 40.8954L162.324 43.2454H162.524C161.13 42.3823 159.627 41.7097 158.054 41.2454L158.184 41.3854C157.864 39.8554 157.544 38.3854 157.264 37.0054V36.8654H157.124L149.724 36.7554H149.594V36.8754L148.484 41.2454L148.594 41.1354C147.016 41.5328 145.497 42.1346 144.074 42.9254H144.214L140.464 40.4854L140.384 40.4354L140.324 40.5054L135.024 45.6654L136.774 48.4854L137.234 49.2054C137.274 49.3343 137.327 49.4584 137.394 49.5754Z" fill="#91A7FF"/>
<path d="M64.8249 105.625L58.6349 108.245C52.8849 110.655 45.5249 116.245 43.0649 121.935C37.1449 135.705 45.6449 120.575 60.9249 124.705C69.6586 127.076 78.6395 128.419 87.6849 128.705L89.4049 122.015L89.3449 115.505L90.5849 109.965C90.5849 109.965 76.6449 104.365 66.4849 100.355L64.8249 105.625Z" fill="#5C7CFA"/>
<path d="M50.8259 134.395C50.8259 134.395 76.3459 169.135 80.3359 169.135H117.616V155.015L89.4159 148.365C89.4159 148.365 75.5359 119.635 72.4159 115.945C69.2959 112.255 61.1259 107.315 54.9859 112.845C48.8459 118.375 50.8259 134.395 50.8259 134.395Z" fill="#5C7CFA"/>
<path d="M117.574 156.375L123.684 155.885C123.684 155.885 123.814 153.615 125.144 152.815C126.474 152.015 126.344 150.285 127.144 150.415C127.587 150.502 128.042 150.502 128.484 150.415L133.544 146.155L137.814 143.355L141.144 142.685C141.144 142.685 143.144 143.215 141.144 145.085L139.014 146.285L137.144 148.155L141.414 146.055C141.611 145.961 141.826 145.912 142.044 145.912C142.262 145.912 142.478 145.961 142.674 146.055C143.824 146.555 144.92 147.172 145.944 147.895C146.034 147.981 146.106 148.084 146.155 148.198C146.204 148.313 146.229 148.436 146.229 148.56C146.229 148.684 146.204 148.807 146.155 148.922C146.106 149.036 146.034 149.139 145.944 149.225L147.814 150.825C147.814 150.825 148.214 152.965 146.084 152.425L144.344 152.025L142.084 154.245C142.084 154.245 149.814 152.645 150.344 152.915C150.555 153.052 150.728 153.24 150.848 153.461C150.967 153.682 151.03 153.929 151.03 154.18C151.03 154.431 150.967 154.679 150.848 154.899C150.728 155.12 150.555 155.308 150.344 155.445C149.144 156.515 144.484 156.245 143.414 157.315C142.344 158.385 135.294 164.815 133.564 165.215C131.834 165.615 117.564 169.095 117.564 169.095L117.574 156.375Z" fill="white" stroke="#0C1641" stroke-width="0.3"/>
<path d="M147.826 150.815C147.455 150.599 147.104 150.351 146.776 150.075C146.456 149.845 146.076 149.565 145.646 149.275C145.426 149.125 145.206 148.975 144.966 148.835C144.756 148.674 144.508 148.57 144.246 148.535C143.715 148.649 143.21 148.859 142.756 149.155C142.296 149.405 141.896 149.645 141.546 149.845C141.195 150.09 140.82 150.298 140.426 150.465C140.71 150.134 141.048 149.853 141.426 149.635C141.756 149.405 142.156 149.145 142.606 148.875C142.836 148.745 143.076 148.605 143.336 148.475C143.614 148.312 143.925 148.213 144.246 148.185C144.338 148.167 144.433 148.167 144.526 148.185C144.605 148.208 144.682 148.238 144.756 148.275L145.156 148.495L145.846 148.965C146.266 149.285 146.636 149.585 146.936 149.845C147.526 150.395 147.826 150.785 147.826 150.815Z" fill="#0C1641"/>
<path d="M129.085 149.905C129.145 149.985 128.505 150.535 127.775 151.245C127.045 151.955 126.425 152.555 126.355 152.485C126.635 151.911 127.033 151.403 127.525 150.995C127.946 150.507 128.482 150.132 129.085 149.905Z" fill="#0C1641"/>
<path d="M72.4544 115.945C72.9968 116.625 73.4881 117.343 73.9244 118.095C74.8144 119.555 76.0545 121.735 77.5445 124.555C80.5445 130.185 84.6945 138.355 89.5445 148.295L89.4544 148.215L117.654 154.845H117.784V169.275H80.6145C80.4613 169.285 80.3076 169.285 80.1545 169.275C79.9941 169.245 79.8391 169.191 79.6945 169.115C79.4231 168.982 79.1623 168.828 78.9144 168.655C78.4396 168.309 77.9855 167.935 77.5545 167.535C75.9225 165.996 74.3704 164.374 72.9045 162.675C70.0445 159.415 67.5045 156.275 65.2145 153.395C60.6245 147.635 57.0444 142.865 54.5844 139.565L51.7645 135.745L51.0445 134.745C50.9608 134.633 50.884 134.517 50.8145 134.395L51.0745 134.725L51.8245 135.725C52.4845 136.605 53.4545 137.875 54.6945 139.505C57.1845 142.775 60.8045 147.505 65.4045 153.265C67.7145 156.135 70.2645 159.265 73.1245 162.505C74.5876 164.19 76.1363 165.799 77.7645 167.325C78.185 167.716 78.6292 168.08 79.0944 168.415C79.3273 168.579 79.5712 168.726 79.8245 168.855C80.0685 168.978 80.3431 169.027 80.6145 168.995H84.2245H115.904H117.604L117.424 169.175V155.015L117.564 155.175L89.3745 148.505H89.3045V148.445C84.4845 138.445 80.3845 130.305 77.4345 124.655C75.9545 121.815 74.7444 119.655 73.8844 118.165C73.4444 117.435 73.1144 116.875 72.8844 116.525C72.6544 116.175 72.4544 115.945 72.4544 115.945Z" fill="#0C1641"/>
<path d="M68.7455 113.675C68.7455 113.735 67.8755 113.395 66.4455 113.065C65.6083 112.882 64.7597 112.755 63.9055 112.685C61.8103 112.514 59.7013 112.714 57.6755 113.275C56.8492 113.499 56.0404 113.783 55.2555 114.125C53.9055 114.715 53.1355 115.205 53.1055 115.125C53.2567 114.972 53.4284 114.841 53.6155 114.735C54.1047 114.41 54.6159 114.119 55.1455 113.865C55.9319 113.489 56.748 113.178 57.5855 112.935C58.6129 112.643 59.6634 112.439 60.7255 112.325C61.7933 112.23 62.8676 112.23 63.9355 112.325C64.8033 112.408 65.6629 112.562 66.5055 112.785C67.0708 112.934 67.6254 113.121 68.1655 113.345C68.3717 113.431 68.5666 113.541 68.7455 113.675Z" fill="#0C1641"/>
<path d="M84.2754 154.785C85.2179 152.407 86.8471 150.364 88.9554 148.915C89.0254 148.995 87.7354 150.095 86.4554 151.715C85.1754 153.335 84.3754 154.835 84.2754 154.785Z" fill="#0C1641"/>
<path d="M83.4141 150.455C84.8381 149.18 86.7044 148.513 88.6141 148.595C88.6141 148.695 87.3841 148.835 85.9541 149.345C84.5241 149.855 83.4741 150.545 83.4141 150.455Z" fill="#0C1641"/>
</g>
<defs>
<clipPath id="clip0_6013_57267">
<rect width="212" height="184" fill="white" transform="translate(0.825195 8.24512)"/>
</clipPath>
</defs>
</svg>
