<svg width="200" height="200" viewBox="0 0 200 200" fill="none" xmlns="http://www.w3.org/2000/svg">
<g clip-path="url(#clip0_6013_57347)">
<path d="M20.8047 151.235C36.3847 192.555 100.745 199.485 168.155 158.895C235.565 118.305 128.325 73.1053 83.8947 46.2953C39.4647 19.4853 -14.6753 57.0253 20.8047 151.235Z" fill="#EDF2FF"/>
<mask id="mask0_6013_57347" style="mask-type:alpha" maskUnits="userSpaceOnUse" x="9" y="37" width="181" height="150">
<path d="M20.8047 151.235C36.3847 192.555 100.745 199.485 168.155 158.895C235.565 118.305 128.325 73.1053 83.8947 46.2953C39.4647 19.4853 -14.6753 57.0253 20.8047 151.235Z" fill="#B00020"/>
</mask>
<g mask="url(#mask0_6013_57347)">
<path d="M110.324 172.345L106.834 353.345C106.821 353.929 106.579 354.485 106.16 354.893C105.741 355.301 105.179 355.528 104.594 355.525L83.5045 355.335C83.2108 355.334 82.9204 355.274 82.6501 355.159C82.3798 355.044 82.1352 354.877 81.9303 354.667C81.7255 354.456 81.5647 354.207 81.4572 353.934C81.3498 353.66 81.2978 353.369 81.3045 353.075L84.5645 197.265L57.1145 351.935C56.9447 352.879 56.4412 353.731 55.696 354.335C54.9507 354.939 54.0133 355.255 53.0545 355.225L35.3745 354.605C34.8126 354.583 34.2617 354.443 33.7576 354.194C33.2536 353.945 32.8077 353.592 32.4492 353.159C32.0906 352.726 31.8274 352.222 31.6766 351.68C31.5259 351.138 31.4911 350.571 31.5745 350.015L59.3245 171.605L110.324 172.345Z" fill="#0C1641"/>
<path d="M43.9443 345.635C43.9443 345.635 43.9443 345.495 43.9943 345.215L44.1843 343.965C44.3643 342.845 44.6243 341.245 44.9543 339.185C45.6543 335.015 46.6543 329.015 47.8843 321.625C50.3643 306.765 53.7743 286.285 57.5443 263.625C61.3143 240.965 64.5943 220.475 66.9343 205.625C68.0943 198.215 69.0243 192.205 69.6743 188.025C70.0043 186.025 70.2543 184.365 70.4343 183.245L70.6443 182.005C70.6443 181.725 70.7243 181.585 70.7243 181.585C70.7243 181.585 70.7243 181.735 70.7243 182.015C70.7243 182.295 70.6243 182.735 70.5643 183.265C70.4043 184.385 70.1843 185.995 69.8943 188.055C69.3243 192.265 68.3943 198.285 67.3243 205.745C65.0743 220.615 61.8143 241.135 58.0743 263.745C54.3343 286.355 50.8543 306.865 48.2743 321.675C46.9843 329.065 45.9243 335.055 45.1943 339.215C44.8243 341.215 44.5343 342.865 44.3243 343.985L44.0843 345.215C43.9843 345.495 43.9443 345.635 43.9443 345.635Z" fill="#364FC7"/>
<path d="M97.9845 346.305C97.8545 346.305 98.0845 309.465 98.5145 264.035C98.9445 218.605 99.4045 181.755 99.5145 181.755C99.6245 181.755 99.4045 218.595 98.9745 264.035C98.5445 309.475 98.1245 346.305 97.9845 346.305Z" fill="#364FC7"/>
<path d="M88.215 174.485C88.2796 175.529 88.2595 176.575 88.155 177.615C88.045 179.545 87.855 182.205 87.625 185.145C87.495 186.615 87.415 188.005 87.225 189.295C87.0993 190.454 86.7204 191.57 86.115 192.565C85.6933 193.235 85.1038 193.784 84.405 194.155C83.905 194.405 83.585 194.425 83.585 194.395C84.5033 193.962 85.2725 193.266 85.795 192.395C86.345 191.43 86.6858 190.361 86.795 189.255C86.945 188.015 87.015 186.595 87.145 185.135C87.375 182.195 87.625 179.535 87.825 177.615C87.8673 176.563 87.9978 175.516 88.215 174.485Z" fill="#364FC7"/>
</g>
<path d="M160.825 76.8948L160.824 76.8949C160.99 77.0183 161.039 77.2112 161.011 77.4297C160.984 77.643 160.883 77.9052 160.719 78.2176C160.388 78.8452 159.774 79.7267 158.854 80.917M160.825 76.8948L158.735 80.8253M160.825 76.8948L160.818 76.8904L160.804 76.8814C160.734 76.8343 160.663 76.7871 160.595 76.7546C160.517 76.7177 160.431 76.6943 160.333 76.7052C160.238 76.7158 160.146 76.7568 160.05 76.8187C159.96 76.8775 159.858 76.9606 159.737 77.0695C160.007 76.7027 160.228 76.3594 160.359 76.0732C160.418 75.9457 160.461 75.8238 160.482 75.712C160.503 75.6017 160.504 75.488 160.463 75.3867C160.418 75.2788 160.333 75.2037 160.221 75.1637C160.113 75.1258 159.984 75.1199 159.838 75.1362M160.825 76.8948L159.838 75.1362M158.854 80.917L158.735 80.8253M158.854 80.917C158.854 80.917 158.854 80.9169 158.854 80.9169L158.735 80.8253M158.854 80.917C158.114 81.875 157.455 82.9236 156.714 84.1205C156.664 84.201 156.613 84.2822 156.563 84.364C155.864 85.4921 155.087 86.748 154.103 88.1699M158.735 80.8253C157.94 81.8551 157.239 82.9875 156.435 84.2847C155.734 85.4184 154.954 86.6781 153.965 88.1053L154.109 88.1456L154.103 88.1699M154.103 88.1699L148.919 106.726L148.862 106.93L148.689 106.808L138.689 99.8081L138.61 99.7532L138.627 99.6588L141.474 83.775C141.444 83.0609 141.394 82.2199 141.286 81.2321C141.188 80.3911 140.949 79.5726 140.58 78.8107L140.577 78.8046L140.577 78.8045C140.159 77.8334 139.613 76.9225 138.954 76.0962C138.792 75.9377 138.681 75.735 138.634 75.5135C138.586 75.2886 138.607 75.0546 138.694 74.8417C138.78 74.6288 138.929 74.4468 139.12 74.3191C139.311 74.1914 139.536 74.1239 139.766 74.1253L139.778 74.1253L139.79 74.1273C140.04 74.1695 140.38 74.3158 140.761 74.548C141.145 74.7822 141.58 75.1103 142.022 75.5275C142.902 76.3599 143.812 77.5524 144.381 79.0722C144.461 79.2134 144.569 79.336 144.7 79.432C144.834 79.53 144.987 79.5978 145.149 79.6306C145.311 79.6634 145.479 79.6605 145.64 79.6219C145.801 79.5834 145.952 79.5103 146.082 79.4076L146.089 79.4018L146.097 79.397C146.899 78.911 148.528 77.8381 150.216 76.7272C150.501 76.5396 150.788 76.3508 151.072 76.1637C152.056 75.5168 153.014 74.8892 153.792 74.3913C154.565 73.8959 155.169 73.5227 155.439 73.3906C155.965 73.1327 156.579 72.9258 157.005 72.919C157.209 72.9158 157.434 72.9578 157.543 73.1404C157.652 73.3223 157.595 73.5608 157.457 73.8165L157.449 73.8311L157.438 73.8435C157.047 74.295 156.648 74.7405 156.244 75.18C156.638 74.8748 157.018 74.6011 157.36 74.387C157.684 74.1844 157.982 74.0294 158.231 73.9543C158.466 73.8832 158.724 73.8646 158.886 74.0445C159.071 74.2467 159.105 74.5377 159.017 74.8767C158.943 75.1636 158.778 75.5036 158.515 75.8968C158.784 75.693 159.032 75.5185 159.247 75.3887C159.47 75.2539 159.677 75.154 159.838 75.1362M154.103 88.1699L159.838 75.1362" fill="white" stroke="#0C1641" stroke-width="0.3"/>
<path d="M154.045 82.9452C155.09 82.2312 156.038 81.384 156.865 80.4252C157.805 79.5782 158.632 78.6136 159.325 77.5552C158.271 78.2615 157.318 79.1094 156.495 80.0752C155.559 80.9228 154.735 81.8874 154.045 82.9452Z" fill="#0C1641"/>
<path d="M152.405 81.5853C153.558 80.8783 154.619 80.0319 155.565 79.0653C156.62 78.2212 157.567 77.2506 158.385 76.1753C157.23 76.8945 156.172 77.7582 155.235 78.7453C154.177 79.5696 153.226 80.5237 152.405 81.5853Z" fill="#0C1641"/>
<path d="M150.715 80.1552C151.81 79.5096 152.818 78.7265 153.715 77.8252C154.724 77.0382 155.632 76.1278 156.415 75.1152C155.317 75.7568 154.308 76.5402 153.415 77.4452C152.403 78.2296 151.495 79.1404 150.715 80.1552Z" fill="#0C1641"/>
<path d="M85.1448 39.1553C87.0971 39.003 89.0602 39.2409 90.9196 39.8553C92.779 40.4697 94.4974 41.4481 95.9746 42.7336C97.4519 44.0191 98.6584 45.5859 99.5237 47.3426C100.389 49.0992 100.896 51.0106 101.015 52.9653C101.425 59.8153 101.805 67.2253 101.755 70.9653C101.655 78.9653 93.6448 80.2253 93.6448 80.2253C93.6448 80.2253 94.7848 94.1453 94.6448 96.3953L73.4348 97.3953L71.5448 54.5253C71.375 50.6996 72.6987 46.9577 75.2363 44.0898C77.774 41.2219 81.3269 39.4525 85.1448 39.1553Z" fill="white"/>
<path d="M93.6551 80.0952C89.9508 80.1577 86.3121 79.1131 83.2051 77.0952C83.2051 77.0952 85.6751 82.8552 93.6751 82.0952L93.6551 80.0952Z" fill="#FCE5EC"/>
<path d="M72.3256 57.2752C72.1856 57.2152 66.8156 55.6452 66.9956 61.1252C67.1756 66.6052 72.6356 65.2952 72.6356 65.1252C72.6356 64.9552 72.3256 57.2752 72.3256 57.2752Z" fill="white"/>
<mask id="path-14-outside-1_6013_57347" maskUnits="userSpaceOnUse" x="65.9912" y="38.1104" width="37" height="60" fill="black">
<rect fill="white" x="65.9912" y="38.1104" width="37" height="60"/>
<path fill-rule="evenodd" clip-rule="evenodd" d="M90.9196 39.8551C89.0602 39.2407 87.0971 39.0027 85.1448 39.155C81.3269 39.4522 77.774 41.2216 75.2363 44.0895C72.6987 46.9574 71.375 50.6994 71.5448 54.525L71.6592 57.1192C70.1959 56.8671 66.853 56.7823 66.9956 61.1252C67.1381 65.4619 70.5872 65.5462 72.0202 65.3084L73.4348 97.395L94.6448 96.395C94.7848 94.145 93.6448 80.225 93.6448 80.225C93.6448 80.225 101.655 78.965 101.755 70.965C101.805 67.225 101.425 59.815 101.015 52.965C100.896 51.0104 100.389 49.099 99.5237 47.3423C98.6584 45.5857 97.4519 44.0189 95.9746 42.7334C94.4974 41.4479 92.779 40.4694 90.9196 39.8551Z"/>
</mask>
<path fill-rule="evenodd" clip-rule="evenodd" d="M90.9196 39.8551C89.0602 39.2407 87.0971 39.0027 85.1448 39.155C81.3269 39.4522 77.774 41.2216 75.2363 44.0895C72.6987 46.9574 71.375 50.6994 71.5448 54.525L71.6592 57.1192C70.1959 56.8671 66.853 56.7823 66.9956 61.1252C67.1381 65.4619 70.5872 65.5462 72.0202 65.3084L73.4348 97.395L94.6448 96.395C94.7848 94.145 93.6448 80.225 93.6448 80.225C93.6448 80.225 101.655 78.965 101.755 70.965C101.805 67.225 101.425 59.815 101.015 52.965C100.896 51.0104 100.389 49.099 99.5237 47.3423C98.6584 45.5857 97.4519 44.0189 95.9746 42.7334C94.4974 41.4479 92.779 40.4694 90.9196 39.8551Z" fill="white"/>
<path d="M85.1448 39.155L85.1681 39.4541L85.1681 39.4541L85.1448 39.155ZM90.9196 39.8551L90.8255 40.1399L90.9196 39.8551ZM75.2363 44.0895L75.0117 43.8907L75.2363 44.0895ZM71.5448 54.525L71.8445 54.5118L71.8445 54.5117L71.5448 54.525ZM71.6592 57.1192L71.6082 57.4149L71.9753 57.4781L71.9589 57.106L71.6592 57.1192ZM66.9956 61.1252L66.6958 61.135L66.9956 61.1252ZM72.0202 65.3084L72.3199 65.2952L72.305 64.957L71.9711 65.0125L72.0202 65.3084ZM73.4348 97.395L73.1351 97.4082L73.1484 97.7089L73.4489 97.6947L73.4348 97.395ZM94.6448 96.395L94.6589 96.6947L94.9275 96.682L94.9442 96.4137L94.6448 96.395ZM93.6448 80.225L93.5982 79.9287L93.3231 79.972L93.3458 80.2495L93.6448 80.225ZM101.755 70.965L101.455 70.961L101.455 70.9613L101.755 70.965ZM101.015 52.965L101.314 52.9471L101.314 52.9468L101.015 52.965ZM99.5237 47.3423L99.7928 47.2098V47.2098L99.5237 47.3423ZM95.9746 42.7334L95.7777 42.9597L95.9746 42.7334ZM85.1681 39.4541C87.0807 39.3049 89.0039 39.538 90.8255 40.1399L91.0137 39.5702C89.1165 38.9434 87.1135 38.7005 85.1215 38.8559L85.1681 39.4541ZM75.461 44.2883C77.9471 41.4787 81.4278 39.7453 85.1681 39.4541L85.1215 38.8559C81.226 39.1592 77.6009 40.9645 75.0117 43.8907L75.461 44.2883ZM71.8445 54.5117C71.6782 50.7638 72.9749 47.098 75.461 44.2883L75.0117 43.8907C72.4224 46.8169 71.0718 50.6349 71.2451 54.5383L71.8445 54.5117ZM71.9589 57.106L71.8445 54.5118L71.2451 54.5382L71.3595 57.1324L71.9589 57.106ZM71.7101 56.8236C70.9614 56.6946 69.6813 56.5968 68.5933 57.1297C68.041 57.4001 67.5415 57.8317 67.1931 58.4916C66.8464 59.148 66.6589 60.012 66.6958 61.135L67.2955 61.1153C67.261 60.0669 67.4379 59.3129 67.7237 58.7717C68.0076 58.234 68.4086 57.8882 68.8571 57.6685C69.7707 57.2211 70.8937 57.2918 71.6082 57.4149L71.7101 56.8236ZM66.6958 61.135C66.7701 63.3981 67.7191 64.611 68.889 65.2002C70.0289 65.7742 71.3228 65.7283 72.0693 65.6044L71.9711 65.0125C71.2847 65.1264 70.1375 65.1571 69.1589 64.6643C68.2104 64.1866 67.3636 63.1889 67.2955 61.1153L66.6958 61.135ZM73.7345 97.3818L72.3199 65.2952L71.7205 65.3216L73.1351 97.4082L73.7345 97.3818ZM94.6307 96.0954L73.4207 97.0954L73.4489 97.6947L94.6589 96.6947L94.6307 96.0954ZM93.6448 80.225C93.3458 80.2495 93.3458 80.2496 93.3458 80.2497C93.3458 80.2498 93.3458 80.2499 93.3459 80.2501C93.3459 80.2506 93.3459 80.2512 93.346 80.252C93.3461 80.2537 93.3464 80.2562 93.3466 80.2596C93.3472 80.2662 93.348 80.2762 93.3491 80.2894C93.3512 80.3158 93.3544 80.355 93.3586 80.4062C93.3669 80.5086 93.379 80.6591 93.3945 80.8516C93.4254 81.2364 93.4693 81.7887 93.5217 82.4586C93.6263 83.7983 93.7644 85.6079 93.8981 87.4876C94.0318 89.3675 94.161 91.3165 94.248 92.9354C94.3356 94.5628 94.3791 95.8351 94.3454 96.3764L94.9442 96.4137C94.9805 95.83 94.934 94.5185 94.8472 92.9031C94.7599 91.2792 94.6303 89.3263 94.4965 87.445C94.3627 85.5635 94.2246 83.7524 94.1198 82.4118C94.0675 81.7415 94.0235 81.1888 93.9926 80.8036C93.9771 80.611 93.9649 80.4602 93.9566 80.3577C93.9524 80.3064 93.9492 80.2671 93.9471 80.2407C93.946 80.2274 93.9452 80.2174 93.9446 80.2107C93.9444 80.2073 93.9442 80.2048 93.944 80.2031C93.9439 80.2023 93.9439 80.2016 93.9439 80.2012C93.9438 80.201 93.9438 80.2008 93.9438 80.2007C93.9438 80.2006 93.9438 80.2006 93.6448 80.225ZM101.455 70.9613C101.406 74.84 99.4491 77.0707 97.4983 78.3438C96.5189 78.983 95.5403 79.3803 94.8057 79.6177C94.4389 79.7362 94.1342 79.8144 93.9224 79.8628C93.8165 79.887 93.734 79.9037 93.6786 79.9142C93.651 79.9195 93.6301 79.9232 93.6165 79.9256C93.6098 79.9268 93.6048 79.9276 93.6017 79.9281C93.6002 79.9284 93.5991 79.9285 93.5985 79.9286C93.5982 79.9287 93.598 79.9287 93.598 79.9287C93.598 79.9287 93.598 79.9287 93.598 79.9287C93.5981 79.9287 93.5982 79.9287 93.6448 80.225C93.6914 80.5214 93.6916 80.5214 93.6918 80.5213C93.6919 80.5213 93.6921 80.5213 93.6924 80.5212C93.6928 80.5212 93.6933 80.5211 93.694 80.521C93.6954 80.5208 93.6972 80.5205 93.6995 80.5201C93.7041 80.5193 93.7107 80.5182 93.719 80.5168C93.7358 80.5139 93.7599 80.5095 93.7909 80.5036C93.853 80.4918 93.9426 80.4736 94.056 80.4477C94.2826 80.396 94.6045 80.3132 94.9902 80.1886C95.7605 79.9397 96.7908 79.522 97.8263 78.8463C99.9055 77.4893 102.003 75.09 102.055 70.9688L101.455 70.9613ZM100.715 52.983C101.126 59.8364 101.505 67.2343 101.455 70.961L102.055 70.969C102.105 67.2158 101.724 59.7937 101.314 52.9471L100.715 52.983ZM99.2546 47.4749C100.102 49.1958 100.599 51.0684 100.715 52.9832L101.314 52.9468C101.193 50.9524 100.676 49.0022 99.7928 47.2098L99.2546 47.4749ZM95.7777 42.9597C97.2249 44.219 98.4068 45.754 99.2546 47.4749L99.7928 47.2098C98.9099 45.4174 97.6789 43.8187 96.1716 42.5071L95.7777 42.9597ZM90.8255 40.1399C92.647 40.7418 94.3305 41.7004 95.7777 42.9597L96.1716 42.5071C94.6643 41.1954 92.9109 40.1971 91.0137 39.5702L90.8255 40.1399Z" fill="#0C1641" mask="url(#path-14-outside-1_6013_57347)"/>
<path d="M70.855 63.1153C70.855 63.1153 70.765 63.1853 70.605 63.2653C70.4926 63.3123 70.3719 63.3366 70.25 63.3366C70.1282 63.3366 70.0075 63.3123 69.895 63.2653C69.5339 63.0534 69.236 62.7488 69.032 62.3831C68.8281 62.0174 68.7256 61.6039 68.735 61.1853C68.7068 60.7148 68.7819 60.2437 68.955 59.8053C69.0035 59.6336 69.0924 59.4759 69.2141 59.3454C69.3359 59.215 69.4871 59.1155 69.655 59.0553C69.7632 59.0237 69.8789 59.0303 69.9827 59.074C70.0865 59.1177 70.1721 59.1959 70.225 59.2953C70.295 59.4453 70.225 59.5553 70.295 59.5653C70.365 59.5753 70.415 59.4653 70.365 59.2453C70.3271 59.1101 70.2464 58.9908 70.135 58.9053C69.9804 58.7986 69.7906 58.7556 69.605 58.7853C69.3757 58.8311 69.1625 58.9366 68.9869 59.0911C68.8114 59.2456 68.6796 59.4436 68.605 59.6653C68.3747 60.1583 68.2781 60.7032 68.325 61.2453C68.3121 61.733 68.4438 62.2135 68.7037 62.6264C68.9635 63.0393 69.3398 63.366 69.785 63.5653C69.9334 63.6057 70.089 63.6115 70.2399 63.582C70.3908 63.5525 70.5329 63.4886 70.655 63.3953C70.855 63.2553 70.875 63.1253 70.855 63.1153Z" fill="#FCE5EC"/>
<path d="M98.1248 58.0552C98.1277 58.3535 98.0145 58.6412 97.8093 58.8576C97.6041 59.0741 97.3228 59.2023 97.0248 59.2152C96.7361 59.2374 96.4503 59.1449 96.2293 58.9577C96.0084 58.7704 95.8703 58.5037 95.8448 58.2152C95.8419 57.917 95.955 57.6293 96.1603 57.4128C96.3655 57.1964 96.6468 57.0682 96.9448 57.0552C97.2335 57.0331 97.5193 57.1256 97.7402 57.3128C97.9611 57.5 98.0993 57.7668 98.1248 58.0552Z" fill="#0C1641"/>
<path d="M98.9447 55.8153C98.8047 55.9653 97.9447 55.3253 96.7047 55.3253C95.4647 55.3253 94.5747 55.9453 94.4447 55.7953C94.3147 55.6453 94.5147 55.4653 94.9147 55.1753C95.446 54.8067 96.0781 54.6111 96.7247 54.6153C97.3682 54.6117 97.9957 54.815 98.5147 55.1953C98.8847 55.4853 99.0147 55.7453 98.9447 55.8153Z" fill="#0C1641"/>
<path d="M86.0056 58.0552C86.0111 58.3542 85.8988 58.6434 85.693 58.8604C85.4873 59.0773 85.2045 59.2048 84.9056 59.2152C84.6169 59.2374 84.3311 59.1449 84.1102 58.9577C83.8893 58.7704 83.7511 58.5037 83.7256 58.2152C83.7228 57.917 83.8359 57.6293 84.0411 57.4128C84.2464 57.1964 84.5277 57.0682 84.8256 57.0552C85.1144 57.0331 85.4002 57.1256 85.6211 57.3128C85.842 57.5 85.9802 57.7668 86.0056 58.0552Z" fill="#0C1641"/>
<path d="M86.8452 56.0452C86.7052 56.1952 85.8452 55.5552 84.6052 55.5552C83.3652 55.5552 82.4752 56.1752 82.3352 56.0252C82.1952 55.8752 82.4152 55.6952 82.8152 55.4052C83.345 55.0336 83.9781 54.8377 84.6252 54.8452C85.2652 54.8437 85.889 55.0469 86.4052 55.4252C86.7852 55.7452 86.9152 55.9852 86.8452 56.0452Z" fill="#0C1641"/>
<path d="M91.3256 65.1753C91.9748 64.9729 92.6466 64.852 93.3256 64.8153C93.6356 64.8153 93.9356 64.7253 93.9856 64.5053C94.0179 64.1807 93.9442 63.8545 93.7756 63.5753C93.4856 62.8153 93.1756 62.0153 92.8456 61.1853C91.9831 59.1587 91.2875 57.0651 90.7656 54.9253C91.7761 56.8787 92.6321 58.9082 93.3256 60.9953C93.6356 61.8453 93.9356 62.6453 94.2156 63.4053C94.4154 63.7861 94.4756 64.2248 94.3856 64.6453C94.3367 64.7546 94.2651 64.8522 94.1754 64.9315C94.0857 65.0109 93.9801 65.0701 93.8656 65.1053C93.6924 65.15 93.5145 65.1735 93.3356 65.1753C92.6685 65.2624 91.9928 65.2624 91.3256 65.1753Z" fill="#0C1641"/>
<path d="M87.6957 66.0351C87.8957 66.0351 87.8957 67.3551 89.0357 68.3051C90.1757 69.2551 91.6057 69.1051 91.6157 69.3051C91.6257 69.5051 91.2957 69.5651 90.6957 69.5751C89.9131 69.5855 89.1519 69.32 88.5457 68.8251C87.9766 68.3471 87.6175 67.6649 87.5457 66.9251C87.4457 66.3551 87.5957 66.0251 87.6957 66.0351Z" fill="#0C1641"/>
<path d="M87.1655 51.2252C87.0455 51.5552 85.8155 51.3952 84.3655 51.5752C82.9155 51.7552 81.7555 52.1452 81.5655 51.8452C81.3755 51.5452 81.6855 51.3852 82.1555 51.0552C82.7824 50.6564 83.4924 50.4067 84.2309 50.3252C84.9694 50.2437 85.7168 50.3327 86.4155 50.5852C86.9455 50.8052 87.2155 51.0652 87.1655 51.2252Z" fill="#0C1641"/>
<path d="M98.495 52.2551C98.275 52.5351 97.435 52.2551 96.415 52.2551C95.395 52.2551 94.525 52.4351 94.325 52.1451C94.125 51.8551 94.325 51.7251 94.755 51.4551C95.2567 51.1304 95.8483 50.9729 96.445 51.0051C97.0465 51.0128 97.6304 51.2086 98.115 51.5651C98.475 51.8251 98.595 52.1151 98.495 52.2551Z" fill="#0C1641"/>
<path d="M71.3252 52.7451C71.3252 53.9751 71.5852 58.8851 71.7652 59.7451C71.8391 60.1602 72.0027 60.5542 72.2445 60.8996C72.4863 61.245 72.8005 61.5335 73.1652 61.7451C74.5352 62.4351 76.2652 61.3751 76.8852 59.9651C77.3616 58.4969 77.4647 56.9331 77.1852 55.4151C76.9181 53.3344 76.9518 51.2262 77.2852 49.1551C77.6213 47.0647 78.6835 45.1597 80.2852 43.7751C81.0954 43.1008 82.0767 42.6644 83.12 42.5143C84.1633 42.3643 85.2278 42.5065 86.1952 42.9251C87.2829 43.5969 88.3282 44.335 89.3252 45.1351C90.295 45.8043 91.4746 46.0992 92.6452 45.9651C93.223 45.8878 93.7672 45.6487 94.2148 45.2754C94.6625 44.902 94.9955 44.4096 95.1752 43.8551C95.2997 43.2304 95.2446 42.5831 95.0163 41.9885C94.788 41.3938 94.3958 40.876 93.8852 40.4951C92.8544 39.7406 91.6512 39.2559 90.3852 39.0851C86.9112 38.3736 83.3071 38.6543 79.9852 39.8951C76.7152 41.2051 73.1452 43.5751 72.2052 46.9651C71.6241 48.8368 71.3275 50.7852 71.3252 52.7451Z" fill="#0C1641"/>
<path d="M153.155 92.7453L140.045 89.5453L131.395 113.005L107.495 91.6253C104.955 89.7653 100.575 89.5353 97.2353 89.1153H96.9853C95.6953 88.9653 95.0553 88.7753 94.2753 88.6853C88.5153 93.0153 78.6553 93.2953 73.0053 88.8253C73.0053 88.8253 68.7153 89.8253 66.1453 90.2853C58.0753 91.8353 52.2653 97.7053 50.6553 103.135L60.7553 126.435L62.6953 148.565L57.1053 168.385C56.9669 168.862 56.9336 169.363 57.0077 169.854C57.0817 170.344 57.2614 170.813 57.5343 171.228C57.8071 171.642 58.1667 171.992 58.5881 172.254C59.0095 172.516 59.4828 172.684 59.9753 172.745L110.025 173.505L110.835 173.105C112.034 171.223 112.513 168.972 112.185 166.765C110.025 157.285 111.525 129.005 111.075 120.325C120.885 129.865 131.725 137.775 139.635 132.875C146.215 128.745 153.155 92.7453 153.155 92.7453Z" fill="#748FFC"/>
<path d="M71.3848 90.2451L72.5448 82.2351L83.4548 86.2451L86.5248 91.6651L88.4448 85.7151L94.4248 83.6551L96.9848 88.9751L92.5948 95.1851L84.3548 96.8551L71.3848 90.2451Z" fill="#748FFC"/>
<path d="M86.7148 92.9052C86.7148 92.9052 86.5648 92.8152 86.3148 92.5752C85.9569 92.2387 85.6227 91.8778 85.3148 91.4952C84.1962 90.1392 83.3078 88.6088 82.6848 86.9652H83.0848L80.5648 93.3152C80.1248 94.4052 79.6948 95.4552 79.2948 96.4552L79.1548 96.7852L78.9048 96.5352C76.7048 94.4052 74.8048 92.5352 73.4648 91.2052L71.9048 89.6152C71.7025 89.4346 71.5274 89.2257 71.3848 88.9952C71.6149 89.1347 71.8266 89.3027 72.0148 89.4952L73.6748 90.9852C75.0748 92.2652 77.0148 94.0852 79.2348 96.1952L78.8448 96.2752L80.1048 93.1352L82.6848 86.8052L82.8948 86.2852L83.0848 86.8152C83.6739 88.4336 84.4922 89.9592 85.5148 91.3452C86.2548 92.3452 86.7548 92.8652 86.7148 92.9052Z" fill="#0C1641"/>
<path d="M96.9855 88.9751C96.6343 89.6162 96.2043 90.2108 95.7055 90.7451C94.5121 92.179 93.1017 93.4173 91.5255 94.4151L91.2855 94.5551L91.1855 94.2851C90.8255 93.2851 90.4155 92.2851 89.9855 91.1751C89.3255 89.5451 88.7155 87.9951 88.2355 86.6151H88.6555C88.2955 88.4151 87.8555 89.8951 87.5855 90.9351C87.4735 91.4947 87.3129 92.0435 87.1055 92.5751C87.1114 91.9952 87.1853 91.4179 87.3255 90.8551C87.5255 89.7851 87.9055 88.2851 88.2255 86.4951L88.3255 85.7451L88.6055 86.5051C89.1155 87.8651 89.7455 89.3951 90.3955 91.0351C90.8355 92.1251 91.2455 93.1851 91.5855 94.1651L91.3255 94.0051C92.8781 93.0507 94.2915 91.8863 95.5255 90.5451C95.9805 89.9932 96.468 89.469 96.9855 88.9751Z" fill="#0C1641"/>
<path d="M90.6749 174.445C90.668 174.167 90.6881 173.889 90.7349 173.615C90.7949 173.025 90.8749 172.235 90.9849 171.225C91.0949 170.215 91.1949 168.925 91.3049 167.455C91.3049 166.715 91.4149 165.935 91.4749 165.095C91.5349 164.255 91.5449 163.375 91.5749 162.445C91.7449 158.735 91.7449 154.305 91.6549 149.445C91.5649 144.585 91.2549 139.125 90.8649 133.445C90.0449 122.115 88.9349 111.895 88.0949 104.505C87.6749 100.845 87.3349 97.8652 87.0949 95.7452C86.9849 94.7452 86.8949 93.9552 86.8349 93.3652C86.7749 92.7752 86.7649 92.5352 86.7749 92.5352C86.8519 92.8033 86.9055 93.0777 86.9349 93.3552C87.0149 93.9352 87.1349 94.7252 87.2849 95.7252C87.5749 97.7852 87.9749 100.725 88.4349 104.465C89.3649 111.845 90.5349 122.075 91.3649 133.405C91.7449 139.075 92.0049 144.485 92.1049 149.405C92.2049 154.325 92.1049 158.765 91.9249 162.485C91.9249 163.415 91.8349 164.295 91.7849 165.135C91.7349 165.975 91.6449 166.755 91.5849 167.495C91.4449 168.975 91.3449 170.245 91.1749 171.275C91.0049 172.305 90.9149 173.065 90.8249 173.645C90.7998 173.916 90.7496 174.184 90.6749 174.445Z" fill="#0C1641"/>
<path d="M131.125 122.065C130.875 120.492 130.791 118.896 130.875 117.305C130.792 115.717 130.875 114.125 131.125 112.555C131.362 114.127 131.443 115.718 131.365 117.305C131.443 118.896 131.363 120.49 131.125 122.065Z" fill="#0C1641"/>
<path d="M134.455 122.665C134.455 123.115 133.795 121.845 132.325 117.765C131.669 116.101 131.226 114.36 131.005 112.585C131.699 114.215 132.297 115.885 132.795 117.585C133.443 119.246 133.998 120.942 134.455 122.665Z" fill="#0C1641"/>
<path d="M81.935 89.8853L84.405 91.1753L83.945 95.3553L80.085 94.5353L81.935 89.8853Z" fill="#BAC8FF"/>
<g opacity="0.4">
<path opacity="0.4" d="M81.935 89.8853L84.405 91.1753L83.945 95.3553L80.085 94.5353L81.935 89.8853Z" fill="#0C1641"/>
</g>
<path d="M87.6055 90.9151L89.4855 89.2751L91.1955 93.6351L88.7455 94.8151L87.6055 90.9151Z" fill="#BAC8FF"/>
<path d="M84.8648 96.3652L83.7148 145.675L92.0448 153.915L96.0848 142.965L88.0748 96.1052L84.8648 96.3652Z" fill="#BAC8FF"/>
<path d="M84.925 89.6552C85.495 89.5852 86.275 89.4352 86.925 89.3052C87.2135 89.243 87.5143 89.2756 87.7828 89.3981C88.0513 89.5206 88.273 89.7265 88.415 89.9852L89.415 91.9252C89.5652 92.207 89.6146 92.5316 89.555 92.8452L89.135 95.0152C89.0831 95.2834 88.9527 95.5301 88.7605 95.7242C88.5682 95.9182 88.3227 96.0508 88.055 96.1052L85.675 96.5852C85.3811 96.6416 85.0768 96.6009 84.808 96.4692C84.5393 96.3375 84.3206 96.122 84.185 95.8552L82.995 93.5152C82.9064 93.3312 82.8604 93.1295 82.8604 92.9252C82.8604 92.721 82.9064 92.5193 82.995 92.3352L83.825 90.4652C83.9215 90.2458 84.0738 90.0555 84.2668 89.9134C84.4599 89.7712 84.6868 89.6822 84.925 89.6552Z" fill="#BAC8FF"/>
<path d="M88.3848 90.1753C88.203 90.4599 87.9918 90.7247 87.7548 90.9653C87.3448 91.4353 86.7548 92.0753 86.1248 92.7753C85.4948 93.4753 84.8848 94.0953 84.4448 94.5453C84.225 94.7989 83.9805 95.0301 83.7148 95.2353C83.8904 94.9516 84.0948 94.6869 84.3248 94.4453C84.7348 93.9753 85.3248 93.3353 85.9548 92.6353C86.5848 91.9353 87.1948 91.3153 87.6348 90.8653C87.861 90.6106 88.1123 90.3795 88.3848 90.1753Z" fill="#0C1641"/>
<path d="M85.9449 92.4452C85.5206 92.1621 85.1342 91.8261 84.7949 91.4452C84.418 91.1169 84.0822 90.7442 83.7949 90.3352C84.2222 90.6144 84.6091 90.9508 84.9449 91.3352C85.3246 91.6606 85.6607 92.0337 85.9449 92.4452Z" fill="#0C1641"/>
<path d="M88.7355 95.6052C88.8792 94.6417 89.0761 93.6869 89.3255 92.7452C89.3521 92.0768 89.1394 91.4208 88.7255 90.8952C88.5669 90.6516 88.4676 90.3742 88.4355 90.0852C88.4355 90.0852 88.5555 90.3852 88.8455 90.8252C89.0238 91.0824 89.1874 91.3495 89.3355 91.6252C89.5127 91.97 89.5757 92.3622 89.5155 92.7452C89.3555 93.5552 89.1455 94.2352 89.0055 94.7452C88.9453 95.0404 88.8548 95.3286 88.7355 95.6052Z" fill="#0C1641"/>
<g opacity="0.3">
<path opacity="0.3" d="M60.7251 158.235C61.8139 159.249 63.1269 159.992 64.5572 160.402C65.9874 160.812 67.4944 160.878 68.9551 160.595C71.0251 160.175 72.9551 159.045 75.1051 159.185C77.4151 159.335 79.3151 160.955 81.4251 161.905C85.3651 163.695 89.9551 163.125 94.1251 162.005C96.0451 161.495 98.0551 160.805 99.2951 159.245C100.175 157.974 100.721 156.502 100.885 154.965C101.366 152.155 101.574 149.305 101.505 146.455C101.62 144.664 101.138 142.884 100.135 141.395C99.1533 140.297 97.7921 139.611 96.3251 139.475C94.8712 139.34 93.4053 139.421 91.9751 139.715C80.5467 141.611 69.7463 146.243 60.4951 153.215" fill="#0C1641"/>
</g>
<path d="M81.0255 148.835C81.0255 148.835 54.5455 160.675 51.8455 161.265C42.9055 163.265 32.6855 154.785 35.5255 145.165C36.5855 141.585 50.8255 101.985 50.8255 101.985L64.3855 120.745L58.6555 139.925L73.6555 138.925L81.0255 148.835Z" fill="#748FFC"/>
<path d="M72.445 139.055C72.1179 139.141 71.7827 139.191 71.445 139.205L68.545 139.445C66.085 139.635 62.635 139.875 58.705 140.125H58.375L58.475 139.805L59.355 136.805C60.695 132.325 61.935 128.285 62.845 125.355C63.295 123.965 63.675 122.805 63.955 121.905C64.0805 121.478 64.2376 121.06 64.425 120.655C64.3712 121.097 64.2741 121.533 64.135 121.955L63.135 125.455C62.305 128.395 61.135 132.455 59.775 136.935C59.465 137.935 59.175 138.935 58.885 139.935L58.645 139.635C62.575 139.405 66.025 139.225 68.495 139.115L71.405 139.005C71.7525 138.988 72.1008 139.005 72.445 139.055Z" fill="#0C1641"/>
<path d="M78.0648 150.385C78.1148 150.505 72.2949 153.015 65.0649 155.985C57.8349 158.955 51.9449 161.275 51.8949 161.155C51.8449 161.035 57.6649 158.525 64.8949 155.555C72.1249 152.585 78.0149 150.265 78.0648 150.385Z" fill="#0C1641"/>
<path d="M74.8654 138.175L72.7754 128.005C72.7351 127.815 72.7378 127.618 72.7835 127.429C72.8292 127.24 72.9167 127.064 73.0395 126.914C73.1623 126.763 73.3173 126.642 73.4931 126.559C73.6689 126.476 73.8611 126.434 74.0554 126.435L100.375 126.565C100.56 126.565 100.742 126.604 100.91 126.68C101.078 126.756 101.228 126.866 101.35 127.004C101.471 127.142 101.563 127.305 101.617 127.481C101.672 127.657 101.688 127.842 101.665 128.025L98.9554 151.315C98.9016 151.76 98.6866 152.169 98.3512 152.466C98.0158 152.762 97.5832 152.926 97.1354 152.925L79.9754 152.745C79.5729 152.744 79.1823 152.608 78.8654 152.36C78.5485 152.112 78.3233 151.766 78.2254 151.375L74.8654 138.175Z" fill="#364FC7"/>
<path d="M72.5449 132.675L72.3918 132.675L72.395 132.828L72.515 138.588L72.5155 138.614L72.5246 138.638L73.5133 141.258L73.3252 144.426L73.3252 144.426C73.278 145.236 73.4853 146.041 73.9179 146.727C74.3506 147.414 74.9871 147.947 75.7382 148.254L75.7382 148.254L75.7404 148.255L76.7394 148.645C78.6364 149.417 80.7498 149.471 82.684 148.797C83.5288 148.507 84.4101 148.207 85.1123 147.98C85.4636 147.867 85.7689 147.772 86.0019 147.705C86.1185 147.672 86.2155 147.646 86.2904 147.629C86.3702 147.611 86.4118 147.605 86.4249 147.605H86.4369L86.4486 147.603C87.6995 147.403 88.9243 147.065 90.1006 146.594L90.1007 146.595L90.1098 146.59C90.192 146.551 90.389 146.482 90.6857 146.389C90.978 146.296 91.3568 146.184 91.7942 146.057C92.669 145.805 93.7754 145.497 94.8886 145.19C95.1211 145.126 95.3538 145.061 95.5848 144.998C96.4596 144.756 97.309 144.522 98.021 144.321C98.9168 144.069 99.6054 143.868 99.8486 143.775C100.109 143.675 100.283 143.528 100.376 143.338C100.467 143.151 100.466 142.945 100.425 142.751C100.351 142.395 100.127 142.019 99.9594 141.738C99.9473 141.718 99.9354 141.698 99.9239 141.679C99.8913 141.624 99.8411 141.591 99.7977 141.572C99.7534 141.552 99.703 141.539 99.6518 141.531C99.5492 141.514 99.4188 141.511 99.2698 141.517C98.9701 141.528 98.5671 141.577 98.1002 141.652C97.1648 141.801 95.9531 142.056 94.7554 142.328C93.5571 142.6 92.37 142.89 91.4827 143.113C91.1353 143.2 90.8339 143.277 90.5956 143.338C90.7888 143.209 91.0361 143.066 91.3237 142.913C91.9666 142.571 92.7973 142.184 93.645 141.805C94.1232 141.59 94.6025 141.38 95.0559 141.181C95.4091 141.026 95.7466 140.878 96.0558 140.74C96.4069 140.584 96.7192 140.442 96.9703 140.321C97.2185 140.201 97.4154 140.097 97.5298 140.019C97.7615 139.86 97.899 139.663 97.9196 139.438C97.9399 139.216 97.8433 139.004 97.6869 138.82C97.3762 138.453 96.7824 138.134 96.0725 137.95C95.9625 137.921 95.8263 137.918 95.6763 137.928C95.5241 137.939 95.3471 137.966 95.1508 138.005C94.7582 138.083 94.277 138.213 93.7409 138.374C92.8722 138.636 91.849 138.984 90.8093 139.337C90.5659 139.42 90.3216 139.503 90.0781 139.586C88.7917 140.021 87.5295 140.436 86.5387 140.683C86.0426 140.807 85.6215 140.888 85.3027 140.909C85.1431 140.92 85.0159 140.915 84.9208 140.897C84.8236 140.878 84.7777 140.849 84.758 140.827C84.696 140.756 84.6747 140.663 84.7083 140.528C84.7434 140.387 84.8359 140.214 84.9839 140.014C85.2787 139.616 85.7604 139.155 86.3031 138.685C86.7528 138.296 87.2376 137.907 87.6824 137.55C87.7728 137.477 87.8616 137.406 87.948 137.337C88.4541 136.929 88.8919 136.569 89.1074 136.324C89.5579 135.813 89.591 135.255 89.394 134.767C89.2011 134.288 88.7915 133.883 88.3595 133.635C88.2737 133.586 88.1746 133.574 88.0776 133.58C87.9799 133.587 87.873 133.612 87.7611 133.651C87.5374 133.727 87.2714 133.861 86.9805 134.033C86.3977 134.376 85.6898 134.882 84.9762 135.416C84.5496 135.736 84.117 136.069 83.7066 136.385C83.4315 136.597 83.1663 136.801 82.9194 136.988C82.2962 137.461 81.7952 137.824 81.5183 137.961C80.9778 138.229 80.1679 138.238 79.3118 138.083C78.4687 137.929 77.6109 137.621 76.9816 137.282C76.1629 136.55 75.569 135.601 75.2692 134.544L75.2672 134.537L75.2646 134.53C75.0504 133.984 74.6763 133.514 74.1911 133.183C73.7059 132.852 73.1322 132.675 72.5449 132.675Z" fill="white" stroke="#0C1641" stroke-width="0.3"/>
<path d="M88.3252 130.355C88.3252 130.553 88.2665 130.746 88.1567 130.911C88.0468 131.075 87.8906 131.203 87.7079 131.279C87.5252 131.355 87.3241 131.375 87.1301 131.336C86.9361 131.297 86.7579 131.202 86.6181 131.062C86.4782 130.922 86.383 130.744 86.3444 130.55C86.3058 130.356 86.3256 130.155 86.4013 129.973C86.477 129.79 86.6052 129.634 86.7696 129.524C86.9341 129.414 87.1274 129.355 87.3252 129.355C87.5904 129.355 87.8448 129.461 88.0323 129.648C88.2198 129.836 88.3252 130.09 88.3252 130.355Z" fill="#748FFC"/>
<path d="M114.476 55.9953L119.076 47.8853C116.237 43.2713 115.228 37.7627 116.244 32.442C117.261 27.1213 120.232 22.3733 124.571 19.1313C128.911 15.8892 134.306 14.3875 139.697 14.9213C145.088 15.4552 150.084 17.9859 153.703 22.0161C157.323 26.0464 159.304 31.2847 159.258 36.7015C159.211 42.1183 157.141 47.3219 153.453 51.2896C149.765 55.2573 144.726 57.7021 139.327 58.1435C133.928 58.585 128.559 56.9912 124.276 53.6753L114.476 55.9953Z" fill="white"/>
<path d="M114.475 55.9952L124.325 53.7452H124.425L124.325 53.6452L124.235 53.7352C125.612 54.8021 127.109 55.7048 128.695 56.4252C130.587 57.2733 132.59 57.8458 134.645 58.1252C135.781 58.2835 136.929 58.3404 138.075 58.2952C138.665 58.2952 139.265 58.2952 139.875 58.2052L141.705 57.9252C147.166 56.8526 152.014 53.7421 155.265 49.2252C157.07 46.7255 158.318 43.868 158.925 40.8452C159.551 37.6492 159.465 34.3545 158.675 31.1952C157.85 27.8968 156.256 24.8403 154.025 22.2752L153.135 21.2752C152.845 20.9552 152.495 20.6852 152.185 20.3752C151.875 20.0652 151.555 19.7752 151.185 19.5252L150.185 18.7452C149.843 18.4822 149.482 18.2449 149.105 18.0352C148.745 17.8052 148.375 17.5852 148.005 17.3652L146.855 16.8052C146.48 16.6074 146.092 16.4337 145.695 16.2852C142.599 15.0604 139.265 14.5544 135.945 14.8052C132.811 15.0172 129.763 15.9151 127.015 17.4352C122.087 20.1828 118.403 24.7186 116.725 30.1052C116.038 32.3947 115.7 34.7749 115.725 37.1652C115.785 39.2362 116.146 41.2875 116.795 43.2552C117.333 44.8914 118.061 46.4588 118.965 47.9252V47.8552L114.425 55.9952L119.075 47.9152C118.187 46.4529 117.472 44.8924 116.945 43.2652C116.32 41.3077 115.983 39.2697 115.945 37.2152C115.918 34.8445 116.256 32.4837 116.945 30.2152C118.598 24.8728 122.248 20.3739 127.135 17.6552C129.851 16.157 132.861 15.2697 135.955 15.0552C139.229 14.8288 142.513 15.3379 145.565 16.5452C145.96 16.6862 146.345 16.8567 146.715 17.0552L147.855 17.6052L148.935 18.2652C149.307 18.4773 149.665 18.7145 150.005 18.9752L151.005 19.7452C151.352 20.0078 151.686 20.2882 152.005 20.5852C152.315 20.8852 152.655 21.1552 152.945 21.4752L153.815 22.4752C156.025 25.0054 157.602 28.0252 158.415 31.2852C159.198 34.4079 159.287 37.6645 158.675 40.8252C158.074 43.8104 156.843 46.6332 155.065 49.1052C151.856 53.5805 147.066 56.669 141.665 57.7452L139.855 58.0252C139.255 58.0252 138.655 58.0952 138.075 58.1252C136.936 58.1739 135.794 58.1204 134.665 57.9652C132.626 57.696 130.636 57.1371 128.755 56.3052C127.18 55.5857 125.693 54.6864 124.325 53.6252L123.925 53.3152L124.235 53.7152V53.6052L114.475 55.9952Z" fill="#0C1641"/>
<path d="M143.655 36.5252C143.655 36.9603 143.784 37.3857 144.026 37.7474C144.268 38.1092 144.611 38.3912 145.013 38.5577C145.415 38.7242 145.858 38.7678 146.284 38.6829C146.711 38.598 147.103 38.3885 147.411 38.0808C147.719 37.7732 147.928 37.3812 148.013 36.9544C148.098 36.5276 148.054 36.0853 147.888 35.6833C147.721 35.2813 147.439 34.9377 147.078 34.696C146.716 34.4542 146.29 34.3252 145.855 34.3252C145.272 34.3252 144.712 34.557 144.3 34.9696C143.887 35.3821 143.655 35.9417 143.655 36.5252Z" fill="#0C1641"/>
<path d="M134.835 36.5252C134.833 36.9627 134.961 37.391 135.203 37.7557C135.444 38.1205 135.789 38.4053 136.192 38.5741C136.596 38.7429 137.041 38.7881 137.47 38.704C137.899 38.6198 138.294 38.4101 138.604 38.1015C138.914 37.7928 139.126 37.399 139.212 36.9701C139.298 36.5411 139.255 36.0962 139.088 35.6918C138.921 35.2874 138.637 34.9417 138.274 34.6984C137.91 34.4551 137.483 34.3252 137.045 34.3252C136.755 34.3239 136.468 34.3798 136.2 34.4898C135.932 34.5998 135.688 34.7616 135.483 34.966C135.278 35.1705 135.115 35.4134 135.003 35.681C134.892 35.9486 134.835 36.2355 134.835 36.5252Z" fill="#0C1641"/>
<path d="M126.045 35.4253C125.828 35.8024 125.727 36.2356 125.756 36.67C125.785 37.1044 125.942 37.5205 126.207 37.8655C126.473 38.2106 126.835 38.4691 127.247 38.6084C127.66 38.7476 128.104 38.7614 128.524 38.6479C128.945 38.5344 129.322 38.2988 129.608 37.9709C129.895 37.6429 130.077 37.2374 130.133 36.8056C130.189 36.3739 130.115 35.9353 129.921 35.5453C129.728 35.1554 129.423 34.8318 129.045 34.6153C128.54 34.3256 127.94 34.2482 127.378 34.4C126.815 34.5519 126.336 34.9206 126.045 35.4253Z" fill="#0C1641"/>
</g>
<defs>
<clipPath id="clip0_6013_57347">
<rect width="181" height="171" fill="white" transform="translate(9.3252 14.7451)"/>
</clipPath>
</defs>
</svg>
