<svg width="16" height="17" viewBox="0 0 16 17" fill="none" xmlns="http://www.w3.org/2000/svg">
<path d="M8 7.47559L13.3438 4.13184H2.65625L8 7.47559ZM13.3438 12.1318V5.47559L8 8.78809L2.65625 5.47559V12.1318H13.3438ZM13.3438 2.78809C13.6979 2.78809 14 2.9235 14.25 3.19434C14.5208 3.46517 14.6562 3.77767 14.6562 4.13184V12.1318C14.6562 12.486 14.5208 12.7985 14.25 13.0693C14 13.3402 13.6979 13.4756 13.3438 13.4756H2.65625C2.30208 13.4756 1.98958 13.3402 1.71875 13.0693C1.46875 12.7985 1.34375 12.486 1.34375 12.1318V4.13184C1.34375 3.77767 1.46875 3.46517 1.71875 3.19434C1.98958 2.9235 2.30208 2.78809 2.65625 2.78809H13.3438Z" fill="white"/>
</svg>
