<svg width="16" height="17" viewBox="0 0 16 17" fill="none" xmlns="http://www.w3.org/2000/svg">
<path d="M4.40625 7.31934C5.40625 9.25684 6.875 10.7256 8.8125 11.7256L10.2812 10.2568C10.4896 10.0485 10.7188 9.99642 10.9688 10.1006C11.7188 10.3506 12.5104 10.4756 13.3438 10.4756C13.5312 10.4756 13.6875 10.5381 13.8125 10.6631C13.9375 10.7881 14 10.9443 14 11.1318V13.4756C14 13.6631 13.9375 13.8193 13.8125 13.9443C13.6875 14.0693 13.5312 14.1318 13.3438 14.1318C10.2188 14.1318 7.54167 13.0277 5.3125 10.8193C3.10417 8.59017 2 5.91309 2 2.78809C2 2.60059 2.0625 2.44434 2.1875 2.31934C2.3125 2.19434 2.46875 2.13184 2.65625 2.13184H5C5.1875 2.13184 5.34375 2.19434 5.46875 2.31934C5.59375 2.44434 5.65625 2.60059 5.65625 2.78809C5.65625 3.62142 5.78125 4.41309 6.03125 5.16309C6.11458 5.43392 6.0625 5.66309 5.875 5.85059L4.40625 7.31934Z" fill="black"/>
</svg>
