<svg width="16" height="17" viewBox="0 0 16 17" fill="none" xmlns="http://www.w3.org/2000/svg">
<path d="M6.8125 7.31934C7.14583 7.63184 7.54167 7.78809 8 7.78809C8.45833 7.78809 8.84375 7.63184 9.15625 7.31934C9.48958 6.986 9.65625 6.59017 9.65625 6.13184C9.65625 5.6735 9.48958 5.28809 9.15625 4.97559C8.84375 4.64225 8.45833 4.47559 8 4.47559C7.54167 4.47559 7.14583 4.64225 6.8125 4.97559C6.5 5.28809 6.34375 5.6735 6.34375 6.13184C6.34375 6.59017 6.5 6.986 6.8125 7.31934ZM4.6875 2.85059C5.60417 1.93392 6.70833 1.47559 8 1.47559C9.29167 1.47559 10.3854 1.93392 11.2812 2.85059C12.1979 3.74642 12.6562 4.84017 12.6562 6.13184C12.6562 6.77767 12.4896 7.51725 12.1562 8.35059C11.8438 9.18392 11.4583 9.96517 11 10.6943C10.5417 11.4235 10.0833 12.111 9.625 12.7568C9.1875 13.3818 8.8125 13.8818 8.5 14.2568L8 14.7881C7.875 14.6423 7.70833 14.4548 7.5 14.2256C7.29167 13.9756 6.91667 13.4964 6.375 12.7881C5.83333 12.0589 5.35417 11.361 4.9375 10.6943C4.54167 10.0068 4.17708 9.236 3.84375 8.38184C3.51042 7.52767 3.34375 6.77767 3.34375 6.13184C3.34375 4.84017 3.79167 3.74642 4.6875 2.85059Z" fill="black"/>
</svg>
