<svg width="98" height="40" viewBox="0 0 98 40" fill="none" xmlns="http://www.w3.org/2000/svg">
<path d="M43.0151 35.3764V13.6305C43.8037 13.4008 44.6098 13.2367 45.4254 13.1398C46.2971 13.0435 47.1735 12.9969 48.0505 13.0002C49.7218 13.0002 51.072 13.2389 52.101 13.7164C53.1287 14.2091 53.9212 15.0865 54.3071 16.1589C54.7584 17.3049 54.984 18.876 54.984 20.872C54.984 22.9109 54.7691 24.5178 54.3393 25.6924C54.0172 26.7439 53.315 27.6377 52.3696 28.1994C51.3226 28.7164 50.1627 28.9627 48.996 28.9156C48.4539 28.911 47.9124 28.8788 47.3736 28.819C46.8605 28.7725 46.35 28.6996 45.8444 28.6005V35.3764H43.0151ZM45.8516 26.7095H48.0505C48.8578 26.7408 49.6599 26.567 50.382 26.2046C51.0424 25.8025 51.5223 25.1611 51.7214 24.4139C52.0441 23.2608 52.1879 22.0651 52.1476 20.8684C52.1897 19.6744 52.0484 18.4811 51.7285 17.33C51.5311 16.582 51.0509 15.94 50.3891 15.5393C49.6636 15.1806 48.859 15.0118 48.0505 15.0487H45.8444L45.8516 26.7095Z" fill="white"/>
<path d="M58.4579 35.3764V13.3154H61.3015V35.3764H58.4579Z" fill="white"/>
<path d="M63.9731 35.3764L68.7005 24.0307L64.4459 13.3154H67.2823L70.749 22.1398L74.2158 13.3154H77.0594L72.7976 24.0307L77.5249 35.3764H74.6885L70.749 25.9217L66.8096 35.3764H63.9731Z" fill="white"/>
<path d="M85.7191 35.6915C84.4329 35.7251 83.1651 35.3801 82.0733 34.6995C81.0562 34.0381 80.279 32.8825 79.7418 31.2327C79.2046 29.5829 78.9372 27.2873 78.9396 24.3458C78.9396 21.402 79.207 19.1063 79.7418 17.4589C80.2766 15.8115 81.0538 14.6559 82.0733 13.9922C83.1798 13.3427 84.4396 13.0002 85.7227 13.0002C87.0057 13.0002 88.2655 13.3427 89.372 13.9922C90.3796 14.6535 91.1508 15.8091 91.6856 17.4589C92.2204 19.1087 92.489 21.4043 92.4914 24.3458C92.4914 27.2849 92.2228 29.5805 91.6856 31.2327C91.1484 32.8849 90.3772 34.0405 89.372 34.6995C88.2787 35.3828 87.0079 35.728 85.7191 35.6915ZM85.7191 33.8006C86.2372 33.796 86.7441 33.6486 87.1838 33.3744C87.7311 33.0077 88.1711 32.5022 88.4588 31.9096C88.9055 31.0019 89.2042 30.0287 89.3434 29.0266C89.5751 27.4775 89.6805 25.912 89.6585 24.3458C89.6806 22.7796 89.5752 21.2141 89.3434 19.665C89.2029 18.669 88.9042 17.7018 88.4588 16.7999C88.1721 16.2067 87.7319 15.7009 87.1838 15.3352C86.7461 15.0567 86.2379 14.9087 85.7191 14.9087C85.2002 14.9087 84.6921 15.0567 84.2543 15.3352C83.7061 15.7017 83.2649 16.2072 82.9758 16.7999C82.5299 17.7077 82.2325 18.681 82.0948 19.6829C81.8611 21.2319 81.7557 22.7974 81.7796 24.3637C81.7558 25.93 81.8613 27.4956 82.0948 29.0445C82.233 30.0463 82.5304 31.0196 82.9758 31.9275C83.2659 32.5196 83.7069 33.0248 84.2543 33.3923C84.6955 33.6614 85.2023 33.8039 85.7191 33.8041V33.8006Z" fill="white"/>
<rect x="10" y="27.1429" width="12.8571" height="12.8571" fill="white"/>
<rect x="4.28571" width="21.4286" height="21.4286" fill="#748FFC"/>
<rect x="15" y="13.5714" width="21.4286" height="21.4286" fill="#BAC8FF"/>
</svg>
