<svg width="98" height="40" viewBox="0 0 98 40" fill="none" xmlns="http://www.w3.org/2000/svg">
<path d="M43.0151 24.4928V2.74687C43.8037 2.51722 44.6098 2.35311 45.4254 2.25623C46.2971 2.15989 47.1735 2.11325 48.0505 2.11656C49.7218 2.11656 51.072 2.35531 52.101 2.83283C53.1287 3.32549 53.9212 4.2029 54.3071 5.2753C54.7584 6.42133 54.984 7.99235 54.984 9.98835C54.984 12.0273 54.7691 13.6342 54.3393 14.8088C54.0172 15.8603 53.315 16.7541 52.3696 17.3158C51.3226 17.8328 50.1627 18.0791 48.996 18.032C48.4539 18.0274 47.9124 17.9951 47.3736 17.9353C46.8605 17.8889 46.35 17.816 45.8444 17.7169V24.4928H43.0151ZM45.8516 15.8259H48.0505C48.8578 15.8572 49.6599 15.6834 50.382 15.321C51.0424 14.9189 51.5223 14.2774 51.7214 13.5303C52.0441 12.3772 52.1879 11.1815 52.1476 9.98477C52.1897 8.79082 52.0484 7.59748 51.7285 6.4464C51.5311 5.69842 51.0509 5.05638 50.3891 4.65573C49.6636 4.29702 48.859 4.12821 48.0505 4.16509H45.8444L45.8516 15.8259Z" fill="#364FC7"/>
<path d="M58.4579 24.4928V2.43176H61.3015V24.4928H58.4579Z" fill="#364FC7"/>
<path d="M63.9731 24.4928L68.7005 13.1471L64.4459 2.43176H67.2823L70.749 11.2562L74.2158 2.43176H77.0594L72.7976 13.1471L77.5249 24.4928H74.6885L70.749 15.0381L66.8096 24.4928H63.9731Z" fill="#364FC7"/>
<path d="M85.719 24.8079C84.4328 24.8414 83.1651 24.4965 82.0732 23.8159C81.0561 23.1545 80.279 21.9989 79.7418 20.3491C79.2046 18.6993 78.9371 16.4037 78.9395 13.4622C78.9395 10.5183 79.2069 8.22271 79.7418 6.57529C80.2766 4.92788 81.0537 3.7723 82.0732 3.10855C83.1797 2.45906 84.4395 2.11664 85.7226 2.11664C87.0056 2.11664 88.2655 2.45906 89.372 3.10855C90.3795 3.76991 91.1507 4.92549 91.6855 6.57529C92.2203 8.2251 92.4889 10.5207 92.4913 13.4622C92.4913 16.4013 92.2227 18.6969 91.6855 20.3491C91.1483 22.0013 90.3771 23.1569 89.372 23.8159C88.2787 24.4992 87.0078 24.8443 85.719 24.8079ZM85.719 22.917C86.2372 22.9124 86.7441 22.7649 87.1838 22.4908C87.731 22.1241 88.171 21.6186 88.4587 21.026C88.9055 20.1183 89.2041 19.145 89.3433 18.143C89.575 16.5939 89.6804 15.0284 89.6585 13.4622C89.6806 11.896 89.5752 10.3305 89.3433 8.7814C89.2028 7.78539 88.9042 6.81819 88.4587 5.91633C88.1721 5.32306 87.7318 4.81731 87.1838 4.45156C86.746 4.17306 86.2379 4.02514 85.719 4.02514C85.2001 4.02514 84.692 4.17306 84.2542 4.45156C83.706 4.81813 83.2648 5.32358 82.9757 5.91633C82.5298 6.82406 82.2324 7.7974 82.0947 8.7993C81.8611 10.3483 81.7557 11.9138 81.7795 13.4801C81.7558 15.0464 81.8612 16.612 82.0947 18.1609C82.2329 19.1627 82.5304 20.136 82.9757 21.0439C83.2658 21.636 83.7068 22.1412 84.2542 22.5087C84.6954 22.7778 85.2022 22.9203 85.719 22.9205V22.917Z" fill="#364FC7"/>
<path d="M44.7306 37.7115C44.3667 37.7155 44.0043 37.6636 43.6562 37.5575C43.3655 37.4685 43.0901 37.3357 42.8396 37.1635C42.6201 37.0106 42.4141 36.8393 42.2236 36.6514L42.6749 36.0676C42.9207 36.3089 43.1949 36.5193 43.4914 36.6944C43.8538 36.8896 44.262 36.9836 44.6733 36.9666C44.9844 36.9702 45.2909 36.8911 45.5614 36.7373C45.8284 36.5838 46.0478 36.3594 46.1953 36.0891C46.3548 35.7897 46.4338 35.4541 46.4245 35.115C46.4383 34.8773 46.4045 34.6393 46.3252 34.4149C46.2459 34.1904 46.1226 33.9841 45.9625 33.8078C45.7984 33.6489 45.6035 33.5253 45.3898 33.4446C45.176 33.3639 44.948 33.3278 44.7198 33.3387C44.4754 33.3319 44.232 33.3733 44.0036 33.4604C43.776 33.5601 43.5579 33.6799 43.3518 33.8186L42.8647 33.5141L43.1225 29.8003H46.9331V30.5667H43.8997L43.6812 32.9877C43.868 32.8879 44.0634 32.8052 44.265 32.7406C44.4787 32.6766 44.7009 32.6452 44.924 32.6475C45.342 32.6425 45.7558 32.7318 46.1345 32.9089C46.4864 33.0863 46.779 33.3626 46.9761 33.704C47.2065 34.1246 47.3179 34.6 47.2984 35.0792C47.3162 35.5809 47.192 36.0774 46.9403 36.5117C46.7101 36.8926 46.3792 37.2025 45.984 37.4071C45.5964 37.6068 45.1667 37.7112 44.7306 37.7115Z" fill="black" fill-opacity="0.38"/>
<path d="M48.6987 37.5647V37.0418C49.4938 36.236 50.1706 35.5341 50.7222 34.9288C51.1982 34.432 51.6229 33.8885 51.99 33.3065C52.2518 32.8981 52.399 32.4268 52.4161 31.942C52.4358 31.5374 52.3086 31.1393 52.058 30.821C51.9097 30.6659 51.7284 30.5461 51.5275 30.4705C51.3267 30.3949 51.1114 30.3654 50.8976 30.3841C50.5715 30.3839 50.2521 30.4771 49.9772 30.6527C49.6823 30.8336 49.4207 31.0637 49.2037 31.3332L48.6808 30.821C48.9829 30.4905 49.3315 30.2057 49.7158 29.9758C50.1087 29.7544 50.5541 29.643 51.0051 29.6535C51.4303 29.6429 51.8514 29.7389 52.2299 29.9329C52.5657 30.1113 52.842 30.3839 53.025 30.7172C53.2209 31.0822 53.3184 31.492 53.3079 31.9062C53.2992 32.4334 53.1536 32.9493 52.8853 33.4032C52.5567 33.9766 52.1677 34.5133 51.7249 35.004C51.2271 35.5699 50.6505 36.1859 50.031 36.8627C50.2423 36.8627 50.4607 36.8305 50.6899 36.8198C50.9191 36.809 51.1304 36.8198 51.3346 36.8198H53.6839V37.5862L48.6987 37.5647Z" fill="black" fill-opacity="0.38"/>
<path d="M57.541 37.7115C57.0948 37.7181 56.6529 37.6238 56.2482 37.4358C55.8859 37.2678 55.5754 37.0056 55.3492 36.6765C55.1548 36.38 55.0421 36.0374 55.0226 35.6833C55.0031 35.3293 55.0775 34.9763 55.2382 34.6602C55.3793 34.3895 55.5686 34.1467 55.7969 33.944C56.0156 33.7518 56.256 33.586 56.5132 33.4498V33.3996C56.2215 33.1941 55.9641 32.9439 55.7504 32.6583C55.5256 32.3567 55.4084 31.9885 55.4173 31.6125C55.4079 31.2445 55.5076 30.8819 55.7038 30.5704C55.8924 30.2748 56.1588 30.0369 56.4738 29.8827C56.8146 29.7158 57.1902 29.6323 57.5697 29.6392C57.8593 29.6268 58.1486 29.6723 58.4204 29.7732C58.6922 29.8741 58.9412 30.0282 59.1526 30.2265C59.3438 30.4212 59.4935 30.6527 59.5926 30.907C59.6917 31.1612 59.7382 31.4329 59.7292 31.7056C59.7313 31.9759 59.6712 32.243 59.5537 32.4864C59.4487 32.72 59.3139 32.9391 59.1526 33.1382C59.0054 33.3083 58.8436 33.4652 58.6691 33.6073V33.6646C58.898 33.8042 59.1159 33.9611 59.321 34.1338C59.5292 34.3099 59.7008 34.5253 59.8259 34.7677C59.9641 35.0416 60.0318 35.3456 60.0229 35.6523C60.0266 36.0232 59.9207 36.387 59.7185 36.698C59.5016 37.0187 59.2022 37.2748 58.8518 37.4394C58.443 37.6338 57.9934 37.7271 57.541 37.7115ZM57.5625 37.0418C57.8512 37.0483 58.1373 36.9857 58.397 36.8592C58.6271 36.7456 58.8216 36.5709 58.9592 36.3542C59.0908 36.1385 59.1602 35.8906 59.1598 35.6379C59.1729 35.3197 59.064 35.0084 58.8554 34.7677C58.6273 34.5289 58.3532 34.3388 58.0496 34.209C57.7165 34.0586 57.362 33.9046 56.9752 33.7506C56.6603 33.9533 56.3828 34.209 56.1551 34.5062C55.9317 34.795 55.813 35.1511 55.8184 35.5162C55.8153 35.7952 55.8937 36.069 56.044 36.3041C56.1993 36.538 56.4145 36.726 56.6672 36.8484C56.9454 36.9849 57.2528 37.0513 57.5625 37.0418ZM58.0782 33.3745C58.341 33.1516 58.5649 32.8866 58.7408 32.5902C58.8859 32.3295 58.9623 32.0362 58.9628 31.7379C58.9651 31.4899 58.9099 31.2447 58.8017 31.0216C58.6929 30.8062 58.5252 30.6262 58.3182 30.5023C58.0844 30.3717 57.8194 30.3073 57.5518 30.3161C57.3788 30.3097 57.2063 30.3381 57.0445 30.3996C56.8827 30.4611 56.7349 30.5545 56.6099 30.6742C56.4874 30.798 56.3923 30.9462 56.3306 31.109C56.2689 31.2718 56.2421 31.4458 56.2517 31.6197C56.2419 31.9073 56.3346 32.1891 56.5132 32.4147C56.6994 32.6361 56.9284 32.8176 57.1865 32.9484C57.4694 33.1059 57.7702 33.2456 58.0782 33.3745Z" fill="black" fill-opacity="0.38"/>
<path d="M61.4232 37.5647V36.8198H63.2139V30.9141H61.8028V30.3447C62.1125 30.2893 62.4177 30.2115 62.7161 30.1119C62.9643 30.0299 63.2041 29.9243 63.4324 29.7968H64.1128V36.8198H65.7316V37.5647H61.4232Z" fill="black" fill-opacity="0.38"/>
<path d="M70.3371 40V32.232L70.1796 30.7995H71.1036L71.2755 32.232V40H70.3371Z" fill="black" fill-opacity="0.38"/>
<path d="M75.2078 37.5647L75.1111 36.8197C75.3782 36.7901 75.6412 36.7312 75.8954 36.6442C76.1443 36.5582 76.3707 36.4175 76.558 36.2324C76.7822 36.0039 76.9534 35.7287 77.0594 35.4266C77.2007 34.9992 77.2838 34.5547 77.3065 34.1051L77.5142 31.548H73.1199V30.7995H78.4919L78.4561 31.4692L78.2591 33.9153C78.24 34.4528 78.1435 34.9847 77.9726 35.4946C77.8354 35.9059 77.6215 36.2875 77.3423 36.6192C77.0851 36.9142 76.7643 37.1469 76.404 37.2996C76.0246 37.4597 75.6193 37.5495 75.2078 37.5647ZM73.1378 40V34.1051L73.2703 33.2778H74.0761V40H73.1378Z" fill="black" fill-opacity="0.38"/>
<path d="M79.7991 37.733L79.7024 37.0633C79.9723 37.0495 80.2355 36.9748 80.4724 36.8448C80.6528 36.7343 80.7895 36.5648 80.8592 36.3649C80.9366 36.1183 80.9729 35.8606 80.9666 35.6021V30.7995H83.9499C84.3199 30.7899 84.6873 30.8646 85.0243 31.018C85.335 31.1719 85.5867 31.4235 85.7405 31.7343C85.932 32.1488 86.0217 32.6031 86.002 33.0594V37.5539H85.0672V33.0343C85.0909 32.8261 85.0713 32.6152 85.0096 32.415C84.948 32.2147 84.8457 32.0293 84.7091 31.8704C84.4425 31.646 84.1009 31.5308 83.7529 31.548H81.9157V35.4875C81.9297 35.8957 81.8526 36.3019 81.69 36.6765C81.5463 36.9823 81.3076 37.2336 81.0096 37.3928C80.6337 37.5879 80.2216 37.7038 79.7991 37.733Z" fill="black" fill-opacity="0.38"/>
<path d="M87.6386 31.548V28.8334H88.491V31.548H87.6386ZM89.0711 37.5647L91.4205 31.548H87.6386V30.7995H92.3517V31.591L90.0023 37.5575L89.0711 37.5647Z" fill="black" fill-opacity="0.38"/>
<rect x="10" y="27.1429" width="12.8571" height="12.8571" fill="#DBE4FF"/>
<rect x="4.28571" width="21.4286" height="21.4286" fill="#748FFC"/>
<rect x="15" y="13.5714" width="21.4286" height="21.4286" fill="#364FC7"/>
</svg>
